<svg width="375" height="479" viewBox="0 0 375 479" fill="none" xmlns="http://www.w3.org/2000/svg">
<path fill-rule="evenodd" clip-rule="evenodd" d="M176.667 152.722C207.777 144.298 242.021 127.572 271.021 141.101C299.885 154.566 300.781 192.783 317.74 218.536C337.874 249.111 381.042 270.615 379.981 306.559C378.93 342.128 336.129 361.914 312.681 389.852C287.841 419.448 276.15 463.79 238.074 475.637C199.984 487.489 159.587 465.501 123.688 448.657C92.419 433.986 70.2738 409.127 45.9848 385.509C20.1921 360.429 -15.0138 340.132 -22.9597 306.06C-31.0385 271.419 -23.3236 229.507 3.86904 204.919C30.8755 180.5 76.116 194.993 111.794 184.215C135.445 177.071 152.796 159.186 176.667 152.722Z" fill="#E1E1E1"/>
<path d="M359.728 229.646C357.594 229.414 355.063 232.334 354.256 234.085C354.187 234.236 353.407 236.719 353.448 236.719H353.49C353.086 237.177 352.662 237.669 352.204 238.224C351.376 239.243 350.453 240.399 349.529 241.726C349.529 239.674 349.146 235.385 346.424 235.125C342.833 234.783 341.807 238.887 344.03 241.11C344.661 241.699 345.402 242.158 346.211 242.46C347.019 242.761 347.88 242.9 348.743 242.868C348.059 243.901 347.375 245.002 346.691 246.199C345.735 247.916 344.936 249.715 344.303 251.575V251.644C344.303 251.014 344.303 249.256 344.269 249.126C344.023 247.225 342.429 243.702 340.323 243.312C339.971 243.257 339.611 243.277 339.268 243.37C338.924 243.463 338.604 243.628 338.329 243.853C338.053 244.078 337.828 244.359 337.668 244.678C337.509 244.996 337.418 245.344 337.402 245.7C337.272 247.204 338.366 248.716 339.454 249.667C340.658 250.741 343.996 251.78 344.242 251.862C343.643 253.769 343.172 255.714 342.833 257.683C342.628 258.832 342.457 259.995 342.299 261.158C342.299 260.618 342.299 260.132 342.299 260.064C342.053 258.169 340.459 254.646 338.353 254.256C338.001 254.2 337.642 254.219 337.298 254.311C336.955 254.404 336.635 254.567 336.359 254.792C336.083 255.017 335.858 255.297 335.698 255.615C335.538 255.933 335.448 256.281 335.432 256.637C335.302 258.148 336.396 259.653 337.484 260.611C338.571 261.568 341.396 262.519 342.149 262.759C342.087 263.203 342.033 263.655 341.978 264.127C341.718 266.281 341.472 268.429 341.164 270.529C341.061 271.268 340.924 271.993 340.794 272.718C340.794 272.232 340.794 271.828 340.794 271.767C340.548 269.865 338.961 266.343 336.848 265.953C336.496 265.898 336.137 265.917 335.793 266.01C335.45 266.104 335.129 266.268 334.854 266.494C334.578 266.719 334.353 267 334.193 267.318C334.034 267.636 333.943 267.984 333.927 268.34C333.804 269.852 334.898 271.356 335.979 272.307C337.06 273.258 339.618 274.127 340.507 274.414C340.35 275.153 340.199 275.898 340.015 276.603C339.871 277.088 339.775 277.56 339.611 278.032C339.447 278.504 339.303 278.976 339.16 279.441C338.831 280.331 338.51 281.24 338.175 282.095C337.942 282.697 337.716 283.258 337.491 283.826C337.607 283.094 337.805 281.651 337.805 281.528C337.779 279.845 337.324 278.198 336.485 276.74C336.491 276.552 336.479 276.364 336.451 276.179C336.406 275.826 336.287 275.487 336.103 275.183C335.918 274.88 335.672 274.618 335.38 274.415C335.088 274.213 334.756 274.074 334.407 274.008C334.058 273.942 333.699 273.95 333.353 274.031C331.301 274.585 329.967 278.217 329.864 280.125C329.864 280.242 329.933 281.493 329.994 282.246C329.892 281.794 329.796 281.357 329.679 280.878C329.461 279.961 329.221 279.051 328.961 278.073L328.53 276.657C328.4 276.179 328.195 275.693 328.031 275.207C327.621 274.086 327.156 272.971 326.663 271.863C327.463 271.671 330.302 270.946 331.451 270.071C332.6 269.195 333.79 267.779 333.777 266.261C333.786 265.905 333.721 265.552 333.585 265.223C333.449 264.894 333.246 264.598 332.987 264.354C332.729 264.109 332.423 263.922 332.087 263.804C331.752 263.685 331.395 263.639 331.041 263.668C328.907 263.901 327.06 267.294 326.677 269.14C326.677 269.257 326.526 270.631 326.472 271.391C326.164 270.707 325.863 270.023 325.534 269.393C324.584 267.471 323.558 265.563 322.545 263.648C322.231 263.066 321.93 262.478 321.629 261.89C321.916 261.828 325.302 261.042 326.581 260.064C327.716 259.188 328.913 257.765 328.907 256.254C328.915 255.898 328.849 255.545 328.713 255.217C328.577 254.888 328.373 254.592 328.115 254.347C327.858 254.102 327.551 253.914 327.216 253.795C326.881 253.675 326.525 253.628 326.171 253.655C324.043 253.887 322.197 257.287 321.807 259.161C321.807 259.298 321.601 261.281 321.581 261.787C320.897 260.495 320.247 259.202 319.652 257.895C318.841 256.143 318.142 254.34 317.559 252.499C317.696 252.464 321.239 251.657 322.545 250.659C323.681 249.79 324.885 248.367 324.871 246.849C324.881 246.493 324.816 246.14 324.68 245.811C324.544 245.483 324.34 245.186 324.082 244.942C323.824 244.697 323.517 244.51 323.181 244.392C322.846 244.274 322.489 244.227 322.135 244.256C320.001 244.489 318.154 247.882 317.764 249.728C317.764 249.852 317.6 251.356 317.552 252.081H317.429C316.898 250.211 316.534 248.298 316.341 246.363C316.225 245.296 316.17 244.27 316.136 243.278C316.82 243.189 319.891 242.779 321.171 242.013C322.45 241.247 323.742 239.961 323.907 238.483C323.955 238.131 323.928 237.772 323.829 237.43C323.73 237.088 323.56 236.771 323.33 236.499C323.101 236.227 322.817 236.006 322.497 235.851C322.176 235.696 321.827 235.609 321.471 235.597C319.324 235.597 317.114 238.764 316.526 240.59C316.492 240.686 316.28 241.726 316.129 242.492C316.129 242.04 316.129 241.575 316.129 241.124C316.129 239.503 316.239 238.018 316.341 236.705C316.403 235.959 316.471 235.282 316.547 234.653C317.169 234.229 319.645 232.478 320.411 231.233C321.177 229.988 321.779 228.251 321.205 226.849C321.086 226.513 320.898 226.206 320.653 225.948C320.408 225.69 320.111 225.486 319.782 225.35C319.452 225.215 319.098 225.15 318.742 225.161C318.387 225.172 318.037 225.257 317.716 225.412C315.815 226.397 315.309 230.2 315.623 232.115C315.623 232.28 316.376 234.783 316.403 234.762H316.444C316.362 235.364 316.273 236.014 316.198 236.726C316.068 238.039 315.931 239.523 315.897 241.151C315.897 241.452 315.897 241.76 315.897 242.068C315.076 240.809 312.477 237.28 309.741 238.025C306.369 238.935 307.149 241.917 309.871 242.567C311.87 242.925 313.918 242.925 315.917 242.567C315.917 243.791 315.917 245.084 316.061 246.418C316.212 248.377 316.54 250.318 317.039 252.218C317.035 252.241 317.035 252.264 317.039 252.287C316.697 251.76 315.671 250.31 315.616 250.235C314.365 248.784 311.095 246.726 309.125 247.56C308.801 247.708 308.512 247.923 308.276 248.19C308.04 248.457 307.863 248.771 307.757 249.111C307.65 249.451 307.617 249.809 307.658 250.163C307.699 250.517 307.815 250.858 307.997 251.165C308.729 252.492 310.473 253.148 311.889 253.354C313.482 253.586 316.841 252.615 317.108 252.533C317.661 254.456 318.347 256.34 319.16 258.169C319.618 259.236 320.117 260.303 320.63 261.356C320.322 260.912 320.049 260.515 320.001 260.46C318.749 259.01 315.48 256.951 313.51 257.793C313.186 257.94 312.896 258.154 312.661 258.42C312.425 258.687 312.248 259 312.142 259.34C312.035 259.679 312.001 260.037 312.043 260.391C312.084 260.744 312.199 261.085 312.381 261.391C313.113 262.718 314.857 263.374 316.273 263.579C317.689 263.785 320.582 263.019 321.342 262.8L321.943 264.017C322.915 265.953 323.893 267.882 324.796 269.797C325.117 270.481 325.404 271.165 325.692 271.849C325.425 271.452 325.192 271.117 325.151 271.076C323.9 269.626 320.623 267.567 318.653 268.402C318.329 268.549 318.04 268.764 317.804 269.031C317.568 269.298 317.392 269.613 317.286 269.953C317.18 270.293 317.147 270.652 317.189 271.006C317.232 271.36 317.348 271.701 317.532 272.006C318.257 273.333 320.001 273.99 321.417 274.195C322.833 274.4 325.452 273.703 326.355 273.456C326.629 274.14 326.909 274.859 327.149 275.549C327.299 276.028 327.477 276.48 327.6 276.965C327.723 277.451 327.867 277.923 327.997 278.395C328.223 279.305 328.455 280.249 328.647 281.131C328.783 281.753 328.9 282.348 329.023 282.95C328.715 282.266 328.086 280.96 328.017 280.857C326.998 279.236 324.078 276.705 322.005 277.232C321.659 277.329 321.338 277.499 321.063 277.729C320.787 277.96 320.563 278.246 320.406 278.569C320.249 278.892 320.163 279.245 320.152 279.604C320.141 279.963 320.206 280.32 320.343 280.652C320.863 282.075 322.491 282.984 323.859 283.388C325.363 283.846 328.695 283.388 329.112 283.388C329.31 284.387 329.495 285.358 329.652 286.275C330.213 289.455 330.562 292.13 330.781 293.997C330.815 294.332 330.849 294.626 330.876 294.907H324.426L325.876 323.183H338.681L340.131 294.907H333.968L334.105 294.633C334.926 292.916 336.075 290.447 337.306 287.424C337.703 286.473 338.1 285.447 338.503 284.387C338.907 284.469 342.204 285.139 343.743 284.79C345.111 284.476 346.821 283.689 347.45 282.314C347.607 281.994 347.695 281.645 347.709 281.289C347.722 280.934 347.661 280.579 347.529 280.248C347.397 279.917 347.197 279.618 346.941 279.369C346.686 279.121 346.382 278.929 346.048 278.805C343.996 278.121 340.918 280.433 339.775 281.972C339.714 282.061 339.091 283.128 338.715 283.805C338.879 283.374 339.037 282.957 339.201 282.506C339.522 281.623 339.823 280.734 340.145 279.77C340.288 279.298 340.425 278.826 340.569 278.347C340.712 277.868 340.822 277.362 340.952 276.863C341.225 275.707 341.451 274.517 341.636 273.313C342.409 273.593 345.179 274.558 346.608 274.455C348.038 274.352 349.823 273.833 350.651 272.567C350.855 272.275 350.996 271.944 351.064 271.594C351.132 271.244 351.125 270.884 351.045 270.536C350.964 270.189 350.811 269.863 350.596 269.579C350.381 269.295 350.108 269.059 349.796 268.887C347.894 267.902 344.474 269.715 343.12 271.069C343.038 271.151 342.169 272.225 341.711 272.827C341.82 272.109 341.937 271.384 342.033 270.645C342.292 268.525 342.498 266.363 342.717 264.209L342.922 262.239C343.195 262.341 346.458 263.552 348.065 263.443C349.488 263.34 351.28 262.82 352.101 261.548C352.306 261.257 352.447 260.926 352.515 260.577C352.583 260.228 352.577 259.869 352.497 259.522C352.417 259.175 352.265 258.85 352.051 258.566C351.836 258.282 351.564 258.047 351.253 257.875C349.344 256.89 345.931 258.702 344.577 260.05C344.474 260.153 343.209 261.705 342.935 262.102C343.086 260.659 343.257 259.215 343.476 257.8C343.762 255.889 344.176 253.999 344.714 252.143C344.837 252.191 348.236 253.47 349.878 253.354C351.308 253.258 353.093 252.731 353.92 251.466C354.125 251.174 354.266 250.842 354.334 250.492C354.401 250.142 354.395 249.782 354.314 249.435C354.234 249.088 354.081 248.762 353.865 248.477C353.65 248.193 353.378 247.958 353.065 247.786C351.164 246.808 347.751 248.614 346.39 249.968C346.301 250.057 345.357 251.233 344.919 251.808L344.81 251.753C345.396 249.897 346.15 248.098 347.06 246.377C347.546 245.426 348.065 244.537 348.592 243.689C349.201 243.996 352.012 245.351 353.483 245.412C354.953 245.474 356.745 245.146 357.71 243.976C357.945 243.708 358.121 243.395 358.226 243.055C358.332 242.715 358.365 242.356 358.323 242.003C358.281 241.649 358.165 241.308 357.983 241.003C357.801 240.697 357.556 240.433 357.265 240.228C355.48 239.044 351.889 240.467 350.391 241.657L349.55 242.485C349.55 242.396 349.55 242.293 349.55 242.17L349.734 241.897C350.63 240.529 351.533 239.366 352.34 238.326C352.806 237.738 353.236 237.218 353.647 236.732C354.399 236.732 357.429 236.623 358.756 236.001C360.083 235.378 361.533 234.263 361.848 232.779C361.935 232.433 361.948 232.072 361.886 231.72C361.824 231.369 361.688 231.034 361.488 230.738C361.288 230.443 361.028 230.193 360.724 230.004C360.421 229.816 360.081 229.694 359.728 229.646ZM336.13 286.897C334.844 289.859 333.66 292.28 332.805 293.963L332.333 294.872H332.197C332.149 294.544 332.108 294.188 332.053 293.785C331.793 291.897 331.369 289.209 330.747 286.008C330.548 284.995 330.316 283.915 330.063 282.813C331.067 282.416 332.047 281.959 332.997 281.445C334.091 282.629 336.903 284.017 337.265 284.181C336.882 285.132 336.506 286.042 336.13 286.897ZM349.167 242.854L349.002 243.018L349.105 242.861L349.167 242.854Z" fill="#263238"/>
<path opacity="0.3" d="M255.712 202.512C254.935 205.553 255.125 208.76 256.256 211.688C257.386 214.616 259.401 217.12 262.019 218.85C264.638 220.58 267.731 221.451 270.867 221.343C274.004 221.234 277.029 220.151 279.522 218.244L285.37 223.839C285.223 224.446 285.236 225.08 285.409 225.68C285.582 226.279 285.908 226.824 286.355 227.259L299.084 239.742C299.42 240.094 299.824 240.375 300.271 240.568C300.718 240.761 301.199 240.862 301.686 240.864C302.172 240.867 302.655 240.771 303.104 240.583C303.553 240.394 303.959 240.117 304.298 239.768C304.637 239.419 304.903 239.005 305.079 238.551C305.254 238.097 305.336 237.613 305.32 237.126C305.304 236.64 305.19 236.161 304.985 235.72C304.779 235.278 304.487 234.883 304.125 234.557L291.43 222.061C290.972 221.618 290.404 221.306 289.785 221.154C289.167 221.003 288.519 221.018 287.908 221.199L282.155 215.686C283.533 213.994 284.523 212.021 285.055 209.906C285.583 207.968 285.718 205.944 285.454 203.953C285.19 201.962 284.532 200.043 283.518 198.309C282.505 196.575 281.155 195.061 279.55 193.854C277.944 192.648 276.114 191.773 274.166 191.282C272.219 190.791 270.193 190.692 268.207 190.993C266.221 191.293 264.315 191.987 262.6 193.032C260.885 194.078 259.396 195.455 258.219 197.082C257.042 198.71 256.201 200.556 255.746 202.512H255.712ZM282.388 209.242C281.791 211.624 280.5 213.774 278.681 215.422C276.861 217.07 274.593 218.14 272.164 218.499C269.735 218.857 267.255 218.487 265.037 217.435C262.819 216.383 260.962 214.697 259.703 212.59C258.443 210.483 257.837 208.049 257.961 205.597C258.085 203.145 258.934 200.785 260.399 198.816C261.865 196.847 263.882 195.356 266.195 194.534C268.508 193.711 271.013 193.593 273.393 194.194C276.578 195.003 279.313 197.04 281 199.86C282.687 202.68 283.188 206.054 282.395 209.242H282.388Z" stroke="black" stroke-miterlimit="10"/>
<g opacity="0.3">
<path d="M200.238 40.0345C202.608 34.6492 207.005 30.4146 212.475 28.2483C217.946 26.0819 224.049 26.1583 229.464 28.4608C234.878 30.7633 239.167 35.1066 241.402 40.5494C243.636 45.9923 243.636 52.0965 241.401 57.5392C239.166 62.982 234.877 67.325 229.462 69.6272C224.048 71.9294 217.944 72.0054 212.474 69.8388C207.004 67.6721 202.608 63.4372 200.238 58.0518C197.868 52.6664 197.716 46.5642 199.814 41.0673" stroke="black" stroke-miterlimit="10"/>
<path d="M199.979 39.9387C202.407 34.3211 206.95 29.8867 212.625 27.5969C218.301 25.3071 224.65 25.3464 230.296 27.7064C235.942 30.0664 240.431 34.5568 242.788 40.2041C245.146 45.8513 245.182 52.2003 242.89 57.8744C240.598 63.5485 236.162 68.0905 230.543 70.5156C224.924 72.9407 218.576 73.0534 212.875 70.8293C207.174 68.6052 202.579 64.2236 200.087 58.6344C197.595 53.0452 197.406 46.699 199.562 40.9716" stroke="black" stroke-width="0.5" stroke-miterlimit="10"/>
<path d="M205.985 42.2028C207.827 38.0999 211.209 34.8859 215.4 33.2537C219.591 31.6216 224.256 31.7021 228.389 33.478C232.521 35.2539 235.79 38.5828 237.49 42.7468C239.19 46.9108 239.185 51.5763 237.477 55.7369C235.769 59.8976 232.493 63.2201 228.358 64.9879C224.222 66.7557 219.557 66.8271 215.369 65.1867C211.181 63.5464 207.806 60.3257 205.971 56.2192C204.136 52.1128 203.989 47.4497 205.56 43.2356" stroke="black" stroke-miterlimit="10"/>
<path d="M205.731 42.107C207.469 38.2838 210.559 35.2382 214.407 33.556C218.255 31.8738 222.589 31.6738 226.576 32.9945C230.563 34.3152 233.92 37.0634 236.002 40.7103C238.085 44.3573 238.745 48.6455 237.857 52.75C236.968 56.8545 234.593 60.4855 231.189 62.9445C227.784 65.4036 223.591 66.5169 219.415 66.0704C215.239 65.624 211.376 63.6492 208.568 60.5261C205.761 57.4029 204.207 53.3519 204.206 49.1522C204.201 47.0953 204.574 45.0549 205.307 43.133" stroke="black" stroke-width="0.5" stroke-miterlimit="10"/>
<path d="M213.324 45.0003C214.402 42.9693 216.228 41.4375 218.415 40.7291C220.603 40.0207 222.98 40.1914 225.044 41.2049C227.107 42.2185 228.696 43.9954 229.473 46.1595C230.249 48.3237 230.153 50.7051 229.205 52.7998C228.257 54.8944 226.531 56.5378 224.392 57.3821C222.253 58.2265 219.87 58.2054 217.747 57.3234C215.623 56.4414 213.927 54.7677 213.015 52.6566C212.104 50.5455 212.051 48.1627 212.866 46.0126V45.9648" stroke="black" stroke-miterlimit="10"/>
<path d="M212.968 45.0893L213.071 44.8772C214.16 42.8405 215.999 41.3076 218.199 40.6031C220.399 39.8985 222.786 40.0775 224.856 41.1022C226.926 42.127 228.517 43.917 229.29 46.0934C230.064 48.2698 229.96 50.6618 229.001 52.7631C228.042 54.8644 226.303 56.5101 224.152 57.3518C222.001 58.1935 219.607 58.1653 217.476 57.273C215.346 56.3807 213.646 54.6944 212.737 52.5711C211.828 50.4477 211.781 48.0539 212.606 45.8964" stroke="black" stroke-width="0.5" stroke-miterlimit="10"/>
<path d="M213.474 45.0277H213.399H213.331L213.077 44.9251L205.984 42.2028L205.731 42.107L200.259 40.055L199.999 39.9593L191.148 36.6213L191.586 33.3518C191.593 33.2918 191.581 33.231 191.552 33.1782C191.522 33.1254 191.477 33.0832 191.422 33.0577L184.425 29.925C184.375 29.9024 184.32 29.8947 184.266 29.9029C184.212 29.911 184.162 29.9347 184.122 29.9709C184.081 30.0072 184.052 30.0545 184.038 30.1071C184.023 30.1596 184.025 30.2152 184.042 30.267L185.464 34.4736L184.418 34.0769C184.282 34.0356 184.135 34.0475 184.008 34.1102C183.88 34.1729 183.781 34.2818 183.73 34.4148C183.68 34.5477 183.682 34.6948 183.736 34.8264C183.79 34.958 183.892 35.0641 184.021 35.1234L185.109 35.5338L181.846 38.0441C181.802 38.078 181.77 38.1238 181.751 38.176C181.733 38.2282 181.73 38.2845 181.743 38.3382C181.758 38.3906 181.788 38.4375 181.829 38.4729C181.871 38.5082 181.922 38.5304 181.976 38.5365L189.821 39.7472H189.856C189.913 39.7474 189.969 39.7306 190.016 39.699C190.064 39.6673 190.101 39.6222 190.122 39.5694L190.861 37.6952L199.562 40.9716L199.815 41.0673L205.287 43.1193L205.54 43.2219L212.592 45.8827L212.852 45.9785L213.057 46.0605" stroke="black" stroke-miterlimit="10"/>
<path d="M213.324 45.0003H213.399H213.474L218.515 46.9019L219.069 45.2397C219.106 45.1297 219.177 45.0342 219.272 44.9667C219.366 44.8992 219.48 44.8631 219.596 44.8635C219.714 44.8645 219.83 44.9036 219.925 44.975C220.019 45.0464 220.089 45.1464 220.122 45.2603L221.107 48.564C221.155 48.6924 221.152 48.8339 221.1 48.9605C221.048 49.0871 220.951 49.1897 220.827 49.248L218.303 50.5065C218.227 50.5461 218.143 50.5672 218.057 50.5681C217.969 50.568 217.882 50.5471 217.803 50.507C217.724 50.467 217.656 50.4089 217.604 50.3376C217.552 50.2663 217.518 50.1837 217.504 50.0966C217.49 50.0095 217.496 49.9203 217.523 49.8362L218.132 48.0168L213.05 46.1016C212.98 46.0721 212.917 46.0278 212.865 45.9716" stroke="black" stroke-miterlimit="10"/>
</g>
<path opacity="0.3" d="M143.242 284.852L149.398 286.254L150.821 280.023L144.918 278.655C144.918 278.477 144.918 278.306 144.918 278.128C144.92 276.232 144.541 274.355 143.803 272.608L148.591 268.791L144.603 263.791L140.02 267.444C138.417 266.051 136.517 265.041 134.466 264.489V258.552H128.084V264.284C125.978 264.699 123.993 265.59 122.284 266.89L117.653 263.196L113.659 268.196L118.18 271.808C117.228 273.703 116.713 275.788 116.675 277.909L110.786 279.277L112.209 285.515L118.023 284.188C118.901 286.059 120.178 287.714 121.764 289.038L119.028 294.654L124.788 297.431L127.448 291.904C128.535 292.167 129.648 292.302 130.766 292.307C131.668 292.308 132.568 292.221 133.454 292.047L136.19 297.773L141.949 294.996L139.268 289.435C140.909 288.213 142.265 286.649 143.242 284.852ZM124.521 278.149C124.52 276.906 124.887 275.691 125.576 274.658C126.266 273.624 127.246 272.818 128.394 272.342C129.542 271.866 130.805 271.741 132.023 271.983C133.242 272.225 134.361 272.823 135.24 273.702C136.119 274.58 136.717 275.7 136.959 276.918C137.201 278.137 137.076 279.4 136.6 280.548C136.124 281.695 135.318 282.676 134.284 283.366C133.251 284.055 132.036 284.422 130.793 284.421C129.13 284.421 127.534 283.76 126.358 282.584C125.182 281.407 124.521 279.812 124.521 278.149Z" stroke="black" stroke-linecap="round" stroke-linejoin="round"/>
<path opacity="0.3" d="M155.027 254.195L160.068 255.351L161.237 250.235L156.388 249.126C156.388 248.983 156.388 248.839 156.388 248.696C156.388 247.14 156.076 245.6 155.471 244.167L159.397 241.035L156.128 236.931L152.366 239.927C151.048 238.789 149.491 237.961 147.81 237.505V232.615H142.585V237.348C140.845 237.683 139.206 238.416 137.797 239.489L134 236.459L130.724 240.563L134.431 243.518C133.647 245.074 133.226 246.789 133.2 248.531L128.364 249.633L129.534 254.749L134.322 253.661C135.039 255.199 136.088 256.559 137.393 257.642L135.177 262.252L139.903 264.523L142.085 259.995C142.982 260.21 143.9 260.32 144.821 260.324C145.561 260.323 146.298 260.252 147.024 260.111L149.288 264.776L154.014 262.499L151.812 257.93C153.138 256.929 154.234 255.655 155.027 254.195ZM139.664 248.723C139.664 247.704 139.966 246.708 140.532 245.861C141.098 245.014 141.902 244.354 142.843 243.964C143.785 243.575 144.82 243.473 145.819 243.671C146.818 243.87 147.736 244.361 148.456 245.081C149.177 245.801 149.667 246.719 149.866 247.718C150.065 248.717 149.963 249.753 149.573 250.694C149.183 251.635 148.523 252.439 147.676 253.005C146.829 253.571 145.833 253.873 144.814 253.873C144.136 253.873 143.464 253.739 142.837 253.479C142.21 253.218 141.641 252.836 141.163 252.355C140.684 251.874 140.305 251.303 140.048 250.675C139.791 250.047 139.66 249.374 139.664 248.696V248.723Z" stroke="black" stroke-linecap="round" stroke-linejoin="round"/>
<g opacity="0.3">
<path d="M105.945 36.428C108.684 29.8143 105.544 22.2321 98.9299 19.4926C92.3162 16.7531 84.7339 19.8938 81.9944 26.5075C79.255 33.1212 82.3956 40.7034 89.0093 43.4429C95.623 46.1824 103.205 43.0417 105.945 36.428Z" stroke="black" stroke-miterlimit="10"/>
<path d="M98.2685 30.5953H89.8211C89.0295 30.5953 88.2703 30.9093 87.7099 31.4684C87.1496 32.0275 86.8338 32.786 86.832 33.5775V40.6638C88.8972 42.2705 91.4439 43.1337 94.0604 43.1138C96.6769 43.0939 99.2102 42.1922 101.251 40.5543V33.5775C101.251 33.1859 101.174 32.7981 101.024 32.4363C100.874 32.0745 100.654 31.7457 100.377 31.4688C100.1 31.1919 99.7716 30.9722 99.4098 30.8223C99.0479 30.6724 98.6601 30.5953 98.2685 30.5953Z" stroke="black" stroke-miterlimit="10"/>
<path d="M93.8844 29.282C94.734 29.282 95.5645 29.0301 96.2708 28.5581C96.9772 28.0861 97.5278 27.4152 97.8529 26.6303C98.178 25.8454 98.2631 24.9817 98.0974 24.1485C97.9316 23.3152 97.5225 22.5498 96.9218 21.9491C96.321 21.3484 95.5556 20.9393 94.7224 20.7735C93.8892 20.6078 93.0255 20.6928 92.2406 21.018C91.4557 21.3431 90.7848 21.8936 90.3128 22.6C89.8408 23.3064 89.5889 24.1369 89.5889 24.9865C89.5889 26.1257 90.0414 27.2183 90.847 28.0239C91.6526 28.8295 92.7451 29.282 93.8844 29.282Z" stroke="black" stroke-miterlimit="10"/>
</g>
<g opacity="0.3">
<path d="M185.946 129.612C188.701 123.005 185.579 115.415 178.972 112.659C172.365 109.904 164.775 113.026 162.02 119.633C159.264 126.24 162.386 133.83 168.993 136.585C175.6 139.341 183.19 136.219 185.946 129.612Z" stroke="black" stroke-miterlimit="10"/>
<path d="M178.283 123.749H169.808C169.017 123.749 168.258 124.063 167.697 124.622C167.137 125.181 166.821 125.94 166.819 126.732V133.818C168.885 135.424 171.431 136.288 174.048 136.268C176.664 136.248 179.198 135.346 181.238 133.708V126.732C181.238 125.945 180.928 125.191 180.374 124.632C179.821 124.074 179.069 123.756 178.283 123.749Z" stroke="black" stroke-miterlimit="10"/>
<path d="M173.913 122.436C174.762 122.436 175.593 122.184 176.299 121.712C177.006 121.24 177.556 120.569 177.881 119.784C178.206 118.999 178.291 118.136 178.126 117.302C177.96 116.469 177.551 115.704 176.95 115.103C176.349 114.502 175.584 114.093 174.751 113.927C173.917 113.762 173.054 113.847 172.269 114.172C171.484 114.497 170.813 115.048 170.341 115.754C169.869 116.46 169.617 117.291 169.617 118.14C169.617 119.28 170.07 120.372 170.875 121.178C171.681 121.983 172.773 122.436 173.913 122.436Z" stroke="black" stroke-miterlimit="10"/>
</g>
<g opacity="0.3">
<path d="M380.893 135.091C383.649 128.485 380.527 120.895 373.92 118.139C367.313 115.383 359.723 118.505 356.967 125.112C354.211 131.719 357.334 139.309 363.941 142.065C370.547 144.821 378.137 141.698 380.893 135.091Z" stroke="black" stroke-miterlimit="10"/>
<path d="M373.223 129.221H364.748C363.956 129.221 363.197 129.535 362.637 130.094C362.076 130.653 361.761 131.412 361.759 132.203V139.29C363.824 140.896 366.371 141.76 368.987 141.74C371.604 141.72 374.137 140.818 376.178 139.18V132.203C376.178 131.417 375.867 130.663 375.314 130.104C374.76 129.546 374.009 129.228 373.223 129.221Z" stroke="black" stroke-miterlimit="10"/>
<path d="M368.852 127.908C369.702 127.908 370.532 127.656 371.239 127.184C371.945 126.712 372.496 126.041 372.821 125.256C373.146 124.471 373.231 123.608 373.065 122.774C372.899 121.941 372.49 121.176 371.89 120.575C371.289 119.974 370.523 119.565 369.69 119.399C368.857 119.234 367.993 119.319 367.208 119.644C366.423 119.969 365.753 120.52 365.281 121.226C364.809 121.932 364.557 122.763 364.557 123.612C364.557 124.177 364.668 124.735 364.884 125.256C365.099 125.777 365.416 126.251 365.815 126.65C366.214 127.049 366.687 127.365 367.208 127.581C367.729 127.797 368.288 127.908 368.852 127.908Z" stroke="black" stroke-miterlimit="10"/>
</g>
<g opacity="0.3">
<path d="M306.34 31.1165C309.096 24.5095 305.974 16.9196 299.367 14.164C292.76 11.4084 285.17 14.5305 282.414 21.1375C279.659 27.7445 282.781 35.3343 289.388 38.09C295.995 40.8456 303.585 37.7235 306.34 31.1165Z" stroke="black" stroke-miterlimit="10"/>
<path d="M298.667 25.2533H290.192C289.401 25.2533 288.641 25.5672 288.081 26.1263C287.521 26.6854 287.205 27.4439 287.203 28.2355V35.3217C289.268 36.9284 291.815 37.7916 294.431 37.7718C297.048 37.7519 299.581 36.8502 301.622 35.2123V28.2355C301.622 27.4493 301.311 26.6949 300.758 26.1364C300.205 25.5779 299.453 25.2605 298.667 25.2533Z" stroke="black" stroke-miterlimit="10"/>
<path d="M294.296 23.94C295.146 23.94 295.977 23.6881 296.683 23.2161C297.389 22.7441 297.94 22.0732 298.265 21.2883C298.59 20.5034 298.675 19.6397 298.509 18.8064C298.344 17.9732 297.935 17.2078 297.334 16.6071C296.733 16.0063 295.968 15.5972 295.135 15.4315C294.301 15.2657 293.438 15.3508 292.653 15.6759C291.868 16.001 291.197 16.5516 290.725 17.258C290.253 17.9644 290.001 18.7949 290.001 19.6445C290.001 20.7837 290.454 21.8763 291.259 22.6819C292.065 23.4874 293.157 23.94 294.296 23.94Z" stroke="black" stroke-miterlimit="10"/>
</g>
<path d="M324.522 147.45C324.522 147.45 320.152 147.45 315.589 152.238C311.027 157.026 308.489 163.551 309.55 165.528C310.61 167.505 311.82 170.754 311.786 171.513C311.752 172.272 305.664 177.354 307.087 179.885C308.51 182.416 308.824 183.948 307.491 184.085C306.157 184.222 303.797 186.027 304.125 187.375C304.454 188.722 306.69 189.947 305.678 191.431C304.666 192.915 303.92 192.69 303.845 194.591C303.77 196.493 305.514 198.093 304.529 198.333C303.544 198.572 301.608 198.873 302.128 200.227C302.613 201.323 303.209 202.366 303.907 203.34C303.907 203.34 310.63 211.205 324.994 213.483C339.358 215.761 353.722 203.777 355.87 201.965C358.018 200.152 358.435 199.591 358.483 198.456C358.531 197.32 357.799 195.952 357.491 194.612C357.183 193.271 357.84 190.631 357.86 190.063C357.881 189.495 356.616 187.922 355.699 187.122C354.782 186.322 354.673 184.229 355.124 182.334C355.576 180.439 353.756 179.044 352.997 178.449C352.238 177.854 351.759 176.116 352.395 174.427C353.031 172.737 350.822 170.945 349.899 170.145C348.975 169.345 348.859 167.635 349.31 165.754C349.762 163.873 347.457 159.782 346.198 158.025C344.94 156.267 343.462 150.685 336.314 148.127C329.167 145.569 324.522 147.45 324.522 147.45Z" fill="#263238" stroke="#263238" stroke-linecap="round" stroke-linejoin="round"/>
<path d="M308.66 216.144C315.33 219.933 322.944 221.737 330.605 221.344C338.266 220.951 345.655 218.378 351.903 213.928C351.903 210.309 351.937 207.266 351.903 205.959C351.738 201.78 350.596 195.816 349.091 194.598C347.587 193.38 344.454 192.416 339.851 191.137C335.247 189.858 328.311 189.406 328.311 189.406C328.311 189.406 320.103 194.099 314.549 195.959C308.995 197.82 308.735 210.207 308.859 213.299C308.842 214.25 308.776 215.2 308.66 216.144Z" fill="white" stroke="#263238" stroke-linecap="round" stroke-linejoin="round"/>
<path d="M308.66 216.144C315.33 219.933 322.944 221.737 330.605 221.344C338.266 220.951 345.655 218.378 351.903 213.928C351.903 210.309 351.937 207.266 351.903 205.959C351.821 203.846 351.622 204.687 351.116 202.505C348.476 204.988 342.614 209.085 331.089 210.419C320.575 211.636 311.937 207.683 309.262 206C308.928 208.418 308.793 210.859 308.859 213.299C308.842 214.25 308.776 215.2 308.66 216.144Z" fill="white" stroke="#263238" stroke-linecap="round" stroke-linejoin="round"/>
<path d="M322.196 200.727L321.854 191.999C321.69 187.82 321.067 186.027 321.067 186.027C322.971 186.622 324.944 186.972 326.936 187.067C329.857 187.136 334.228 182.594 334.563 181.848C334.898 181.103 335.39 179.796 335.39 179.796C335.39 179.796 335.855 186.876 336.505 189.584C337.155 192.293 337.586 193.914 337.586 193.914" fill="white"/>
<path d="M322.196 200.727L321.854 191.999C321.69 187.82 321.067 186.027 321.067 186.027C322.971 186.622 324.944 186.972 326.936 187.067C329.857 187.136 334.228 182.594 334.563 181.848C334.898 181.103 335.39 179.796 335.39 179.796C335.39 179.796 335.855 186.876 336.505 189.584C337.155 192.293 337.586 193.914 337.586 193.914" stroke="#263238" stroke-miterlimit="10" stroke-linecap="round"/>
<path d="M324.864 193.257C329.296 190.815 333.119 185.172 333.119 185.172L333.373 183.264C331.799 184.851 329.002 187.115 326.936 187.067C324.944 186.972 322.971 186.622 321.067 186.027C321.067 186.027 321.69 187.82 321.854 191.999C321.854 192.943 321.929 193.9 321.963 194.824C322.682 194.447 323.619 193.941 324.864 193.257Z" fill="#263238" stroke="#263238" stroke-linecap="round" stroke-linejoin="round"/>
<path d="M341.82 169.269L338.913 169.071C338.913 169.071 338.913 168.647 338.872 167.956L338.565 167.553C338.093 166.944 337.881 167.094 337.012 166.793C336.143 166.492 335.965 165.008 336.157 163.565C336.348 162.122 334.591 161.513 332.799 159.81C331.335 158.442 330.993 155.938 330.924 155.083C330.269 154.888 329.599 154.746 328.92 154.659C328.365 156.107 327.559 157.445 326.54 158.613C324.83 160.405 323.592 160.056 323.086 161.089C322.58 162.122 321.513 163.264 320.767 163.346C320.021 163.428 318.216 163.196 318.099 164.092C317.983 164.988 317.244 166.369 316.656 166.657L316.184 166.896C316.184 168.948 316.287 170.672 316.239 171C316.143 171.725 315.521 176.41 317.142 179.379C318.763 182.348 321.779 188.784 326.444 189.468C331.109 190.152 335.938 184.304 336.875 182.778C337.812 181.253 338.797 176.622 338.797 176.622C339.904 175.833 340.847 174.836 341.574 173.688C342.771 171.787 341.82 169.269 341.82 169.269Z" fill="white" stroke="#263238" stroke-linecap="round" stroke-linejoin="round"/>
<path d="M316.785 164.29C316.956 163.025 318.502 161.027 319.05 161.103C320.207 160.948 321.266 160.368 322.018 159.475C322.497 158.626 322.435 157.696 323.386 157.423C324.337 157.149 324.501 155.918 324.501 155.918C324.501 155.918 321.642 158.107 320.103 158.654C319.018 158.998 318.01 159.548 317.134 160.275C316.61 161.836 316.317 163.465 316.266 165.111C316.414 165.028 316.539 164.91 316.63 164.766C316.72 164.623 316.774 164.459 316.785 164.29Z" fill="white" stroke="#263238" stroke-linecap="round" stroke-linejoin="round"/>
<path d="M324.494 179.447C324.494 179.447 325.363 181.212 327.695 180.241" stroke="#263238" stroke-linecap="round" stroke-linejoin="round"/>
<path d="M324.139 182.149C324.139 182.149 327.559 184.078 329.351 181.561" stroke="#263238" stroke-linecap="round" stroke-linejoin="round"/>
<path d="M321.977 172.156C321.977 172.908 321.601 173.524 321.198 173.524C320.794 173.524 320.514 172.888 320.514 172.156C320.514 171.424 320.89 170.788 321.293 170.788C321.697 170.788 322.005 171.404 321.977 172.156Z" fill="#263238"/>
<path d="M331.102 172.546C331.102 173.298 330.726 173.914 330.33 173.914C329.933 173.914 329.646 173.278 329.646 172.546C329.646 171.814 330.022 171.178 330.425 171.178C330.829 171.178 331.13 171.793 331.102 172.546Z" fill="#263238"/>
<path d="M318.578 168.75C318.578 168.75 319.7 167.245 322.532 167.99" stroke="#263238" stroke-linecap="round" stroke-linejoin="round"/>
<path d="M328.893 168.469C328.893 168.469 331.95 167.594 333.872 169.68" stroke="#263238" stroke-linecap="round" stroke-linejoin="round"/>
<path d="M323.024 168.421C323.024 168.421 325.029 171.26 324.693 173.784" stroke="#263238" stroke-linecap="round" stroke-linejoin="round"/>
<path d="M315.288 219.119C315.746 216 316.198 212.909 316.567 210.419C317.723 202.724 321.704 192.915 321.704 192.915C320.24 192.614 306.081 198.449 303.086 200.932C301.779 202.019 300.267 204.974 298.872 208.292C303.366 213.201 309.006 216.921 315.288 219.119Z" fill="#FF8512" stroke="#263238" stroke-linecap="round" stroke-linejoin="round"/>
<path d="M362.696 202.464C360.754 200.109 358.294 198.236 355.507 196.992C353.688 195.786 351.771 194.736 349.775 193.852C346.622 192.334 338.147 190.48 338.147 190.48C338.147 190.48 337.388 212.197 338.565 220.132C348.577 217.556 357.216 211.23 362.696 202.464Z" fill="#FF8512" stroke="#263238" stroke-linecap="round" stroke-linejoin="round"/>
<path d="M357.039 209.576C372.764 193.85 372.764 168.355 357.039 152.629C341.313 136.904 315.818 136.904 300.092 152.629C284.367 168.355 284.367 193.85 300.092 209.576C315.818 225.301 341.313 225.301 357.039 209.576Z" stroke="#263238" stroke-miterlimit="10"/>
<path d="M337.587 122.143C359.26 117.16 372.789 95.5497 367.806 73.8765C362.822 52.2032 341.212 38.6737 319.539 43.6574C297.866 48.6412 284.336 70.251 289.32 91.9242C294.304 113.598 315.913 127.127 337.587 122.143Z" fill="#FF8512"/>
<path d="M328.565 123.168C334.564 123.172 340.489 121.832 345.904 119.249C351.318 116.665 356.086 112.902 359.858 108.236L343.886 95.76L332.258 92.4563V91.998L329.351 92.2237L326.444 91.998V92.4563L314.816 93.366L296.704 107.518C300.463 112.391 305.29 116.336 310.814 119.049C316.338 121.763 322.411 123.172 328.565 123.168Z" fill="white" stroke="#263238" stroke-miterlimit="10"/>
<path d="M317.894 90.972C316.542 91.2858 315.171 91.5143 313.79 91.656C312.764 91.656 309.002 108.414 309.002 108.414L321.998 104.31L327.47 109.782L331.916 104.652L344.912 110.466C344.912 110.466 343.886 94.734 343.886 92.682C343.886 90.63 331.916 87.894 331.916 87.894L317.894 90.972Z" fill="white" stroke="#263238" stroke-miterlimit="10"/>
<path d="M316.184 84.132L317.552 96.102L326.786 105.336L337.388 94.734L338.072 81.054L316.184 84.132Z" fill="#D4D4D4" stroke="#263238" stroke-miterlimit="10"/>
<path d="M337.6 90.4248L338.072 81.054L336.862 81.225L323.195 91.0404L337.6 90.4248Z" fill="#263238" stroke="#263238" stroke-miterlimit="10"/>
<path d="M330.665 49.3164C330.665 49.3164 340.925 51.9498 341.609 56.5736C342.293 61.1975 341.746 70.8214 341.746 70.8214C341.746 70.8214 343.941 66.6695 345.309 70.493C346.677 74.3166 344.174 76.8337 343.291 77.1005C342.622 77.2749 341.931 77.3577 341.239 77.3467C341.239 77.3467 338.408 83.8174 336.862 85.0691C335.316 86.3208 329.536 91.3756 327.245 92.0801C324.953 92.7846 320.972 93.0445 319.837 91.8475C318.702 90.6505 314.044 82.4357 313.907 80.7394C313.77 79.043 312.723 63.7283 312.888 61.7447C313.052 59.7611 312.087 56.0059 316.308 52.1687C320.528 48.3314 330.665 49.3164 330.665 49.3164Z" fill="#D4D4D4" stroke="#263238" stroke-miterlimit="10"/>
<path d="M316.301 52.1961C320.535 48.3862 330.665 49.3164 330.665 49.3164C330.665 49.3164 340.925 51.9498 341.609 56.5737C342.293 61.1975 341.746 70.8214 341.746 70.8214C341.746 70.8214 340.644 72.8734 339.488 72.2851C338.332 71.6969 340.261 66.6421 340.261 66.6421C340.261 66.6421 339.577 65.11 339.057 63.3453C338.538 61.5805 338.798 59.3712 339.488 57.2303C340.179 55.0894 334.974 50.7049 332.163 50.9854C329.352 51.2658 325.761 53.352 323.284 52.9416C320.808 52.5312 320.412 51.1222 320.412 51.1222C320.412 51.1222 319.769 50.9307 317.477 51.642C317.05 51.7808 316.642 51.9763 316.267 52.2234L316.301 52.1961Z" fill="#263238" stroke="#263238" stroke-miterlimit="10"/>
<path d="M324.987 65.7529L337.135 66.9363C337.135 66.9363 337.504 71.2318 336.847 72.3535C336.191 73.4753 335.13 74.5286 331.957 74.7886C328.783 75.0485 325.452 74.0225 325.076 72.5998C324.699 71.1771 324.987 65.7529 324.987 65.7529Z" stroke="#263238" stroke-width="2" stroke-miterlimit="10" stroke-linecap="round"/>
<path d="M321.574 65.664H309.344C309.344 65.664 308.558 69.898 309.105 71.0881C309.652 72.2783 310.603 73.4137 313.735 73.9883C316.868 74.5628 320.288 73.872 320.822 72.504C321.355 71.136 321.574 65.664 321.574 65.664Z" stroke="#263238" stroke-width="2" stroke-miterlimit="10" stroke-linecap="round"/>
<path d="M324.987 65.7529C324.987 65.7529 323.017 64.8295 321.567 65.6777" stroke="#263238" stroke-width="2" stroke-miterlimit="10" stroke-linecap="round"/>
<path d="M324.796 67.5724C324.796 67.5724 322.847 66.136 321.451 67.3603" stroke="#263238" stroke-width="2" stroke-miterlimit="10" stroke-linecap="round"/>
<path d="M337.135 66.9362L341.964 70.623" stroke="#263238" stroke-width="2" stroke-miterlimit="10" stroke-linecap="round"/>
<path d="M309.371 65.6777L312.853 67.0799" stroke="#263238" stroke-width="2" stroke-miterlimit="10" stroke-linecap="round"/>
<path d="M328.045 71.5601C328.072 71.6665 328.12 71.7664 328.186 71.8536C328.253 71.9408 328.337 72.0135 328.433 72.0672C328.528 72.1209 328.634 72.1546 328.743 72.1661C328.852 72.1776 328.963 72.1667 329.067 72.1341C329.172 72.1015 329.269 72.0478 329.353 71.9764C329.436 71.905 329.504 71.8174 329.552 71.7189C329.601 71.6203 329.628 71.513 329.634 71.4033C329.639 71.2937 329.622 71.1841 329.584 71.0813C329.512 70.888 329.368 70.7296 329.183 70.6388C328.998 70.5479 328.785 70.5314 328.588 70.5927C328.391 70.654 328.225 70.7884 328.124 70.9683C328.023 71.1482 327.995 71.36 328.045 71.5601Z" fill="#263238"/>
<path d="M315.568 71.0608C315.595 71.1672 315.643 71.2671 315.71 71.3543C315.777 71.4415 315.86 71.5142 315.956 71.5679C316.052 71.6216 316.157 71.6552 316.267 71.6667C316.376 71.6782 316.486 71.6674 316.591 71.6348C316.696 71.6021 316.793 71.5485 316.876 71.4771C316.959 71.4057 317.027 71.3181 317.076 71.2195C317.124 71.121 317.152 71.0136 317.157 70.904C317.163 70.7944 317.146 70.6848 317.107 70.582C317.035 70.3887 316.892 70.2303 316.707 70.1394C316.521 70.0486 316.308 70.0321 316.111 70.0934C315.914 70.1547 315.748 70.2891 315.647 70.469C315.546 70.6489 315.518 70.8607 315.568 71.0608Z" fill="#263238"/>
<path d="M327.504 62.8391C327.504 62.8391 330.965 60.534 333.4 64.125" stroke="#263238" stroke-width="2" stroke-miterlimit="10" stroke-linecap="round"/>
<path d="M319.788 63.9745C319.788 63.9745 318.256 61.8747 314.556 64.255" stroke="#263238" stroke-width="2" stroke-miterlimit="10" stroke-linecap="round"/>
<path d="M321.594 70.452C321.594 70.452 321.177 73.4206 320.329 74.1251C319.481 74.8296 317.36 76.2797 318.845 76.7995C320.329 77.3194 323.325 77.8119 324.46 77.4835C324.778 77.397 325.065 77.2229 325.289 76.981C325.513 76.7391 325.664 76.4392 325.726 76.1155" stroke="#263238" stroke-miterlimit="10"/>
<path d="M321.656 81.3071C323.622 81.7703 325.682 81.6297 327.566 80.9035C330.644 79.6929 330.767 78.0581 330.767 78.0581" stroke="#263238" stroke-miterlimit="10"/>
<path d="M329.898 77.5314L331.991 78.5711" stroke="#263238" stroke-miterlimit="10"/>
<path d="M337.587 122.143C359.26 117.16 372.789 95.5497 367.806 73.8765C362.822 52.2032 341.212 38.6737 319.539 43.6574C297.866 48.6412 284.336 70.251 289.32 91.9242C294.304 113.598 315.913 127.127 337.587 122.143Z" stroke="#263238" stroke-miterlimit="10"/>
<path d="M139.082 221.156C160.772 216.244 174.373 194.679 169.461 172.989C164.55 151.3 142.985 137.699 121.295 142.61C99.6054 147.522 86.0043 169.087 90.9162 190.777C95.828 212.466 117.393 226.068 139.082 221.156Z" fill="#FF8512"/>
<path d="M130.204 222.143C135.812 222.148 141.36 220.978 146.488 218.708C151.616 216.438 156.212 213.118 159.978 208.962L140.443 198.36L138.508 188.661L124.684 185.241L124.198 198.36L101.182 209.769C104.932 213.686 109.437 216.801 114.425 218.928C119.414 221.055 124.781 222.148 130.204 222.143Z" fill="white" stroke="#263238" stroke-miterlimit="10"/>
<path d="M124.308 195.303L136.804 193.045L133.48 187.443L124.684 185.282L124.308 195.303Z" fill="#263238" stroke="#263238" stroke-miterlimit="10"/>
<path d="M144.123 158.23C144.123 158.23 130.081 150.48 123.419 151.027C116.757 151.574 106.681 165.432 105.423 172.088C104.164 178.743 110.642 182.348 110.997 182.888C111.353 183.428 105.601 183.073 106.141 187.389C106.681 191.705 113.521 192.43 117.482 191.712C121.442 190.993 124.137 185.952 124.137 185.234C124.137 184.516 122.338 179.653 122.338 179.653C122.338 179.653 126.121 180.008 126.661 176.773C127.201 173.538 130.259 166.328 134.397 166.15C138.535 165.973 141.777 166.513 142.14 167.409C142.474 168.831 142.702 170.276 142.824 171.732C144.315 172.016 145.85 171.97 147.322 171.597C148.793 171.223 150.165 170.532 151.34 169.57C155.122 166.328 156.559 157.512 151.524 155.713C150.195 155.165 148.712 155.118 147.351 155.581C145.99 156.044 144.843 156.985 144.123 158.23Z" fill="#263238" stroke="#263238" stroke-linecap="round" stroke-linejoin="round"/>
<path d="M120.642 176.664L113.405 180.768C113.405 180.768 116.141 184.092 117.318 184.482C118.494 184.872 120.444 184.283 120.444 184.283C120.444 184.283 123.768 188.196 126.312 189.96C128.857 191.725 134.917 195.043 138.248 193.866C141.579 192.69 146.456 183.893 146.066 180.959C145.676 178.025 143.919 173.332 144.11 170.986C144.302 168.64 144.698 164.919 144.698 164.919C144.698 164.919 136.682 161.007 130.225 164.728C123.768 168.449 124.165 175.296 120.642 176.664Z" fill="white" stroke="#263238" stroke-linecap="round" stroke-linejoin="round"/>
<path d="M138.248 173.141L138.439 175.487C138.439 175.487 143.528 176.075 141.572 177.84C140.221 178.955 138.6 179.695 136.873 179.988" stroke="#263238" stroke-linecap="round" stroke-linejoin="round"/>
<path d="M128.856 171.575C128.856 171.575 130.813 169.625 133.159 169.817" stroke="#263238" stroke-linecap="round" stroke-linejoin="round"/>
<path d="M139.027 169.228C139.693 169.016 140.401 168.976 141.086 169.114C141.77 169.252 142.408 169.562 142.94 170.015" stroke="#263238" stroke-linecap="round" stroke-linejoin="round"/>
<path d="M132.441 176.308C132.909 176.308 133.289 175.643 133.289 174.824C133.289 174.004 132.909 173.339 132.441 173.339C131.973 173.339 131.593 174.004 131.593 174.824C131.593 175.643 131.973 176.308 132.441 176.308Z" fill="#263238"/>
<path d="M142.051 173.921C142.051 174.741 141.675 175.412 141.203 175.412C140.731 175.412 140.354 174.728 140.354 173.921C140.354 173.114 140.738 172.436 141.203 172.436C141.668 172.436 142.051 173.1 142.051 173.921Z" fill="#263238"/>
<path d="M141.414 182.375C141.414 182.375 136.804 185.043 132.687 182.129" stroke="#263238" stroke-linecap="round" stroke-linejoin="round"/>
<path d="M130.204 222.143C135.814 222.148 141.363 220.977 146.492 218.706C151.622 216.434 156.218 213.113 159.985 208.955L146.77 201.315L142.14 214.386L126.134 214.626L115.71 202.744L115.443 202.71L101.182 209.769C104.932 213.686 109.437 216.801 114.425 218.928C119.414 221.055 124.781 222.148 130.204 222.143Z" fill="#263238" stroke="#263238" stroke-miterlimit="10"/>
<path d="M139.082 221.156C160.772 216.244 174.373 194.679 169.461 172.989C164.55 151.3 142.985 137.699 121.295 142.61C99.6054 147.522 86.0043 169.087 90.9162 190.777C95.828 212.466 117.393 226.068 139.082 221.156Z" stroke="#263238" stroke-miterlimit="10"/>
<path d="M130.205 123.537C152.443 123.537 170.472 105.509 170.472 83.2702C170.472 61.0313 152.443 43.0031 130.205 43.0031C107.966 43.0031 89.9375 61.0313 89.9375 83.2702C89.9375 105.509 107.966 123.537 130.205 123.537Z" stroke="#263238" stroke-miterlimit="10"/>
<path d="M137.66 55.9238C138.464 56.3536 139.365 56.5681 140.276 56.5465C141.187 56.5249 142.076 56.268 142.859 55.8007C145.396 54.1523 143.625 53.3862 143.112 52.3807C142.599 51.3752 143.878 51.1085 144.131 49.7131C144.384 48.3178 143.495 47.1755 142.989 47.0524C142.482 46.9292 142.606 45.527 142.606 44.1317C142.527 43.4934 142.254 42.8947 141.823 42.4173C141.393 41.9399 140.825 41.6071 140.198 41.4641C139.432 41.4641 138.926 40.4518 138.42 39.1795C137.913 37.9073 136.894 36.7718 135.123 37.5311C133.351 38.2903 132.455 38.2972 131.566 37.0249C130.677 35.7527 128.522 35.4996 127.763 36.1357C127.004 36.7718 126.621 38.0372 125.095 36.7718C124.514 36.2307 123.756 35.9192 122.962 35.8953C122.168 35.8714 121.392 36.1367 120.779 36.6419C119.89 37.5311 120.02 38.5502 118.625 38.0099C117.229 37.4695 114.945 38.2698 114.438 39.7883C113.932 41.3068 111.135 42.962 110.122 42.579C109.11 42.196 107.332 42.579 108.221 44.4874C109.11 46.3957 108.091 47.6543 107.332 47.6543C106.572 47.6543 104.917 48.1673 105.806 49.8157C106.696 51.4642 107.332 52.7296 106.313 53.2357C105.293 53.7419 103.652 53.865 104.945 56.0264C106.237 58.1879 107.229 58.0784 106.853 59.3233C106.477 60.5682 105.711 60.9718 106.853 61.861C107.995 62.7502 109.391 63.1332 109.391 63.913C109.391 64.6927 107.865 65.0552 109.644 65.6914C110.669 66.0667 111.734 66.3215 112.817 66.4506C112.817 66.4506 115.348 59.6038 122.612 57.3192C129.876 55.0346 134.035 55.2672 135.684 56.1769C137.332 57.0866 137.66 55.9238 137.66 55.9238Z" fill="#263238" stroke="#263238" stroke-linecap="round" stroke-linejoin="round"/>
<path d="M130.205 123.537C127.147 123.538 124.099 123.189 121.121 122.498C119.52 114.146 117.947 105.705 117.947 105.705C117.947 105.705 124.787 103.818 126.88 103.476C128.973 103.134 135.123 102.443 135.123 102.443L144.398 106.738C144.398 106.738 145.506 112.86 146.614 120.042C141.452 122.352 135.86 123.544 130.205 123.537Z" fill="white" stroke="#263238" stroke-miterlimit="10"/>
<path d="M118.542 108.893L144.247 106.704L144.397 106.772C144.397 106.772 144.616 107.997 144.965 109.994L119.192 112.176L118.542 108.893Z" fill="#263238"/>
<path d="M120.095 117.101L145.793 114.912C145.964 115.959 146.141 117.067 146.326 118.216L120.724 120.384C120.505 119.283 120.3 118.182 120.095 117.101Z" fill="#263238"/>
<path d="M136.498 97.6342C136.498 97.6342 138.386 104.85 138.55 108.626C138.714 112.402 134.774 115.5 129.104 114.98C123.433 114.461 122.407 108.284 122.407 106.772C122.407 105.261 122.065 92.1758 122.065 92.1758C123.967 93.7985 125.975 95.2907 128.078 96.6424C131.347 98.667 136.498 97.6342 136.498 97.6342Z" fill="#B5B5B5" stroke="#263238" stroke-miterlimit="10"/>
<path d="M131.347 103.818C125.978 101.232 123.297 96.2046 122.093 93.024C122.093 92.4905 122.093 92.1758 122.093 92.1758C123.994 93.7985 126.003 95.2907 128.105 96.6424C131.368 98.6944 136.518 97.6684 136.518 97.6684C136.518 97.6684 137.702 102.176 138.276 105.931C135.865 105.619 133.523 104.905 131.347 103.818Z" fill="#263238" stroke="#263238" stroke-miterlimit="10"/>
<path d="M144.24 75.1853C144.24 75.1853 146.976 71.6285 147.523 76.5533C148.07 81.4781 142.872 86.4029 142.872 86.4029V75.1853" fill="#B5B5B5"/>
<path d="M144.24 75.1853C144.24 75.1853 146.976 71.6285 147.523 76.5533C148.07 81.4781 142.872 86.4029 142.872 86.4029V75.1853" stroke="#263238" stroke-linecap="round" stroke-linejoin="round"/>
<path d="M112.954 70.069C112.954 70.069 113.166 62.4492 115.998 58.099C118.83 53.7487 124.794 51.0743 131.449 52.2234C139.712 53.6393 143.419 59.8363 144.726 65.0621C146.032 70.2879 144.507 77.9008 144.507 83.1265C144.507 88.3523 138.413 97.7094 136.675 99.2279C134.938 100.746 132.243 101.28 129.151 99.7067C126.333 98.2771 121.702 93.4002 118.891 90.5685C116.08 87.7367 114.404 79.344 113.946 77.3741C113.488 75.4042 112.954 70.069 112.954 70.069Z" fill="#B5B5B5" stroke="#263238" stroke-linecap="round" stroke-linejoin="round"/>
<path d="M136.026 84.857C136.026 84.857 136.285 86.5055 132.476 86.225" stroke="#263238" stroke-linecap="round" stroke-linejoin="round"/>
<path d="M137.167 89.1731C137.167 89.1731 132.728 92.2169 128.275 89.2962" stroke="#263238" stroke-linecap="round" stroke-linejoin="round"/>
<path d="M137.168 77.8802C137.168 78.7899 137.599 79.5287 138.126 79.5287C138.652 79.5287 139.076 78.7899 139.076 77.8802C139.076 76.9705 138.645 76.2318 138.126 76.2318C137.606 76.2318 137.168 76.9705 137.168 77.8802Z" fill="#263238"/>
<path d="M127.264 78.6942C127.264 79.6039 127.688 80.3426 128.214 80.3426C128.741 80.3426 129.165 79.6039 129.165 78.6942C129.165 77.7845 128.741 77.0389 128.214 77.0389C127.688 77.0389 127.264 77.7776 127.264 78.6942Z" fill="#263238"/>
<path d="M141.23 72.675C141.23 72.675 140.088 70.1374 136.285 71.4096" stroke="#263238" stroke-linecap="round" stroke-linejoin="round"/>
<path d="M129.938 72.4219C129.938 72.4219 126.388 70.5204 122.448 73.4342" stroke="#263238" stroke-linecap="round" stroke-linejoin="round"/>
<path d="M102.194 112.176C102.276 111.027 102.146 109.009 103.528 108.243C104.465 107.723 111.052 106.191 116.1 105.076C119.417 104.337 122.085 103.776 122.085 103.776C122.085 103.776 122.728 113.523 123.453 122.928C115.442 121.578 108.029 117.829 102.194 112.176Z" fill="#FF8512" stroke="#263238" stroke-miterlimit="10"/>
<path d="M147.339 119.7C146.536 114.776 145.486 109.895 144.192 105.076C149.254 106.198 155.82 107.723 156.764 108.243C158.194 109.036 158.009 111.143 158.132 112.279C154.964 115.325 151.318 117.832 147.339 119.7Z" fill="#FF8512" stroke="#263238" stroke-miterlimit="10"/>
<path d="M116.401 121.102C115.929 112.559 116.101 105.09 116.101 105.09C119.418 104.351 122.086 103.79 122.086 103.79C122.086 103.79 122.728 113.537 123.454 122.942C121.052 122.543 118.692 121.927 116.401 121.102Z" fill="#FF8512" stroke="#263238" stroke-miterlimit="10"/>
<path d="M131.449 52.2234C139.712 53.6393 143.419 59.8363 144.726 65.0621C144.959 66.0396 145.11 67.0349 145.177 68.0375C144.814 67.4724 144.41 66.9351 143.967 66.4301C141.967 64.0491 139.668 61.9363 137.127 60.1441C137.127 60.1441 136.032 62.8801 129.739 66.1565C123.447 69.4329 114.972 69.1661 114.972 69.1661C114.972 69.1661 116.614 69.7133 115.246 72.7229C114.65 74.0225 114.117 75.1169 113.693 75.9445C113.323 73.5711 112.954 70.069 112.954 70.069C112.954 70.069 113.166 62.4492 115.998 58.099C118.83 53.7487 124.794 51.0743 131.449 52.2234Z" fill="#263238" stroke="#263238" stroke-linecap="round" stroke-linejoin="round"/>
<path d="M115.772 80.3837C115.772 80.3837 114.131 74.0909 111.395 77.1005C108.659 80.1101 111.942 84.4877 113.583 86.6765C115.225 88.8653 117.961 87.2237 117.961 87.2237" fill="#B5B5B5"/>
<path d="M115.772 80.3837C115.772 80.3837 114.131 74.0909 111.395 77.1005C108.659 80.1101 111.942 84.4877 113.583 86.6765C115.225 88.8653 117.961 87.2237 117.961 87.2237" stroke="#263238" stroke-linecap="round" stroke-linejoin="round"/>
<path d="M138.207 103.694L140.943 122.039C140.943 122.039 146.689 120.425 148.604 119.016L144.972 104.905C142.812 104.085 140.518 103.674 138.207 103.694Z" fill="#FF8512" stroke="#263238" stroke-miterlimit="10"/>
<path d="M230.362 100.302C231.141 101.921 231.775 103.605 232.257 105.336C232.941 107.922 232.777 109.816 234.309 111.027C235.841 112.238 237.579 112.573 237.237 114.125C237.144 114.566 236.936 114.974 236.633 115.308C236.33 115.641 235.943 115.887 235.513 116.02C235.513 116.02 234.651 123.777 234.309 126.533C233.967 129.29 224.829 126.533 224.829 126.533L223.16 135.295L211.956 135.979L210.745 126.499C207.778 122.617 205.824 118.056 205.061 113.229C203.851 105.302 208.331 95.9926 217.811 95.9926C227.291 95.9926 230.362 100.302 230.362 100.302Z" fill="white" stroke="#263238" stroke-miterlimit="10"/>
<path d="M234.843 120.295C234.843 120.295 232.791 120.979 231.566 119.611" stroke="#263238" stroke-miterlimit="10"/>
<path d="M231.915 108.749L232.606 110.993" stroke="#263238" stroke-miterlimit="10"/>
<path d="M231.916 107.388C231.553 107.388 231.205 107.532 230.949 107.789C230.692 108.045 230.548 108.393 230.548 108.756" stroke="#263238" stroke-miterlimit="10"/>
<path d="M206.744 140.288C206.744 140.288 210.848 134.775 211.566 134.604C212.285 134.433 219.843 132.71 223.461 133.572C227.079 134.433 227.941 136.157 230.698 136.841C232.65 137.211 234.664 137.093 236.56 136.499C235.873 137.572 234.933 138.459 233.824 139.085C232.579 139.709 231.238 140.116 229.856 140.288C227.744 140.692 225.569 140.634 223.482 140.117C219.172 139.256 211.758 139.085 211.758 139.085L206.744 140.288Z" fill="white" stroke="#263238" stroke-miterlimit="10"/>
<path d="M281.554 137.019C281.554 137.019 283.448 130.466 284.29 129.084C285.404 127.512 286.808 126.168 288.428 125.124C289.632 124.44 294.29 121.704 295.494 121.704C296.697 121.704 297.347 123.072 296.355 123.599C295.733 123.941 292.737 125.151 292.395 125.651C291.983 126.149 291.525 126.607 291.027 127.019L293.763 127.703C293.763 127.703 294.796 129.597 295.316 130.439C295.836 131.28 296.349 132.162 295.658 133.366C294.967 134.57 294.112 136.472 293.072 136.992C292.033 137.511 292.559 135.09 292.559 135.09C292.559 135.09 290.507 137.142 289.454 138.024C288.702 138.62 287.893 139.14 287.039 139.577L286.526 140.945L281.554 137.019Z" fill="white" stroke="#263238" stroke-miterlimit="10"/>
<path d="M198.967 190.227C198.967 190.227 202.387 190.227 203.146 190.152C203.905 190.077 205.403 189.468 205.882 189.468C206.361 189.468 206.621 192.936 205.383 195.911C204.145 198.887 200.93 200.487 200.93 200.487L196.963 196.281C196.963 196.281 198.721 192.204 198.967 190.227Z" fill="white" stroke="#263238" stroke-miterlimit="10"/>
<path d="M202.004 252.17C202.004 252.17 200.41 261.288 201.546 269.722C202.681 278.155 209.07 310.994 209.07 310.994L206.566 320.57C206.566 320.57 203.83 322.164 205.198 322.848C206.566 323.532 213.174 322.848 213.174 322.848C213.174 322.848 214.09 318.744 214.774 316.692C215.458 314.64 217.51 313.272 216.594 310.762C215.677 308.251 215 305.748 215 305.748L218.194 256.958L202.004 252.17Z" fill="white" stroke="#263238" stroke-miterlimit="10"/>
<path d="M216.019 309.1C214.945 309.024 212.667 309.1 211.806 310.994C210.67 313.498 208.16 319.654 208.16 319.654L205.65 321.254L205.41 321.412C204.877 321.904 204.494 322.499 205.198 322.848C206.566 323.532 213.174 322.848 213.174 322.848C213.174 322.848 214.09 318.744 214.774 316.692C215.458 314.64 217.51 313.272 216.594 310.762C216.388 310.201 216.197 309.64 216.019 309.1Z" fill="#263238" stroke="#263238" stroke-miterlimit="10"/>
<path d="M212.948 313.272L213.974 322.848H215.568L216.368 312.472C216.368 312.472 213.632 310.536 212.948 313.272Z" fill="#263238" stroke="#263238" stroke-miterlimit="10"/>
<path d="M231.416 255.358L235.52 264.024C235.52 264.024 236.204 276.473 239.398 283.997C242.593 291.521 248.974 303.607 248.974 303.607L251.026 307.253C251.026 307.253 248.058 310.673 248.974 312.725C249.891 314.777 253.762 315.919 255.356 317.287C256.95 318.655 257.292 322.848 259.118 322.848C260.944 322.848 265.958 323.306 266.416 322.164C266.875 321.022 263.906 319.654 263.906 319.654C263.906 319.654 259.515 311.336 259.063 310.194C258.612 309.052 251.71 270.406 251.252 265.85C250.794 261.295 249.426 253.306 249.426 253.306L231.416 255.358Z" fill="white" stroke="#263238" stroke-miterlimit="10"/>
<path d="M259.803 319.886C259.803 319.886 256.266 314.325 254.447 311.815C253.329 310.325 251.775 309.221 250.001 308.655C249.242 309.831 248.434 311.514 248.975 312.725C249.885 314.777 253.537 315.912 254.645 317.697C256.191 320.187 257.292 322.848 259.119 322.848C260.945 322.848 265.959 323.306 266.417 322.164C266.875 321.022 263.907 319.654 263.907 319.654C263.223 319.428 259.803 319.886 259.803 319.886Z" fill="#263238" stroke="#263238" stroke-miterlimit="10"/>
<path d="M248.975 313.58L249.761 323.19H251.204L252.039 316.008C252.039 316.008 252.217 312.862 248.975 313.58Z" fill="#263238" stroke="#263238" stroke-miterlimit="10"/>
<path d="M203.146 190.152C203.146 190.152 197.674 201.78 196.306 209.988C194.938 218.196 197.332 233.244 197.332 233.244L196.306 253.764C196.306 253.764 216.142 258.894 229.822 258.894C238.258 258.857 246.653 257.707 254.788 255.474C254.788 255.474 255.13 233.244 252.394 222.642C249.658 212.04 243.502 194.256 243.16 193.23C242.818 192.204 240.424 189.126 240.424 189.126C240.424 189.126 218.536 193.572 203.146 190.152Z" fill="#263238" stroke="#263238" stroke-miterlimit="10"/>
<path d="M208.522 223.059L230.041 242.711" stroke="#707070" stroke-miterlimit="10"/>
<path d="M215.541 235.693L225.363 243.641" stroke="#707070" stroke-miterlimit="10"/>
<path d="M208.646 139.946C208.646 139.946 195.198 145.459 194.685 147.012C194.172 148.565 190.205 157.012 190.205 157.012C190.205 157.012 174.001 181.828 174.343 183.038C174.685 184.249 193.304 195.624 193.304 195.624C193.304 195.624 192.791 196.144 193.304 196.486C194.769 197.028 196.265 197.485 197.784 197.854C197.784 197.854 200.52 195.268 200.52 192.854C200.52 190.439 199.836 189.434 199.316 189.235C198.796 189.037 196.389 187.683 196.389 187.683L195.705 187.512L188.276 179.591L197.586 166.663C197.586 166.663 205.862 181.486 205.862 183.38C205.862 185.275 201.724 189.762 202.586 191.828C203.447 193.893 206.546 194.413 218.612 195.617C230.677 196.821 240.849 192.881 241.868 191.999C242.887 191.116 240.144 185.795 240.144 181.828C240.144 177.861 240.315 163.36 240.315 163.36C240.315 163.36 257.73 170.596 261.177 168.702C264.624 166.807 285.48 144.228 285.48 144.228L288.578 141.301L281.683 134.919L277.032 139.057L257.039 154.912C257.039 154.912 256.006 153.879 255.486 153.879C254.966 153.906 254.447 153.963 253.933 154.05C253.933 154.05 240.835 145.09 239.282 143.708C237.73 142.327 233.427 142.163 233.427 142.163L224.98 140.61C224.98 140.61 215.712 136.841 208.646 139.946Z" fill="white" stroke="#263238" stroke-miterlimit="10"/>
<path d="M240.356 163.387L229.843 161.492" stroke="#263238" stroke-miterlimit="10"/>
<path d="M237.599 163.045L227.948 165.973" stroke="#263238" stroke-miterlimit="10"/>
<path d="M229.692 186.315C230.238 185.71 230.75 185.075 231.225 184.413" stroke="#263238" stroke-miterlimit="10"/>
<path d="M216.402 194.94C220.69 193.385 224.638 191.018 228.03 187.97" stroke="#263238" stroke-miterlimit="10"/>
<path d="M231.368 180.624C231.368 180.624 227.408 182.867 223.27 185.275" stroke="#263238" stroke-miterlimit="10"/>
<path d="M194.583 158.907L197.613 166.663C197.613 166.663 191.751 162.012 191.067 159.94" stroke="#263238" stroke-miterlimit="10"/>
<path d="M193.304 155.63L193.899 157.156" stroke="#263238" stroke-miterlimit="10"/>
<path d="M187.441 165.282C187.441 165.282 190.547 166.834 195.376 165.631" stroke="#263238" stroke-miterlimit="10"/>
<path d="M187.442 179.071C185.146 179.457 182.793 179.34 180.547 178.729" stroke="#263238" stroke-miterlimit="10"/>
<path d="M182.805 176.472C182.805 176.472 185.39 177.683 187.285 177.683" stroke="#263238" stroke-miterlimit="10"/>
<path d="M195.718 187.519C195.718 187.519 197.442 194.071 193.304 195.617L195.718 187.519Z" fill="white"/>
<path d="M195.718 187.519C195.718 187.519 197.442 194.071 193.304 195.617" stroke="#263238" stroke-miterlimit="10"/>
<path d="M278.277 138.052L285.521 144.256" stroke="#263238" stroke-miterlimit="10"/>
<path d="M253.475 159.611C253.079 160.015 252.661 160.419 252.251 160.802" stroke="#263238" stroke-miterlimit="10"/>
<path d="M257.079 155.63C257.079 155.63 256.122 156.793 254.809 158.216" stroke="#263238" stroke-miterlimit="10"/>
<path d="M254.836 154.94C253.23 156.52 251.436 157.899 249.494 159.044" stroke="#263238" stroke-miterlimit="10"/>
<path d="M230.862 96.8886C230.862 96.8886 232.079 100.069 229.637 108.127C227.196 116.184 224.993 121.567 226.217 126.697C227.442 131.827 230.369 132.805 230.862 132.074C231.362 131.437 231.936 130.863 232.572 130.364C232.572 130.364 233.057 132.313 230.862 134.023C228.666 135.733 220.109 137.443 214.733 136.711C209.357 135.979 205.937 138.168 204.008 133.537C202.079 128.907 203.03 121.567 202.537 118.633C202.045 115.699 197.168 111.793 200.588 102.997C204.008 94.2005 217.688 93.2223 222.325 93.2223C226.963 93.2223 230.123 91.7586 230.862 96.8886Z" fill="#263238" stroke="#263238" stroke-miterlimit="10"/>
<path d="M288.297 94.5972C294.757 94.5972 299.993 89.3605 299.993 82.9008C299.993 76.4411 294.757 71.2044 288.297 71.2044C281.837 71.2044 276.601 76.4411 276.601 82.9008C276.601 89.3605 281.837 94.5972 288.297 94.5972Z" fill="white" stroke="#263238" stroke-miterlimit="10"/>
<path d="M283.577 80.028L288.598 85.5L298.625 70.9103" stroke="#263238" stroke-width="3" stroke-linecap="round" stroke-linejoin="round"/>
<path d="M101.246 190.145C105.814 185.577 105.814 178.171 101.246 173.603C96.6786 169.036 89.2729 169.036 84.7052 173.603C80.1374 178.171 80.1374 185.577 84.7052 190.145C89.2729 194.712 96.6787 194.712 101.246 190.145Z" fill="white" stroke="#263238" stroke-miterlimit="10"/>
<path d="M88.2549 179.003L93.2686 184.475L103.303 169.885" stroke="#263238" stroke-width="3" stroke-linecap="round" stroke-linejoin="round"/>
<path d="M123.296 323.149H372.272" stroke="#263238" stroke-miterlimit="10"/>
<path d="M95.9355 323.149H115.772" stroke="#263238" stroke-miterlimit="10"/>
</svg>
