<svg width="69" height="42" viewBox="0 0 69 42" fill="none" xmlns="http://www.w3.org/2000/svg">
<g clip-path="url(#clip0_481_1196)">
<path d="M9.03067 10.1744C9.03067 10.1744 7.8447 10.9526 7.05475 14.1158C6.34936 16.9467 7.27751 22.4088 10.953 24.899C13.492 26.6215 13.1991 15.8552 13.1991 15.8552L9.03067 10.1744Z" fill="black"/>
<path d="M11.4727 25.1913C11.2645 25.1821 11.0638 25.1087 10.8973 24.9809C7.22801 22.4949 6.23799 16.9593 6.95575 14.0842C7.74571 10.9168 8.92548 10.1133 8.97498 10.0881L9.05749 10.0355L13.3001 15.8299V15.8635C13.3001 16.2 13.5064 24.1502 11.8337 25.0966C11.7232 25.159 11.599 25.1916 11.4727 25.1913ZM9.0121 10.3237C8.74191 10.5571 7.80758 11.5246 7.15581 14.141C6.45249 16.9593 7.41982 22.3793 11.0107 24.8127C11.285 24.9978 11.5222 25.023 11.7347 24.9094C13.2486 24.0555 13.1083 16.4692 13.096 15.8993L9.0121 10.3237Z" fill="black"/>
<path d="M26.0406 18.726L12.1184 22.1732V40.9359H34.4661L26.0406 18.726Z" fill="white"/>
<path d="M34.6166 41.0432H12.0215V22.0911L26.1107 18.604L26.1437 18.6902L34.6166 41.0432ZM12.2215 40.8328H34.3155L25.9766 18.848L12.2277 22.2573L12.2215 40.8328Z" fill="black"/>
<path d="M13.4651 19.847C8.77486 21.557 6.504 23.0187 8.03441 25.0861C1.43427 32.0267 0.94751 36.7169 0.94751 36.7169L4.88078 39.939L9.95876 36.7253L12.9329 30.2727" fill="white"/>
<path d="M4.87467 40.0694L0.840332 36.7631V36.7063C0.840332 36.658 1.3931 31.9363 7.8963 25.0777C7.48379 24.493 7.36003 23.9483 7.51678 23.4162C7.86948 22.2131 9.57933 21.151 13.426 19.7482L13.4961 19.9459C9.77116 21.3045 8.04274 22.3604 7.72099 23.4751C7.57867 23.963 7.70861 24.4678 8.11906 25.023L8.17268 25.0945L8.1108 25.1597C1.98917 31.5934 1.14146 36.1238 1.05896 36.6727L4.89117 39.8107L9.87222 36.6433L12.834 30.2179L13.0197 30.3084L10.0331 36.7905L10.0063 36.8052L4.87467 40.0694Z" fill="black"/>
<path d="M19.4652 28.7562C19.4652 28.7562 18.0461 29.2295 15.6536 26.266C12.2462 22.0407 10.3281 21.6579 8.59762 22.1858C8.4718 21.1826 8.1851 17.7312 12.0111 16.6502C14.1355 16.0486 16.4868 15.0559 20.5026 14.9213C24.5184 14.7867 27.1275 17.1339 27.1275 18.2171C27.1275 19.3002 23.8109 20.764 22.2393 22.169C20.3954 23.8179 20.0117 27.1452 19.4652 28.7562Z" fill="#A5CE3E"/>
<path d="M19.2177 28.8908C18.6835 28.8908 17.4047 28.6006 15.5752 26.3312C12.2628 22.2279 10.4024 21.7441 8.62653 22.2867L8.51103 22.3204L8.49453 22.1984C8.28828 20.5158 8.46153 17.544 11.9823 16.5492C12.3948 16.4356 12.7908 16.3073 13.2198 16.1748C15.0988 15.588 17.2273 14.9255 20.4965 14.8161C23.2706 14.7236 25.3929 15.8089 26.4531 16.8563C26.946 17.34 27.2286 17.8363 27.2286 18.217C27.2286 18.9468 25.9911 19.7419 24.5473 20.661C23.7624 21.1338 23.0123 21.6645 22.3033 22.2489C20.9255 23.4814 20.383 25.6414 19.9478 27.3786C19.8158 27.9044 19.69 28.4008 19.558 28.792L19.5415 28.8404L19.4941 28.8572C19.4039 28.8814 19.3109 28.8927 19.2177 28.8908ZM9.75268 21.8955C11.1717 21.8955 12.9806 22.7747 15.7341 26.1987C17.7966 28.7583 19.1249 28.7078 19.3868 28.6658C19.5085 28.2956 19.6219 27.8455 19.7519 27.326C20.1644 25.6561 20.746 23.3657 22.1713 22.0911C22.8877 21.4993 23.646 20.9622 24.4401 20.4843C25.7085 19.6704 27.0224 18.8312 27.0224 18.217C27.0224 17.8973 26.7563 17.4451 26.3108 17.0077C25.2795 15.9897 23.217 14.936 20.5027 15.0265C17.2624 15.1337 15.14 15.7941 13.2838 16.3746C12.8527 16.5092 12.4443 16.6375 12.0462 16.7511C8.74616 17.6807 8.51722 20.417 8.6946 22.0491C9.0389 21.9495 9.39481 21.8979 9.75268 21.8955Z" fill="black"/>
<path d="M4.81689 36.8178C8.32321 35.3456 9.95261 36.7169 9.95261 36.7169C10.7054 36.5823 12.075 36.2668 13.0671 37.7096C13.0671 37.7096 13.0072 39.6256 12.242 39.6508C12.0667 39.6508 10.1939 40.8959 9.98975 40.9128C6.73093 41.0095 1.25694 41.0242 0.902182 40.2166C0.264856 38.7717 0.772241 36.9524 1.53332 35.2509" fill="white"/>
<path d="M6.99292 41.0558C4.10536 41.0558 1.0858 40.896 0.805292 40.2503C0.25253 38.9884 0.454659 37.392 1.43643 35.2026L1.62413 35.2909C0.681546 37.3941 0.475292 38.9926 0.99299 40.1704C1.23637 40.7193 4.68081 40.9612 9.98568 40.8013C10.3804 40.6091 10.7633 40.3928 11.1325 40.1535C11.9018 39.6887 12.141 39.552 12.238 39.5499C12.7763 39.531 12.9434 38.2733 12.9661 37.7454C12.0544 36.4456 10.8107 36.6727 10.0661 36.8073L9.92792 36.8326L9.8908 36.801C9.8743 36.7884 8.26965 35.4865 4.86026 36.9188L4.78188 36.7232C8.06133 35.3456 9.70929 36.4035 9.98361 36.6096H10.029C10.8272 36.4645 12.1658 36.2205 13.1558 37.6612L13.1744 37.6907V37.7264C13.1744 37.9368 13.0857 39.7392 12.2442 39.7686C11.8982 39.9417 11.5616 40.1333 11.2356 40.3428C10.4621 40.8118 10.1115 41.0158 9.99805 41.0201C9.10497 41.0327 8.05926 41.0558 6.99292 41.0558Z" fill="black"/>
<path d="M22.4846 41.1C22.4434 40.9212 18.4936 23.1869 16.4125 21.1699C14.3314 19.153 12.8855 19.0142 12.8711 19.0142L12.8876 18.8038C12.9495 18.8038 14.4262 18.9511 16.5548 21.0164C18.6833 23.0818 22.5217 40.3218 22.6847 41.0537L22.4846 41.1Z" fill="black"/>
<path d="M13.1951 18.0425L13.2796 18.9974C13.2796 18.9974 15.4432 19.805 16.3734 20.987C16.9474 21.7264 17.4065 22.5514 17.7347 23.433L19.5724 19.6893L18.9537 14.3387" fill="white"/>
<path d="M17.7141 23.7043L17.6337 23.4687C17.3092 22.5983 16.8564 21.7834 16.2909 21.0521C15.3917 19.908 13.2652 19.1046 13.2446 19.0962L13.1827 19.073L13.094 18.053L13.3002 18.034L13.3786 18.9237C13.7478 19.0667 15.5959 19.8281 16.4539 20.9196C16.9856 21.6055 17.4209 22.3636 17.7471 23.1722L19.4693 19.664L18.8505 14.345L19.0568 14.3198L19.6756 19.7019L17.7141 23.7043Z" fill="black"/>
<path d="M9.49063 36.0459C8.63632 34.9825 7.45183 34.248 6.13281 33.9637L9.49063 36.0459Z" fill="white"/>
<path d="M9.40822 36.1069C8.56459 35.0677 7.40192 34.3489 6.10815 34.0668L6.14941 33.8565C7.49519 34.1406 8.7033 34.8903 9.5691 35.9786L9.40822 36.1069Z" fill="black"/>
<path d="M13.067 37.5308C10.4702 37.5308 8.36646 39.0262 8.36646 40.8686H17.7655C17.7655 39.0262 15.6617 37.5308 13.067 37.5308Z" fill="white"/>
<path d="M17.8687 40.9738H8.26343V40.8686C8.26343 38.9757 10.4188 37.4257 13.0671 37.4257C15.7154 37.4257 17.8687 38.9694 17.8687 40.8686V40.9738ZM8.4738 40.7635H17.6604C17.582 39.0304 15.5504 37.636 13.0671 37.636C10.5838 37.636 8.55218 39.0388 8.4738 40.7635Z" fill="black"/>
<path d="M8.33557 39.2008C8.32355 39.0695 8.34451 38.9373 8.39648 38.8166C8.44844 38.6959 8.5297 38.5907 8.63258 38.5109C8.82978 38.3742 9.04899 38.2738 9.28022 38.2144C9.28022 38.2144 9.24309 37.4593 9.83298 37.1859C9.97065 37.1249 10.1191 37.0935 10.2692 37.0935C10.4193 37.0935 10.5678 37.1249 10.7054 37.1859C10.7808 36.9944 10.9037 36.8262 11.0621 36.6979C11.2205 36.5696 11.4089 36.4855 11.6088 36.454C12.2688 36.3867 12.5493 36.5823 12.5493 36.5823C12.8602 36.4083 13.2156 36.335 13.5682 36.3719C14.2283 36.4056 14.7872 36.8746 15.0842 37.6339C15.3812 38.3931 15.3297 39.2281 15.1647 39.4952C14.9996 39.7623 14.3644 39.6824 14.2613 39.4952C14.1816 39.3575 14.0814 39.2333 13.9643 39.1271C13.9218 39.2392 13.8475 39.3357 13.7508 39.4043C13.6542 39.4729 13.5396 39.5104 13.4218 39.512C13.1568 39.4864 12.905 39.3818 12.6979 39.2113C12.68 39.3276 12.6251 39.4347 12.5416 39.5161C12.4581 39.5974 12.3506 39.6485 12.2358 39.6614C11.8233 39.7139 11.2169 39.327 11.2169 39.327C11.2169 39.327 11.2974 39.7981 10.9364 39.9327C10.5755 40.0673 9.57103 39.4279 9.15853 39.5289" fill="white"/>
<path d="M10.8167 40.0442C10.541 40.016 10.2712 39.9451 10.0164 39.8339C9.705 39.7182 9.35437 39.5857 9.19143 39.6236L9.14398 39.4132C9.37705 39.3565 9.72562 39.489 10.0948 39.6236C10.4063 39.7413 10.761 39.8738 10.9198 39.8192C11.1962 39.7161 11.1261 39.3354 11.1261 39.3312L11.0869 39.0999L11.2931 39.2239C11.2931 39.2239 11.8748 39.5899 12.2461 39.5415C12.3386 39.533 12.4257 39.4928 12.493 39.4276C12.5604 39.3623 12.6042 39.2757 12.6173 39.1819L12.6421 38.9905L12.7864 39.1146C12.9755 39.2716 13.2058 39.3682 13.4485 39.3922C13.5452 39.3919 13.6394 39.3613 13.7184 39.3045C13.7974 39.2477 13.8573 39.1674 13.8899 39.0746L13.9415 38.9337L14.0549 39.0325C14.1806 39.1472 14.2878 39.2814 14.3725 39.4301C14.4767 39.5153 14.6085 39.5574 14.7417 39.5478C14.8068 39.5582 14.8733 39.5525 14.9357 39.5313C14.9981 39.5101 15.0547 39.4739 15.1006 39.4259C15.2512 39.1798 15.2904 38.3742 15.0099 37.6571C14.7294 36.9399 14.1972 36.4961 13.5867 36.4645C13.2544 36.4377 12.9216 36.5108 12.6297 36.6749L12.5719 36.7148L12.5142 36.6749C12.5142 36.6749 12.246 36.5045 11.6417 36.5655C11.4589 36.5921 11.2863 36.6676 11.1413 36.7844C10.9964 36.9011 10.8844 37.0549 10.8167 37.2301L10.7775 37.3374L10.6744 37.2869C10.5506 37.2327 10.4172 37.2048 10.2825 37.2048C10.1478 37.2048 10.0144 37.2327 9.89062 37.2869C9.37292 37.5267 9.39768 38.185 9.39768 38.2144V38.3027L9.31105 38.3217C9.09022 38.378 8.8808 38.4734 8.69228 38.6035C8.60524 38.6722 8.53658 38.7622 8.4926 38.8651C8.44863 38.968 8.43076 39.0806 8.44066 39.1924L8.23441 39.2155C8.2189 39.0655 8.24215 38.914 8.30186 38.776C8.36156 38.638 8.45563 38.5184 8.57472 38.4289C8.76089 38.3016 8.96454 38.2031 9.17904 38.1366C9.17904 37.9158 9.26154 37.3395 9.7978 37.085C10.0694 36.9621 10.3764 36.9478 10.6579 37.045C10.7458 36.8564 10.8788 36.6933 11.0445 36.5705C11.2103 36.4478 11.4035 36.3694 11.6067 36.3425C11.9265 36.2931 12.2535 36.3323 12.5534 36.4561C12.8717 36.2909 13.2285 36.2181 13.5846 36.2458C14.2777 36.2815 14.8779 36.7758 15.1893 37.5708C15.4822 38.3175 15.4636 39.2008 15.2635 39.5289C15.1998 39.6096 15.1169 39.6723 15.0226 39.7109C14.9284 39.7496 14.826 39.763 14.7252 39.7498C14.6237 39.7567 14.5219 39.7401 14.4276 39.7011C14.3333 39.6621 14.2489 39.6018 14.1807 39.5247C14.1302 39.4349 14.0693 39.3515 13.9992 39.2765C13.9414 39.3775 13.8576 39.4605 13.7569 39.5165C13.6563 39.5725 13.5425 39.5993 13.4279 39.5941C13.1907 39.5765 12.9623 39.4952 12.7658 39.3586C12.723 39.4633 12.6533 39.5544 12.564 39.6221C12.4747 39.6898 12.3691 39.7317 12.2584 39.7434C11.934 39.7448 11.6153 39.6561 11.3365 39.4868C11.3342 39.5997 11.2993 39.7094 11.2362 39.8022C11.1731 39.8949 11.0846 39.9667 10.9817 40.0084C10.9293 40.0306 10.8734 40.0428 10.8167 40.0442Z" fill="black"/>
<path d="M12.5493 36.5823C12.5493 36.5823 13.3743 37.0681 13.9642 39.1061L12.5493 36.5823Z" fill="white"/>
<path d="M13.8653 39.1461C13.296 37.1754 12.504 36.6769 12.4978 36.6727L12.6009 36.4918C12.636 36.5108 13.4651 37.0218 14.0633 39.0851L13.8653 39.1461Z" fill="black"/>
<path d="M12.6977 39.2008C12.6977 39.2008 11.9078 37.7727 10.7053 37.1859L12.6977 39.2008Z" fill="white"/>
<path d="M12.6071 39.2491C12.6071 39.2365 11.8192 37.8442 10.6621 37.2784L10.7508 37.0891C11.9677 37.6843 12.7535 39.0872 12.7865 39.1461L12.6071 39.2491Z" fill="black"/>
<path d="M9.28027 38.2144C9.28027 38.2144 9.81653 38.0419 11.217 39.3164L9.28027 38.2144Z" fill="white"/>
<path d="M11.1468 39.3964C9.8371 38.2017 9.3132 38.3132 9.30908 38.3153L9.24927 38.105C9.31114 38.0861 9.88247 37.9514 11.285 39.2302L11.1468 39.3964Z" fill="black"/>
<path d="M19.0341 8.46024C19.0027 8.07561 18.9434 7.69388 18.8567 7.3182C18.0523 3.86472 14.7728 0.922339 9.88873 3.40833C7.32293 4.71443 6.81761 7.29296 7.61994 10.7485C7.66481 10.9426 7.72129 11.1336 7.78907 11.3206L7.70451 11.3606C7.15587 11.6719 7.10018 12.633 7.57869 13.5101C8.05721 14.3871 8.88635 14.8456 9.43498 14.5364L9.47622 14.5091C10.6519 17.441 13.8901 18.9763 16.3693 18.3769C19.1578 17.7018 20.8243 14.0464 20.022 10.595C19.849 9.81856 19.5119 9.08999 19.0341 8.46024Z" fill="white"/>
<path d="M15.2924 18.604C13.0876 18.604 10.5011 17.2117 9.42037 14.6584C9.25871 14.7223 9.08465 14.7468 8.91206 14.73C8.73947 14.7132 8.57311 14.6556 8.42623 14.5616C8.02674 14.3249 7.70023 13.9788 7.48364 13.5626C6.97832 12.6351 7.05257 11.6066 7.65071 11.268C7.59437 11.1061 7.54685 10.9411 7.50839 10.7738C6.62975 6.98798 7.38876 4.55877 9.82875 3.31788C11.9511 2.23683 13.9538 2.0896 15.6389 2.89723C17.2436 3.6628 18.4811 5.30962 18.939 7.31398C19.0263 7.68395 19.0863 8.06008 19.1184 8.4392C19.5947 9.07466 19.9316 9.80694 20.1064 10.5866C20.4981 12.2628 20.3275 14.0245 19.6217 15.5901C18.9143 17.1107 17.7324 18.1708 16.3794 18.4968C16.0223 18.5748 15.6576 18.6108 15.2924 18.604ZM9.51731 14.3513L9.56475 14.4691C10.7548 17.4367 14.0281 18.8333 16.3402 18.2738C17.6314 17.9625 18.7637 16.9446 19.434 15.4829C20.1201 13.9599 20.2864 12.2466 19.9063 10.616C19.7359 9.85565 19.4051 9.14226 18.937 8.52543L18.9184 8.50019V8.46865C18.8876 8.08964 18.829 7.7135 18.7431 7.34343C18.2934 5.41268 17.093 3.81845 15.5502 3.07812C13.9311 2.30624 11.9841 2.44716 9.92157 3.49876C7.58058 4.69128 6.85663 7.05318 7.70846 10.7191C7.75363 10.9094 7.80941 11.0969 7.87553 11.2806L7.91059 11.3753L7.81777 11.4131C7.79225 11.4233 7.76745 11.4353 7.74352 11.4489C7.24645 11.7307 7.20727 12.6309 7.6569 13.4554C7.85546 13.8365 8.15393 14.154 8.51904 14.3724C8.64439 14.4567 8.78873 14.5072 8.93847 14.519C9.08822 14.5307 9.23844 14.5034 9.37499 14.4397L9.51731 14.3513Z" fill="black"/>
<path d="M14.9605 14.6226C14.7687 14.6226 14.6573 14.6079 14.647 14.6079L14.6738 14.3976C15.1465 14.4347 15.622 14.3906 16.0804 14.2672C16.5616 14.1439 16.9815 13.8445 17.2602 13.4259L17.4376 13.5332C17.1323 14.0018 16.6656 14.3366 16.1299 14.4712C15.7474 14.5687 15.3548 14.6195 14.9605 14.6226Z" fill="black"/>
<path d="M15.4865 13.2472C15.3349 13.2418 15.1854 13.2091 15.0451 13.1504C14.8388 13.0768 14.7254 13.0326 14.5356 13.2156L14.3933 13.0621C14.4855 12.9659 14.6064 12.9036 14.737 12.8849C14.8676 12.8663 15.0006 12.8923 15.1152 12.959C15.2185 13.0088 15.3306 13.0366 15.4447 13.041C15.5589 13.0453 15.6727 13.026 15.7793 12.9843C15.8879 12.9482 15.9879 12.8896 16.0732 12.8122C16.1584 12.7347 16.2269 12.64 16.2743 12.5342C16.3054 12.4394 16.3685 12.359 16.4524 12.3073C16.5363 12.2557 16.6355 12.2362 16.7322 12.2524L16.7034 12.4627C16.561 12.4437 16.5342 12.4921 16.4538 12.6372C16.3623 12.8197 16.224 12.9735 16.0537 13.0824C15.8834 13.1913 15.6874 13.2511 15.4865 13.2556V13.2472Z" fill="black"/>
<path d="M14.9502 10.1744C14.9502 10.1744 16.1197 11.4742 16.3177 12.1156C16.3727 12.2919 16.3624 12.4827 16.2886 12.6517C16.2149 12.8208 16.0828 12.9563 15.9175 13.0326" fill="white"/>
<path d="M15.9607 13.1294L15.8762 12.938C16.0185 12.8719 16.1321 12.7549 16.1956 12.6092C16.2591 12.4635 16.268 12.2991 16.2206 12.1472C16.0309 11.5351 14.8862 10.2543 14.8738 10.2543L15.0264 10.1133C15.0738 10.1659 16.2124 11.4363 16.4166 12.0904C16.482 12.2903 16.4715 12.508 16.3871 12.7004C16.3027 12.8928 16.1505 13.0459 15.9607 13.1294Z" fill="black"/>
<path d="M12.1327 11.0661C12.1327 11.0661 12.0647 10.5403 12.5225 10.4456C12.9804 10.351 13.1413 10.881 13.1413 10.881" fill="black"/>
<path d="M17.419 9.45718C17.419 9.45718 17.2127 8.97135 16.8642 9.10805C16.5156 9.24476 16.6579 9.77687 16.6579 9.77687" fill="black"/>
<path d="M18.8483 7.31396C18.0459 3.86048 14.7665 0.92231 9.8824 3.40831C7.3166 4.7144 6.81127 7.29503 7.6136 10.7485C7.65847 10.9412 7.71496 11.1308 7.78273 11.3164C7.78273 11.3164 7.92918 11.6045 8.49431 11.6192C9.05945 11.634 7.50635 7.94072 8.57887 6.73978C9.65139 5.53885 12.8298 5.3075 12.8298 5.3075C12.8298 5.3075 15.1914 3.55973 16.8311 4.37367C18.4708 5.18761 18.8483 7.31396 18.8483 7.31396Z" fill="black"/>
<path d="M8.49845 11.7244C7.87969 11.7076 7.70437 11.3795 7.69818 11.3648C7.62568 11.1713 7.56574 10.9732 7.51874 10.7717C6.6401 6.98589 7.39912 4.5567 9.83911 3.3158C11.9615 2.23475 13.9642 2.08753 15.6514 2.89516C17.025 3.54926 18.1264 4.84904 18.706 6.47062C18.8136 6.7427 18.8965 7.02432 18.9535 7.3119L18.7472 7.35396C18.6977 7.14363 18.64 6.93332 18.576 6.74193C18.3409 6.06469 17.8211 4.99626 16.7858 4.48308C15.2223 3.707 12.9123 5.39166 12.8896 5.40849L12.8649 5.42532H12.8463C12.8154 5.42532 9.69679 5.66719 8.66552 6.82396C8.04675 7.5096 8.35407 9.10173 8.57477 10.2669C8.72946 11.0935 8.79959 11.4994 8.6614 11.6655C8.64004 11.6868 8.6144 11.7031 8.58627 11.7132C8.55814 11.7234 8.52817 11.7272 8.49845 11.7244ZM7.87969 11.2807C7.87969 11.2807 8.01375 11.5015 8.49845 11.5141C8.57889 11.4321 8.45927 10.8011 8.36233 10.2943C8.13545 9.08701 7.82194 7.43179 8.50465 6.66832C9.55036 5.49893 12.4503 5.23393 12.7947 5.19607C13.0649 5.00047 15.2698 3.47143 16.8786 4.26855C17.11 4.38209 17.3274 4.5233 17.5262 4.68919C17.0054 3.99534 16.3312 3.43683 15.5585 3.0592C13.9395 2.28732 11.9924 2.42824 9.92779 3.47984C7.58681 4.67237 6.86286 7.03428 7.71469 10.7002C7.75892 10.8893 7.81472 11.0755 7.88175 11.2575L7.87969 11.2807Z" fill="black"/>
<path d="M10.3281 9.8042C10.6889 9.28006 11.1975 8.88027 11.7863 8.65794C12.7413 8.31512 13.2095 8.6264 13.2095 8.6264" fill="white"/>
<path d="M10.3939 9.83783C10.6812 9.41056 11.0739 9.06814 11.5324 8.84512C11.9098 8.64703 12.3316 8.55348 12.7555 8.57381C12.8996 8.5797 13.0406 8.61851 13.168 8.68738C13.2526 8.74206 13.3289 8.60535 13.2464 8.55067C13.1041 8.47214 12.9461 8.42756 12.7844 8.42027C12.353 8.39321 11.9219 8.47938 11.5324 8.67055C11.0167 8.90516 10.5753 9.28171 10.2578 9.75792C10.2042 9.84415 10.3382 9.92406 10.3918 9.83783H10.3939Z" fill="black"/>
<path d="M17.9883 7.38127C17.4698 7.1607 16.8935 7.12513 16.3527 7.28032C15.5276 7.55584 15.3792 8.08164 15.3792 8.08164" fill="white"/>
<path d="M18.0274 7.31401C17.4589 7.05395 16.8139 7.02759 16.2268 7.24041C15.8679 7.37922 15.4244 7.66105 15.3048 8.05856C15.2993 8.07864 15.3019 8.10011 15.312 8.11825C15.322 8.13639 15.3387 8.14972 15.3584 8.1553C15.3781 8.16088 15.3992 8.15825 15.417 8.14799C15.4348 8.13774 15.4479 8.12071 15.4533 8.10063C15.5585 7.74729 15.9875 7.4949 16.3093 7.37712C16.8493 7.19267 17.4372 7.21889 17.9593 7.45073C18.0501 7.49069 18.1284 7.35608 18.0377 7.31401H18.0274Z" fill="black"/>
<path d="M11.1798 13.2745C10.9054 13.2808 10.6361 13.1983 10.4105 13.0389C9.88867 12.6624 9.75667 11.96 9.7278 11.7454L9.23897 11.5225L9.09253 10.8915L9.16473 10.8537C9.17916 10.8537 10.5363 10.1533 11.714 9.70323C12.534 9.39568 13.4 9.23556 14.2736 9.23H14.4985C14.7789 9.20031 15.0469 9.09665 15.276 8.92925C15.9223 8.54621 16.616 8.25335 17.3386 8.05851C19.0546 7.55585 19.7167 7.44437 19.7435 7.43806L19.8384 7.42334L19.9456 7.88605L19.7249 8.2436C19.7827 8.58221 20.0384 10.2543 19.3908 10.6223C18.4668 11.1481 17.1756 11.8022 16.6311 11.4258C16.2494 11.1354 15.9165 10.7838 15.6452 10.3847L15.8164 10.2648C16.0735 10.6422 16.3883 10.9753 16.7487 11.2512C16.9756 11.4089 17.6026 11.3984 19.2897 10.4394C19.7579 10.1722 19.6094 8.75678 19.5146 8.24149V8.20153L19.7332 7.84819L19.6899 7.66521C19.4527 7.71148 18.7514 7.87553 17.4046 8.26041C16.6999 8.44829 16.0229 8.73122 15.3915 9.1017C15.1341 9.28587 14.8342 9.3989 14.5211 9.4298H14.2943C13.4425 9.43503 12.5981 9.59087 11.7986 9.8904C10.7879 10.2774 9.63911 10.8453 9.34417 10.9946L9.42872 11.3627L9.93405 11.594V11.655C9.93405 11.655 10.0104 12.4753 10.5384 12.8559C10.7035 12.9618 10.8898 13.0287 11.0836 13.0516C11.2774 13.0745 11.4738 13.0529 11.6583 12.9884C13.3084 12.5468 14.1004 12.1472 14.1004 11.0956H14.3066C14.3066 12.2797 13.4321 12.7276 11.7099 13.1861C11.5379 13.2397 11.3596 13.2694 11.1798 13.2745Z" fill="black"/>
<path d="M14.6058 13.9875C14.6643 14.1417 14.6826 14.3088 14.6592 14.4724C14.6357 14.636 14.5711 14.7907 14.4717 14.9213" fill="white"/>
<path d="M14.5562 14.9823L14.3892 14.8603C14.4776 14.7449 14.5354 14.6083 14.557 14.4635C14.5787 14.3188 14.5635 14.1708 14.5129 14.0337L14.6985 13.9433C14.7661 14.114 14.7885 14.2999 14.7635 14.4822C14.7385 14.6645 14.6671 14.837 14.5562 14.9823Z" fill="black"/>
<path d="M67.5306 0.0999756H20.1911C19.934 0.0999756 19.6874 0.204119 19.5056 0.389501C19.3238 0.574882 19.2217 0.826318 19.2217 1.08849V33.8166C19.2217 34.0605 19.6548 34.2582 20.1911 34.2582H67.5306C68.0648 34.2582 68.5 34.0605 68.5 33.8166V1.08849C68.4994 0.826489 68.3971 0.575378 68.2154 0.390117C68.0338 0.204856 67.7875 0.100531 67.5306 0.0999756Z" fill="#CACACA"/>
<path d="M51.1147 39.0641C50.2423 38.1828 49.7205 36.7505 49.7205 35.2089V19.1151C49.7208 19.0808 49.7143 19.0467 49.7016 19.015C49.6888 18.9832 49.67 18.9543 49.6462 18.9301C49.6224 18.9058 49.5941 18.8866 49.5629 18.8736C49.5318 18.8606 49.4984 18.854 49.4647 18.8543H38.2548C38.187 18.8543 38.1219 18.8818 38.0739 18.9307C38.026 18.9796 37.999 19.0459 37.999 19.1151V35.2089C37.999 36.7442 37.4793 38.1828 36.6048 39.0641L35.2332 40.4438H52.4884L51.1147 39.0641Z" fill="white"/>
<path d="M52.7402 40.5489H34.9817L36.5327 38.9883C37.3866 38.1281 37.8961 36.7169 37.8961 35.2026V19.1151C37.8961 19.018 37.9339 18.925 38.0012 18.8563C38.0685 18.7877 38.1598 18.7491 38.2549 18.7491H49.4649C49.5602 18.7491 49.6517 18.7876 49.7194 18.8562C49.787 18.9248 49.8253 19.0179 49.8258 19.1151V35.2089C49.8258 36.7169 50.3353 38.1281 51.1871 38.9946L52.7402 40.5489ZM35.4829 40.3386H52.2411L51.0468 39.1377C50.1558 38.2396 49.6237 36.7715 49.6237 35.2089V19.1151C49.6231 19.0736 49.6066 19.034 49.5777 19.0049C49.5487 18.9758 49.5097 18.9595 49.469 18.9595H38.2549C38.2145 18.9595 38.1756 18.9759 38.147 19.0051C38.1184 19.0342 38.1023 19.0738 38.1023 19.1151V35.2089C38.1023 36.7715 37.5702 38.2396 36.6771 39.1377L35.4829 40.3386Z" fill="black"/>
<path d="M52.4884 40.4438H35.2332V40.8897H52.4884V40.4438Z" fill="#CACACA"/>
</g>
<defs>
<clipPath id="clip0_481_1196">
<rect width="68" height="41" fill="white" transform="translate(0.5 0.0999756)"/>
</clipPath>
</defs>
</svg>
