<svg width="85" height="54" viewBox="0 0 85 54" fill="none" xmlns="http://www.w3.org/2000/svg">
<g clip-path="url(#clip0_481_24)">
<path d="M55.4335 31.8333C55.4335 31.8333 57.1657 22.5899 62.5434 22.0504C67.921 21.5109 77.5743 21.9729 79.1611 28.9708C80.7479 35.9688 81.8111 43.3577 81.8111 43.3577C81.8111 43.3577 81.6592 47.0118 80.3795 48.4107C79.0997 49.8096 75.325 53.6705 75.325 53.6705H54.4995L55.4335 31.8333Z" fill="white"/>
<path d="M75.3993 53.832H54.3379V53.664L55.2686 31.8139C55.3397 31.4327 57.0849 22.4445 62.5272 21.8985C69.7081 21.1813 77.891 22.6513 79.3323 28.9449C80.903 35.8686 81.9727 43.2704 81.9856 43.3447C81.9856 43.5257 81.8143 47.1022 80.5119 48.5141C79.2095 49.9259 75.4898 53.7415 75.4542 53.7803L75.3993 53.832ZM54.674 53.5089H75.2636C75.7063 53.0566 79.0835 49.5964 80.2696 48.3008C81.4556 47.0053 81.656 43.3867 81.656 43.3512C81.656 43.3157 80.5798 35.9203 79.0124 29.0063C77.2285 21.149 64.9995 21.9664 62.5659 22.2216C57.4468 22.7353 55.6662 31.5005 55.5951 31.8624L54.674 53.5089Z" fill="black"/>
<path d="M64.0558 30.9674C62.6596 27.1454 59.3858 27.071 57.7086 27.9595C57.3628 28.1437 57.0622 28.3085 56.8231 28.4506C56.7266 28.5048 56.6161 28.5288 56.5058 28.5195C56.3955 28.5101 56.2906 28.4679 56.2046 28.3983C56.1186 28.3287 56.0555 28.2349 56.0234 28.129C55.9914 28.0231 55.9919 27.9101 56.0248 27.8044C56.3116 26.8067 56.7346 25.8532 57.282 24.971C57.8512 24.1286 58.5966 23.4198 59.4667 22.8936C59.4667 22.8936 61.8259 21.9243 62.456 21.8177C63.0862 21.7111 63.9653 27.0775 63.9653 27.0775L64.0558 30.9674Z" fill="#A5CE3E"/>
<path d="M64.24 31.9432L63.9168 31.0224C63.348 29.4683 62.3979 28.3989 61.1634 27.924C60.6209 27.7185 60.0415 27.6284 59.4622 27.6596C58.8829 27.6907 58.3164 27.8424 57.7991 28.1049C57.4533 28.2859 57.1527 28.4474 56.9168 28.5896C56.7931 28.6627 56.6498 28.696 56.5064 28.6851C56.3631 28.6741 56.2265 28.6193 56.1154 28.5282C56.003 28.4374 55.9206 28.3148 55.8791 28.1764C55.8376 28.0381 55.8389 27.8904 55.8827 27.7528C56.1808 26.739 56.6157 25.7705 57.1754 24.8741C57.7604 24.0119 58.5242 23.2857 59.415 22.745C59.5281 22.6998 61.813 21.7757 62.4561 21.6562C62.4963 21.6493 62.5375 21.6509 62.577 21.6609C62.6165 21.6709 62.6535 21.6891 62.6855 21.7144C63.3319 22.1667 64.0202 26.2375 64.1528 27.0485L64.24 31.9432ZM59.68 27.3328C60.2223 27.3316 60.7602 27.4301 61.2668 27.6235C62.4265 28.0958 63.3603 28.9958 63.8748 30.1371L63.8037 27.0775C63.4224 24.7449 62.7987 22.115 62.4658 21.9728C61.8776 22.0827 59.5572 23.0293 59.5249 23.039C58.688 23.5573 57.9691 24.2452 57.4145 25.0583C56.8784 25.9285 56.463 26.8676 56.18 27.8497C56.1547 27.9251 56.1532 28.0065 56.1758 28.0828C56.1983 28.1591 56.2438 28.2266 56.306 28.2762C56.3666 28.3257 56.441 28.3553 56.5191 28.3611C56.5971 28.3669 56.6751 28.3485 56.7423 28.3085C56.9911 28.1663 57.2852 28.0048 57.6343 27.8174C58.268 27.4957 58.9693 27.3295 59.68 27.3328Z" fill="black"/>
<path d="M59.7157 12.7488C59.7157 12.7488 56.5065 11.7279 55.7018 14.0412C55.4589 14.6871 55.3907 15.3857 55.5042 16.0664C55.6177 16.7472 55.9088 17.3859 56.3482 17.9182C56.3482 17.9182 54.561 18.6935 54.7711 19.792C54.9387 20.5036 55.3307 21.1424 55.8893 21.6142C55.5233 22.1313 55.3204 22.746 55.3065 23.3793C55.2927 24.0126 55.4686 24.6356 55.8117 25.1681C57.0301 27.042 62.8214 26.3183 62.8214 26.3183C62.8214 26.3183 64.5569 24.5349 66.3408 22.6319C68.1247 20.729 59.7157 12.7488 59.7157 12.7488Z" fill="black"/>
<path d="M39.7465 30.6928C39.4233 30.1791 39.4524 28.6574 39.4524 28.6574C39.4524 26.3603 36.9316 25.4686 34.3591 25.4686C31.7866 25.4686 29.1883 27.8465 29.1883 30.1436C29.1883 31.6847 29.5761 33.8332 30.5295 35.413C31.0013 36.1917 30.7428 37.7748 27.9441 38.2336C29.7169 39.7744 31.5783 41.2102 33.5189 42.5338C34.4884 41.2802 44.62 43.2413 43.8379 42.327C42.7973 41.1058 37.0286 38.8765 37.0286 38.8765C37.2354 38.4888 37.5715 37.9816 37.6749 37.7457C38.5346 35.8363 37.6297 34.4373 38.2276 33.4584C38.6283 33.5844 39.4233 32.683 39.4233 32.683C39.4233 32.683 40.4413 32.6152 40.5383 32.0013C40.6352 31.3874 40.0826 31.2097 39.7465 30.6928Z" fill="white"/>
<path d="M33.5481 42.7535L33.4253 42.6663C31.4782 41.3385 29.6103 39.8983 27.8311 38.3531L27.5854 38.127L27.9086 38.072C29.2013 37.8588 30.0998 37.3613 30.4197 36.6699C30.5089 36.4859 30.552 36.283 30.5452 36.0787C30.5385 35.8744 30.4821 35.6748 30.3809 35.4971C29.3726 33.83 29.0139 31.6395 29.0139 30.1436C29.0139 27.7463 31.7092 25.2974 34.3528 25.2974C36.893 25.2974 39.6076 26.1762 39.6076 28.6477C39.6076 29.0613 39.6076 30.2082 39.8759 30.5862C39.9798 30.7359 40.1001 30.8735 40.2346 30.9965C40.4996 31.2518 40.7711 31.5199 40.6935 32.0078C40.5901 32.654 39.7466 32.7896 39.4977 32.8187C39.3038 33.0287 38.7415 33.6006 38.3117 33.6135C38.121 33.9915 38.1533 34.4503 38.1921 35.0157C38.3135 35.9587 38.1842 36.917 37.8172 37.7942C37.7558 37.9299 37.6298 38.1367 37.494 38.3757C37.4133 38.505 37.3292 38.6439 37.2549 38.7731C38.2438 39.1641 42.9945 41.0703 43.9576 42.201C43.9979 42.2392 44.0251 42.289 44.0356 42.3435C44.046 42.398 44.0391 42.4544 44.0157 42.5047C43.8509 42.8278 42.946 42.7664 40.1861 42.5209C37.7752 42.3077 34.133 41.9846 33.6418 42.6146L33.5481 42.7535ZM35.7166 41.9361C36.8897 41.9361 38.428 42.0589 40.2152 42.2172C41.6501 42.3464 43.2595 42.4886 43.6699 42.3852C42.5259 41.1833 37.0222 39.0478 36.9673 39.0284L36.796 38.9605L36.8832 38.799C36.977 38.6213 37.0998 38.4177 37.2064 38.2271C37.3131 38.0365 37.465 37.8007 37.5296 37.6811C37.8774 36.8533 37.9968 35.9473 37.8754 35.0577C37.8301 34.4115 37.7946 33.859 38.0919 33.3744L38.1565 33.2678L38.2762 33.3066C38.4571 33.3615 38.9516 32.9835 39.3038 32.5764L39.3458 32.5247H39.4137C39.4137 32.5247 40.3024 32.4504 40.3832 31.9787C40.4317 31.6556 40.2927 31.5167 40.0213 31.2485C39.8688 31.1102 39.7322 30.9552 39.6141 30.7865C39.2586 30.2438 39.2909 28.819 39.2909 28.6574C39.2909 26.4282 36.7443 25.6334 34.3592 25.6334C31.874 25.6334 29.3435 27.8949 29.3435 30.1565C29.3435 31.5425 29.6893 33.733 30.6621 35.3258C30.7912 35.5487 30.8637 35.7999 30.8733 36.0573C30.8828 36.3146 30.8292 36.5705 30.717 36.8023C30.4746 37.3257 29.8541 38.001 28.2932 38.3273C29.9542 39.7513 31.6912 41.0843 33.4964 42.3206C33.8519 42.0427 34.6242 41.9361 35.7166 41.9361Z" fill="black"/>
<path d="M39.4525 32.5247C39.6614 32.523 39.8696 32.4981 40.073 32.4504C40.2148 32.5426 40.3191 32.6824 40.3671 32.8445C40.6515 33.6167 41.0781 34.2887 40.9165 34.6247C40.8859 34.7143 40.8273 34.7916 40.7493 34.8451C40.6712 34.8987 40.578 34.9256 40.4834 34.922C40.4834 34.922 41.0522 35.972 40.8874 36.7861C40.7226 37.6003 37.0093 38.6083 34.3173 36.5277C31.6252 34.447 31.1663 33.5359 31.1663 33.5359V32.8219C31.1663 32.8219 32.2554 33.0578 32.1164 32.1273C31.9387 30.919 31.6413 30.6411 31.6413 30.6411C31.6413 30.6411 30.8269 29.995 30.3486 30.5603C30.1321 30.8059 30.0255 31.8688 30.6266 32.7218C30.7138 34.2273 30.7106 35.6909 30.5813 35.4874C27.7729 31.1161 28.6649 28.8577 30.3098 26.8352C31.4539 25.4298 32.8952 25.0324 35.1284 25.0324C41.0361 25.0324 39.4557 28.3828 39.4557 28.3828C39.4557 28.3828 38.8094 26.7157 36.0753 26.3797C35.6858 28.1401 34.6473 29.6892 33.1667 30.7187C33.1667 30.7187 33.7291 32.6152 35.1058 32.7961C36.1541 32.9132 37.2153 32.8154 38.2244 32.5085C39.2554 32.2501 39.4525 32.5247 39.4525 32.5247Z" fill="black"/>
<path d="M36.518 30.2276C36.4889 30.2922 36.5342 30.192 36.5439 30.1791C36.57 30.1235 36.6014 30.0705 36.6376 30.0208C36.7345 29.875 36.8669 29.756 37.0222 29.6751C37.1253 29.6316 37.2342 29.6033 37.3454 29.5911C37.4779 29.5717 37.6104 29.5588 37.7461 29.5459C37.8818 29.533 37.9755 29.5265 38.0919 29.5265C38.1206 29.5218 38.1468 29.507 38.1656 29.4848C38.1845 29.4626 38.1949 29.4345 38.1949 29.4053C38.1949 29.3762 38.1845 29.348 38.1656 29.3259C38.1468 29.3037 38.1206 29.2889 38.0919 29.2842C37.9529 29.2842 37.8139 29.2842 37.675 29.31C37.4019 29.3139 37.1321 29.3698 36.88 29.4748C36.6071 29.6291 36.395 29.8718 36.2789 30.163C36.271 30.1942 36.2757 30.2273 36.2921 30.2552C36.3084 30.283 36.335 30.3032 36.3661 30.3116C36.3969 30.3188 36.4293 30.3141 36.4569 30.2986C36.4844 30.283 36.5051 30.2577 36.5148 30.2276H36.518Z" fill="black"/>
<path d="M37.2483 29.4878C37.2483 29.4878 37.3743 30.1145 37.5004 30.1145C37.6264 30.1145 37.8074 29.4199 37.8074 29.4199" fill="black"/>
<path d="M39.3425 32.011C39.2762 31.9593 39.1987 31.9239 39.1163 31.9076C39.0394 31.8931 38.9604 31.8931 38.8835 31.9076C38.7974 31.934 38.7141 31.9686 38.6347 32.011H38.5992H38.5765H38.5184H38.4828L38.457 31.9949L38.4085 31.9464L38.3891 31.9238C38.3891 31.9238 38.4117 31.9496 38.3891 31.9238L38.36 31.8785C38.2857 31.7396 38.0756 31.8624 38.15 31.9981C38.1923 32.0845 38.2581 32.1572 38.3398 32.2081C38.4215 32.2589 38.5158 32.2858 38.6121 32.2856C38.7704 32.2856 38.8965 32.1532 39.0516 32.1596H39.0775H39.1098H39.1486C39.1292 32.1596 39.1712 32.1596 39.1486 32.1596L39.1938 32.1822C39.2176 32.204 39.2488 32.2161 39.2811 32.2161C39.3134 32.2161 39.3445 32.204 39.3683 32.1822C39.3899 32.1589 39.4019 32.1284 39.4019 32.0966C39.4019 32.0649 39.3899 32.0343 39.3683 32.011H39.3425Z" fill="black"/>
<path d="M36.1365 29.5782C36.3802 29.2655 36.6949 29.0153 37.0544 28.848C37.1633 28.7975 37.2839 28.7774 37.4034 28.7899H37.4357H37.5197L37.6716 28.819L37.8882 28.8545L38.2469 28.9159C38.3086 28.9319 38.374 28.9234 38.4295 28.892C38.485 28.8607 38.5261 28.809 38.5442 28.7479C38.5611 28.6862 38.5529 28.6203 38.5214 28.5647C38.49 28.509 38.4377 28.468 38.3762 28.4507L38.1467 28.4119C37.8815 28.3463 37.6112 28.3031 37.3388 28.2827C36.8417 28.327 36.3798 28.5579 36.0461 28.9288C35.951 29.0158 35.8614 29.1086 35.7778 29.2067C35.7346 29.2533 35.7107 29.3144 35.7107 29.3779C35.7107 29.4414 35.7346 29.5026 35.7778 29.5491C35.8232 29.5945 35.8849 29.62 35.9491 29.62C36.0133 29.62 36.0749 29.5945 36.1204 29.5491L36.1365 29.5782Z" fill="black"/>
<path d="M30.7526 31.7558C30.743 31.6667 30.743 31.5768 30.7526 31.4876C30.7526 31.4553 30.7526 31.507 30.7526 31.4876C30.7526 31.4683 30.7526 31.4683 30.7526 31.4618C30.7526 31.4553 30.7526 31.4198 30.7526 31.3972C30.7615 31.3565 30.7733 31.3165 30.7881 31.2776V31.2486L30.8205 31.1872L30.8528 31.1387C30.8528 31.1387 30.8528 31.1549 30.8528 31.1387L30.8786 31.1129L30.9045 31.087C30.8851 31.087 30.9045 31.087 30.9045 31.087C30.9253 31.0729 30.9469 31.06 30.9691 31.0482C30.9465 31.0482 30.995 31.0482 30.9691 31.0482H31.0111H31.0532H31.0725C31.0499 31.0482 31.0984 31.0482 31.0725 31.0482C31.0901 31.0511 31.1081 31.0501 31.1253 31.0454C31.1424 31.0406 31.1583 31.0322 31.1719 31.0207C31.1855 31.0091 31.1964 30.9948 31.2039 30.9786C31.2113 30.9625 31.2152 30.9449 31.2152 30.9271C31.2152 30.9093 31.2113 30.8917 31.2039 30.8755C31.1964 30.8594 31.1855 30.845 31.1719 30.8335C31.1583 30.822 31.1424 30.8136 31.1253 30.8088C31.1081 30.804 31.0901 30.8031 31.0725 30.8059C30.9442 30.8175 30.822 30.8658 30.7203 30.9449C30.6409 31.0089 30.5777 31.0908 30.5361 31.1839C30.464 31.3501 30.4277 31.5295 30.4294 31.7106C30.4262 31.7471 30.4262 31.7839 30.4294 31.8204C30.4302 31.8519 30.4431 31.8818 30.4653 31.904C30.4876 31.9263 30.5175 31.9391 30.549 31.94C30.581 31.94 30.6118 31.9275 30.6347 31.9051C30.6576 31.8828 30.671 31.8524 30.6718 31.8204L30.7526 31.7558Z" fill="black"/>
<path d="M39.1001 33.859C39.3049 33.9494 39.5233 34.0051 39.7465 34.0238C39.8135 34.0257 39.88 34.0118 39.9407 33.9831C40.0013 33.9545 40.0543 33.912 40.0955 33.859L39.7109 33.2775L39.1001 33.859Z" fill="white"/>
<path d="M38.4408 34.3501C38.5914 34.3356 38.7354 34.2809 38.8577 34.1918C39.0095 34.0944 39.1542 33.9864 39.2908 33.8687C39.4653 33.7104 39.6366 33.5457 39.7982 33.3712L39.6075 33.3486C39.7853 33.5845 39.9441 33.834 40.0826 34.0949C40.1504 34.2338 40.3605 34.1111 40.2927 33.9721C40.1543 33.7105 39.9942 33.4609 39.8143 33.2258C39.8052 33.21 39.7927 33.1964 39.7775 33.1862C39.7624 33.176 39.7451 33.1694 39.727 33.1669C39.7089 33.1644 39.6904 33.1661 39.6731 33.1718C39.6557 33.1776 39.6399 33.1872 39.6269 33.2C39.4782 33.3615 39.3231 33.5231 39.1615 33.6587C39.0365 33.7753 38.9037 33.8833 38.764 33.9818C38.7049 34.023 38.6422 34.0587 38.5766 34.0884L38.5022 34.1175H38.4667C38.4473 34.1175 38.4667 34.1175 38.4408 34.1175C38.4121 34.1222 38.3859 34.137 38.3671 34.1592C38.3482 34.1814 38.3379 34.2096 38.3379 34.2387C38.3379 34.2678 38.3482 34.296 38.3671 34.3182C38.3859 34.3404 38.4121 34.3551 38.4408 34.3598V34.3501Z" fill="#4D4D4D"/>
<path d="M48.7342 53.8353C48.7342 53.8353 47.1506 48.401 46.1197 46.4593C45.0887 44.5176 43.8995 42.7729 43.8995 42.7729C43.8995 42.7729 44.5458 41.9781 44.3746 41.8037C44.2033 41.6292 43.6635 41.8037 43.6635 41.8037C43.6635 41.8037 43.1852 40.9733 41.6017 40.2981C40.0181 39.6229 37.8916 38.9799 37.8916 38.9799L38.538 37.287C37.7919 37.3089 37.0486 37.3878 36.3145 37.5228C34.9281 37.7619 33.5772 41.0509 33.5772 41.0509C33.5772 41.0509 33.4189 37.287 31.9904 35.7006C31.5794 35.248 31.0456 34.9246 30.4541 34.7697C29.8625 34.6148 29.2387 34.6352 28.6585 34.8283L28.1866 36.9704C26.9024 36.7571 25.6079 36.6104 24.3085 36.531C23.158 36.531 22.1271 36.6117 22.1271 36.6117C22.1271 36.6117 21.7684 35.7782 21.0541 35.9656C20.3399 36.153 20.8182 37.274 20.8182 37.274C20.8182 37.274 19.4706 38.463 16.8916 41.277C14.3127 44.0911 12.1926 53.8062 12.1926 53.8062" fill="white"/>
<path d="M48.579 53.8804C48.579 53.8255 46.989 48.4397 45.9936 46.5335C44.9982 44.6274 43.796 42.8795 43.7831 42.8633L43.7152 42.7664L43.7895 42.6727C43.9819 42.4485 44.1378 42.1956 44.2517 41.9232C44.0734 41.9048 43.8931 41.9224 43.7217 41.9749L43.6021 42.0104L43.5375 41.9005C43.5375 41.9005 43.0592 41.1025 41.5532 40.4628C39.9922 39.8005 37.8819 39.1705 37.8625 39.1511L37.6944 39.0994L38.3408 37.484C37.684 37.5176 37.0299 37.592 36.3823 37.7069C35.3191 37.8911 34.1363 40.2464 33.7678 41.1381L33.4899 41.8198L33.4576 41.0831C33.4576 41.0476 33.2831 37.358 31.9128 35.833C31.5358 35.4118 31.046 35.1073 30.5014 34.9556C29.9567 34.8039 29.38 34.8113 28.8394 34.9769L28.3546 37.1803L28.2028 37.1545C26.9237 36.9436 25.6347 36.798 24.3408 36.7183C23.2097 36.7183 22.182 36.7991 22.169 36.7991H22.0559L22.0107 36.6925C22.0107 36.6634 21.6875 35.9914 21.1317 36.1497C21.0828 36.1598 21.0369 36.1811 20.9977 36.212C20.9584 36.2428 20.9269 36.2823 20.9054 36.3274C20.831 36.6339 20.864 36.9567 20.9991 37.2417L21.0444 37.3483L20.9571 37.4258C20.9571 37.4258 19.5836 38.6406 17.0435 41.4159C14.5033 44.1912 12.3736 53.7803 12.3542 53.8707L12.031 53.8029C12.1183 53.4023 14.1931 44.0103 16.7688 41.2027C18.9664 38.8022 20.2882 37.568 20.6243 37.2643C20.4801 36.9251 20.4641 36.5451 20.579 36.1949C20.62 36.1079 20.6798 36.0312 20.7541 35.9703C20.8285 35.9094 20.9155 35.8658 21.0089 35.8427C21.2517 35.7921 21.5047 35.8264 21.7253 35.9399C21.9459 36.0534 22.1208 36.2393 22.2208 36.4663C22.5181 36.4437 23.3777 36.392 24.3053 36.392C25.5668 36.4634 26.8236 36.6026 28.0702 36.8088L28.5259 34.7281L28.61 34.699C29.2205 34.4986 29.8759 34.4782 30.4978 34.6404C31.1196 34.8025 31.6816 35.1403 32.1164 35.6134C33.2217 36.8411 33.5836 39.2706 33.6968 40.4305C34.1654 39.4613 35.1995 37.5745 36.2822 37.3871C37.0287 37.2475 37.7852 37.1675 38.5444 37.148H38.7803L38.0984 38.8959C38.6317 39.0639 40.338 39.6099 41.6534 40.1688C42.4605 40.4678 43.1741 40.9749 43.7217 41.6388C43.935 41.5904 44.3099 41.5387 44.4812 41.7099C44.5426 41.7713 44.7268 41.9587 44.0901 42.7826C44.3551 43.1799 45.3828 44.721 46.2554 46.3882C47.2799 48.3266 48.8149 53.5703 48.8796 53.7932L48.579 53.8804Z" fill="black"/>
<path d="M19.6353 46.6983C20.0649 47.0727 20.3888 47.5531 20.5748 48.0916C20.7608 48.6302 20.8023 49.208 20.6953 49.7676C20.6953 49.7676 20.049 49.4898 19.2701 50.3621C18.4913 51.2344 17.8578 53.8352 17.8578 53.8352H11.9405C11.8209 53.4411 11.3588 50.5398 12.3671 48.989C13.1947 47.7204 14.2537 46.6189 15.4889 45.742" fill="white"/>
<path d="M17.9872 53.9968H11.821L11.7854 53.8837C11.6755 53.5154 11.1649 50.5366 12.2346 48.9147C13.0725 47.626 14.1472 46.5078 15.4018 45.6193L15.5763 45.8907C14.3624 46.7585 13.3203 47.8442 12.5029 49.0924C11.5915 50.4752 11.9309 53.0372 12.0666 53.6737H17.7351C17.8708 53.1374 18.4332 51.047 19.1538 50.2555C19.7614 49.5867 20.3011 49.5382 20.5726 49.5738C20.638 49.0641 20.5769 48.5461 20.3949 48.0655C20.2129 47.5849 19.9154 47.1565 19.5287 46.8179L19.7485 46.582C20.2026 46.9745 20.5444 47.4802 20.7391 48.0478C20.9339 48.6154 20.9745 49.2245 20.857 49.8129L20.8053 49.9938L20.6437 49.9033C20.6243 49.9033 20.0975 49.6933 19.4027 50.459C18.6464 51.2894 18.0356 53.8352 18.0292 53.8611L17.9872 53.9968Z" fill="black"/>
<path d="M47.8194 52.6624H22.4016V53.6317H47.8194V52.6624Z" fill="black"/>
<path d="M19.6353 48.0391C19.6353 48.0391 18.7208 47.6514 17.1372 47.1377C15.5536 46.624 16.5102 45.994 16.8366 45.7549" fill="white"/>
<path d="M19.5706 48.1878C19.5706 48.1878 18.6431 47.7969 17.0886 47.2896C16.4681 47.0893 16.1449 46.8438 16.0964 46.5368C16.035 46.1362 16.4713 45.8196 16.7072 45.6516L16.7428 45.6257L16.9302 45.8874L16.8947 45.9133C16.7299 46.0328 16.3841 46.2816 16.4164 46.4851C16.4164 46.5821 16.5521 46.7759 17.1888 46.9827C18.7594 47.4932 19.6902 47.8873 19.6966 47.8905L19.5706 48.1878Z" fill="black"/>
<path d="M20.6953 49.7676C20.6953 49.7676 22.421 48.7984 22.8961 48.7467C23.3712 48.695 25 49.1537 26.0794 50.1618C26.747 50.8357 27.1623 51.7186 27.2558 52.6624H26.0212L23.2549 53.147L23.3744 53.3861L22.3467 53.5541L21.1736 52.6624L19.8001 53.7803L16.6653 53.8417C16.6653 53.8417 17.1888 51.6027 18.5042 50.4235C19.1846 49.7893 19.9299 49.2283 20.7276 48.7499L20.6953 49.7676Z" fill="#A5CE3E"/>
<path d="M16.4585 54.0032L16.507 53.7997C16.5296 53.706 17.0564 51.4961 18.3976 50.2975C19.0884 49.6533 19.8469 49.0857 20.6598 48.6045L20.9054 48.4688L20.8763 49.4898C21.3869 49.2087 22.4922 48.6271 22.8897 48.5883C23.4294 48.5334 25.0808 49.0019 26.199 50.0422C26.8991 50.7435 27.3332 51.6664 27.4271 52.6527V52.824H26.0213L23.4941 53.2698L23.6169 53.5089L22.3048 53.7254L21.1769 52.8692L19.8583 53.9321L16.4585 54.0032ZM20.5564 49.0374C19.8706 49.484 19.2221 49.9853 18.6173 50.5365C17.5831 51.4638 17.0467 53.0986 16.8819 53.6704L19.7484 53.6123L21.1769 52.4589L22.3952 53.3829L23.1385 53.2634L23.019 53.0243L25.9987 52.5041H27.0781C26.9605 51.6636 26.5739 50.8838 25.976 50.2813C24.9225 49.3121 23.3357 48.8694 22.9188 48.9114C22.5956 48.9437 21.4645 49.5285 20.7826 49.913L20.5337 50.0551L20.5564 49.0374Z" fill="black"/>
<path d="M24.415 50.2651C24.8193 50.4569 25.157 50.7652 25.3846 51.1504C25.669 51.7222 26.0115 52.6624 26.0115 52.6624" fill="#A5CE3E"/>
<path d="M25.8693 52.7174C25.8693 52.7174 25.5268 51.7772 25.2521 51.2215C25.0356 50.8691 24.7212 50.5873 24.3472 50.4106L24.4797 50.1166C24.9244 50.3229 25.2946 50.6614 25.5397 51.0858C25.8241 51.6577 26.157 52.5752 26.186 52.614L25.8693 52.7174Z" fill="black"/>
<path d="M22.9866 50.4816C23.5815 50.7596 24.0791 51.2098 24.415 51.774C24.861 52.6463 24.7996 52.9015 24.7996 52.9015" fill="#A5CE3E"/>
<path d="M24.958 52.9564L24.6349 52.8821C24.5812 52.5208 24.4536 52.1743 24.26 51.8644C23.9445 51.3275 23.475 50.8975 22.9124 50.6302L23.0416 50.3362C23.6738 50.63 24.1998 51.1118 24.5476 51.7158C24.9968 52.5752 24.9742 52.8821 24.958 52.9564Z" fill="black"/>
<path d="M21.7068 51.1504C22.1431 51.3927 23.2548 53.147 23.2548 53.147L21.7068 51.1504Z" fill="#A5CE3E"/>
<path d="M23.119 53.2343C22.6956 52.5687 21.92 51.4541 21.6292 51.2958L21.7875 51.0147C22.2464 51.2732 23.2741 52.8854 23.4034 53.0663L23.119 53.2343Z" fill="black"/>
<path d="M20.6985 49.7676L23.7945 46.4108L24.415 41.4192" fill="white"/>
<path d="M20.818 49.8775L20.5789 49.6578L23.6426 46.3397L24.2534 41.3998L24.5765 41.4385L23.9496 46.4819L20.818 49.8775Z" fill="black"/>
<path d="M58.0415 20.3833C55.8859 17.7986 56.4256 14.9942 60.2585 13.9216C62.4528 13.3077 64.295 14.6259 64.9963 17.5207C65.6975 20.4156 64.56 23.4881 62.524 23.8467C60.6786 24.1698 58.2839 22.5834 58.0415 20.3865V20.3833Z" fill="white"/>
<path d="M58.9917 18.9197C59.1529 19.1978 59.2091 19.5245 59.1501 19.8405C59.1501 19.8696 59.15 19.9019 59.1306 19.9342C59.1113 19.9665 59.1791 19.8857 59.1468 19.9116C59.0787 19.9702 59.0227 20.0415 58.982 20.1216C58.9445 20.1761 58.9192 20.2379 58.9077 20.303C58.8962 20.3681 58.8988 20.435 58.9153 20.499C58.9319 20.563 58.962 20.6227 59.0036 20.6741C59.0452 20.7255 59.0974 20.7673 59.1565 20.7968C59.3961 20.8866 59.6566 20.9046 59.9063 20.8485C60.087 20.8233 60.2653 20.7833 60.4395 20.729C60.5882 20.6837 60.5235 20.4479 60.3749 20.4964C60.2444 20.5366 60.1117 20.569 59.9774 20.5933C59.7578 20.6481 59.528 20.6481 59.3084 20.5933C59.265 20.5816 59.2257 20.5578 59.1954 20.5246C59.165 20.4914 59.1448 20.4502 59.1371 20.4059C59.1438 20.3149 59.1801 20.2287 59.2406 20.1604C59.2864 20.118 59.3256 20.069 59.3569 20.015C59.3759 19.9595 59.3889 19.902 59.3957 19.8437C59.4527 19.4808 59.3843 19.1093 59.2018 18.7905C59.1835 18.7672 59.1573 18.7512 59.1281 18.7457C59.099 18.7401 59.0688 18.7453 59.0432 18.7603C59.0176 18.7753 58.9983 18.799 58.9888 18.8271C58.9793 18.8553 58.9804 18.8859 58.9917 18.9133V18.9197Z" fill="black"/>
<path d="M61.5059 17.9181C61.3101 17.9052 61.1136 17.9052 60.9178 17.9181C60.6101 17.9086 60.3068 17.9931 60.0484 18.1605C60.0257 18.1832 60.0129 18.214 60.0129 18.2461C60.0129 18.2782 60.0257 18.309 60.0484 18.3317C60.0712 18.3544 60.1019 18.3672 60.1341 18.3672C60.1662 18.3672 60.197 18.3544 60.2197 18.3317L60.2811 18.2929L60.3425 18.2638C60.4071 18.2412 60.4686 18.2251 60.5332 18.2089C60.6751 18.182 60.8187 18.1647 60.963 18.1572C61.1439 18.1475 61.3251 18.1475 61.5059 18.1572C61.6611 18.1572 61.6611 17.9246 61.5059 17.9149V17.9181Z" fill="black"/>
<path d="M58.6685 19.0651C58.5781 19.0586 58.4874 19.0586 58.397 19.0651C58.2161 19.0785 58.0389 19.1233 57.8734 19.1975C57.7814 19.2413 57.7031 19.3094 57.6472 19.3946C57.6392 19.4082 57.6339 19.4232 57.6316 19.4388C57.6294 19.4545 57.6302 19.4704 57.6341 19.4857C57.638 19.501 57.6449 19.5154 57.6543 19.528C57.6638 19.5407 57.6757 19.5513 57.6892 19.5594C57.7028 19.5674 57.7179 19.5728 57.7335 19.575C57.7491 19.5773 57.765 19.5764 57.7803 19.5725C57.7956 19.5686 57.8101 19.5617 57.8227 19.5523C57.8353 19.5428 57.846 19.531 57.8541 19.5174V19.5012C57.8541 19.5174 57.8541 19.5174 57.8541 19.5012L57.8767 19.4754L57.9025 19.4528C57.921 19.4369 57.9417 19.4238 57.9639 19.414H57.9995C58.0954 19.3772 58.1951 19.3512 58.2968 19.3365H58.3324C58.2968 19.3365 58.3324 19.3365 58.3324 19.3365H58.4034H58.5166C58.5553 19.3365 58.5909 19.3365 58.6297 19.3365C58.6617 19.3356 58.6921 19.3223 58.7144 19.2994C58.7368 19.2764 58.7493 19.2457 58.7493 19.2137C58.7485 19.1822 58.7356 19.1523 58.7133 19.1301C58.6911 19.1078 58.6612 19.095 58.6297 19.0941L58.6685 19.0651Z" fill="black"/>
<path d="M60.8549 19.2468C60.9473 19.2193 60.971 19.0251 60.9078 18.813C60.8447 18.601 60.7186 18.4514 60.6262 18.4788C60.5338 18.5063 60.5102 18.7005 60.5733 18.9126C60.6365 19.1247 60.7625 19.2743 60.8549 19.2468Z" fill="black"/>
<path d="M58.487 20.3381C58.5693 20.288 58.5428 20.0942 58.4278 19.9052C58.3128 19.7161 58.1528 19.6035 58.0705 19.6536C57.9881 19.7036 58.0146 19.8974 58.1296 20.0865C58.2447 20.2755 58.4046 20.3882 58.487 20.3381Z" fill="black"/>
<path d="M60.2747 21.7629C60.6219 21.5756 60.9527 21.3595 61.2636 21.1167L61.4187 20.9939L61.4769 20.9455C61.4769 20.9455 61.5254 20.9132 61.5318 20.8938C61.5383 20.8744 61.5318 20.8938 61.5028 20.8938C61.4737 20.8938 61.4769 20.8647 61.4736 20.8647C61.4704 20.8647 61.4736 20.8647 61.4736 20.8647C61.4736 20.8647 61.4736 20.9325 61.4736 20.9681C61.4785 21.0455 61.4785 21.1232 61.4736 21.2007C61.4704 21.3899 61.407 21.5733 61.2927 21.7241C61.2711 21.7474 61.2591 21.778 61.2591 21.8097C61.2591 21.8415 61.2711 21.872 61.2927 21.8953C61.3038 21.9068 61.3172 21.9158 61.3319 21.922C61.3466 21.9282 61.3624 21.9314 61.3783 21.9314C61.3943 21.9314 61.4101 21.9282 61.4248 21.922C61.4395 21.9158 61.4528 21.9068 61.464 21.8953C61.6013 21.7264 61.6856 21.5207 61.7064 21.3041C61.7128 21.2083 61.7128 21.1123 61.7064 21.0165C61.7111 20.9278 61.699 20.8391 61.6708 20.7548C61.6579 20.7291 61.6396 20.7065 61.6172 20.6884C61.5947 20.6704 61.5687 20.6574 61.5407 20.6504C61.5128 20.6433 61.4838 20.6424 61.4555 20.6476C61.4271 20.6528 61.4003 20.664 61.3767 20.6805C61.3283 20.7167 61.2819 20.7556 61.2377 20.7968C61.1153 20.9022 60.9869 21.0004 60.8532 21.0909C60.6206 21.2493 60.3789 21.3939 60.1293 21.5238C59.9903 21.5981 60.1293 21.8081 60.2521 21.7338L60.2747 21.7629Z" fill="black"/>
<path d="M61.645 17.1912C60.9793 17.0167 60.0938 17.0297 59.5864 17.5531C59.4765 17.6661 59.6478 17.8374 59.7577 17.7243C59.9133 17.5866 60.0951 17.4818 60.2923 17.4163C60.4895 17.3508 60.6979 17.3258 60.9049 17.3431C61.1325 17.3422 61.3594 17.3694 61.5804 17.4238C61.6113 17.4324 61.6442 17.4284 61.6721 17.4126C61.7 17.3968 61.7205 17.3707 61.7291 17.3398C61.7376 17.309 61.7336 17.276 61.7178 17.2481C61.702 17.2202 61.6759 17.1998 61.645 17.1912Z" fill="black"/>
<path d="M58.5943 18.1184C58.3897 18.0562 58.1743 18.0378 57.9621 18.0645C57.7499 18.0912 57.5457 18.1625 57.363 18.2735C57.2134 18.3895 57.101 18.5467 57.0398 18.7258C57.0312 18.7567 57.0353 18.7897 57.051 18.8175C57.0668 18.8454 57.093 18.8659 57.1238 18.8745C57.1547 18.883 57.1877 18.879 57.2156 18.8632C57.2434 18.8475 57.2639 18.8213 57.2725 18.7904C57.3194 18.6749 57.3947 18.573 57.4912 18.4939C57.5877 18.4149 57.7026 18.3614 57.8251 18.3381C57.9311 18.3138 58.0397 18.303 58.1483 18.3058C58.1989 18.3026 58.2496 18.3026 58.3002 18.3058H58.3648H58.4036C58.4473 18.3113 58.4905 18.32 58.5329 18.3317C58.563 18.3371 58.5941 18.331 58.6201 18.3146C58.646 18.2983 58.6649 18.2728 58.673 18.2433C58.6811 18.2137 58.6778 18.1822 58.6638 18.1549C58.6499 18.1276 58.6262 18.1066 58.5975 18.0958L58.5943 18.1184Z" fill="black"/>
<path d="M63.9491 30.5765C63.9491 30.5765 63.5646 28.2148 65.7428 27.0937C67.921 25.9726 71.0041 25.6237 72.258 25.8531C73.5119 26.0824 74.6689 23.6561 73.9611 22.2636C73.2534 20.8711 70.7294 18.6483 70.7294 18.6483L63.7358 21.9535C63.7358 21.9535 62.8148 27.0614 63.9491 30.5765Z" fill="#A5CE3E"/>
<path d="M63.8039 30.625C62.6631 27.1131 63.5744 21.9761 63.5841 21.9244L63.6003 21.8436L70.7618 18.4577L70.8426 18.5288C70.9461 18.6192 73.4022 20.7904 74.1164 22.1925C74.6044 23.1618 74.2554 24.5026 73.6769 25.278C73.26 25.8337 72.7397 26.1018 72.2388 26.0114C70.9978 25.7852 67.9535 26.1406 65.827 27.2359C63.7845 28.2891 64.1012 30.4667 64.1174 30.5507L63.8039 30.625ZM63.8879 22.0633C63.7877 22.661 63.2157 26.3958 63.8362 29.4651C63.9192 28.9288 64.1299 28.4203 64.4505 27.9823C64.771 27.5443 65.1921 27.1897 65.6783 26.9483C67.8662 25.8208 71.0075 25.4589 72.2969 25.6948C72.6686 25.7626 73.079 25.5397 73.4184 25.0841C73.9452 24.3766 74.2425 23.1456 73.8256 22.3379C73.2115 21.1264 71.14 19.2299 70.7069 18.8422L63.8879 22.0633Z" fill="black"/>
<path d="M57.0138 16.2317C57.295 16.6032 60.8079 16.9489 62.5983 16.0411C62.5983 16.0411 61.8809 18.2412 64.114 19.6983C64.114 19.6983 63.1445 21.9082 64.337 23.7046C64.8153 24.4315 69.0651 26.3215 70.3061 25.0647C71.5471 23.808 73.1953 23.0972 73.2664 20.8647C73.3375 18.6322 72.439 15.9667 71.0041 14.9684C69.5692 13.9701 66.3116 14.0638 65.536 13.0493C65.536 13.0493 65.536 11.8894 63.6874 11.5179C60.3975 10.8523 60.5461 12.5518 60.5461 12.5518C59.1468 12.3934 55.6759 14.4806 57.0138 16.2317Z" fill="black"/>
<path d="M57.4631 53.593L57.3274 48.2039C57.3274 48.1522 57.2304 43.0346 57.1916 42.2818C57.1529 41.529 57.3177 34.7605 57.3306 34.2209L56.6616 31.8463L56.9848 31.759L57.6699 34.1822V34.2048C57.6699 34.2791 57.4922 41.5097 57.5278 42.2818C57.5633 43.054 57.6635 48.1619 57.6635 48.2136L57.7992 53.6026L57.4631 53.593Z" fill="black"/>
<path d="M65.5941 40.857H65.4713C62.6015 40.8021 58.3614 40.1107 58.3162 40.1042L58.3679 39.7811C58.4099 39.7811 62.6306 40.4758 65.4778 40.5307C68.3249 40.5856 73.1306 38.6762 73.1791 38.6568L73.2987 38.9573C73.1015 39.0251 68.493 40.857 65.5941 40.857Z" fill="black"/>
<path d="M67.656 38.1141C67.3132 38.1204 66.9707 38.089 66.6348 38.0204L66.5346 37.9977L65.3 32.2016L65.5295 32.234C66.3471 32.3259 67.1733 32.3063 67.9856 32.1758C69.0073 31.9636 70.0127 31.6797 70.9944 31.3261L71.1721 31.2615L72.2257 36.896L72.1126 36.9477C71.1537 37.3978 70.1479 37.7402 69.1135 37.9687C68.6334 38.0632 68.1453 38.1119 67.656 38.1141ZM66.8093 37.7264C67.5556 37.8325 68.3149 37.8062 69.0521 37.6488C70.0191 37.4363 70.9605 37.1212 71.8605 36.7086L70.9233 31.6944C69.9824 32.0288 69.0191 32.2965 68.0406 32.4956C67.2715 32.6208 66.4896 32.6479 65.7137 32.5764L66.8093 37.7264Z" fill="black"/>
<path d="M59.9999 38.5599C59.1726 38.5599 59.137 38.4274 59.1144 38.3402L58.1449 33.3195C58.1344 33.2613 58.1383 33.2014 58.1564 33.1451C58.1744 33.0887 58.206 33.0377 58.2483 32.9964C58.2913 32.957 58.3429 32.9283 58.3991 32.9126C58.4552 32.8969 58.5143 32.8946 58.5715 32.9059C59.2118 33.0581 59.8685 33.1308 60.5267 33.1224C61.3801 33.0512 62.2179 32.8518 63.0119 32.5311L63.209 32.4504L63.9071 37.9816L63.7681 38.0171C62.7432 38.2761 61.6993 38.4533 60.6463 38.5469C60.3942 38.5534 60.1744 38.5599 59.9999 38.5599ZM59.415 38.1916C59.8171 38.254 60.2257 38.2627 60.6301 38.2174C61.611 38.1321 62.5836 37.969 63.5387 37.7295L62.9279 32.8995C62.1574 33.1968 61.3472 33.3786 60.5235 33.439C59.8371 33.4498 59.152 33.3749 58.4842 33.2161C58.4791 33.2138 58.4736 33.2126 58.4681 33.2126C58.4625 33.2126 58.457 33.2138 58.4519 33.2161C58.4491 33.2216 58.4476 33.2277 58.4476 33.2339C58.4476 33.24 58.4491 33.2461 58.4519 33.2516L59.415 38.1916Z" fill="black"/>
<path d="M67.391 35.51L66.011 35.1126L66.0983 34.7895L67.4265 35.1707C68.8711 35.0867 70.4676 34.8961 70.6583 34.7184C70.9814 34.3954 71.4015 33.9333 71.4048 33.9301L71.6504 34.1401C71.6504 34.1595 71.2303 34.628 70.878 34.9543C70.5257 35.2806 68.1375 35.4518 67.4168 35.4938L67.391 35.51Z" fill="black"/>
<path d="M60.3135 35.972C59.7351 35.972 59.2762 35.9494 59.2406 35.9494H59.1857L58.5393 35.4163L58.7429 35.1643L59.3246 35.6327C60.1965 35.6734 61.0703 35.6518 61.9391 35.5681C62.8473 35.4421 63.1575 34.4115 63.1607 34.4018L63.4839 34.489C63.4839 34.5407 63.1155 35.7329 61.994 35.888C61.4363 35.952 60.8749 35.9801 60.3135 35.972Z" fill="black"/>
<path d="M84.5 53.916H10.0757V9.43726H84.5V53.916ZM10.2373 53.7545H84.3384V9.5988H10.2373V53.7545Z" fill="black"/>
<path d="M10.1566 9.51803L19.1603 9.86373C19.0979 11.535 18.5714 13.1559 17.6396 14.5449C16.7078 15.9339 15.4076 17.0362 13.8846 17.7282C12.3616 18.4202 10.676 18.6747 9.0165 18.4631C7.35702 18.2515 5.78924 17.5822 4.48874 16.5302C3.18824 15.4782 2.2064 14.085 1.65318 12.5066C1.09995 10.9283 0.997186 9.22715 1.35641 7.59373C1.71564 5.9603 2.52267 4.45911 3.68709 3.2583C4.85152 2.05749 6.32734 1.20447 7.9493 0.7948L10.1566 9.51803Z" fill="white"/>
<path d="M10.1598 19.1749H9.7881C7.45387 19.103 5.2248 18.1879 3.5137 16.5991C1.8026 15.0102 0.725448 12.8553 0.481713 10.5333C0.237978 8.21144 0.844172 5.87989 2.18805 3.97053C3.53193 2.06117 5.52243 0.70337 7.79087 0.148605L8.41784 -0.00970459L10.6801 8.88152L19.8486 9.23368L19.8227 9.87985C19.7258 12.3773 18.6655 14.7402 16.864 16.4731C15.0625 18.206 12.6598 19.1743 10.1598 19.1749ZM7.48709 1.59278C6.06795 2.07188 4.8035 2.92304 3.82571 4.0574C2.84792 5.19177 2.19265 6.56774 1.92833 8.04167C1.66402 9.51561 1.80034 11.0334 2.32305 12.4367C2.84577 13.84 3.73571 15.0773 4.89998 16.0194C6.06425 16.9615 7.46017 17.5739 8.94197 17.7926C10.4238 18.0113 11.9371 17.8284 13.3241 17.2628C14.711 16.6973 15.9206 15.7699 16.8267 14.5775C17.7328 13.3851 18.302 11.9714 18.4751 10.484L9.65561 10.1448L7.48709 1.59278Z" fill="#A5CE3E"/>
<path d="M10.1566 9.51804L10.0305 0.510498C10.1856 0.510498 10.3537 0.510498 10.4991 0.510498C12.4505 0.587912 14.3242 1.29569 15.8391 2.5277C17.3541 3.7597 18.4287 5.44951 18.9017 7.34369L10.1566 9.51804Z" fill="white"/>
<path d="M9.68151 10.1351L9.53931 0.0322876H10.0241C10.1889 0.0322876 10.3472 0.0322876 10.5185 0.0322876C12.5737 0.118307 14.5461 0.865871 16.1418 2.16359C17.7375 3.4613 18.871 5.2397 19.3736 7.2338L19.4899 7.70226L9.68151 10.1351ZM10.5218 1.00153L10.6316 8.9009L18.3006 6.99794C17.7747 5.32209 16.7466 3.84819 15.3553 2.77569C13.964 1.70319 12.2767 1.08387 10.5218 1.00153Z" fill="black"/>
<path d="M10.1564 18.5256C15.1326 18.5256 19.1666 14.4928 19.1666 9.51804C19.1666 4.54331 15.1326 0.510498 10.1564 0.510498C5.18022 0.510498 1.14624 4.54331 1.14624 9.51804C1.14624 14.4928 5.18022 18.5256 10.1564 18.5256Z" fill="white"/>
<path d="M61.4898 53.9322L61.2312 53.7383C61.9427 52.8 62.7555 51.9429 63.655 51.1827L63.8522 51.4412C62.9767 52.1835 62.1846 53.0187 61.4898 53.9322Z" fill="black"/>
<path d="M68.1505 51.0406C68.1505 51.0406 66.5346 50.8629 64.644 50.8629V50.5398C66.5379 50.5398 68.1699 50.7175 68.199 50.7175L68.1505 51.0406Z" fill="black"/>
<path d="M63.1962 53.7803L62.9602 53.5574C62.9602 53.5574 64.0849 52.3943 64.6957 51.7804L64.9251 52.0098C64.3143 52.6204 63.2059 53.7803 63.1962 53.7803Z" fill="black"/>
<path d="M66.364 52.3526L65.3704 53.5478L65.6189 53.7543L66.6125 52.5591L66.364 52.3526Z" fill="black"/>
<path d="M60.5848 53.7351L60.2908 53.6058C60.7554 52.7158 61.3874 51.9238 62.1522 51.2732C63.0377 50.5689 64.5696 50.5398 64.6342 50.5398V50.8629C64.6181 50.8629 63.1444 50.892 62.3462 51.5284C61.6259 52.1471 61.0284 52.8957 60.5848 53.7351Z" fill="black"/>
<path d="M24.2827 40.857C24.2827 40.857 23.0998 39.1543 22.3856 38.8506C21.7445 38.6241 21.0833 38.4585 20.411 38.3563L17.4636 41.4353C18.428 41.6904 19.3092 42.1926 20.02 42.8924C20.4932 43.3941 20.9984 43.8646 21.5324 44.301L24.2827 40.857Z" fill="#A5CE3E"/>
<path d="M20.7146 44.5176L20.5886 44.4045C19.9002 43.796 19.1749 43.2307 18.4169 42.7115C17.2825 41.9458 16.4487 42.0654 16.439 42.0654L16.3809 41.7423C16.4196 41.7423 17.3504 41.5775 18.5978 42.4272C19.3208 42.9256 20.0146 43.4649 20.6759 44.0426L24.2308 39.5776C24.0337 39.1899 23.0739 37.6391 20.4303 37.8362L20.4076 37.5131C23.6071 37.287 24.5605 39.5162 24.5702 39.5388L24.6057 39.6261L20.7146 44.5176Z" fill="black"/>
<path d="M80.5701 41.3126C80.5701 41.3126 79.3324 29.5362 78.2594 27.6817C77.1865 25.8272 75.0276 25.2521 73.4732 26.8191C71.9187 28.386 74.8402 33.956 75.1472 36.2434C75.4543 38.5308 75.6773 41.626 75.6773 41.626C75.4017 41.7519 75.1767 41.9672 75.0388 42.2369C74.901 42.5067 74.8583 42.8151 74.9178 43.1121C75.1246 44.1848 75.4122 44.5531 75.4122 44.5531L69.8762 50.0455C70.601 50.6621 71.2276 51.3855 71.7345 52.1907C72.3194 53.2634 72.6071 53.3474 72.6071 53.3474C72.6071 53.3474 77.7229 50.9533 79.4164 47.3639C81.1098 43.7745 80.5701 41.3126 80.5701 41.3126Z" fill="#CACACA"/>
<path d="M70.8975 53.7448C69.5854 51.2667 68.157 51.0406 68.1408 51.0373L67.8176 50.9953L68.0374 50.7659L74.1778 44.4206C73.9278 44.0332 73.7372 43.6107 73.6122 43.167C73.4926 42.6016 74.1487 42.2592 74.4298 42.1396C74.3297 41.2318 73.7091 35.5811 73.7156 32.6959C73.7156 29.4651 75.9197 28.3989 76.0134 28.3569L76.1491 28.6477C76.0651 28.6897 74.0452 29.6913 74.0388 32.6959C74.0388 35.804 74.7595 42.1622 74.7659 42.2269V42.3561L74.6399 42.3981C74.6399 42.3981 73.8222 42.6889 73.9127 43.0992C74.0474 43.5432 74.2455 43.9654 74.5009 44.3527L74.5753 44.4594L68.4349 50.795C68.952 50.9792 70.0896 51.593 71.1496 53.5929L70.8975 53.7448Z" fill="black"/>
<path d="M79.6588 45.3963C79.6394 45.3769 77.4903 43.6291 76.4981 43.3545C75.9319 43.2084 75.3835 43.0004 74.8629 42.7341L74.627 42.6017L74.8532 42.4563C74.9307 42.4078 76.7502 41.2738 78.0235 42.0007L77.8652 42.2786C77.0152 41.7972 75.813 42.3109 75.2798 42.5823C75.6984 42.7678 76.1306 42.9212 76.5725 43.0411C77.6293 43.3351 79.7622 45.07 79.8527 45.1443L79.6588 45.3963Z" fill="black"/>
<path d="M73.0564 35.216L72.9627 31.0935C72.9142 28.9191 75.2475 26.1083 75.3445 25.992L75.5933 26.1988C75.5707 26.2279 73.2406 29.0322 73.2858 31.087L73.3796 35.2095L73.0564 35.216Z" fill="black"/>
<path d="M72.8559 39.626C72.8559 39.626 68.3315 42.5338 63.752 42.3593C59.1726 42.1848 58.6555 42.8601 59.0175 43.1573C59.3795 43.4546 65.759 44.944 69.1168 43.5935C72.4746 42.243 72.8559 39.626 72.8559 39.626Z" fill="#CACACA"/>
<path d="M59.6413 44.0232L59.5669 43.7002C59.6024 43.7002 60.0064 43.6097 62.8827 43.6194H62.9118C65.7784 43.6194 69.5757 42.2107 69.6145 42.1978L69.7276 42.4983C69.6888 42.4983 65.8495 43.9425 62.9118 43.9425H62.8795C60.0711 43.9425 59.6574 44.02 59.6413 44.0232Z" fill="black"/>
<path d="M72.0287 45.0571C72.0287 45.0571 68.4543 46.5336 64.6247 45.6677C60.795 44.8018 59.7124 45.6677 60.9986 46.6176C62.2849 47.5674 66.6478 49.2571 68.1505 48.8177C69.6533 48.3784 72.717 45.91 72.0287 45.0571Z" fill="#CACACA"/>
<path d="M67.084 48.2039C66.6643 48.2044 66.2456 48.1654 65.8333 48.0876C62.8342 47.5222 60.2326 45.5029 60.2068 45.5029L60.4072 45.2477C60.433 45.2671 62.9732 47.2346 65.9012 47.7871C68.8291 48.3396 71.4856 46.6046 71.5147 46.5885L71.6892 46.8599C70.2987 47.704 68.7104 48.1675 67.084 48.2039Z" fill="black"/>
<path d="M67.1067 50.7982L66.7835 50.7594L67.0873 48.2006C66.9516 47.8776 66.1372 46.0457 66.0661 45.4221C66.0573 44.723 66.1267 44.0252 66.2729 43.3415L65.1192 41.7713C64.6732 41.1671 65.4423 40.4273 65.717 40.2076C65.5845 39.3966 64.6118 33.4713 63.8975 31.0127C63.6958 30.2782 63.3164 29.6046 62.7929 29.0514C62.2693 28.4981 61.6176 28.0821 60.8953 27.84L60.9793 27.5169C61.7581 27.7693 62.4616 28.2121 63.0259 28.805C63.5902 29.398 63.9976 30.1223 64.2111 30.9125C64.9802 33.5618 66.0434 40.172 66.0531 40.2399V40.3336L65.9756 40.395C65.9756 40.395 65.0416 41.1284 65.368 41.571L66.5637 43.1864L66.6058 43.2446V43.3124C66.4637 43.987 66.3923 44.6746 66.3925 45.364C66.4604 45.9843 67.3943 48.0682 67.404 48.0876L67.4234 48.1296L67.1067 50.7982Z" fill="black"/>
<path d="M56.8167 33.7524L55.9991 32.6281L55.6953 53.1471L57.2239 52.6625L56.8167 33.7524Z" fill="#CACACA"/>
<path d="M40.1861 41.9199C40.1861 41.9199 38.971 42.3561 35.4516 41.9199C34.4335 41.7834 33.4253 41.5816 32.4331 41.3158C32.4655 40.9927 32.4849 40.6438 32.4881 40.3078C32.5107 37.791 29.9027 35.3161 29.4114 35.5358C28.9202 35.7555 28.7651 37.6649 28.7651 37.6649L23.8108 37.2417C24.5155 37.699 25.1765 38.2203 25.7854 38.799C26.1764 39.2254 26.1086 40.5178 26.0375 41.0864C25.068 46.624 24.2988 48.0391 24.2988 48.0391C24.2988 48.0391 25.7854 48.6853 26.6644 49.1732C27.5435 49.661 27.9571 51.312 27.9571 51.312L38.4571 52.4718C38.4571 52.4718 39.9761 49.5641 40.5255 48.0391C41.0749 46.5142 40.1861 41.9199 40.1861 41.9199Z" fill="#CACACA"/>
<path d="M50.7152 39.6067H31.8805L28.946 53.5477H47.7808L50.7152 39.6067Z" fill="white"/>
<path d="M47.91 53.7092H28.7456L31.7479 39.4451H50.9123L47.91 53.7092ZM29.1431 53.3861H47.6482L50.5148 39.7682H32.0097L29.1431 53.3861Z" fill="black"/>
<path d="M25.1246 45.2414L23.7021 46.2906L23.894 46.5506L25.3165 45.5014L25.1246 45.2414Z" fill="black"/>
<path d="M29.9382 48.905C26.1376 48.5593 24.3731 46.8857 24.302 46.8147L24.525 46.582C24.5444 46.6014 26.2895 48.2491 29.9705 48.5851L29.9382 48.905Z" fill="black"/>
</g>
<defs>
<clipPath id="clip0_481_24">
<rect width="84" height="54" fill="white" transform="translate(0.5)"/>
</clipPath>
</defs>
</svg>
