<svg width="77" height="45" viewBox="0 0 77 45" fill="none" xmlns="http://www.w3.org/2000/svg">
<g clip-path="url(#clip0_481_501)">
<path d="M12.601 6.67197C12.601 6.67197 12.3087 6.21786 12.1873 4.85303C12.0659 3.4882 12.3942 1.53424 12.3942 1.53424L13.381 1.86072C13.8067 1.29533 14.3618 0.863052 14.99 0.607813C15.6181 0.352574 16.297 0.283471 16.9576 0.40752C19.2595 0.834642 19.6799 1.94418 20.4105 1.94418C21.1411 1.94418 22.1909 1.20776 22.1909 1.20776C22.1909 1.20776 22.8091 3.24273 22.3932 4.06751C22.2646 4.31158 22.0919 4.5245 21.8855 4.69331C21.6791 4.86212 21.4434 4.98328 21.1928 5.0494C21.1928 5.0494 20.8736 3.55939 19.6754 3.49557C18.4772 3.43174 18.0703 3.81714 18.0703 3.81714C18.0703 3.81714 17.7691 3.24028 16.2292 3.49557C14.6893 3.75086 13.6148 4.70329 13.381 5.65818C13.1472 6.61307 12.601 6.67197 12.601 6.67197Z" fill="#A5CE3E"/>
<path d="M4.71045 41.1166L4.81161 44.7839H31.23C31.23 44.7839 30.931 39.3074 30.7804 36.2759C30.6298 33.2443 29.5912 32.7165 29.5912 32.7165C29.2068 31.2314 28.3368 22.6227 27.5837 21.4861C25.7134 18.6558 22.6764 18.4227 22.6764 18.4227C22.6764 18.4227 22.8472 16.8467 21.6985 14.5245C20.5498 12.2024 16.6383 14.1072 16.6383 14.1072C16.6383 14.1072 19.3201 15.7323 18.2568 16.2429C17.1935 16.7534 17.8072 20.2342 17.8072 20.2342" fill="white"/>
<path d="M31.3605 44.9165H4.69256L4.58691 41.119H4.8297L4.92861 44.6563H31.1132C31.0637 43.7775 30.8074 39.0104 30.6793 36.2906C30.5422 33.4014 29.5688 32.854 29.5553 32.854L29.5059 32.827L29.4901 32.7681C29.353 32.2354 29.1552 30.8043 28.9259 29.1621C28.5235 26.2606 27.9727 22.2888 27.5029 21.5794C25.691 18.8326 22.7169 18.5749 22.6855 18.5724H22.5596L22.5731 18.4325C22.5731 18.4177 22.7214 16.8639 21.6087 14.6129C20.6825 12.74 17.7759 13.798 16.9351 14.1539C17.4881 14.5074 18.6706 15.3444 18.6458 15.9557C18.639 16.0552 18.6046 16.1501 18.5472 16.2277C18.4898 16.3053 18.412 16.362 18.3244 16.3902C17.5263 16.7731 17.7759 19.2941 17.9377 20.2342L17.6972 20.2833C17.6342 19.9151 17.106 16.6823 18.2255 16.1447C18.3963 16.0637 18.4008 15.9728 18.4008 15.9434C18.4188 15.5163 17.3038 14.6768 16.6024 14.2496L16.3776 14.1195L16.6024 14.0091C16.7665 13.9305 20.6331 12.0846 21.82 14.4853C22.7956 16.4491 22.8361 17.8949 22.8203 18.3294C23.4116 18.4104 26.0282 18.9062 27.6962 21.4321C28.202 22.1956 28.7348 26.0397 29.1642 29.1302C29.389 30.7208 29.5756 32.0979 29.7082 32.6527C29.933 32.8098 30.7872 33.5732 30.9154 36.293C31.057 39.2903 31.365 44.7447 31.365 44.7987L31.3605 44.9165Z" fill="black"/>
<path d="M71.7905 44.9312H3.29199V40.7312H3.41338V44.7987H71.6668V8.28467H21.0691V8.14966H71.7905V44.9312Z" fill="black"/>
<path d="M3.41338 21.01H3.29199V8.14966H11.6725V8.28467H3.41338V21.01Z" fill="black"/>
<path d="M12.3828 31.9801C14.9137 32.3938 17.4672 32.6226 20.026 32.665C22.2665 32.6716 24.5023 32.4423 26.7025 31.9801" fill="white"/>
<path d="M20.0981 32.7976H20.0351C17.4675 32.7583 14.9051 32.532 12.365 32.1201L12.4032 31.855C14.9342 32.2683 17.4876 32.4963 20.0464 32.5374H20.1093C22.3203 32.5382 24.5264 32.3106 26.6982 31.8574L26.7499 32.1201C24.557 32.5732 22.3299 32.8 20.0981 32.7976Z" fill="black"/>
<path d="M71.7299 8.54001L76.0011 8.71675C75.9715 9.58168 75.7221 10.4206 75.2808 11.1395C74.8394 11.8585 74.2236 12.4292 73.5022 12.7878C72.7807 13.1463 71.9821 13.2786 71.1958 13.1697C70.4094 13.0609 69.6663 12.7153 69.0496 12.1715C68.4329 11.6278 67.9669 10.9074 67.7038 10.0909C67.4407 9.27443 67.3909 8.39413 67.5599 7.54849C67.7288 6.70285 68.11 5.92523 68.6606 5.30266C69.2113 4.68008 69.9097 4.23711 70.6778 4.02332L71.7299 8.54001Z" fill="white"/>
<path d="M71.7321 13.7317H71.5477C70.2893 13.6729 69.103 13.0738 68.2471 12.0647C67.3912 11.0556 66.935 9.71823 66.9776 8.34359C67.0216 7.22252 67.3953 6.14676 68.0431 5.27574C68.691 4.40472 69.5786 3.78478 70.5744 3.50779L71.0487 3.37769L72.1232 8.02448L76.509 8.20612L76.4911 8.74126C76.4385 10.0805 75.9158 11.3463 75.0314 12.276C74.1469 13.2057 72.9687 13.7278 71.7411 13.7342L71.7321 13.7317ZM70.3383 4.70569C69.5325 5.05377 68.8608 5.69388 68.4359 6.51863C68.0111 7.34338 67.8588 8.30259 68.0049 9.23535C68.1509 10.1681 68.5862 11.0177 69.2378 11.6415C69.8895 12.2653 70.7178 12.6254 71.5837 12.6615C72.4996 12.694 73.3955 12.3642 74.1064 11.7328C74.8172 11.1013 75.2953 10.2107 75.4525 9.22484L71.3454 9.05301L70.3383 4.70569Z" fill="#A5CE3E"/>
<path d="M71.7297 8.53994L72.7346 4.01343C73.4205 4.19365 74.0547 4.55719 74.5801 5.07136C75.1055 5.58553 75.5057 6.23421 75.7446 6.9591L71.7297 8.53994Z" fill="white"/>
<path d="M71.2126 9.16845L72.4648 3.52258L72.8222 3.61586C73.5692 3.81393 74.2591 4.21209 74.8298 4.77439C75.4005 5.33669 75.8338 6.04539 76.0908 6.83646L76.2144 7.21203L71.2126 9.16845ZM72.9998 4.50447L72.2512 7.91163L75.2635 6.73336C75.0426 6.21668 74.7284 5.75411 74.3396 5.37345C73.9501 4.99217 73.4945 4.70003 72.9998 4.51429V4.50447Z" fill="black"/>
<path d="M71.7276 13.199C74.084 13.199 75.9943 11.1131 75.9943 8.53993C75.9943 5.96679 74.084 3.88086 71.7276 3.88086C69.3712 3.88086 67.4609 5.96679 67.4609 8.53993C67.4609 11.1131 69.3712 13.199 71.7276 13.199Z" fill="white"/>
<path d="M48.98 1.26904H29.1775V15.4058H48.98V1.26904Z" fill="white"/>
<path d="M49.0409 15.4721H29.1169V1.20276H49.0409V15.4721ZM29.2406 15.3395H48.9195V1.34759H29.2406V15.3395Z" fill="#A5CE3E"/>
<path d="M46.9367 4.9856H31.5852V5.25316H46.9367V4.9856Z" fill="black"/>
<path d="M42.0181 8.20374H31.5852V8.4713H42.0181V8.20374Z" fill="black"/>
<path d="M46.9367 11.4685H31.5852V11.7361H46.9367V11.4685Z" fill="black"/>
<path d="M29.2989 6.9862H29.0562V1.1366H36.6813V1.40416H29.2989V6.9862Z" fill="black"/>
<path d="M49.1015 15.5384H41.4763V15.2709H48.8565V9.68884H49.1015V15.5384Z" fill="black"/>
<path d="M12.1467 5.71704C12.1467 5.71704 12.2884 7.76428 12.5716 10.5798C12.741 12.1043 12.7832 13.6423 12.6975 15.1751C18.2658 24.611 16.7686 16.4736 16.7686 16.4736C16.7686 16.4736 18.8772 17.8851 19.0953 14.9836" fill="white"/>
<path d="M16.3844 19.8735C15.8763 19.8735 14.8962 19.1371 12.5965 15.2463L12.5718 15.2095V15.1629C12.6556 13.639 12.6127 12.11 12.4437 10.5946C12.1649 7.81098 12.021 5.74901 12.0188 5.72692L12.2638 5.70728C12.2638 5.72937 12.4077 7.78643 12.6887 10.5652C12.8523 12.0835 12.896 13.6143 12.8191 15.1408C15.2919 19.3261 16.1911 19.7188 16.499 19.5789C16.9779 19.3678 16.8407 17.5783 16.6429 16.5007L16.589 16.2012L16.8272 16.3608C16.8272 16.3608 17.6702 16.9131 18.2839 16.5719C18.6751 16.3534 18.9066 15.8158 18.9583 14.9714L19.2011 14.9935C19.1314 15.9361 18.8549 16.5473 18.3829 16.81C17.8591 17.0997 17.2431 16.8787 16.9172 16.7167C17.0386 17.49 17.2836 19.5151 16.58 19.8269C16.5179 19.8553 16.4516 19.8711 16.3844 19.8735Z" fill="black"/>
<path d="M13.3069 9.83367C13.3069 9.83367 13.6194 12.5903 13.9588 13.2703C14.2983 13.9502 16.5935 15.2341 17.5848 15.3372C18.0929 15.385 18.6027 15.2677 19.0499 14.9999C19.4971 14.7322 19.8618 14.326 20.0981 13.8324C20.5477 12.8112 20.6646 11.3777 20.9231 10.0276C21.1816 8.67749 20.9546 8.11782 20.9546 8.11782V7.81834C21.249 7.16188 21.3954 6.43808 21.3817 5.70728" fill="white"/>
<path d="M17.8209 15.4942C17.7382 15.4942 17.6557 15.4893 17.5736 15.4795C16.5777 15.369 14.2218 14.095 13.8509 13.3439C13.5047 12.6394 13.199 9.96371 13.1765 9.8508L13.4193 9.81888C13.4193 9.84588 13.7318 12.5584 14.0577 13.2162C14.3634 13.8348 16.6069 15.1064 17.5893 15.2144C18.0746 15.2588 18.5612 15.1458 18.9879 14.8894C19.4146 14.6331 19.7625 14.2449 19.9879 13.7734C20.3071 13.0542 20.4555 12.1263 20.6106 11.142C20.6691 10.7664 20.7298 10.3786 20.8017 10.0005C21.0445 8.72163 20.8444 8.17422 20.8422 8.16931V8.11776V7.77164C21.1284 7.13271 21.2703 6.42816 21.2558 5.71704H21.5008C21.5131 6.45687 21.3676 7.18967 21.0759 7.85756V8.10303C21.1186 8.23804 21.2715 8.83945 21.04 10.0668C20.968 10.4399 20.9073 10.8278 20.8489 11.2009C20.6915 12.2024 20.5409 13.1499 20.206 13.9011C19.9779 14.3777 19.6355 14.7776 19.2154 15.0582C18.7953 15.3388 18.3133 15.4895 17.8209 15.4942Z" fill="black"/>
<path d="M12.846 11.1494C12.4121 11.2427 11.9153 10.5284 11.7355 9.55384C11.5556 8.57931 11.7647 7.71034 12.1985 7.61461C12.5133 7.54588 12.8595 7.90426 13.0977 8.47867" fill="white"/>
<path d="M12.7672 11.2917C12.2907 11.2917 11.7984 10.5725 11.6163 9.57344C11.4207 8.51055 11.6657 7.59003 12.1738 7.47956C12.5379 7.40101 12.9358 7.75941 13.2078 8.41973L12.983 8.52774C12.7582 8.00488 12.466 7.68576 12.221 7.73976C11.9063 7.8085 11.6792 8.55719 11.8568 9.5219C12.0344 10.4866 12.5087 11.0806 12.8212 11.0144L12.8684 11.2746C12.8353 11.2839 12.8014 11.2897 12.7672 11.2917Z" fill="black"/>
<path d="M12.338 7.71763C12.32 7.69063 12.1559 7.42306 11.857 6.20552C11.558 4.98798 12.0076 2.70999 12.0256 2.61671V2.56025L12.9517 1.9294C13.1985 1.53372 13.5121 1.19299 13.8757 0.925414C14.4826 0.47129 15.5459 -0.0564757 17.1532 0.0048924C18.1431 0.0723603 19.0978 0.431161 19.916 1.04324C20.0149 1.10951 20.0936 1.16352 20.1408 1.19543C20.3656 1.31816 21.3008 1.32798 21.838 1.30344H21.9189L21.9527 1.38445C22.2851 2.27436 22.3635 3.25324 22.1775 4.19265C22.0538 4.79406 21.5031 5.7514 21.4829 5.79067L21.3435 6.03614L21.2626 5.76858C21.1569 5.42492 20.7972 4.48967 20.3858 4.29574C19.4304 3.82689 18.2525 4.29574 18.2412 4.29574L18.2075 4.31047H18.1716C17.1879 4.09378 16.1796 4.04246 15.1817 4.15828C15.0065 4.1685 14.8353 4.2201 14.6801 4.30951C14.5249 4.39893 14.3892 4.52405 14.2825 4.67623C14.0805 5.04935 14.0109 5.49044 14.087 5.91586L13.8487 5.97233C13.7543 5.47587 13.8346 4.95881 14.0735 4.52403C14.1991 4.34258 14.3587 4.19245 14.5417 4.08367C14.7247 3.97488 14.9268 3.90995 15.1345 3.89317C16.1486 3.77088 17.1739 3.82139 18.1738 4.04291C18.3986 3.9619 19.5091 3.58878 20.4713 4.05764C20.9051 4.2712 21.2356 5.0248 21.3884 5.43228C21.6144 5.0312 21.7934 4.60071 21.9212 4.15092C22.0873 3.2992 22.0305 2.41361 21.7571 1.59555C21.4221 1.59555 20.3454 1.62746 20.0262 1.45318C19.9632 1.41881 19.8778 1.36235 19.7721 1.28871C18.9902 0.700327 18.0763 0.355775 17.1285 0.292091C15.5886 0.228268 14.5748 0.733941 13.997 1.16597C13.654 1.41618 13.3598 1.73825 13.1316 2.1135L13.1158 2.1405L12.2279 2.74681C12.1604 3.1003 11.803 5.07881 12.0683 6.15643C12.3515 7.31751 12.5021 7.57281 12.5179 7.58262L12.338 7.71763Z" fill="black"/>
<path d="M18.0321 7.15793C17.7036 7.06002 17.3626 7.02187 17.0228 7.04502C16.4242 7.08633 15.8316 7.19994 15.2559 7.38377L15.42 7.6857C16.1441 7.64397 16.8697 7.64397 17.5938 7.6857C18.0748 7.75443 18.0321 7.15793 18.0321 7.15793Z" fill="black"/>
<path d="M19.1381 7.91162C18.9986 7.98879 18.8834 8.1097 18.8073 8.25885C18.7312 8.40799 18.6977 8.57857 18.711 8.74868C18.6907 9.0948 18.711 9.97604 18.8189 10.116C18.9268 10.2559 19.0437 10.5578 18.9245 10.6732C18.8054 10.7886 18.2659 11.1641 18.2659 11.1641" fill="white"/>
<path d="M18.3311 11.2696L18.2007 11.0438C18.3468 10.9431 18.7469 10.6608 18.8459 10.57C18.8475 10.5657 18.8484 10.5612 18.8484 10.5565C18.8484 10.5519 18.8475 10.5473 18.8459 10.543C18.8355 10.4174 18.79 10.2982 18.7155 10.2018C18.5491 9.98334 18.5716 8.88608 18.5806 8.72897C18.5684 8.53787 18.6076 8.34703 18.6935 8.17998C18.7794 8.01293 18.9081 7.87696 19.0639 7.78882L19.192 8.01711C18.8548 8.24049 18.8459 8.41968 18.8256 8.75352C18.7962 9.18093 18.8227 9.61074 18.9043 10.03C19.021 10.1796 19.0869 10.3686 19.0909 10.5651C19.0852 10.6459 19.0504 10.7209 18.9942 10.7738C18.8706 10.8965 18.3536 11.2549 18.3311 11.2696Z" fill="black"/>
<path d="M19.7113 7.18498C19.0167 7.11379 19.4236 7.71028 19.4236 7.71028L20.66 7.91157L20.7656 7.60228C20.4435 7.38711 20.0849 7.24518 19.7113 7.18498Z" fill="black"/>
<path d="M17.9265 10.8597C17.8314 10.8273 17.7308 10.8188 17.6323 10.835C17.5338 10.8512 17.4399 10.8915 17.3578 10.953C17.2004 11.0782 17.1622 10.8082 17.1554 10.5725C17.1542 10.5343 17.1601 10.4962 17.1726 10.4605C17.1852 10.4248 17.2042 10.3923 17.2286 10.3648C17.2529 10.3373 17.282 10.3155 17.3143 10.3005C17.3465 10.2856 17.3812 10.2779 17.4162 10.278H17.8501" fill="white"/>
<path d="M17.2857 11.1175C17.257 11.1176 17.2286 11.1109 17.2025 11.0978C17.0924 11.0389 17.0407 10.8769 17.0317 10.5774C17.0302 10.5213 17.039 10.4654 17.0576 10.413C17.0763 10.3607 17.1044 10.3129 17.1402 10.2726C17.176 10.2323 17.2189 10.2003 17.2663 10.1785C17.3137 10.1566 17.3646 10.1454 17.4161 10.1454H17.8499V10.4129H17.4251C17.4065 10.4129 17.3882 10.417 17.3711 10.425C17.3541 10.433 17.3388 10.4448 17.3261 10.4596C17.3132 10.4738 17.303 10.4907 17.2961 10.5092C17.2891 10.5277 17.2856 10.5476 17.2857 10.5676C17.2855 10.6553 17.2953 10.7427 17.3149 10.8278C17.4125 10.7614 17.5219 10.7184 17.6359 10.7019C17.7499 10.6854 17.8658 10.6957 17.9758 10.7321L17.8949 10.9775C17.8195 10.9538 17.7403 10.9482 17.6627 10.9609C17.5852 10.9736 17.511 11.0044 17.4453 11.0512C17.4013 11.0938 17.3445 11.1174 17.2857 11.1175Z" fill="black"/>
<path d="M18.7964 11.0438C18.7964 11.0438 18.956 10.899 19.0954 10.9849L18.7964 11.0438Z" fill="white"/>
<path d="M18.8751 11.1468L18.72 10.9406C18.7781 10.8841 18.85 10.847 18.927 10.834C19.0039 10.8209 19.0827 10.8324 19.1538 10.867L19.0347 11.1002C18.974 11.0634 18.8751 11.1468 18.8751 11.1468Z" fill="black"/>
<path d="M15.9885 11.5421C16.5292 11.7366 17.0832 11.8836 17.6453 11.9815C18.2606 12.0455 18.8801 12.0455 19.4954 11.9815" fill="white"/>
<path d="M18.4727 12.1681C18.191 12.1701 17.9094 12.1521 17.6297 12.1141C17.059 12.0159 16.4966 11.8664 15.9482 11.6673L16.0269 11.4219C16.5612 11.613 17.1084 11.7583 17.6635 11.8564C18.2683 11.9186 18.8772 11.9186 19.4821 11.8564L19.5068 12.1215C19.4776 12.119 19.0123 12.1681 18.4727 12.1681Z" fill="black"/>
<path d="M15.429 8.42219C15.429 8.42219 16.2135 8.00489 16.8632 8.0638L15.429 8.42219Z" fill="white"/>
<path d="M15.4829 8.55467L15.375 8.3092C15.4087 8.29202 16.1955 7.87472 16.8722 7.93609L16.8519 8.20365C16.3775 8.20938 15.9101 8.32923 15.4829 8.55467Z" fill="black"/>
<path d="M16.2248 8.30923C16.2217 8.38618 16.1931 8.45928 16.1443 8.51485C16.0955 8.57043 16.0298 8.60467 15.9595 8.61117C15.9074 8.61077 15.8574 8.58915 15.8191 8.55056C15.7809 8.51196 15.7572 8.45917 15.7527 8.40251C15.7527 8.31169 15.8269 8.27978 15.9415 8.25769C16.0921 8.22823 16.2248 8.21595 16.2248 8.30923Z" fill="black"/>
<path d="M19.1382 8.44174C19.1382 8.44174 19.9924 8.25027 20.6084 8.48102L19.1382 8.44174Z" fill="white"/>
<path d="M20.5677 8.60867C20.1077 8.48307 19.6278 8.47049 19.1627 8.57185L19.1133 8.3092C19.1492 8.3092 20.0125 8.11282 20.6486 8.35584L20.5677 8.60867Z" fill="black"/>
<path d="M19.9046 8.49338C19.8839 8.5663 19.8397 8.62856 19.7802 8.66871C19.7207 8.70885 19.6499 8.72418 19.5809 8.71185C19.5306 8.69734 19.4871 8.6629 19.4589 8.61524C19.4306 8.56758 19.4196 8.51013 19.4281 8.4541C19.4483 8.36573 19.5292 8.35592 19.6529 8.36574C19.7967 8.37801 19.9271 8.40256 19.9046 8.49338Z" fill="black"/>
<path d="M22.3888 19.2573C22.3888 19.2573 20.7725 21.0738 20.7725 23.7126L22.3888 19.2573Z" fill="white"/>
<path d="M20.8893 23.7127H20.6443C20.6769 22.0281 21.2652 20.4129 22.3011 19.1641L22.4764 19.3506C22.4606 19.3703 20.8893 21.1573 20.8893 23.7127Z" fill="black"/>
<path d="M70.1224 44.7889L52.7207 44.865V26.3024L70.1224 26.2263V44.7889Z" fill="white"/>
<path d="M52.5994 45V26.1698L70.2461 26.0938V44.9239L52.5994 45ZM52.8444 26.4374V44.7325L70.0011 44.6564V26.3613L52.8444 26.4374Z" fill="black"/>
<path d="M72.5256 34.6435C70.0528 33.5757 68.2387 35.8463 68.2387 35.8463L63.7899 36.3544C63.7899 36.3544 63.999 38.4827 66.2964 40.3065C67.6204 41.3862 69.2421 41.9403 70.8935 41.8776C70.8935 41.8776 74.4049 41.8898 74.1621 36.8086C74.0992 35.4904 73.3731 25.6101 71.6556 22.7307C69.9382 19.8513 67.6205 20.0305 67.6205 20.0305L54.4922 21.5034C53.9612 21.5261 53.4401 21.6674 52.9611 21.9186C52.482 22.1698 52.0552 22.5256 51.707 22.9639C50.4413 24.4834 49.0094 28.1336 48.2878 32.3385C47.8531 34.8626 47.9298 37.4599 48.5126 39.9481C48.5126 39.9481 51.4619 42.8938 54.3776 40.228C57.2932 37.5622 56.6458 35.8438 56.6458 35.8438H52.3746C52.3746 35.8438 51.6553 34.6042 49.7535 34.5011" fill="white"/>
<path d="M70.5675 42.0249C69.0017 41.994 67.4837 41.4312 66.2244 40.4146C63.9089 38.576 63.6774 36.4576 63.6684 36.3692L63.6549 36.2342L68.1801 35.7187C68.4454 35.4144 70.2326 33.5095 72.5705 34.5184L72.4805 34.7638C70.1202 33.7451 68.3487 35.9077 68.3308 35.9298L68.2993 35.9691L63.9314 36.4601C64.0236 36.951 64.4687 38.6693 66.3682 40.1863C67.6716 41.2399 69.2613 41.7845 70.8822 41.7328C71.6961 41.6869 72.4645 41.3094 73.0358 40.6748C73.7844 39.8132 74.1216 38.5122 74.0406 36.8037C74.0406 36.6982 73.3842 25.8581 71.5544 22.7922C69.8999 20.0183 67.6496 20.1533 67.6271 20.1582L54.5034 21.6311C53.9894 21.6571 53.4856 21.7962 53.022 22.04C52.5585 22.2838 52.1448 22.6273 51.8058 23.0499C50.457 24.6749 49.088 28.4159 48.4158 32.3582C47.9987 34.8476 48.0753 37.4056 48.6406 39.8599C48.9486 40.1544 51.6282 42.5601 54.319 40.1053C56.7626 37.8764 56.6457 36.3251 56.567 35.9593H52.3161L52.2801 35.8979C52.2801 35.8857 51.5653 34.7123 49.7556 34.6166V34.349C51.4753 34.4398 52.2576 35.4291 52.4352 35.6917H56.7401L56.7716 35.7752C56.7986 35.8488 57.419 37.6187 54.4697 40.3115C51.5203 43.0044 48.4743 40.0661 48.4428 40.0292L48.4181 40.0047V39.9679C47.8376 37.4609 47.761 34.8466 48.1933 32.3042C48.8677 28.3177 50.2592 24.5252 51.6417 22.8633C52.0011 22.4098 52.4424 22.0421 52.9379 21.7832C53.4334 21.5243 53.9724 21.3798 54.5214 21.3586L67.6316 19.8858C67.7305 19.8858 70.0482 19.7287 71.7837 22.64C73.6473 25.7599 74.3037 36.6761 74.3082 36.7841C74.3936 38.5687 74.0339 39.9384 73.2359 40.854C72.6237 41.5407 71.7949 41.9471 70.9182 41.9906C70.802 42.0092 70.6849 42.0207 70.5675 42.0249Z" fill="black"/>
<path d="M55.4768 20.7719C55.4768 20.7719 58.2329 20.6835 58.5656 19.7336C58.8983 18.7836 61.0384 18.9235 62.0252 19.682C63.0121 20.4405 65.8783 19.4046 67.6205 19.1002C69.3627 18.7959 61.5509 9.14388 61.5509 9.14388L56.5154 8.61121C56.5154 8.61121 54.9148 9.86557 55.0182 12.6198C55.1216 15.374 55.4768 20.7719 55.4768 20.7719Z" fill="black"/>
<path d="M55.3621 20.9094V20.7817C55.3621 20.7277 55.0092 15.3519 54.9125 12.6247C54.8069 9.83121 56.3939 8.55476 56.4614 8.50321L56.4974 8.47375H56.5446L61.6205 9.01133L61.652 9.05061C62.3511 9.91222 68.4499 17.5071 67.9778 18.9481C67.9534 19.0237 67.9098 19.0902 67.8521 19.1397C67.7944 19.1893 67.7249 19.2199 67.6519 19.2279C67.2023 19.304 66.6965 19.4292 66.1525 19.5593C64.5541 19.9471 62.7423 20.3865 61.969 19.7876C61.1631 19.2452 60.1948 19.069 59.2714 19.2966C59.1497 19.3246 59.0353 19.3815 58.9362 19.4634C58.8371 19.5453 58.7558 19.6502 58.6981 19.7704C58.3474 20.7744 55.7892 20.8873 55.497 20.8971L55.3621 20.9094ZM56.5558 8.74868C56.331 8.95242 55.0519 10.1945 55.1441 12.6149C55.2362 15.1015 55.5352 19.7974 55.5937 20.6345C56.4119 20.5927 58.2193 20.362 58.4576 19.6869C58.5257 19.5262 58.6273 19.3851 58.7541 19.2747C58.8809 19.1644 59.0295 19.0878 59.1882 19.0512C59.6828 18.9231 60.1957 18.9034 60.6973 18.9932C61.1989 19.0829 61.6793 19.2803 62.1106 19.574C62.785 20.1067 64.5519 19.6796 66.1008 19.304C66.647 19.1714 67.1641 19.0463 67.6137 18.9677C67.6433 18.9671 67.6721 18.9567 67.6961 18.9379C67.7202 18.919 67.7385 18.8926 67.7485 18.8621C68.0677 17.8803 64.199 12.61 61.5014 9.27154L56.5558 8.74868Z" fill="black"/>
<path d="M58.325 16.7486L61.308 15.9263L62.8839 21.8913L59.9008 22.7136L58.325 16.7486Z" fill="white"/>
<path d="M59.8154 22.8756L58.1721 16.6553L61.3935 15.7667L63.0368 21.987L59.8154 22.8756ZM58.4666 16.8468L59.975 22.554L62.7198 21.7955L61.2136 16.0883L58.4666 16.8468Z" fill="black"/>
<path d="M55.8568 13.7096C55.061 10.8253 55.4814 8.27731 57.4304 7.63663C59.3794 6.99594 61.3419 9.2862 62.1354 12.1705C62.929 15.0548 61.7398 17.6814 60.4472 18.0471C58.7949 18.5135 56.1108 17.2002 55.8568 13.7096Z" fill="white"/>
<path d="M59.7593 18.268C58.9677 18.2534 58.199 17.9751 57.5563 17.4702C56.5019 16.6479 55.8545 15.3199 55.7354 13.7292C54.8677 10.5626 55.5106 8.12017 57.3967 7.50404C59.5322 6.80199 61.4925 9.36226 62.2546 12.1263C62.7042 13.7439 62.567 15.4893 61.8994 16.7903C61.5172 17.5267 61.0137 18.0176 60.4809 18.1747C60.2448 18.2385 60.0024 18.2698 59.7593 18.268ZM58.1183 7.65377C57.8974 7.65446 57.6778 7.69002 57.4663 7.75933C55.7286 8.33128 55.1419 10.6485 55.9737 13.6654V13.6924C56.0838 15.2119 56.6953 16.4761 57.6934 17.2517C58.5274 17.8998 59.5704 18.1526 60.4157 17.9121C60.8765 17.782 61.3374 17.3254 61.6813 16.6577C62.3175 15.4303 62.4434 13.7538 62.0163 12.2024C61.3733 9.85566 59.8447 7.65377 58.1183 7.65377Z" fill="black"/>
<path d="M58.2507 15.8526C58.2507 15.8526 59.7299 15.5679 60.6876 14.9591L58.2507 15.8526Z" fill="white"/>
<path d="M58.2734 15.9852L58.2307 15.7201C58.2442 15.7201 59.6987 15.4329 60.6271 14.8438L60.7485 15.0745C59.7841 15.6882 58.3341 15.9729 58.2734 15.9852Z" fill="black"/>
<path d="M57.2414 11.5618C57.2414 11.5618 56.2568 11.8588 56.0005 12.6713L57.2414 11.5618Z" fill="white"/>
<path d="M56.1152 12.7278L55.8904 12.6394C56.1624 11.7705 57.1695 11.4587 57.2122 11.444L57.2774 11.6894C57.2774 11.6894 56.349 11.9914 56.1152 12.7278Z" fill="black"/>
<path d="M58.8083 11.0095C58.8083 11.0095 59.7885 10.6143 60.582 10.8966L58.8083 11.0095Z" fill="white"/>
<path d="M58.851 11.1395L58.7656 10.894C58.8083 10.8793 59.7975 10.4865 60.618 10.7786L60.5438 11.0241C59.7997 10.7639 58.8623 11.137 58.851 11.1395Z" fill="black"/>
<path d="M57.2258 13.1078C57.3342 13.0685 57.3821 12.9052 57.3329 12.7431C57.2836 12.581 57.1558 12.4814 57.0474 12.5207C56.939 12.5599 56.891 12.7232 56.9403 12.8853C56.9896 13.0475 57.1174 13.147 57.2258 13.1078Z" fill="black"/>
<path d="M60.0588 12.1224C60.1672 12.0831 60.2152 11.9198 60.1659 11.7577C60.1166 11.5956 59.9888 11.496 59.8804 11.5353C59.772 11.5746 59.724 11.7379 59.7733 11.9C59.8226 12.0621 59.9504 12.1617 60.0588 12.1224Z" fill="black"/>
<path d="M56.4636 12.9732C56.4636 12.9732 57.0841 12.3669 57.5089 12.281L56.4636 12.9732Z" fill="white"/>
<path d="M56.5447 13.0665L56.3828 12.8677C56.4075 12.8407 57.0347 12.2344 57.4866 12.1436L57.5315 12.4062C57.2123 12.4823 56.711 12.9045 56.5447 13.0665Z" fill="black"/>
<path d="M59.4175 11.6574C59.4175 11.6574 60.2335 11.466 60.6404 11.6231L59.4175 11.6574Z" fill="white"/>
<path d="M59.4377 11.7876L59.386 11.5273C59.4197 11.5273 60.2402 11.3285 60.6741 11.4954L60.5932 11.7409C60.2942 11.6305 59.6625 11.7458 59.4377 11.7876Z" fill="black"/>
<path d="M58.1003 11.8146C58.1003 11.8146 58.2622 13.3414 58.2509 13.7415C58.2397 14.1417 58.5184 14.4632 59.031 14.2546" fill="white"/>
<path d="M58.7318 14.446C58.6042 14.4493 58.479 14.408 58.3744 14.3282C58.2911 14.2586 58.225 14.1673 58.1822 14.0627C58.1394 13.9581 58.1213 13.8435 58.1294 13.7293C58.1294 13.3463 57.981 11.8367 57.9788 11.8219L58.2215 11.7925C58.2215 11.8538 58.3856 13.334 58.3744 13.7391C58.3683 13.8094 58.3782 13.8803 58.4033 13.9454C58.4284 14.0105 58.4679 14.0679 58.5183 14.1122C58.5906 14.1543 58.6712 14.1763 58.7532 14.1763C58.8351 14.1763 58.9158 14.1543 58.9881 14.1122L59.0735 14.3577C58.9655 14.4096 58.8497 14.4395 58.7318 14.446Z" fill="black"/>
<path d="M57.1382 8.17919C57.1382 8.17919 56.8167 9.32064 56.266 9.8975C55.7152 10.4744 55.0498 11.444 55.4769 13.8005C55.904 16.157 56.6279 20.3104 55.4769 20.767C54.3259 21.2236 53.3009 21.1475 53.3705 19.4488C53.4402 17.7502 54.8362 17.3721 54.58 15.1678C54.3237 12.9635 54.3552 9.29118 55.6006 8.40257C56.8459 7.51396 57.1382 8.17919 57.1382 8.17919Z" fill="white"/>
<path d="M54.4359 21.145C54.1769 21.1572 53.9212 21.077 53.7075 20.9168C53.3726 20.6492 53.2197 20.1558 53.2579 19.4439C53.2917 18.6682 53.5884 18.1527 53.8761 17.652C54.2538 16.999 54.609 16.3829 54.4696 15.185C54.2448 13.2212 54.1751 9.26172 55.5442 8.29211C56.1196 7.88462 56.5805 7.73243 56.9222 7.83798C56.9933 7.85667 57.0602 7.89117 57.1186 7.93932C57.177 7.98746 57.2256 8.04823 57.2616 8.11782L57.2818 8.16447L57.2661 8.21601C57.2526 8.26265 56.9289 9.39428 56.3669 9.99323C55.8049 10.5922 55.2137 11.5716 55.6116 13.7735C56.2343 17.2101 56.6546 20.4504 55.5329 20.8922C55.1834 21.0453 54.8122 21.1309 54.4359 21.145ZM56.6839 8.07855C56.4771 8.07855 56.1556 8.17428 55.6655 8.5204C54.4898 9.35255 54.4426 12.9389 54.6989 15.1482C54.8495 16.4418 54.4539 17.1267 54.0717 17.7919C53.7862 18.2828 53.5187 18.7492 53.4895 19.4537C53.4648 20.065 53.5861 20.4823 53.8492 20.6934C54.1616 20.9389 54.7101 20.9266 55.4228 20.6394C56.4995 20.2123 55.6903 15.7299 55.3441 13.8226C54.9215 11.4808 55.5689 10.4425 56.1691 9.79931C56.6187 9.3231 56.9177 8.43694 56.9918 8.19392C56.9452 8.14226 56.8859 8.10645 56.821 8.09082C56.7767 8.08056 56.7314 8.07644 56.6861 8.07855H56.6839Z" fill="black"/>
<path d="M60.6405 20.7719C60.6405 20.7719 60.8654 19.3286 61.6679 18.6437C62.4704 17.9588 63.8956 16.783 64.905 17.0088C65.5552 17.1826 66.1605 17.5161 66.6747 17.9841C67.189 18.452 67.5986 19.042 67.8723 19.709C68.4546 21.2285 65.2737 25.1438 64.4532 26.0545C63.6664 26.9259 61.7218 27.6501 60.5821 27.574C59.4424 27.4979 55.7422 26.8916 55.0161 25.2199C54.29 23.5482 54.1506 22.0288 54.7778 20.6787C55.405 19.3286 57.4147 17.2764 60.6405 20.7719Z" fill="white"/>
<path d="M60.7575 27.7139H60.5731C59.3412 27.6304 55.6545 27.0069 54.9059 25.2813C54.1259 23.4844 54.0472 21.96 54.6677 20.6173C54.8452 20.2368 55.5241 18.9775 56.8752 18.7394C58.0104 18.5406 59.2536 19.1346 60.5686 20.5068C60.672 20.0527 60.9575 19.0782 61.5937 18.543C62.6975 17.6004 63.9564 16.6652 64.9297 16.8836C65.5987 17.0602 66.2216 17.4021 66.7505 17.883C67.2794 18.3639 67.7001 18.971 67.9802 19.6575C68.6794 21.4789 64.5768 26.1011 64.5341 26.1478C63.7945 26.9652 61.9804 27.7139 60.7575 27.7139ZM57.309 18.9726C57.1765 18.9718 57.0441 18.9832 56.9134 19.007C55.677 19.223 55.0498 20.389 54.8902 20.74C54.308 21.9993 54.3866 23.4402 55.1307 25.1585C55.8433 26.7983 59.6267 27.3678 60.5934 27.439C61.7398 27.5175 63.6394 26.7688 64.37 25.9661C65.2242 25.0161 68.3085 21.1843 67.7644 19.7655C67.4992 19.1171 67.1013 18.5438 66.6012 18.0897C66.1012 17.6356 65.5124 17.3129 64.8803 17.1463C63.8889 16.9254 62.385 18.2067 61.7331 18.7541C60.98 19.3973 60.7529 20.7867 60.7507 20.7989L60.7103 21.0444L60.5439 20.8628C59.3952 19.601 58.3139 18.9726 57.309 18.9726Z" fill="black"/>
<path d="M56.2659 8.13009C56.2659 8.13009 57.4213 7.95335 58.1002 8.73886C58.7791 9.52437 60.9372 10.3565 61.5869 11.8146C62.2365 13.2727 65.6018 15.3249 66.2042 16.6161C66.8067 17.9073 67.0854 18.4915 67.0854 18.4915L67.6205 19.1003C67.6205 19.1003 68.8029 18.8204 67.897 16.9966C66.991 15.1727 64.7498 12.1264 64.1159 10.7223C63.4819 9.31817 61.434 5.06414 56.2659 8.13009Z" fill="white"/>
<path d="M67.5777 19.2475L66.9775 18.5528C66.9775 18.5528 66.6987 17.971 66.094 16.6774C65.8175 16.0833 64.8689 15.2684 63.9517 14.4804C62.9064 13.5844 61.8273 12.6565 61.4789 11.8735C61.081 10.9799 60.0964 10.3294 59.2309 9.7575C58.7956 9.50149 58.3896 9.19002 58.0215 8.82961C57.3943 8.10547 56.3018 8.26012 56.2928 8.26257L55.6184 8.36321L56.2074 8.01219C58.0058 6.9493 59.6018 6.65472 60.9754 7.1334C62.9581 7.82563 63.9135 9.9637 64.226 10.6657C64.5384 11.3678 65.2533 12.47 66.0244 13.6433C66.7399 14.7014 67.4047 15.7993 68.0161 16.9327C68.3735 17.6543 68.4657 18.2386 68.2813 18.6706C68.2213 18.8084 68.1342 18.93 68.0262 19.0268C67.9181 19.1235 67.7919 19.193 67.6564 19.2303L67.5777 19.2475ZM67.1866 18.4129L67.6564 18.948C67.7421 18.914 67.8208 18.8618 67.888 18.7944C67.9551 18.7269 68.0094 18.6457 68.0476 18.5552C68.1914 18.2091 68.1037 17.6912 67.7913 17.0603C67.184 15.9362 66.5237 14.8473 65.813 13.798C65.0487 12.6148 64.3249 11.4954 64.0146 10.7811C63.7134 10.1061 62.794 8.04656 60.9102 7.38869C59.721 6.97139 58.3385 7.17513 56.7964 7.98764C57.3222 8.01071 57.8217 8.24498 58.1991 8.64551C58.5532 8.98725 58.9425 9.28298 59.3591 9.52675C60.2583 10.1208 61.2766 10.7934 61.706 11.7556C62.0297 12.4921 63.0885 13.3929 64.1113 14.2717C65.0914 15.1137 66.0199 15.909 66.3211 16.5571C66.8561 17.7206 67.1371 18.3098 67.1866 18.4129Z" fill="black"/>
<path d="M67.3169 36.8651C67.3169 38.2226 67.1978 39.3198 65.2623 39.3198C63.3267 39.3198 60.3054 37.2014 60.3054 35.8439C60.3054 35.8464 67.3169 35.5076 67.3169 36.8651Z" fill="white"/>
<path d="M65.2623 39.4548C63.2683 39.4548 60.1841 37.2628 60.1841 35.8464V35.7187H60.301C60.5438 35.7065 66.2806 35.4413 67.2697 36.4748C67.3216 36.5241 67.3633 36.5848 67.3924 36.6529C67.4214 36.721 67.4371 36.7949 67.4383 36.87C67.4383 38.2815 67.2743 39.4548 65.2623 39.4548ZM60.4381 35.974C60.6224 37.2603 63.4707 39.1897 65.2623 39.1897C67.054 39.1897 67.1933 38.2692 67.1933 36.8651C67.192 36.8263 67.1831 36.7883 67.1672 36.7536C67.1513 36.7189 67.1288 36.6883 67.1011 36.6638C66.3616 35.8906 62.1578 35.9004 60.4381 35.974Z" fill="black"/>
<path d="M53.3009 36.5385C53.2289 37.7659 53.2671 38.7772 54.8744 38.8902C56.4818 39.0031 59.0984 37.2553 59.1704 36.023C59.1681 36.0157 53.3683 35.3112 53.3009 36.5385Z" fill="white"/>
<path d="M55.0181 39.0228H54.863C54.0852 38.9663 53.5884 38.6963 53.3478 38.1956C53.123 37.7341 53.141 37.1449 53.1792 36.5288C53.1846 36.4548 53.2042 36.3829 53.2367 36.3178C53.2693 36.2527 53.314 36.1958 53.3681 36.1508C54.3032 35.2965 58.988 35.8636 59.1814 35.8881L59.2983 35.9029V36.0305C59.2623 36.6515 58.6531 37.415 57.6662 38.0728C56.7625 38.6669 55.7689 39.0228 55.0181 39.0228ZM55.942 35.9446C54.854 35.9446 53.8626 36.0428 53.5232 36.3521C53.4953 36.3743 53.472 36.4026 53.4546 36.4351C53.4372 36.4676 53.4261 36.5037 53.422 36.5411C53.3883 37.1179 53.3748 37.6678 53.5659 38.0655C53.757 38.4631 54.1841 38.7012 54.8787 38.7503C55.5733 38.7994 56.6142 38.4533 57.5313 37.8396C58.3631 37.2849 58.9229 36.6442 59.0285 36.1336C58.3136 36.0477 57.0727 35.9446 55.942 35.9446Z" fill="black"/>
<path d="M25.5785 30.8633C25.5785 30.8633 21.4242 31.8672 17.1553 31.2585C12.8863 30.6497 11.1374 30.1931 11.1374 30.1931C11.1374 30.1931 11.5533 26.2828 11.1374 25.647C10.7215 25.0112 9.6515 24.3435 9.6515 24.3435C9.6515 24.3435 8.9771 28.4184 6.59423 29.0787C4.21136 29.739 1.84873 29.712 1.89144 27.5813C1.93415 25.4506 5.01164 19.9103 6.59423 19.7262C8.17681 19.5421 8.64664 20.2809 10.6833 21.0026C12.72 21.7243 13.4686 20.9094 14.7297 22.2742C15.9908 23.639 16.6944 24.9621 17.7532 25.5733C18.812 26.1846 20.9431 25.7304 21.8333 25.1389C22.7235 24.5473 21.975 20.8971 23.2249 20.5387C24.4747 20.1803 26.0753 20.2294 26.6912 21.4789C27.3072 22.7283 27.7163 23.8182 27.8849 25.1389C28.0535 26.4595 28.2693 28.9412 28.2693 28.9412L26.1675 24.3951L25.3874 25.5807C25.3874 25.5807 26.4372 27.5936 25.5785 30.8633Z" fill="#CACACA"/>
<path d="M26.1675 39.8941C26.1675 39.8941 26.8958 39.1577 26.5518 37.3486C26.2689 36.0321 25.8792 34.7456 25.3874 33.5045C25.3874 33.5045 21.4939 34.1697 18.4479 34.1697C15.4018 34.1697 11.3397 33.3278 11.3397 33.3278C11.6368 34.513 11.7426 35.7457 11.6522 36.9706C11.4956 38.2579 11.2666 39.5335 10.9666 40.7901C10.9666 40.7901 22.755 41.2492 26.1675 39.8941Z" fill="#CACACA"/>
<path d="M20.152 44.6686L19.9272 44.5901C19.9272 44.5484 21.1051 40.3262 21.276 37.847C21.4468 35.3677 19.9564 32.7608 19.9407 32.7338L19.907 32.6749L19.9339 32.6086C20.4413 31.3384 20.792 30.0004 20.977 28.6295C21.2198 26.5871 19.5878 23.8133 19.572 23.7863L19.7766 23.6415C19.8463 23.7569 21.4738 26.5258 21.2198 28.6638C21.0347 30.0378 20.6863 31.3796 20.1835 32.6552C20.4083 33.0774 21.6829 35.5076 21.5323 37.8666C21.3389 40.3753 20.1655 44.6245 20.152 44.6686Z" fill="black"/>
<path d="M26.289 44.9042L26.0642 44.8306C26.6123 42.5406 26.9459 40.1958 27.0601 37.8322C27.1455 35.8684 26.9252 33.9537 26.7296 32.2673C26.552 30.7208 26.3969 29.3855 26.5633 28.5288C26.763 27.4176 26.846 26.2852 26.8105 25.1535L27.0533 25.1388C27.0906 26.2911 27.0061 27.4442 26.8015 28.5754C26.6442 29.3904 26.8015 30.7037 26.9724 32.2256C27.168 33.9242 27.3905 35.8488 27.3051 37.8371C27.1859 40.2242 26.8454 42.592 26.289 44.9042Z" fill="black"/>
<path d="M27.8064 29.6826L24.7694 29.7832C24.4359 29.7954 24.1121 29.9085 23.8342 30.1101C23.5563 30.3117 23.3353 30.5937 23.1958 30.9246L20.4824 37.4027L25.4819 37.2333L28.3009 30.4975C28.3379 30.4085 28.3536 30.3107 28.3464 30.2133C28.3393 30.1159 28.3096 30.0221 28.2602 29.9406C28.2108 29.8591 28.1432 29.7927 28.0638 29.7476C27.9844 29.7024 27.8959 29.6801 27.8064 29.6826Z" fill="white"/>
<path d="M20.2913 37.5426L23.0855 30.8682C23.2313 30.5118 23.4662 30.2076 23.7633 29.9905C24.0603 29.7734 24.4075 29.6522 24.7648 29.6408L27.8018 29.5377C27.9126 29.5337 28.0225 29.5607 28.121 29.6162C28.2196 29.6716 28.3035 29.7537 28.3648 29.8546C28.4261 29.9555 28.4627 30.0718 28.4712 30.1925C28.4797 30.3132 28.4597 30.4343 28.4132 30.5442L25.5628 37.3536L20.2913 37.5426ZM27.8108 29.8151L24.7715 29.9182C24.4611 29.9275 24.1593 30.0318 23.9005 30.2193C23.6417 30.4068 23.4365 30.6699 23.3081 30.9787L20.6779 37.2628L25.3987 37.1032L28.1862 30.4435C28.2154 30.3751 28.2281 30.2996 28.223 30.2243C28.218 30.149 28.1953 30.0763 28.1572 30.0133C28.1191 29.9503 28.0668 29.899 28.0054 29.8643C27.944 29.8296 27.8754 29.8127 27.8063 29.8151H27.8108Z" fill="black"/>
<path d="M20.2959 39.8524C20.2959 39.8524 20.777 40.0684 21.6267 39.8524C22.1069 39.7368 22.5732 39.5605 23.016 39.3271C23.016 39.3271 24.5738 39.6044 25.0549 39.3271C25.3217 39.1814 25.5528 38.9685 25.7293 38.706C25.7293 38.706 26.1542 38.6152 26.1789 38.2151C26.2036 37.815 27.3636 37.0491 27.4355 36.5434C27.5187 35.9395 25.1875 35.4928 23.9489 35.5615C23.7241 35.5615 24.059 35.2056 25.1538 35.4535C26.2935 35.699 27.0848 35.4682 27.114 35.0362C27.1433 34.6042 26.0036 34.4004 25.2392 34.1525C24.4749 33.9046 23.2565 33.9684 22.463 34.1525C21.6694 34.3366 19.689 35.2203 19.689 35.2203" fill="white"/>
<path d="M20.9049 40.0807C20.6821 40.0889 20.4597 40.0532 20.2485 39.9752L20.3429 39.7297L20.2957 39.8549L20.3429 39.7297C20.7535 39.8583 21.189 39.8583 21.5996 39.7297C22.0656 39.6142 22.5181 39.4412 22.9484 39.2142L22.9843 39.1946H23.0248C23.4474 39.2682 24.6231 39.418 24.9873 39.2068C25.2362 39.0722 25.4532 38.8765 25.6212 38.6349L25.6504 38.5883L25.6999 38.576C25.7134 38.576 26.0348 38.4974 26.0551 38.2029C26.0731 37.9574 26.3518 37.6751 26.6733 37.3511C26.9453 37.0761 27.2825 36.7374 27.3139 36.5214C27.3139 36.5091 27.3139 36.4747 27.2712 36.4134C26.9138 35.9789 25.0705 35.6328 23.9555 35.677C23.9202 35.685 23.8835 35.6806 23.8507 35.6642C23.8179 35.6479 23.7908 35.6205 23.7734 35.5861C23.7604 35.5585 23.755 35.5274 23.7578 35.4965C23.7606 35.4656 23.7715 35.4362 23.7891 35.4118C23.8903 35.2646 24.3443 35.1148 25.1783 35.3038C26.0775 35.51 26.6643 35.375 26.8801 35.1958C26.9098 35.1754 26.9351 35.1481 26.9541 35.1159C26.9731 35.0837 26.9855 35.0473 26.9902 35.0093C27.006 34.7785 26.2394 34.5625 25.7314 34.4201C25.5493 34.3686 25.3672 34.317 25.2031 34.2655C24.4567 34.02 23.2721 34.0838 22.4875 34.2655C21.703 34.4471 19.7562 35.3161 19.736 35.3259L19.6438 35.0805C19.7247 35.0436 21.6423 34.1918 22.4358 34.0053C23.2294 33.8187 24.4882 33.7598 25.2728 34.0053C25.4346 34.0568 25.6122 34.1084 25.792 34.1599C26.5496 34.371 27.2645 34.5723 27.2353 35.024C27.2288 35.1005 27.2069 35.1746 27.1712 35.2408C27.1354 35.307 27.0867 35.3638 27.0284 35.4069C26.7922 35.5705 26.5191 35.6597 26.2394 35.6647C26.7969 35.8046 27.2622 35.9961 27.4533 36.2244C27.4918 36.2668 27.5209 36.3183 27.5384 36.3748C27.556 36.4314 27.5615 36.4916 27.5545 36.5508C27.5118 36.8601 27.1701 37.2038 26.8396 37.5327C26.6148 37.7782 26.3091 38.0654 26.3001 38.2078C26.2828 38.3519 26.2254 38.4868 26.1358 38.5943C26.0462 38.7019 25.9286 38.7768 25.7988 38.8092C25.6096 39.068 25.372 39.2797 25.1019 39.4302C24.6253 39.7052 23.3035 39.499 23.0248 39.4499C22.5833 39.6768 22.1205 39.8504 21.6445 39.9678C21.4026 40.0352 21.1545 40.0731 20.9049 40.0807Z" fill="black"/>
<path d="M0.868615 30.662C0.0930589 36.9117 1.2665 39.3272 2.96598 40.3778C4.66546 41.4284 12.0231 42.2949 15.258 41.9243C18.4928 41.5536 18.7963 40.6257 18.7963 40.6257L20.035 40.4392C20.035 40.4392 20.561 39.5113 20.4464 37.9648C20.3317 36.4183 19.4842 34.592 19.4842 34.592L18.1354 34.8375C18.1354 34.8375 18.3602 33.6617 15.7548 33.9096C13.1494 34.1575 7.68001 35.1787 5.52644 34.4005" fill="white"/>
<path d="M13.4214 42.1452C9.83815 42.1452 4.40701 41.4235 2.90536 40.4931C0.763022 39.1676 0.0773774 36.0378 0.747278 30.6448L0.990065 30.6816C0.129085 37.6064 1.73864 39.4646 3.02674 40.255C4.63181 41.2492 11.94 42.1648 15.2446 41.7843C18.3108 41.4333 18.6795 40.5791 18.684 40.5692L18.711 40.5005L18.7807 40.4858L19.9586 40.309C20.2753 39.58 20.4021 38.7698 20.325 37.9672C20.2284 36.6539 19.5809 35.1124 19.4258 34.7343L17.9781 34.997L18.0163 34.8055C18.021 34.7358 18.012 34.6658 17.9899 34.6002C17.9678 34.5346 17.9331 34.4749 17.8882 34.4251C17.6814 34.1796 17.1441 33.9071 15.7661 34.0372C15.1749 34.0937 14.4173 34.1919 13.6193 34.2949C10.7508 34.6681 7.17878 35.132 5.48829 34.5257L5.56472 34.2802C7.2035 34.8669 10.8947 34.3882 13.5923 34.0347C14.3926 33.9317 15.1501 33.8335 15.7459 33.777C16.9395 33.6616 17.7241 33.8261 18.077 34.268C18.1745 34.3848 18.2372 34.5311 18.2569 34.6877L19.5629 34.4422L19.6034 34.5282C19.6394 34.6042 20.4666 36.3962 20.5813 37.9525C20.6959 39.5088 20.1721 40.4686 20.1519 40.5079L20.1204 40.5619L18.8863 40.746C18.7402 40.9914 18.0838 41.7279 15.2895 42.0543C14.6686 42.1192 14.0451 42.1496 13.4214 42.1452Z" fill="black"/>
<path d="M19.3045 22.0556C19.1382 20.8479 19.3045 15.8673 16.2091 15.4279C13.1136 14.9885 12.7157 12.6786 12.7157 12.6786C12.7157 12.6786 11.4096 12.7792 9.25603 15.0302C7.10246 17.2812 8.06683 18.646 8.06683 18.646" fill="white"/>
<path d="M19.1852 22.0557C19.1605 21.8765 19.1425 21.631 19.1223 21.3193C19.0009 19.5617 18.7513 15.9041 16.1999 15.5482C13.4708 15.1653 12.7739 13.3193 12.6346 12.8161C12.2951 12.8922 11.1037 13.2776 9.34801 15.1162C7.29785 17.2592 8.16107 18.5381 8.17007 18.5528L7.97674 18.7173C7.93403 18.6583 6.96964 17.2444 9.17716 14.9247C11.3375 12.6639 12.6593 12.5387 12.7155 12.5338H12.8234L12.8436 12.6516C12.8594 12.7425 13.264 14.8781 16.2313 15.2929C18.9896 15.6783 19.2482 19.4807 19.3785 21.3095C19.3988 21.604 19.4167 21.8569 19.4392 22.0238L19.1852 22.0557Z" fill="black"/>
<path d="M3.01318 32.7166C4.12316 32.1316 5.35771 31.8864 6.58524 32.0072C8.68261 32.1913 10.1595 34.673 10.1595 34.673" fill="white"/>
<path d="M10.0653 34.7466C10.0518 34.7221 8.59732 32.3164 6.58537 32.1397C5.38188 32.0214 4.17151 32.2615 3.083 32.8344L2.96387 32.5889C4.09264 31.9823 5.35276 31.7275 6.6056 31.8525C8.73669 32.0415 10.2024 34.4791 10.2698 34.5822L10.0653 34.7466Z" fill="black"/>
<path d="M9.37279 33.5463L9.148 33.4628C9.148 33.4628 9.6493 31.7764 10.4316 29.1744C11.1734 26.6976 8.5343 24.5105 8.50732 24.5105L8.65345 24.2944C8.7681 24.3877 11.4612 26.6117 10.6654 29.2702C9.88084 31.8599 9.37279 33.5463 9.37279 33.5463Z" fill="black"/>
<path d="M17.0204 23.7127C17.0204 23.7127 15.2917 20.3374 12.6121 20.0919C9.93245 19.8465 8.56567 19.2549 8.56567 19.2549" fill="white"/>
<path d="M16.9125 23.774C16.8968 23.7396 15.1838 20.4454 12.6031 20.222C9.93703 19.9912 8.58598 19.4021 8.52979 19.3776L8.62196 19.1321C8.63545 19.1321 9.99997 19.731 12.6234 19.9569C15.3345 20.2023 17.0564 23.5039 17.1194 23.639L16.9125 23.774Z" fill="black"/>
<path d="M0.990048 30.7896L0.749512 30.7479C0.749512 30.6914 1.57902 25.2051 2.90983 21.6384C4.24063 18.0717 7.78122 18.0005 7.88238 18.0005V18.2681C7.79695 18.2681 4.42048 18.3024 3.13687 21.739C1.81731 25.2763 0.990048 30.7356 0.990048 30.7896Z" fill="black"/>
<path d="M18.7964 40.525C18.7964 40.525 17.9826 39.1479 18.122 34.7393L18.7964 40.525Z" fill="white"/>
<path d="M18.6953 40.5987C18.6593 40.5398 17.8613 39.1259 18.0029 34.7344H18.2457C18.1086 39.0301 18.8931 40.4293 18.8999 40.4441L18.6953 40.5987Z" fill="black"/>
<path d="M57.7609 19.7089C57.7609 19.7089 55.4432 19.5985 55.4769 22.0434C55.5106 24.4883 56.1243 26.074 58.5657 26.5429C61.007 27.0117 64.3182 26.0519 65.694 23.1259C67.0698 20.1999 66.881 19.5518 66.0694 18.813C65.2579 18.0741 63.4483 18.0765 62.884 19.1002C62.3198 20.1238 59.4177 22.0458 59.4177 22.0458L57.7609 19.7089Z" fill="#A5CE3E"/>
<path d="M62.1826 22.3895C61.2996 21.6997 60.4723 20.9285 59.7098 20.0846C58.5521 18.7836 57.7922 18.8719 56.412 19.0339L56.385 18.7688C57.7338 18.6093 58.633 18.5037 59.8851 19.898C60.6352 20.7308 61.4498 21.4913 62.3197 22.1711L62.1826 22.3895Z" fill="black"/>
<path d="M68.2386 34.9626H52.3745V35.8758H68.2386V34.9626Z" fill="white"/>
<path d="M68.36 36.0084H52.2441V34.8203H68.3532L68.36 36.0084ZM52.4959 35.7408H68.1172V35.0952H52.4959V35.7408Z" fill="black"/>
<path d="M50.0076 24.3705H61.9804L64.3452 34.9626H52.3725L50.0076 24.3705Z" fill="white"/>
<path d="M64.5024 35.0952H52.2779L49.8523 24.2379H62.0769L64.5024 35.0952ZM52.469 34.8202H64.1877L61.8835 24.5104H50.1625L52.469 34.8202Z" fill="black"/>
<path d="M4.3755 33.5414C4.3755 33.5414 3.79551 35.6451 7.88235 35.8758C11.9692 36.1066 15.0939 35.0019 15.9886 34.9627C16.8833 34.9234 17.0631 39.1357 17.3374 39.8942C17.6117 40.6527 14.986 42.3489 9.64028 40.8638C4.29456 39.3787 2.22192 38.5711 2.29611 36.3373C2.37029 34.1035 4.3755 33.5414 4.3755 33.5414Z" fill="#CACACA"/>
<path d="M28.3504 33.5045C28.6767 33.68 28.9506 33.9532 29.1401 34.2922C29.3295 34.6312 29.4268 35.0221 29.4205 35.4192C29.4205 36.8331 30.0027 44.1556 30.0027 44.1556H26.7117C26.7117 44.1556 28.7776 35.6058 28.3504 33.5045Z" fill="#CACACA"/>
</g>
<defs>
<clipPath id="clip0_481_501">
<rect width="76" height="45" fill="white" transform="translate(0.5)"/>
</clipPath>
</defs>
</svg>
