<svg width="16" height="16" viewBox="0 0 16 16" fill="none" xmlns="http://www.w3.org/2000/svg">
<g id="pepicons-pop:leave-circle-filled" clip-path="url(#clip0_2706_45573)">
<g id="Group">
<g id="Mask group">
<mask id="mask0_2706_45573" style="mask-type:luminance" maskUnits="userSpaceOnUse" x="0" y="0" width="16" height="16">
<g id="Group_2">
<path id="Vector" d="M0 0H16V16H0V0Z" fill="white"/>
<g id="Group_3">
<path id="Vector_2" fill-rule="evenodd" clip-rule="evenodd" d="M11.0937 6.29682C11.2191 6.19241 11.3808 6.14206 11.5433 6.15683C11.7057 6.1716 11.8557 6.25028 11.9602 6.37559L13.242 7.91405C13.3419 8.0399 13.3886 8.19981 13.3721 8.35961C13.3556 8.51942 13.2773 8.66645 13.1539 8.7693C13.0305 8.87215 12.8718 8.92265 12.7116 8.91003C12.5515 8.89741 12.4026 8.82265 12.2968 8.70174L11.0143 7.16328C10.9099 7.03792 10.8596 6.87622 10.8744 6.71374C10.8891 6.55126 10.9678 6.4013 11.0931 6.29682" fill="black"/>
<path id="Vector_3" fill-rule="evenodd" clip-rule="evenodd" d="M11.0937 10.3185C10.9683 10.2141 10.8895 10.0642 10.8746 9.90168C10.8598 9.73919 10.91 9.57745 11.0143 9.45201L12.2968 7.91355C12.3478 7.84927 12.4111 7.79584 12.4831 7.7564C12.5551 7.71696 12.6342 7.69231 12.7158 7.6839C12.7974 7.67549 12.8799 7.68349 12.9584 7.70743C13.0369 7.73137 13.1098 7.77077 13.1728 7.8233C13.2359 7.87583 13.2878 7.94044 13.3255 8.01332C13.3632 8.0862 13.3859 8.16589 13.3924 8.24769C13.3988 8.3295 13.3888 8.41176 13.363 8.48965C13.3372 8.56754 13.2961 8.63948 13.242 8.70124L11.9602 10.2397C11.8557 10.365 11.7057 10.4437 11.5433 10.4585C11.3808 10.4732 11.2191 10.4229 11.0937 10.3185Z" fill="black"/>
<path id="Vector_4" fill-rule="evenodd" clip-rule="evenodd" d="M12.6155 8.30784C12.6155 8.47105 12.5506 8.62758 12.4352 8.74299C12.3198 8.85839 12.1633 8.92323 12.0001 8.92323H8.00007C7.83686 8.92323 7.68034 8.85839 7.56493 8.74299C7.44953 8.62758 7.38469 8.47105 7.38469 8.30784C7.38469 8.14463 7.44953 7.98811 7.56493 7.8727C7.68034 7.75729 7.83686 7.69246 8.00007 7.69246H12.0001C12.1633 7.69246 12.3198 7.75729 12.4352 7.8727C12.5506 7.98811 12.6155 8.14463 12.6155 8.30784ZM3.69238 4.00015C3.69238 3.83694 3.75722 3.68041 3.87262 3.56501C3.98803 3.4496 4.14456 3.38477 4.30777 3.38477H9.84623C10.0094 3.38477 10.166 3.4496 10.2814 3.56501C10.3968 3.68041 10.4616 3.83694 10.4616 4.00015C10.4616 4.16336 10.3968 4.31989 10.2814 4.43529C10.166 4.5507 10.0094 4.61553 9.84623 4.61553H4.30777C4.14456 4.61553 3.98803 4.5507 3.87262 4.43529C3.75722 4.31989 3.69238 4.16336 3.69238 4.00015ZM3.69238 12.6155C3.69238 12.4523 3.75722 12.2958 3.87262 12.1804C3.98803 12.065 4.14456 12.0002 4.30777 12.0002H9.84623C10.0094 12.0002 10.166 12.065 10.2814 12.1804C10.3968 12.2958 10.4616 12.4523 10.4616 12.6155C10.4616 12.7787 10.3968 12.9353 10.2814 13.0507C10.166 13.1661 10.0094 13.2309 9.84623 13.2309H4.30777C4.14456 13.2309 3.98803 13.1661 3.87262 13.0507C3.75722 12.9353 3.69238 12.7787 3.69238 12.6155Z" fill="black"/>
<path id="Vector_5" fill-rule="evenodd" clip-rule="evenodd" d="M9.84623 3.38477C10.0094 3.38477 10.166 3.4496 10.2814 3.56501C10.3968 3.68041 10.4616 3.83694 10.4616 4.00015V6.46169C10.4616 6.6249 10.3968 6.78142 10.2814 6.89683C10.166 7.01224 10.0094 7.07707 9.84623 7.07707C9.68302 7.07707 9.52649 7.01224 9.41109 6.89683C9.29568 6.78142 9.23084 6.6249 9.23084 6.46169V4.00015C9.23084 3.83694 9.29568 3.68041 9.41109 3.56501C9.52649 3.4496 9.68302 3.38477 9.84623 3.38477ZM9.84623 9.53861C10.0094 9.53861 10.166 9.60345 10.2814 9.71885C10.3968 9.83426 10.4616 9.99079 10.4616 10.154V12.6155C10.4616 12.7787 10.3968 12.9353 10.2814 13.0507C10.166 13.1661 10.0094 13.2309 9.84623 13.2309C9.68302 13.2309 9.52649 13.1661 9.41109 13.0507C9.29568 12.9353 9.23084 12.7787 9.23084 12.6155V10.154C9.23084 9.99079 9.29568 9.83426 9.41109 9.71885C9.52649 9.60345 9.68302 9.53861 9.84623 9.53861ZM4.30777 3.38477C4.47098 3.38477 4.6275 3.4496 4.74291 3.56501C4.85832 3.68041 4.92315 3.83694 4.92315 4.00015V12.6155C4.92315 12.7787 4.85832 12.9353 4.74291 13.0507C4.6275 13.1661 4.47098 13.2309 4.30777 13.2309C4.14456 13.2309 3.98803 13.1661 3.87262 13.0507C3.75722 12.9353 3.69238 12.7787 3.69238 12.6155V4.00015C3.69238 3.83694 3.75722 3.68041 3.87262 3.56501C3.98803 3.4496 4.14456 3.38477 4.30777 3.38477Z" fill="black"/>
</g>
</g>
</mask>
<g mask="url(#mask0_2706_45573)">
<path id="Vector_6" d="M8 16C12.4183 16 16 12.4183 16 8C16 3.58172 12.4183 0 8 0C3.58172 0 0 3.58172 0 8C0 12.4183 3.58172 16 8 16Z" fill="#808080"/>
</g>
</g>
</g>
</g>
<defs>
<clipPath id="clip0_2706_45573">
<rect width="16" height="16" fill="white"/>
</clipPath>
</defs>
</svg>
