<svg width="25" height="24" viewBox="0 0 25 24" fill="none" xmlns="http://www.w3.org/2000/svg">
<g id="ph:arrow-up">
<path id="Vector" d="M11.7519 4.71661C11.8216 4.78626 11.877 4.86898 11.9147 4.96003C11.9525 5.05108 11.9719 5.14867 11.9719 5.24723C11.9719 5.34579 11.9525 5.44339 11.9147 5.53444C11.877 5.62549 11.8216 5.7082 11.7519 5.77786L6.28161 11.2472L20.9713 11.2472C21.1702 11.2472 21.361 11.3262 21.5016 11.4669C21.6423 11.6076 21.7213 11.7983 21.7213 11.9972C21.7213 12.1961 21.6423 12.3869 21.5016 12.5276C21.361 12.6682 21.1702 12.7472 20.9713 12.7472L6.28161 12.7472L11.7519 18.2166C11.8926 18.3573 11.9717 18.5482 11.9717 18.7472C11.9717 18.9463 11.8926 19.1371 11.7519 19.2779C11.6112 19.4186 11.4203 19.4976 11.2213 19.4976C11.0223 19.4976 10.8314 19.4186 10.6907 19.2779L3.94067 12.5279C3.87094 12.4582 3.81562 12.3755 3.77787 12.2844C3.74013 12.1934 3.7207 12.0958 3.7207 11.9972C3.7207 11.8987 3.74013 11.8011 3.77787 11.71C3.81562 11.619 3.87094 11.5363 3.94067 11.4666L10.6907 4.71661C10.7603 4.64687 10.843 4.59156 10.9341 4.55381C11.0251 4.51607 11.1227 4.49664 11.2213 4.49664C11.3199 4.49664 11.4174 4.51607 11.5085 4.55381C11.5995 4.59156 11.6823 4.64687 11.7519 4.71661Z" fill="#757575"/>
</g>
</svg>
