<svg width="200" height="200" viewBox="0 0 200 200" fill="none" xmlns="http://www.w3.org/2000/svg">
<g id="success" filter="url(#filter0_d_1865_18267)">
<path id="Vector" d="M159.681 19.2065C153.419 29.7377 141.246 33.294 130.283 32.019C119.321 30.7461 110.429 25.5419 99.8418 21.8523C89.2564 18.1627 77.6293 16.0315 67.4668 20.8252C69.6735 39.7396 75.8983 56.7669 85.3522 72.2773C91.7522 69.1148 99.2335 68.2794 106.323 68.6919C115.615 69.2315 123.404 71.7523 132.438 69.3086C141.25 66.9231 149.394 60.0981 154.421 51.3065C159.448 42.5127 162.273 33.7531 159.681 19.2065Z" fill="#2C3AD1" fill-opacity="0.5"/>
<path id="Vector_2" d="M80.6921 88.478C76.5082 89.2226 71.9786 92.3088 67.6942 97.3532C63.9184 101.799 62.7513 109.815 60.5871 113.472C52.5425 127.067 42.6623 132.297 31.1792 141.515C32.5625 155.468 50.3452 176.678 62.8805 181.949C79.624 155.111 93.4871 126.703 95.2592 94.6305C93.1759 90.6836 88.2088 87.1405 80.6921 88.478Z" fill="#FAD0BE"/>
<path id="Vector_3" d="M91.6466 90.0539C86.8031 76.3979 81.9843 62.7329 77.2399 49.0423C74.8678 42.1973 69.8128 27.6792 67.467 20.8252C67.467 20.8252 65.3156 20.8252 59.2026 23.5987C75.2095 66.1381 94.6343 123.77 113.897 173.913L120.246 170.873C110.854 143.883 101.199 116.987 91.6466 90.0539Z" fill="#614D48"/>
<path id="Vector_4" d="M139.627 81.8478C138.875 81.8478 138.148 81.4386 137.777 80.7244C137.247 79.7036 137.644 78.4457 138.665 77.9153C151.718 71.1332 161.424 58.5128 164.627 44.1559C164.877 43.0328 165.991 42.3242 167.114 42.5763C168.237 42.8267 168.944 43.9403 168.694 45.0634C165.226 60.6067 154.718 74.2701 140.586 81.613C140.279 81.7724 139.951 81.848 139.627 81.848L139.627 81.8478ZM160.808 76.0942C160.376 76.0942 159.94 75.9601 159.566 75.6826C158.643 74.9961 158.451 73.6909 159.137 72.7678L167.15 61.9909C167.836 61.0674 169.141 60.8755 170.064 61.5619C170.988 62.2486 171.18 63.5536 170.493 64.4769L162.481 75.2536C162.072 75.8038 161.444 76.0942 160.808 76.0942H160.808Z" fill="#E0EDED"/>
<path id="Vector_5" d="M128.019 120.258C126.499 117.812 122.879 116.673 120.562 118.383C123.569 115.26 123.589 109.747 120.605 106.602C117.621 103.457 112.115 103.188 108.838 106.027C111.641 102.591 109.826 96.879 105.958 94.7115C102.089 92.544 97.1027 93.359 93.2897 95.6235C89.4768 97.8881 84.3491 102.499 80.9425 106.041L62.8804 181.949C84.4806 168.699 104.578 153.002 122.665 135.253C124.72 133.236 126.788 131.139 128.026 128.539C129.264 125.939 129.539 122.704 128.019 120.258Z" fill="#FAD0BE"/>
<path id="Vector_6" d="M81.6529 108.481C81.1333 108.481 80.6131 108.288 80.2089 107.899C79.3798 107.102 79.3539 105.783 80.1517 104.954C83.4333 101.542 88.7508 96.6752 92.9367 94.1892C93.6702 93.7629 94.4079 93.3911 95.1471 93.0733C96.2039 92.6194 97.4296 93.1077 97.8837 94.1646C98.3381 95.2217 97.8496 96.4469 96.7925 96.9015C96.2064 97.1533 95.6189 97.4496 95.0469 97.7821C91.4817 99.8996 86.5012 104.363 83.1548 107.842C82.7458 108.267 82.1998 108.481 81.6529 108.481Z" fill="#FEB089"/>
</g>
<defs>
<filter id="filter0_d_1865_18267" x="-4" y="0" width="208" height="208" filterUnits="userSpaceOnUse" color-interpolation-filters="sRGB">
<feFlood flood-opacity="0" result="BackgroundImageFix"/>
<feColorMatrix in="SourceAlpha" type="matrix" values="0 0 0 0 0 0 0 0 0 0 0 0 0 0 0 0 0 0 127 0" result="hardAlpha"/>
<feOffset dy="4"/>
<feGaussianBlur stdDeviation="2"/>
<feComposite in2="hardAlpha" operator="out"/>
<feColorMatrix type="matrix" values="0 0 0 0 0 0 0 0 0 0 0 0 0 0 0 0 0 0 0.25 0"/>
<feBlend mode="normal" in2="BackgroundImageFix" result="effect1_dropShadow_1865_18267"/>
<feBlend mode="normal" in="SourceGraphic" in2="effect1_dropShadow_1865_18267" result="shape"/>
</filter>
</defs>
</svg>
