<svg width="13" height="18" viewBox="0 0 13 18" fill="none" xmlns="http://www.w3.org/2000/svg">
<path d="M3.875 6.78125C4.94141 6.78125 5.84375 7.68359 5.84375 8.75C5.84375 9.84375 4.94141 10.7188 3.875 10.7188C2.78125 10.7188 1.90625 9.84375 1.90625 8.75C1.90625 7.68359 2.78125 6.78125 3.875 6.78125ZM1.90625 3.9375C1.90625 2.87109 2.78125 1.96875 3.875 1.96875C4.94141 1.96875 5.84375 2.87109 5.84375 3.9375C5.84375 5.03125 4.94141 5.90625 3.875 5.90625C2.78125 5.90625 1.90625 5.03125 1.90625 3.9375ZM1.90625 13.5625C1.90625 12.4961 2.78125 11.5938 3.875 11.5938C4.94141 11.5938 5.84375 12.4961 5.84375 13.5625C5.84375 14.6562 4.94141 15.5312 3.875 15.5312C2.78125 15.5312 1.90625 14.6562 1.90625 13.5625Z" fill="#C9C9C9"/>
<path d="M9.875 6.78125C10.9414 6.78125 11.8438 7.68359 11.8438 8.75C11.8438 9.84375 10.9414 10.7188 9.875 10.7188C8.78125 10.7188 7.90625 9.84375 7.90625 8.75C7.90625 7.68359 8.78125 6.78125 9.875 6.78125ZM7.90625 3.9375C7.90625 2.87109 8.78125 1.96875 9.875 1.96875C10.9414 1.96875 11.8438 2.87109 11.8438 3.9375C11.8438 5.03125 10.9414 5.90625 9.875 5.90625C8.78125 5.90625 7.90625 5.03125 7.90625 3.9375ZM7.90625 13.5625C7.90625 12.4961 8.78125 11.5938 9.875 11.5938C10.9414 11.5938 11.8438 12.4961 11.8438 13.5625C11.8438 14.6562 10.9414 15.5312 9.875 15.5312C8.78125 15.5312 7.90625 14.6562 7.90625 13.5625Z" fill="#C9C9C9"/>
</svg>
