<svg width="25" height="25" viewBox="0 0 25 25" fill="none" xmlns="http://www.w3.org/2000/svg">
<g id="Icons/today_24px">
<path id="icon" fill-rule="evenodd" clip-rule="evenodd" d="M19.5 4.5H18.5V2.5H16.5V4.5H8.5V2.5H6.5V4.5H5.5C4.39 4.5 3.5 5.4 3.5 6.5V20.5C3.5 21.6 4.39 22.5 5.5 22.5H19.5C20.6 22.5 21.5 21.6 21.5 20.5V6.5C21.5 5.4 20.6 4.5 19.5 4.5ZM19.5 20.5H5.5V9.5H19.5V20.5ZM7 13.5C7 12.12 8.12 11 9.5 11C10.88 11 12 12.12 12 13.5C12 14.88 10.88 16 9.5 16C8.12 16 7 14.88 7 13.5Z" fill="#F7F7F7"/>
</g>
</svg>
