<svg width="22" height="22" viewBox="0 0 22 22" fill="none" xmlns="http://www.w3.org/2000/svg">
<g id="Video icon">
<g id="Video icon_2">
<circle id="Ellipse 2" cx="11.5625" cy="10.5625" r="10.1875" fill="#E30613"/>
<path id="Ellipse 3" d="M20.0032 10.5625C20.0032 15.2244 16.224 19.0036 11.5622 19.0036C6.90029 19.0036 3.12109 15.2244 3.12109 10.5625C3.12109 5.90066 6.90029 2.12146 11.5622 2.12146C16.224 2.12146 20.0032 5.90066 20.0032 10.5625Z" fill="#E30613"/>
<path id="Ellipse 3 (Stroke)" fill-rule="evenodd" clip-rule="evenodd" d="M11.5622 18.3244C15.8489 18.3244 19.3241 14.8493 19.3241 10.5625C19.3241 6.27575 15.8489 2.80063 11.5622 2.80063C7.27538 2.80063 3.80026 6.27575 3.80026 10.5625C3.80026 14.8493 7.27538 18.3244 11.5622 18.3244ZM11.5622 19.0036C16.224 19.0036 20.0032 15.2244 20.0032 10.5625C20.0032 5.90066 16.224 2.12146 11.5622 2.12146C6.90029 2.12146 3.12109 5.90066 3.12109 10.5625C3.12109 15.2244 6.90029 19.0036 11.5622 19.0036Z" fill="white"/>
<path id="icon" d="M16.5605 9.6133L9.55664 5.47462C8.97961 5.13637 8.12402 5.47462 8.12402 6.29042V14.5678C8.12402 15.3239 8.91992 15.7815 9.55664 15.4035L16.5605 11.2648C17.1774 10.8867 17.1774 9.99135 16.5605 9.6133Z" fill="white"/>
</g>
</g>
</svg>
