<svg width="300" height="285" viewBox="0 0 300 285" fill="none" xmlns="http://www.w3.org/2000/svg">
<path d="M150 284.604C232.843 284.604 300 245.832 300 198.004C300 150.176 232.843 111.404 150 111.404C67.1573 111.404 0 150.176 0 198.004C0 245.832 67.1573 284.604 150 284.604Z" fill="#FAFAFA"/>
<path d="M206.31 152.328L203.318 150.578C202.181 149.999 200.923 149.697 199.646 149.697C198.37 149.697 197.112 149.999 195.974 150.578L37.9379 241.846C35.9165 243.008 35.9165 244.936 37.9379 246.086L40.9299 247.811C42.0681 248.387 43.3261 248.688 44.6019 248.688C45.8777 248.688 47.1356 248.387 48.2738 247.811L96.2812 220.092L109.689 227.727C115.197 230.904 124.204 230.904 129.712 227.727L166.586 206.424C171.284 203.71 171.284 199.266 166.586 196.533L151.713 188.058L206.31 156.531C208.332 155.406 208.332 153.496 206.31 152.328Z" fill="#E0E0E0"/>
<path d="M93.4073 255.755C93.2551 256.482 92.9587 257.171 92.5357 257.782C91.6808 258.987 90.5624 259.981 89.2655 260.688C83.6031 263.952 74.4294 263.952 68.7669 260.688C67.4688 259.982 66.35 258.988 65.4967 257.782C65.0772 257.17 64.7831 256.481 64.6313 255.755C64.1306 253.282 65.5091 250.741 68.7731 248.856C74.4355 245.586 83.6092 245.586 89.2717 248.856C92.511 250.723 93.908 253.301 93.4073 255.755Z" fill="#E0E0E0"/>
<path d="M294.14 247.094C293.757 248.959 292.997 250.726 291.908 252.287C290.11 255.001 287.309 257.541 283.532 259.705C269.036 268.075 245.521 268.075 231.024 259.705C227.241 257.517 224.441 254.976 222.642 252.287C221.563 250.722 220.808 248.956 220.423 247.094C219.131 240.801 222.679 234.242 231.037 229.421C245.533 221.038 269.048 221.038 283.545 229.421C291.89 234.242 295.432 240.832 294.14 247.094Z" fill="#E0E0E0"/>
<path d="M130.721 222.954L158.885 206.665C161.79 204.99 163.243 202.789 163.243 200.595C163.243 198.4 163.243 196.676 163.243 196.676L144.698 186.334C143.884 185.802 143.207 185.087 142.721 184.245C142.236 183.402 141.956 182.458 141.904 181.487V156.358L92.7031 184.794V209.923C92.7538 210.897 93.0339 211.844 93.5206 212.688C94.0073 213.533 94.6867 214.25 95.5035 214.782L109.691 222.973C115.495 226.305 124.91 226.305 130.721 222.954Z" fill="#F5F5F5"/>
<path opacity="0.15" d="M104.515 216.055V219.956L95.4956 214.757C94.6822 214.228 94.0047 213.514 93.5182 212.674C93.0317 211.835 92.7498 210.892 92.6953 209.923V184.788L102.067 179.379C102.265 181.759 102.475 184.219 102.685 186.618L96.1138 190.42V207.945C96.1625 208.918 96.4418 209.865 96.9287 210.709C97.4156 211.553 98.0961 212.268 98.9141 212.797L104.515 216.055Z" fill="black"/>
<path d="M96.0983 207.951C96.149 208.924 96.4291 209.871 96.9158 210.716C97.4024 211.56 98.0819 212.278 98.8986 212.809L109.686 219.034C115.497 222.385 124.911 222.391 130.704 219.034L158.886 202.752C164.697 199.401 164.697 193.967 158.886 190.611L148.087 184.373C147.271 183.842 146.592 183.126 146.105 182.282C145.619 181.439 145.338 180.493 145.286 179.521V161.989L96.0859 190.425L96.0983 207.951Z" fill="#E6E6E6"/>
<path opacity="0.15" d="M153.81 187.668L148.098 184.367C147.283 183.836 146.604 183.12 146.117 182.276C145.63 181.433 145.35 180.487 145.298 179.515V161.989L96.0977 190.425V207.957C96.1484 208.93 96.4285 209.878 96.9151 210.722C97.4018 211.566 98.0812 212.284 98.898 212.816L104.511 216.055L153.81 187.668Z" fill="black"/>
<path d="M47.3162 227.751C48.2697 228.212 49.3182 228.442 50.3771 228.423C51.4359 228.404 52.4754 228.135 53.4114 227.64L198.658 143.778C199.573 143.182 200.335 142.378 200.882 141.431C201.428 140.485 201.744 139.423 201.804 138.332V6.00589C201.764 4.94682 201.474 3.9122 200.959 2.98625C200.443 2.06029 199.716 1.26915 198.837 0.677226C197.884 0.213462 196.835 -0.018221 195.776 0.00111857C194.717 0.0204581 193.677 0.290271 192.742 0.788497L47.4707 84.6439C46.5552 85.2406 45.7933 86.0446 45.2466 86.9909C44.6999 87.9371 44.3839 88.9988 44.3242 90.09V222.416C44.3672 223.478 44.6607 224.515 45.1806 225.442C45.7006 226.37 46.4323 227.161 47.3162 227.751Z" fill="#455A64"/>
<path d="M53.4099 227.633L198.656 143.778C199.572 143.182 200.335 142.378 200.882 141.432C201.428 140.485 201.744 139.423 201.803 138.332V6.00543C201.803 3.99636 200.393 3.18655 198.656 4.18799L53.416 88.0433C52.5006 88.6401 51.7386 89.4441 51.1919 90.3904C50.6452 91.3366 50.3292 92.3983 50.2695 93.4895V225.822C50.2695 227.85 51.6728 228.635 53.4099 227.633Z" fill="#37474F"/>
<path d="M50.2695 215.122V225.823C50.2695 227.826 51.6728 228.635 53.4099 227.634L198.656 143.779C199.572 143.183 200.335 142.379 200.882 141.432C201.428 140.486 201.744 139.424 201.803 138.332V127.632L50.2695 215.122Z" fill="#EBEBEB"/>
<path d="M54.4258 205.169V94.8929C54.4624 94.2216 54.6566 93.5685 54.9928 92.9863C55.329 92.4042 55.7976 91.9095 56.3607 91.5424L195.71 11.0931C196.779 10.475 197.644 10.9757 197.644 12.2059V122.482C197.615 123.153 197.428 123.808 197.099 124.394C196.769 124.979 196.306 125.478 195.747 125.851L56.3607 206.282C55.2912 206.9 54.4258 206.399 54.4258 205.169Z" fill="#263238"/>
<path d="M45.2928 86.9805L51.1902 90.3804C50.6314 91.3187 50.3129 92.3804 50.2629 93.4713V225.822C50.2629 227.677 51.4993 228.672 53.4033 227.64C52.4691 228.141 51.429 228.412 50.3691 228.432C49.3092 228.451 48.2599 228.218 47.3081 227.751C46.4449 227.236 45.7234 226.514 45.2087 225.651C44.6939 224.788 44.402 223.81 44.3594 222.806V90.0899C44.4021 88.9911 44.7233 87.9211 45.2928 86.9805Z" fill="#263238"/>
<path d="M123.285 178.941L130.394 174.854C131.012 174.49 131.55 174.749 131.55 175.473C131.521 175.859 131.401 176.234 131.2 176.566C130.999 176.897 130.723 177.177 130.394 177.383L123.285 181.469C122.667 181.834 122.129 181.574 122.129 180.888C122.153 180.495 122.27 180.113 122.471 179.774C122.672 179.435 122.951 179.15 123.285 178.941Z" fill="#959CE8"/>
<path d="M54.8828 80.3858L66.7827 73.5178C65.7573 72.4362 64.5683 71.5225 63.2591 70.8102C62.4132 70.3146 61.4513 70.0513 60.4709 70.0469C59.4905 70.0426 58.5264 70.2974 57.6761 70.7856C56.8259 71.2738 56.1197 71.978 55.6292 72.8269C55.1387 73.6758 54.8812 74.6392 54.8828 75.6196V80.3858Z" fill="#E0E0E0"/>
<path opacity="0.2" d="M54.8828 80.3858L66.7827 73.5178C65.7573 72.4362 64.5683 71.5225 63.2591 70.8102C62.4132 70.3146 61.4513 70.0513 60.4709 70.0469C59.4905 70.0426 58.5264 70.2974 57.6761 70.7856C56.8259 71.2738 56.1197 71.978 55.6292 72.8269C55.1387 73.6758 54.8812 74.6392 54.8828 75.6196V80.3858Z" fill="black"/>
<path d="M54.8828 80.3854V74.4819C54.8828 72.3183 55.6741 70.7728 56.9846 70.0557C58.5177 69.1779 60.7617 69.3634 63.2591 70.8099L63.698 71.0572C68.3281 73.7339 72.0804 80.2309 72.0804 85.5719V189.604L69.6077 188.183V85.5657C69.6077 81.0778 66.3252 75.3906 62.4369 73.1466L62.0042 72.8993C60.1064 71.8052 58.7588 71.7928 58.1344 72.1514C57.3679 72.5903 57.2504 73.7957 57.2504 74.4757V78.9822L54.8828 80.3854Z" fill="#E0E0E0"/>
<path d="M174.252 7.23012L173.813 6.98285C171.303 5.53014 169.047 5.35087 167.514 6.24104L56.9844 70.0552C58.5174 69.1774 60.7614 69.3628 63.2588 70.8093L63.6977 71.0566C68.3279 73.7333 72.0802 80.2303 72.0802 85.5714V189.604L182.628 125.777V21.7448C182.628 16.4347 178.876 9.90681 174.252 7.23012Z" fill="#FAFAFA"/>
<path d="M169.678 6.30349C171.037 6.36699 172.357 6.78005 173.51 7.50274L173.949 7.7562C178.4 10.3278 182.022 16.6023 182.022 21.7455V125.426L72.6798 188.554V85.572C72.6798 80.0455 68.7853 73.3012 64.0254 70.538L63.5865 70.2845C62.5048 69.6324 61.3091 69.1919 60.0629 68.9864L167.817 6.76712C168.382 6.4496 169.023 6.2895 169.671 6.30349M169.671 5.68531C168.915 5.67119 168.168 5.85896 167.508 6.22931L56.9844 70.0558C57.6395 69.697 58.3764 69.5138 59.1233 69.5242C60.5904 69.5845 62.0161 70.0278 63.2588 70.81L63.6977 71.0572C68.3279 73.7339 72.0802 80.231 72.0802 85.572V189.605L182.628 125.778V21.7455C182.628 16.4045 178.876 9.90744 174.252 7.23075L173.813 6.98348C172.57 6.20212 171.145 5.7589 169.678 5.69768L169.671 5.68531Z" fill="#E0E0E0"/>
<path d="M173.559 108.32L81.1484 161.675V164.512L173.559 111.158V108.32Z" fill="#E0E0E0"/>
<path d="M81.1484 130.47V133.307L173.559 79.9527V77.1152L81.1484 130.47Z" fill="#E0E0E0"/>
<path d="M81.1484 136.145V138.982L173.559 85.6275V82.79L81.1484 136.145Z" fill="#E0E0E0"/>
<path d="M81.1484 124.795V127.632L173.559 74.2779V71.4404L81.1484 124.795Z" fill="#E0E0E0"/>
<path d="M81.1484 99.2648V102.102L173.559 48.7476V45.9102L81.1484 99.2648Z" fill="#E0E0E0"/>
<path d="M81.1484 87.9149V90.7523L173.559 37.4038V34.5664L81.1484 87.9149Z" fill="#E0E0E0"/>
<path d="M81.1484 93.59V96.4274L173.559 43.0728V40.2354L81.1484 93.59Z" fill="#E0E0E0"/>
<path d="M80.8477 174.756V168.383L173.864 114.688V121.056L80.8477 174.756ZM81.4658 168.735V173.681L173.271 120.685V115.708L81.4658 168.735Z" fill="#E0E0E0"/>
<path d="M169.246 14.3643L74.5352 69.0418C74.9988 69.7156 75.4315 70.4141 75.8395 71.1312L170.667 16.3795C170.269 15.6573 169.793 14.9814 169.246 14.3643Z" fill="#E0E0E0"/>
<path d="M101.377 65.1717C101.295 64.7793 101.251 64.3796 101.247 63.9786C101.238 63.6031 101.284 63.2282 101.383 62.8659C101.489 62.5169 101.655 62.1886 101.872 61.8954C102.121 61.5749 102.432 61.3079 102.787 61.1103C103.115 60.9124 103.482 60.786 103.862 60.7394C104.177 60.7112 104.493 60.7689 104.777 60.9063C105.062 61.0502 105.306 61.2627 105.488 61.5245C105.7 61.8291 105.859 62.1678 105.958 62.5259L106.075 62.971C106.112 63.1317 106.149 63.3048 106.18 63.4779C106.211 63.651 106.242 63.8303 106.273 64.0034C106.304 64.1765 106.316 64.331 106.329 64.4732C106.381 64.9002 106.381 65.332 106.329 65.759C106.27 66.1857 106.152 66.602 105.976 66.9953C105.802 67.3846 105.573 67.7468 105.296 68.071C105.017 68.3983 104.685 68.6763 104.313 68.8931C104.013 69.0897 103.665 69.2028 103.306 69.2208C103.039 69.2266 102.779 69.1342 102.576 68.9611C102.354 68.7564 102.182 68.5023 102.076 68.2193C101.936 67.866 101.832 67.4994 101.767 67.1252L101.68 66.6677C101.647 66.4987 101.616 66.3256 101.587 66.1484C101.55 65.9753 101.519 65.8023 101.482 65.6353C101.445 65.4684 101.402 65.3139 101.377 65.1717ZM104.919 63.1874C104.882 62.9895 104.803 62.802 104.686 62.6377C104.57 62.4734 104.42 62.3362 104.245 62.2354C104.082 62.1671 103.904 62.141 103.728 62.1594C103.552 62.1777 103.384 62.24 103.238 62.3405C102.885 62.5412 102.619 62.8647 102.49 63.2492C102.35 63.6939 102.333 64.1679 102.44 64.6215C102.49 64.8935 102.552 65.2026 102.62 65.5364C102.688 65.8703 102.737 66.1546 102.793 66.4575C102.823 66.8571 103.007 67.2295 103.306 67.4961C103.446 67.5803 103.609 67.6201 103.772 67.6101C103.935 67.6002 104.092 67.541 104.221 67.4404C104.592 67.2251 104.886 66.8986 105.061 66.507C105.263 66.0468 105.336 65.5403 105.272 65.0419C105.272 64.7575 105.191 64.4237 105.129 64.1085C105.068 63.7932 104.993 63.4532 104.919 63.1874Z" fill="#455A64"/>
<path d="M111.147 64.8068C111.061 64.8563 110.993 64.8625 110.943 64.8068C110.904 64.7748 110.866 64.7397 110.832 64.7017C110.054 63.4544 109.114 62.3154 108.038 61.3142C108.425 62.8196 108.632 64.3654 108.656 65.9195C108.661 66.0075 108.642 66.0951 108.601 66.173C108.574 66.2467 108.524 66.3096 108.458 66.3523L107.84 66.717C107.819 66.7341 107.793 66.7434 107.766 66.7434C107.739 66.7434 107.713 66.7341 107.692 66.717C107.668 66.6929 107.649 66.6638 107.637 66.6318C107.626 66.5997 107.621 66.5655 107.624 66.5315C107.637 64.1373 107.179 61.7638 106.276 59.5462C106.252 59.474 106.252 59.3958 106.276 59.3236C106.284 59.2902 106.298 59.2586 106.318 59.2309C106.338 59.2033 106.364 59.1801 106.394 59.1629L106.938 58.8476C106.972 58.8237 107.012 58.8084 107.054 58.803C107.096 58.7976 107.139 58.8023 107.179 58.8167L107.333 58.8971C108.571 59.7703 109.682 60.8104 110.634 61.988C110.461 60.5025 110.089 59.0471 109.528 57.6607C109.503 57.5887 109.503 57.5103 109.528 57.4382C109.534 57.4043 109.548 57.3722 109.568 57.3444C109.588 57.3166 109.615 57.2937 109.645 57.2775L110.263 56.9127C110.291 56.8976 110.322 56.8896 110.353 56.8896C110.384 56.8896 110.415 56.8976 110.443 56.9127C110.474 56.9258 110.502 56.946 110.525 56.9718C110.547 56.9975 110.564 57.0281 110.572 57.0611C111.478 59.2782 111.938 61.6518 111.926 64.0465C111.926 64.1339 111.907 64.2203 111.871 64.2999C111.842 64.3741 111.79 64.4369 111.722 64.4792L111.147 64.8068Z" fill="#455A64"/>
<path d="M116.669 60.1282C116.691 60.1117 116.718 60.1027 116.746 60.1027C116.774 60.1027 116.801 60.1117 116.823 60.1282C116.849 60.1515 116.87 60.1801 116.884 60.2121C116.898 60.2441 116.905 60.2788 116.904 60.3137C116.904 60.6413 116.904 60.802 116.947 61.1358C116.952 61.2239 116.933 61.3116 116.891 61.3893C116.865 61.463 116.815 61.5259 116.749 61.5686L113.331 63.5405C113.31 63.5588 113.284 63.5689 113.257 63.5689C113.229 63.5689 113.203 63.5588 113.182 63.5405C113.158 63.5161 113.139 63.4871 113.127 63.4552C113.114 63.4234 113.108 63.3894 113.108 63.3551C113.124 60.9605 112.666 58.5865 111.761 56.3697C111.736 56.2997 111.736 56.2234 111.761 56.1534C111.767 56.1186 111.78 56.0857 111.801 56.0569C111.821 56.028 111.847 56.004 111.878 55.9865L112.496 55.6217C112.524 55.6066 112.554 55.5986 112.586 55.5986C112.617 55.5986 112.648 55.6066 112.675 55.6217C112.707 55.6348 112.735 55.655 112.758 55.6808C112.78 55.7065 112.796 55.7371 112.805 55.7701C113.565 57.6336 114 59.6137 114.091 61.6242L116.669 60.1282Z" fill="#455A64"/>
<path d="M117.917 60.9009C117.895 60.9175 117.868 60.9264 117.84 60.9264C117.812 60.9264 117.785 60.9175 117.762 60.9009C117.716 60.8504 117.692 60.7838 117.694 60.7154C117.707 58.3212 117.25 55.9477 116.347 53.7301C116.322 53.658 116.322 53.5796 116.347 53.5075C116.364 53.441 116.406 53.3836 116.464 53.3468L117.082 52.9821C117.11 52.9669 117.141 52.959 117.172 52.959C117.203 52.959 117.234 52.9669 117.262 52.9821C117.294 52.9952 117.323 53.0153 117.346 53.041C117.37 53.0666 117.387 53.0972 117.398 53.1304C118.301 55.3479 118.759 57.7215 118.745 60.1158C118.75 60.2038 118.731 60.2913 118.69 60.3693C118.663 60.443 118.613 60.5059 118.548 60.5485L117.917 60.9009Z" fill="#455A64"/>
<path d="M123.513 57.6675C123.427 57.7232 123.359 57.7232 123.309 57.6675C123.27 57.6374 123.234 57.6021 123.204 57.5624C122.42 56.3175 121.479 55.1789 120.404 54.1748C120.793 55.6797 121.001 57.2259 121.022 58.7802C121.027 58.8682 121.008 58.956 120.966 59.0337C120.94 59.1074 120.89 59.1703 120.824 59.213L120.206 59.5777C120.185 59.5964 120.157 59.6067 120.129 59.6067C120.1 59.6067 120.073 59.5964 120.052 59.5777C120.005 59.5272 119.981 59.4606 119.984 59.3922C119.996 56.998 119.539 54.6245 118.636 52.4069C118.611 52.3348 118.611 52.2564 118.636 52.1843C118.655 52.1186 118.697 52.0617 118.753 52.0236L119.297 51.7083C119.335 51.6898 119.376 51.6802 119.418 51.6802C119.46 51.6802 119.501 51.6898 119.538 51.7083L119.693 51.7887C120.931 52.664 122.043 53.7039 123 54.8796C122.822 53.3943 122.448 51.9392 121.888 50.5523C121.863 50.4824 121.863 50.4059 121.888 50.336C121.895 50.3017 121.909 50.2692 121.929 50.2405C121.949 50.2118 121.975 50.1875 122.005 50.1691L122.623 49.8044C122.651 49.7892 122.681 49.7812 122.713 49.7812C122.744 49.7812 122.775 49.7892 122.802 49.8044C122.834 49.8182 122.863 49.8385 122.886 49.8641C122.91 49.8896 122.927 49.9198 122.938 49.9527C123.841 52.1703 124.299 54.5438 124.286 56.9381C124.286 57.0255 124.267 57.1119 124.23 57.1915C124.204 57.2652 124.154 57.3282 124.088 57.3708L123.513 57.6675Z" fill="#455A64"/>
<path d="M129.045 52.9884C129.067 52.9719 129.094 52.9629 129.122 52.9629C129.15 52.9629 129.177 52.9719 129.199 52.9884C129.223 53.012 129.242 53.0399 129.254 53.0707C129.267 53.1014 129.274 53.1344 129.274 53.1677C129.274 53.4953 129.305 53.6622 129.323 53.9899C129.322 54.0793 129.304 54.1677 129.267 54.2495C129.235 54.3214 129.184 54.3832 129.119 54.4288L125.694 56.4007C125.674 56.419 125.648 56.4291 125.62 56.4291C125.593 56.4291 125.566 56.419 125.546 56.4007C125.522 56.3766 125.503 56.3475 125.492 56.3155C125.48 56.2835 125.475 56.2493 125.478 56.2153C125.488 53.8207 125.028 51.4473 124.124 49.2299C124.099 49.16 124.099 49.0835 124.124 49.0136C124.132 48.9792 124.146 48.9468 124.166 48.9181C124.186 48.8894 124.212 48.8651 124.242 48.8467L127.598 46.9118C127.626 46.8966 127.657 46.8887 127.688 46.8887C127.719 46.8887 127.75 46.8966 127.778 46.9118C127.809 46.9256 127.838 46.9459 127.861 46.9715C127.885 46.997 127.903 47.0273 127.914 47.0601C128.019 47.3383 128.068 47.4743 128.167 47.7587C128.192 47.8329 128.192 47.9131 128.167 47.9874C128.159 48.0224 128.144 48.0553 128.123 48.0841C128.102 48.1129 128.075 48.1368 128.043 48.1543L125.527 49.607C125.706 50.1513 125.856 50.7043 125.979 51.2637L128.328 49.9099C128.352 49.8914 128.381 49.8813 128.411 49.8813C128.441 49.8813 128.471 49.8914 128.495 49.9099C128.522 49.9293 128.546 49.9541 128.564 49.9827C128.582 50.0114 128.594 50.0434 128.6 50.0768C128.662 50.3797 128.693 50.5343 128.748 50.8495C128.769 50.9285 128.769 51.0117 128.748 51.0906C128.724 51.1639 128.676 51.227 128.612 51.2699L126.269 52.6237C126.387 53.3531 126.43 53.7302 126.492 54.4782L129.045 52.9884Z" fill="#455A64"/>
<path d="M134.051 43.1842C134.078 43.1691 134.109 43.1611 134.14 43.1611C134.172 43.1611 134.203 43.1691 134.23 43.1842C134.291 43.2147 134.338 43.268 134.36 43.3326C134.471 43.6108 134.52 43.753 134.613 44.0373C134.638 44.1094 134.638 44.1878 134.613 44.2599C134.606 44.294 134.591 44.3264 134.571 44.355C134.551 44.3837 134.525 44.4081 134.496 44.4268L133.092 45.2366C133.751 47.1739 134.092 49.2052 134.1 51.2514C134.1 51.3389 134.081 51.4253 134.044 51.5049C134.016 51.579 133.964 51.6418 133.896 51.6841L133.278 52.0489C133.258 52.0671 133.231 52.0772 133.204 52.0772C133.176 52.0772 133.15 52.0671 133.13 52.0489C133.106 52.0244 133.087 51.9954 133.074 51.9635C133.061 51.9317 133.055 51.8977 133.055 51.8634C133.05 49.8189 132.71 47.7892 132.048 45.8547L130.645 46.6646C130.618 46.6797 130.588 46.6877 130.558 46.6877C130.528 46.6877 130.498 46.6797 130.471 46.6646C130.441 46.6487 130.415 46.6268 130.393 46.6002C130.372 46.5736 130.357 46.5429 130.348 46.51C130.249 46.2257 130.199 46.0897 130.094 45.8115C130.073 45.7389 130.073 45.6615 130.094 45.5889C130.112 45.5224 130.154 45.465 130.212 45.4282L134.051 43.1842Z" fill="#455A64"/>
<path d="M140.061 46.6264C140.083 46.6099 140.11 46.6009 140.138 46.6009C140.166 46.6009 140.193 46.6099 140.215 46.6264C140.239 46.65 140.257 46.6779 140.27 46.7087C140.283 46.7395 140.289 46.7724 140.289 46.8057C140.289 47.1333 140.326 47.3003 140.339 47.6279C140.338 47.7173 140.319 47.8057 140.283 47.8875C140.252 47.9606 140.201 48.023 140.135 48.0668L136.71 50.045C136.689 50.062 136.663 50.0713 136.636 50.0713C136.609 50.0713 136.583 50.062 136.562 50.045C136.538 50.0208 136.519 49.9917 136.507 49.9597C136.495 49.9277 136.491 49.8935 136.494 49.8595C136.504 47.4649 136.044 45.0915 135.14 42.8741C135.115 42.8042 135.115 42.7277 135.14 42.6578C135.147 42.6243 135.161 42.5927 135.182 42.5651C135.202 42.5374 135.228 42.5142 135.257 42.497L138.608 40.5436C138.635 40.5285 138.666 40.5205 138.697 40.5205C138.729 40.5205 138.76 40.5285 138.787 40.5436C138.85 40.5733 138.899 40.6266 138.923 40.692C139.028 40.9701 139.084 41.1123 139.177 41.3967C139.201 41.4688 139.201 41.5471 139.177 41.6192C139.169 41.6542 139.154 41.6872 139.133 41.7159C139.111 41.7447 139.084 41.7686 139.053 41.7861L136.537 43.2388C136.727 43.7736 136.888 44.3184 137.019 44.8708L139.368 43.517C139.393 43.5003 139.422 43.4913 139.452 43.4913C139.481 43.4913 139.51 43.5003 139.535 43.517C139.563 43.5364 139.586 43.5612 139.605 43.5898C139.623 43.6185 139.635 43.6505 139.64 43.6839C139.702 43.9868 139.733 44.1414 139.789 44.4567C139.809 44.5377 139.809 44.6228 139.789 44.7039C139.762 44.7745 139.715 44.835 139.653 44.877L137.31 46.2308C137.427 46.9603 137.47 47.3373 137.532 48.0853L140.061 46.6264Z" fill="#455A64"/>
<path d="M141.682 38.6893C141.984 38.5038 142.32 38.3818 142.671 38.3307C142.95 38.2911 143.234 38.31 143.506 38.3864C143.739 38.45 143.952 38.5736 144.124 38.7449C144.276 38.8974 144.394 39.0808 144.47 39.2827C144.496 39.3546 144.497 39.433 144.473 39.5057C144.45 39.5784 144.403 39.6412 144.34 39.6845L143.79 39.9998C143.759 40.0221 143.724 40.038 143.687 40.0465C143.65 40.055 143.611 40.0559 143.574 40.0492C143.51 40.0195 143.452 39.9799 143.4 39.9318C143.267 39.8032 143.096 39.7209 142.912 39.6969C142.64 39.6825 142.37 39.7585 142.146 39.9132C142.015 39.9934 141.893 40.0866 141.781 40.1914C141.676 40.2935 141.587 40.4101 141.515 40.5376C141.443 40.6567 141.397 40.7893 141.379 40.9271C141.351 41.0575 141.351 41.1922 141.379 41.3227C141.411 41.4503 141.473 41.5687 141.558 41.6689C141.645 41.7466 141.757 41.7886 141.874 41.7863C142.046 41.7889 142.219 41.7702 142.387 41.7307L143.153 41.539C143.439 41.4575 143.734 41.4118 144.031 41.403C144.245 41.394 144.458 41.4408 144.649 41.539C144.83 41.6399 144.977 41.7928 145.07 41.9779C145.19 42.2127 145.264 42.469 145.286 42.7321C145.324 43.0793 145.303 43.4305 145.224 43.7707C145.143 44.1291 145.007 44.473 144.822 44.7906C144.635 45.1246 144.404 45.4323 144.136 45.7055C143.86 45.9928 143.543 46.2385 143.196 46.435C142.938 46.594 142.653 46.705 142.356 46.7626C142.117 46.813 141.868 46.7958 141.639 46.7132C141.418 46.6352 141.23 46.4876 141.101 46.2928C140.942 46.0554 140.841 45.7846 140.804 45.5015C140.792 45.4152 140.805 45.3272 140.841 45.2481C140.868 45.176 140.918 45.115 140.983 45.075L141.527 44.7597C141.556 44.7361 141.59 44.7194 141.627 44.7109C141.663 44.7023 141.701 44.7021 141.738 44.7103C141.8 44.7363 141.851 44.7848 141.88 44.8463C141.926 44.9238 141.98 44.9963 142.04 45.0626C142.103 45.1318 142.185 45.1812 142.275 45.2048C142.389 45.2326 142.508 45.2326 142.622 45.2048C142.802 45.1654 142.973 45.0943 143.128 44.9946C143.286 44.9051 143.435 44.8017 143.574 44.6855C143.712 44.5707 143.835 44.4376 143.938 44.2899C144.041 44.1527 144.123 44.0005 144.179 43.8387C144.235 43.6802 144.254 43.511 144.235 43.3441C144.233 43.2794 144.218 43.2158 144.19 43.1573C144.162 43.0988 144.123 43.0467 144.074 43.0041C143.963 42.9368 143.832 42.9106 143.703 42.9299C143.507 42.9473 143.312 42.9824 143.122 43.035C142.894 43.0968 142.628 43.1525 142.325 43.2143C142.084 43.2734 141.837 43.3025 141.589 43.3008C141.388 43.2964 141.192 43.2389 141.02 43.1339C140.85 43.0224 140.708 42.872 140.606 42.695C140.473 42.4557 140.371 42.2001 140.303 41.9347C140.219 41.6291 140.185 41.3116 140.204 40.9951C140.222 40.6869 140.291 40.3839 140.408 40.0987C140.655 39.5077 141.09 39.0145 141.645 38.6954L141.682 38.6893Z" fill="#455A64"/>
<path d="M148.48 34.8512C148.508 34.8361 148.539 34.8281 148.57 34.8281C148.601 34.8281 148.632 34.8361 148.66 34.8512C148.721 34.8829 148.769 34.9355 148.796 34.9996C148.901 35.2778 148.95 35.4199 149.049 35.7043C149.074 35.7764 149.074 35.8548 149.049 35.9268C149.031 35.9966 148.987 36.0567 148.925 36.0938L147.528 36.8912C148.19 38.8279 148.53 40.8596 148.536 42.906C148.541 42.996 148.522 43.0858 148.48 43.1657C148.452 43.2383 148.402 43.3008 148.338 43.3449L147.72 43.7097C147.7 43.7279 147.673 43.738 147.646 43.738C147.618 43.738 147.592 43.7279 147.572 43.7097C147.547 43.6855 147.529 43.6565 147.517 43.6244C147.505 43.5924 147.501 43.5582 147.504 43.5242C147.495 41.48 147.155 39.4507 146.496 37.5156L145.056 38.313C145.029 38.3266 144.999 38.3337 144.969 38.3337C144.939 38.3337 144.909 38.3266 144.882 38.313C144.851 38.2962 144.824 38.2734 144.801 38.2458C144.779 38.2182 144.762 38.1864 144.753 38.1523C144.66 37.8679 144.61 37.7319 144.499 37.4537C144.474 37.3838 144.474 37.3073 144.499 37.2374C144.507 37.2031 144.521 37.1706 144.541 37.1419C144.561 37.1132 144.587 37.0889 144.617 37.0705L148.48 34.8512Z" fill="#455A64"/>
<path d="M240.199 12.9297L236.941 11.0381L173.059 47.9616V94.0404C173.059 95.1469 173.442 95.8949 174.072 96.2843L177.33 98.1759C177.726 98.3614 178.165 98.4368 178.6 98.3944C179.035 98.352 179.45 98.1932 179.803 97.9349L236.737 65.0542C237.748 64.3942 238.59 63.5051 239.194 62.459C239.797 61.4128 240.146 60.2392 240.211 59.0331L240.199 12.9297Z" fill="#E6E6E6"/>
<path d="M178.24 97.984C178.718 97.9613 179.182 97.8165 179.587 97.5636L236.546 64.6829C237.499 64.0599 238.291 63.2217 238.861 62.236C239.43 61.2502 239.759 60.1446 239.822 59.0081V13.6279L176.769 50.0569V95.9007C176.719 97.2051 177.288 97.984 178.24 97.984Z" fill="#FAFAFA"/>
<path d="M239.395 14.3206V59.0084C239.326 60.0741 239.011 61.1092 238.475 62.0327C237.938 62.9562 237.195 63.7428 236.304 64.3309L179.37 97.2178C179.023 97.4324 178.628 97.5577 178.22 97.5825C177.207 97.5825 177.101 96.408 177.101 95.901V50.286L239.395 14.3206ZM240.199 12.9297L176.316 49.8161V95.8949C176.316 97.4712 177.095 98.3676 178.239 98.3676C178.789 98.3465 179.324 98.1824 179.791 97.8916L236.724 65.0109C237.736 64.3509 238.578 63.4618 239.181 62.4157C239.785 61.3696 240.133 60.1959 240.199 58.9899V12.9297Z" fill="#E0E0E0"/>
<path d="M235.928 5.69689C235.309 5.30744 234.419 5.35071 233.455 5.91325L176.521 38.7939C175.509 39.4535 174.667 40.3425 174.063 41.3887C173.46 42.4349 173.112 43.6088 173.047 44.815V47.9058L176.305 49.7974L240.199 12.9295V9.83866C240.24 9.41022 240.169 8.9784 239.993 8.58593C239.816 8.19345 239.54 7.8539 239.192 7.60086C238.604 7.23614 236.546 6.04307 235.928 5.69689Z" fill="#959CE8"/>
<path opacity="0.25" d="M235.928 5.69689C235.309 5.30744 234.419 5.35071 233.455 5.91325L176.521 38.7939C175.509 39.4535 174.667 40.3425 174.063 41.3887C173.46 42.4349 173.112 43.6088 173.047 44.815V47.9058L176.305 49.7974L240.199 12.9295V9.83866C240.24 9.41022 240.169 8.9784 239.993 8.58593C239.816 8.19345 239.54 7.8539 239.192 7.60086C238.604 7.23614 236.546 6.04307 235.928 5.69689Z" fill="black"/>
<path d="M176.316 46.7254C176.38 45.519 176.728 44.3448 177.332 43.2984C177.935 42.2521 178.778 41.3632 179.791 40.7044L236.724 7.8237C238.641 6.71717 240.199 7.61352 240.199 9.82659V12.9175L176.316 49.8163V46.7254Z" fill="#959CE8"/>
<path d="M239.223 7.59433C238.604 7.20489 237.708 7.24197 236.719 7.81069L179.791 40.6914C178.757 41.327 177.906 42.2193 177.319 43.2815L174.055 41.3961C174.642 40.3309 175.494 39.4346 176.527 38.7936L233.455 5.92526C234.438 5.36273 235.31 5.30709 235.928 5.7089C236.546 6.11072 238.58 7.24816 239.167 7.56343L239.223 7.59433Z" fill="#959CE8"/>
<path opacity="0.2" d="M239.223 7.59433C238.604 7.20489 237.708 7.24197 236.719 7.81069L179.791 40.6914C178.757 41.327 177.906 42.2193 177.319 43.2815L174.055 41.3961C174.642 40.3309 175.494 39.4346 176.527 38.7936L233.455 5.92526C234.438 5.36273 235.31 5.30709 235.928 5.7089C236.546 6.11072 238.58 7.24816 239.167 7.56343L239.223 7.59433Z" fill="white"/>
<path d="M228.064 15.1986C227.707 15.425 227.409 15.7331 227.194 16.0974C226.979 16.4618 226.853 16.872 226.828 17.2942C226.828 18.0731 227.372 18.3822 228.064 17.9989C228.421 17.7704 228.719 17.461 228.934 17.0959C229.149 16.7307 229.274 16.32 229.301 15.8972C229.276 15.143 228.732 14.8277 228.064 15.1986Z" fill="#FAFAFA"/>
<path d="M232.311 12.769C231.953 12.9964 231.654 13.3055 231.439 13.671C231.224 14.0364 231.099 14.4476 231.074 14.8708C231.074 15.6435 231.612 15.9588 232.311 15.5694C232.668 15.342 232.967 15.0328 233.182 14.6674C233.397 14.302 233.522 13.8908 233.547 13.4676C233.522 12.7258 232.978 12.3796 232.311 12.769Z" fill="#FAFAFA"/>
<path d="M236.545 10.3213C236.187 10.5491 235.889 10.8583 235.674 11.2236C235.459 11.5889 235.334 12 235.309 12.4231C235.309 13.202 235.853 13.5111 236.545 13.1278C236.902 12.8993 237.2 12.5899 237.414 12.2247C237.629 11.8595 237.755 11.4489 237.781 11.026C237.781 10.2533 237.225 9.93802 236.545 10.3213Z" fill="#FAFAFA"/>
<path d="M199.783 43.7948L233.128 24.5448C233.418 24.3779 233.653 24.4706 233.653 24.755C233.635 24.9216 233.577 25.0815 233.486 25.2221C233.395 25.3627 233.272 25.4801 233.128 25.5648L199.783 44.8147C199.493 44.9878 199.258 44.8889 199.258 44.6107C199.275 44.4431 199.332 44.2819 199.423 44.1401C199.515 43.9984 199.638 43.8801 199.783 43.7948Z" fill="#E0E0E0"/>
<path d="M199.783 46.6319L233.128 27.382C233.418 27.215 233.653 27.3078 233.653 27.586C233.636 27.7536 233.579 27.9148 233.488 28.0566C233.396 28.1983 233.273 28.3166 233.128 28.4019L199.783 47.6519C199.493 47.8188 199.258 47.7261 199.258 47.4479C199.275 47.2802 199.332 47.119 199.423 46.9773C199.515 46.8355 199.638 46.7172 199.783 46.6319Z" fill="#E0E0E0"/>
<path d="M199.783 49.4698L233.128 30.2198C233.418 30.0529 233.653 30.1457 233.653 30.4238C233.636 30.5915 233.579 30.7527 233.488 30.8945C233.396 31.0362 233.273 31.1545 233.128 31.2398L199.783 50.4898C199.493 50.6567 199.258 50.564 199.258 50.2858C199.275 50.1181 199.332 49.9569 199.423 49.8152C199.515 49.6734 199.638 49.5551 199.783 49.4698Z" fill="#E0E0E0"/>
<path d="M199.783 57.9816L233.128 38.7255C233.418 38.5586 233.653 38.6513 233.653 38.9356C233.636 39.1033 233.579 39.2645 233.488 39.4063C233.396 39.548 233.273 39.6663 233.128 39.7516L199.783 59.0016C199.493 59.1685 199.258 59.0758 199.258 58.7914C199.276 58.6248 199.333 58.4648 199.425 58.3242C199.516 58.1836 199.639 58.0663 199.783 57.9816Z" fill="#E0E0E0"/>
<path d="M199.783 60.8195L233.128 41.5634C233.418 41.3964 233.653 41.4892 233.653 41.7735C233.635 41.9409 233.578 42.1018 233.486 42.2434C233.395 42.385 233.272 42.5035 233.128 42.5895L199.783 61.8395C199.493 62.0064 199.258 61.9137 199.258 61.6293C199.276 61.4627 199.333 61.3027 199.425 61.1621C199.516 61.0215 199.639 60.9042 199.783 60.8195Z" fill="#E0E0E0"/>
<path d="M199.783 63.6564L233.128 44.4003C233.418 44.2334 233.653 44.3261 233.653 44.6105C233.635 44.777 233.577 44.937 233.486 45.0776C233.395 45.2182 233.272 45.3355 233.128 45.4203L199.783 64.6517C199.493 64.8186 199.258 64.7258 199.258 64.4415C199.279 64.279 199.337 64.1236 199.429 63.9874C199.52 63.8512 199.641 63.7379 199.783 63.6564Z" fill="#E0E0E0"/>
<path d="M199.783 72.1632L233.128 52.9071C233.418 52.7402 233.653 52.8329 233.653 53.1173C233.635 53.2839 233.577 53.4438 233.486 53.5844C233.395 53.725 233.272 53.8424 233.128 53.9271L199.783 73.1832C199.493 73.3501 199.258 73.2574 199.258 72.9792C199.275 72.8116 199.332 72.6503 199.423 72.5086C199.515 72.3669 199.638 72.2486 199.783 72.1632Z" fill="#E0E0E0"/>
<path d="M199.783 75.0001L233.128 55.7501C233.418 55.5832 233.653 55.6759 233.653 55.9541C233.636 56.1218 233.579 56.283 233.488 56.4247C233.396 56.5665 233.273 56.6848 233.128 56.7701L199.783 76.0201C199.493 76.187 199.258 76.0942 199.258 75.8161C199.275 75.6484 199.332 75.4872 199.423 75.3454C199.515 75.2037 199.638 75.0854 199.783 75.0001Z" fill="#E0E0E0"/>
<path d="M199.783 77.838L233.128 58.588C233.418 58.4211 233.653 58.5138 233.653 58.792C233.636 58.9597 233.579 59.1209 233.488 59.2626C233.396 59.4044 233.273 59.5227 233.128 59.608L199.783 78.8703C199.493 79.0372 199.258 78.9445 199.258 78.6663C199.273 78.4965 199.329 78.3328 199.421 78.1887C199.512 78.0447 199.636 77.9245 199.783 77.838Z" fill="#E0E0E0"/>
<path d="M240.199 80.7256L236.941 78.834L173.059 115.708V157.014C173.059 158.121 173.442 158.869 174.072 159.258L177.33 161.15C177.726 161.335 178.165 161.411 178.6 161.369C179.035 161.326 179.45 161.167 179.803 160.909L236.737 128.028C237.748 127.368 238.589 126.478 239.192 125.432C239.796 124.386 240.145 123.213 240.211 122.007L240.199 80.7256Z" fill="#E6E6E6"/>
<path d="M178.239 160.989C178.717 160.966 179.181 160.822 179.587 160.569L236.546 127.707C237.498 127.083 238.291 126.245 238.86 125.26C239.429 124.274 239.759 123.168 239.822 122.032V81.4053L176.719 117.816V158.887C176.719 160.21 177.287 160.989 178.239 160.989Z" fill="#FAFAFA"/>
<path d="M239.395 82.0969V122.012C239.326 123.078 239.011 124.113 238.475 125.037C237.938 125.96 237.195 126.747 236.304 127.335L179.37 160.222C179.023 160.436 178.628 160.562 178.22 160.587C177.207 160.587 177.101 159.412 177.101 158.905V118.069L239.376 82.0969M240.18 80.7061L176.316 117.605V158.905C176.316 160.481 177.095 161.378 178.239 161.378C178.789 161.357 179.324 161.193 179.791 160.902L236.724 128.021C237.735 127.36 238.576 126.471 239.18 125.425C239.783 124.379 240.132 123.206 240.199 122V80.7246L240.18 80.7061Z" fill="#E0E0E0"/>
<path d="M235.928 73.4742C235.309 73.0848 234.419 73.1281 233.455 73.6906L176.521 106.577C175.509 107.236 174.667 108.124 174.064 109.169C173.46 110.214 173.111 111.387 173.047 112.592V115.683L176.305 117.581L240.199 80.7254V77.6345C240.242 77.2051 240.171 76.772 239.994 76.3784C239.817 75.9847 239.541 75.6442 239.192 75.3906C238.604 75.0135 236.546 73.8204 235.928 73.4742Z" fill="#959CE8"/>
<path opacity="0.25" d="M235.928 73.4742C235.309 73.0848 234.419 73.1281 233.455 73.6906L176.521 106.577C175.509 107.236 174.667 108.124 174.064 109.169C173.46 110.214 173.111 111.387 173.047 112.592V115.683L176.305 117.581L240.199 80.7254V77.6345C240.242 77.2051 240.171 76.772 239.994 76.3784C239.817 75.9847 239.541 75.6442 239.192 75.3906C238.604 75.0135 236.546 73.8204 235.928 73.4742Z" fill="black"/>
<path d="M176.316 114.49C176.38 113.284 176.728 112.109 177.332 111.063C177.935 110.017 178.778 109.128 179.791 108.469L236.724 75.5882C238.641 74.4817 240.199 75.378 240.199 77.5973V80.6881L176.316 117.606V114.49Z" fill="#959CE8"/>
<path d="M239.223 75.3775C238.604 74.9819 237.708 75.019 236.719 75.5939L179.791 108.468C178.757 109.104 177.906 109.996 177.319 111.059L174.055 109.204C174.642 108.141 175.494 107.246 176.527 106.608L233.455 73.6899C234.438 73.1274 235.31 73.0717 235.928 73.4736C236.546 73.8754 238.58 75.0128 239.167 75.3281C239.18 75.3292 239.193 75.3346 239.203 75.3435C239.213 75.3524 239.22 75.3644 239.223 75.3775Z" fill="#959CE8"/>
<path opacity="0.2" d="M239.223 75.3775C238.604 74.9819 237.708 75.019 236.719 75.5939L179.791 108.468C178.757 109.104 177.906 109.996 177.319 111.059L174.055 109.204C174.642 108.141 175.494 107.246 176.527 106.608L233.455 73.6899C234.438 73.1274 235.31 73.0717 235.928 73.4736C236.546 73.8754 238.58 75.0128 239.167 75.3281C239.18 75.3292 239.193 75.3346 239.203 75.3435C239.213 75.3524 239.22 75.3644 239.223 75.3775Z" fill="white"/>
<path d="M228.064 82.9933C227.707 83.2207 227.408 83.5299 227.193 83.8953C226.978 84.2607 226.853 84.6719 226.828 85.0951C226.828 85.8679 227.372 86.1831 228.064 85.7937C228.421 85.5652 228.719 85.2558 228.934 84.8906C229.149 84.5254 229.274 84.1147 229.301 83.6919C229.276 82.9192 228.732 82.5792 228.064 82.9933Z" fill="#FAFAFA"/>
<path d="M232.311 80.5462C231.953 80.7736 231.654 81.0827 231.439 81.4481C231.224 81.8135 231.099 82.2248 231.074 82.648C231.074 83.4207 231.612 83.736 232.311 83.3465C232.668 83.1191 232.967 82.81 233.182 82.4446C233.397 82.0792 233.522 81.6679 233.547 81.2447C233.522 80.472 232.978 80.1629 232.311 80.5462Z" fill="#FAFAFA"/>
<path d="M236.545 78.1036C236.186 78.3302 235.887 78.6392 235.672 79.0047C235.457 79.3703 235.333 79.7819 235.309 80.2054C235.309 80.9781 235.853 81.2872 236.545 80.9039C236.902 80.6754 237.2 80.366 237.414 80.0008C237.629 79.6356 237.755 79.225 237.781 78.8021C237.781 78.0294 237.225 77.7141 236.545 78.1036Z" fill="#FAFAFA"/>
<path d="M183.198 120.016L226.983 94.7388C227.36 94.5162 227.669 94.6399 227.669 95.0108C227.645 95.2299 227.571 95.4405 227.452 95.626C227.333 95.8115 227.172 95.967 226.983 96.0802L183.198 121.357C182.821 121.574 182.512 121.45 182.512 121.085C182.535 120.866 182.609 120.655 182.728 120.469C182.847 120.284 183.008 120.128 183.198 120.016Z" fill="#E0E0E0"/>
<path d="M183.198 123.738L226.983 98.461C227.36 98.2446 227.669 98.3682 227.669 98.7391C227.645 98.9574 227.571 99.1672 227.452 99.3517C227.333 99.5362 227.172 99.6905 226.983 99.8024L183.198 125.08C182.821 125.302 182.512 125.178 182.512 124.808C182.536 124.588 182.61 124.378 182.729 124.192C182.848 124.007 183.009 123.851 183.198 123.738Z" fill="#E0E0E0"/>
<path d="M183.198 127.465L226.983 102.188C227.36 101.965 227.669 102.089 227.669 102.46C227.645 102.679 227.571 102.89 227.452 103.075C227.333 103.261 227.172 103.416 226.983 103.529L183.198 128.807C182.821 129.023 182.512 128.899 182.512 128.528C182.536 128.31 182.61 128.1 182.729 127.916C182.848 127.731 183.009 127.577 183.198 127.465Z" fill="#E0E0E0"/>
<path d="M232.349 91.0489C232.661 90.8609 233.008 90.7389 233.369 90.6903C233.658 90.6481 233.953 90.7051 234.206 90.8522C234.459 90.9993 234.654 91.2277 234.76 91.5002C234.907 91.8522 234.976 92.2317 234.964 92.6129C234.967 92.9523 234.928 93.2909 234.847 93.6205C234.772 93.9281 234.675 94.2298 234.556 94.523C234.438 94.7994 234.306 95.0697 234.16 95.3328L233.746 96.087C233.616 96.3343 233.499 96.5754 233.394 96.8226C233.29 97.0557 233.215 97.3007 233.171 97.5521C233.154 97.6688 233.123 97.783 233.079 97.8921C233.05 97.9815 232.991 98.058 232.912 98.1084L231.731 98.7884C231.705 98.8106 231.672 98.8228 231.638 98.8228C231.604 98.8228 231.571 98.8106 231.545 98.7884C231.49 98.7209 231.464 98.6343 231.471 98.5473C231.471 98.2256 231.514 97.9052 231.601 97.5954C231.686 97.289 231.793 96.9894 231.923 96.699C232.052 96.4085 232.195 96.1303 232.343 95.8645C232.491 95.5987 232.64 95.3452 232.769 95.1103C232.899 94.8754 233.004 94.6405 233.091 94.4241C233.172 94.2279 233.216 94.0183 233.221 93.806C233.221 93.5216 233.153 93.3361 233.011 93.2558C232.868 93.1754 232.646 93.2125 232.349 93.3856C232.1 93.5189 231.887 93.7123 231.731 93.9481C231.613 94.1412 231.522 94.3491 231.459 94.5663C231.397 94.7579 231.348 94.9372 231.304 95.0918C231.289 95.1631 231.258 95.2305 231.216 95.29C231.174 95.3495 231.119 95.3998 231.057 95.4379L229.876 96.1179C229.855 96.1331 229.829 96.1412 229.802 96.1412C229.776 96.1412 229.75 96.1331 229.728 96.1179C229.704 96.0902 229.686 96.0577 229.675 96.0226C229.665 95.9874 229.661 95.9504 229.666 95.9139C229.68 95.5057 229.744 95.1008 229.858 94.7085C229.987 94.2366 230.163 93.7789 230.383 93.3423C230.615 92.886 230.897 92.4568 231.224 92.0627C231.533 91.658 231.915 91.3142 232.349 91.0489ZM233.196 100.748C233.192 100.862 233.165 100.973 233.116 101.076C233.08 101.168 233.014 101.246 232.93 101.298L231.694 102.003C231.668 102.025 231.635 102.037 231.601 102.037C231.567 102.037 231.534 102.025 231.508 102.003C231.481 101.971 231.461 101.933 231.448 101.893C231.435 101.853 231.431 101.81 231.434 101.768V100.26C231.435 100.146 231.46 100.035 231.508 99.9321C231.542 99.8385 231.608 99.7598 231.694 99.7095L232.93 99.0048C232.956 98.9826 232.989 98.9704 233.023 98.9704C233.057 98.9704 233.09 98.9826 233.116 99.0048C233.172 99.0695 233.201 99.1539 233.196 99.2397V100.748Z" fill="#959CE8"/>
<path d="M181.758 155.592V135.038L236.411 103.511V124.065L181.758 155.592ZM182.376 135.39V154.553L235.805 123.688V104.525L182.376 135.39Z" fill="#E0E0E0"/>
<path d="M92.0489 242.76H65.9805L68.6757 253.992C68.8797 255.346 69.875 256.669 71.6677 257.701C75.7229 260.038 82.3003 260.038 86.3555 257.701C88.2842 256.582 89.2856 255.136 89.3784 253.677L92.0489 242.76Z" fill="#37474F"/>
<path d="M88.8702 250.456C89.4219 250.139 89.9451 249.775 90.4342 249.368L91.893 243.366C91.1329 244.2 90.2438 244.908 89.2596 245.461C83.7579 248.639 74.9427 248.719 69.2555 245.721L69.9169 243.044L69.713 242.76H66.0039L68.6991 253.986C68.9031 255.34 69.8984 256.663 71.6911 257.695C74.5842 259.358 78.7445 259.834 82.367 259.123C75.8761 259.611 71.4191 256.768 70.7453 254.177C70.4795 253.133 70.0159 250.821 70.0159 250.821C75.4249 253.559 83.6837 253.448 88.8702 250.456Z" fill="#263238"/>
<path d="M93.4086 239.44C93.2465 240.163 92.9418 240.846 92.5122 241.449C91.6573 242.654 90.5389 243.648 89.2421 244.355C83.5796 247.619 74.4059 247.619 68.7434 244.355C67.4454 243.649 66.3266 242.655 65.4733 241.449C65.0538 240.837 64.7596 240.148 64.6079 239.422C64.1071 236.949 65.4857 234.408 68.7496 232.523C74.4121 229.253 83.5858 229.253 89.2483 232.523C92.5122 234.427 93.9093 236.986 93.4086 239.44Z" fill="#455A64"/>
<path d="M92.5138 241.449C91.6589 242.654 90.5404 243.648 89.2436 244.355C83.5812 247.619 74.4074 247.619 68.745 244.355C67.4469 243.65 66.3281 242.656 65.4748 241.449C65.0553 240.837 64.7611 240.148 64.6094 239.422L65.2275 243.842C65.5243 245.616 66.8472 247.353 69.2086 248.713C74.6053 251.804 83.3462 251.804 88.7367 248.713C91.0672 247.365 92.3901 245.659 92.7054 243.904L92.7425 243.675L93.3607 239.422C93.216 240.147 92.9281 240.837 92.5138 241.449Z" fill="#37474F"/>
<path d="M87.5656 233.524C82.8428 230.798 75.2021 230.798 70.4855 233.524C67.8149 235.07 66.6589 237.147 67.0051 239.156C67.2771 240.701 68.4393 242.203 70.4855 243.384C75.1959 246.11 82.8489 246.11 87.5656 243.384C89.6056 242.203 90.7678 240.701 91.0336 239.162C91.3797 237.122 90.2238 235.07 87.5656 233.524Z" fill="#263238"/>
<path d="M67.7852 241.023C68.4924 242 69.409 242.806 70.468 243.384C75.1785 246.11 82.8315 246.11 87.5482 243.384C88.6042 242.805 89.5185 241.998 90.2249 241.023C90.1878 239.391 89.0936 237.771 86.9424 236.522C82.5595 233.994 75.4505 233.994 71.0738 236.522C68.9288 237.771 67.8346 239.397 67.7852 241.023Z" fill="#FAFAFA"/>
<path d="M79.919 235.954C77.7493 235.367 77.3845 230.675 78.5962 225.717C79.7769 220.902 83.5415 213.669 84.3637 213.83C85.1859 213.991 86.175 221.866 85.6001 227.034C84.9201 233.321 82.0888 236.541 79.919 235.954Z" fill="#959CE8"/>
<path opacity="0.3" d="M79.919 235.954C77.7493 235.367 77.3845 230.675 78.5962 225.717C79.7769 220.902 83.5415 213.669 84.3637 213.83C85.1859 213.991 86.175 221.866 85.6001 227.034C84.9201 233.321 82.0888 236.541 79.919 235.954Z" fill="black"/>
<path opacity="0.5" d="M80.9757 220.778C81.3652 221.396 81.5939 222.429 82.515 222.435C83.2444 222.435 83.6277 221.662 84.283 221.489C84.543 221.45 84.8084 221.469 85.0604 221.543C85.3125 221.618 85.5451 221.747 85.7419 221.922C85.7419 221.736 85.7419 221.545 85.7419 221.359C85.3834 221.091 84.9528 220.936 84.5055 220.914C84.1135 220.957 83.7454 221.124 83.4546 221.39C83.1208 221.65 82.7066 222.051 82.2183 221.86C81.7299 221.668 81.5383 220.976 81.2663 220.537C81.1312 220.285 80.9332 220.072 80.6914 219.919C80.6296 220.049 80.5739 220.185 80.5121 220.314C80.7056 220.424 80.8657 220.585 80.9757 220.778ZM83.5473 218.843C83.8564 218.695 84.0357 218.386 84.2768 218.151C84.4227 218.011 84.6059 217.916 84.8044 217.878C85.0028 217.839 85.2081 217.859 85.3957 217.934H85.4328C85.4328 217.767 85.3895 217.607 85.371 217.446C85.3034 217.42 85.2327 217.404 85.1608 217.397C84.8465 217.342 84.5231 217.41 84.2582 217.588C83.9553 217.805 83.7884 218.175 83.4732 218.361C82.9106 218.701 82.4594 218.083 82.2924 217.619C82.2121 217.415 82.1564 217.199 82.0823 217.001C82.0266 217.112 81.971 217.224 81.9092 217.335C81.9525 217.483 81.9895 217.632 82.0328 217.774C82.2244 218.392 82.8055 219.195 83.5473 218.843ZM83.4732 225.111C83.1139 225.421 82.7147 225.681 82.2863 225.884C81.1736 226.206 80.9139 224.481 80.203 223.968C79.906 223.765 79.5471 223.673 79.1892 223.708L79.0594 224.104C79.2464 224.06 79.4411 224.06 79.6281 224.104C79.8448 224.167 80.0447 224.277 80.2136 224.427C80.3825 224.577 80.5161 224.762 80.6048 224.969C80.9634 225.587 81.4146 226.527 82.311 226.348C82.6953 226.229 83.0494 226.028 83.3495 225.76C83.5566 225.588 83.7989 225.463 84.0594 225.393C84.3199 225.324 84.5924 225.312 84.8579 225.359C85.1735 225.436 85.4647 225.591 85.7048 225.81C85.7048 225.643 85.7048 225.47 85.7048 225.297C85.4063 225.057 85.0505 224.9 84.6724 224.839C84.2538 224.798 83.833 224.894 83.4732 225.111ZM84.1531 228.901C83.6534 228.79 83.1306 228.858 82.6757 229.092C82.1564 229.346 81.7855 229.847 81.2415 230.051C80.0608 230.502 79.8816 228.814 79.0161 228.369C78.7369 228.236 78.4284 228.177 78.1198 228.196C78.1198 228.332 78.0827 228.468 78.0703 228.598C78.1835 228.589 78.2972 228.589 78.4103 228.598C78.6804 228.636 78.9362 228.743 79.1528 228.908C79.3694 229.074 79.5395 229.293 79.6467 229.544C80.0608 230.323 80.611 230.953 81.5692 230.49C82.0761 230.236 82.4408 229.772 82.9663 229.55C83.2453 229.408 83.5586 229.348 83.8703 229.377C84.182 229.405 84.4793 229.521 84.7281 229.711C84.8526 229.833 84.9645 229.968 85.0619 230.112C85.1051 229.946 85.1422 229.772 85.1855 229.599C84.9323 229.254 84.5676 229.008 84.1531 228.901Z" fill="#959CE8"/>
<path opacity="0.1" d="M79.9197 235.954C82.0895 236.541 84.9207 233.321 85.6069 227.034C85.7729 225.25 85.808 223.457 85.712 221.668C83.9378 223.121 82.1637 226.088 82.1637 226.088C81.5467 224.472 80.8451 222.889 80.0619 221.347C79.4654 222.775 78.9697 224.244 78.5783 225.742C77.3852 230.675 77.7499 235.367 79.9197 235.954Z" fill="black"/>
<path d="M78.1489 238.563C75.2992 240.418 72.641 233.884 71.2254 228.969C69.8098 224.055 70.7308 211.215 72.165 210.511C73.185 210.016 78.5693 221.526 79.6264 227.127C80.3929 231.176 80.4176 237.123 78.1489 238.563Z" fill="#959CE8"/>
<path opacity="0.1" d="M78.1489 238.563C75.2992 240.418 72.641 233.884 71.2254 228.969C69.8098 224.055 70.7308 211.215 72.165 210.511C73.185 210.016 78.5693 221.526 79.6264 227.127C80.3929 231.176 80.4176 237.123 78.1489 238.563Z" fill="black"/>
<path d="M71.9996 219.579C72.8959 220.024 73.6068 220.024 74.3054 219.27C75.0039 218.516 75.4304 217.681 76.4443 217.792L76.1475 217.125C75.9832 217.117 75.8186 217.133 75.6592 217.174C74.7752 217.409 74.3734 218.33 73.7552 218.911C72.797 219.808 71.777 218.633 70.6643 218.695H70.5654C70.5654 218.893 70.5654 219.091 70.5654 219.313C71.0586 219.272 71.5538 219.364 71.9996 219.579ZM79.838 228.419C79.6852 228.361 79.5281 228.316 79.3682 228.283C79.1349 228.237 78.8945 228.24 78.6625 228.292C78.4305 228.345 78.2119 228.444 78.0206 228.586C77.1552 229.204 77.1181 230.626 75.721 230.261C74.6639 229.977 73.8665 229.278 72.7538 229.841C72.3687 230.035 72.0212 230.297 71.7276 230.613C71.7832 230.774 71.8327 230.935 71.8883 231.102C72.2668 230.695 72.7469 230.396 73.2792 230.236C74.4785 229.927 75.3872 231.145 76.5803 230.947C77.557 230.78 77.6621 229.711 78.3359 229.185C78.565 229.025 78.834 228.931 79.1132 228.913C79.3924 228.896 79.671 228.956 79.9184 229.086C79.8937 228.858 79.8628 228.635 79.838 228.419ZM72.049 214.918C72.3829 215.375 72.8527 215.882 73.4708 215.567C74.089 215.252 74.1817 214.423 74.6083 213.898C74.5279 213.75 74.4537 213.601 74.3734 213.459C73.9592 214.009 73.7552 215.215 72.9639 215.171C72.3458 215.134 72.1047 214.219 71.5854 213.935C71.4284 213.851 71.2494 213.816 71.0723 213.836C71.0723 213.96 71.0291 214.083 71.0105 214.213C71.0515 214.207 71.0932 214.207 71.1341 214.213C71.5669 214.25 71.8203 214.603 72.049 214.918ZM74.1941 224.666C75.3192 224.908 75.8694 223.572 76.3763 222.812C76.7495 222.221 77.2955 221.759 77.9402 221.489C77.8661 221.291 77.7919 221.087 77.7115 220.871C77.5063 220.914 77.3084 220.987 77.1242 221.087C76.6205 221.396 76.1969 221.82 75.8879 222.324C75.6097 222.904 75.2188 223.423 74.7381 223.85C74.1199 224.246 73.4337 223.634 72.8094 223.517C72.0322 223.364 71.226 223.505 70.5469 223.912C70.5469 224.197 70.5469 224.469 70.5901 224.741C71.1074 224.307 71.7704 224.086 72.4447 224.122C73.0441 224.246 73.6301 224.429 74.1941 224.666Z" fill="#959CE8"/>
<path opacity="0.1" d="M78.1311 222.027C77.1894 223.175 76.4114 224.449 75.8192 225.81C75.8192 225.81 72.7283 221.607 70.5461 219.709C70.4287 223.195 70.6018 226.83 71.22 228.982C72.6356 233.896 75.2937 240.405 78.1435 238.576C80.4122 237.117 80.3875 231.188 79.6209 227.139C79.2545 225.4 78.7565 223.691 78.1311 222.027Z" fill="black"/>
<path d="M77.9587 241.907C72.7414 242.185 67.8701 239.033 64.7113 235.052C61.5524 231.071 59.0859 222.849 59.7659 222.348C60.4459 221.847 68.8901 227.028 72.049 230.768C74.7062 234.073 76.7116 237.853 77.9587 241.907Z" fill="#959CE8"/>
<path opacity="0.2" d="M77.9587 241.907C72.7414 242.185 67.8701 239.033 64.7113 235.052C61.5524 231.071 59.0859 222.849 59.7659 222.348C60.4459 221.847 68.8901 227.028 72.049 230.768C74.7062 234.073 76.7116 237.853 77.9587 241.907Z" fill="black"/>
<path d="M66.5776 228.845C66.7836 228.333 66.8054 227.765 66.6394 227.238C66.5871 226.886 66.6616 226.526 66.8496 226.224C66.6579 226.082 66.4601 225.946 66.2623 225.81C66.0292 226.241 65.9548 226.739 66.0521 227.219C66.1387 227.838 66.2808 228.573 65.4772 228.678C64.6736 228.783 63.3878 228.017 62.6831 228.882C62.3431 229.303 62.4729 229.84 62.4605 230.335C62.4452 230.552 62.3819 230.763 62.2751 230.953C62.3678 231.151 62.4605 231.349 62.5594 231.54C62.7702 231.289 62.9053 230.982 62.9489 230.656C63.0231 230.038 62.7882 229.266 63.6041 229.142C64.167 229.144 64.7274 229.215 65.2732 229.352C65.5162 229.397 65.7668 229.373 65.9971 229.283C66.2274 229.194 66.4283 229.042 66.5776 228.845ZM63.666 224.518C63.7324 224.427 63.8092 224.344 63.8947 224.271L63.4311 223.986C63.0478 224.487 63.0478 225.179 62.6583 225.68C62.5434 225.823 62.3872 225.926 62.2111 225.976C62.0351 226.025 61.8479 226.019 61.6754 225.958C61.3187 225.85 60.936 225.863 60.5875 225.995L60.3711 226.119L60.4885 226.496C60.6579 226.404 60.8463 226.354 61.0387 226.348C61.4344 226.348 61.7991 226.546 62.1947 226.515C62.4626 226.492 62.711 226.365 62.8871 226.162C63.3136 225.668 63.3321 225.013 63.666 224.493V224.518ZM69.4459 231.503C69.8532 231.145 70.1367 230.667 70.2557 230.137C70.3244 229.772 70.3678 229.402 70.3855 229.031L69.8972 228.598C69.878 229.214 69.7547 229.822 69.5324 230.397C69.3783 230.686 69.1408 230.922 68.8509 231.074C68.5609 231.226 68.2319 231.287 67.9066 231.25C67.6567 231.214 67.402 231.235 67.1613 231.311C66.9206 231.387 66.7 231.516 66.5157 231.689C66.2068 232.095 66.0241 232.583 65.9903 233.092C65.8852 233.815 65.7739 234.489 65.1001 234.897C64.9863 234.966 64.8663 235.024 64.7416 235.07L65.1187 235.521C65.4053 235.392 65.6605 235.202 65.8667 234.965C66.7383 233.933 66.0336 231.874 67.8881 231.874C68.4383 231.938 68.9928 231.797 69.4459 231.479V231.503ZM72.2462 232.029C72.3539 231.833 72.4847 231.65 72.6357 231.485C72.4935 231.299 72.3389 231.108 72.1844 230.922C71.7611 231.381 71.4723 231.948 71.3499 232.56C71.2665 233.25 71.0368 233.914 70.6761 234.508C70.2186 235.089 69.4953 235.027 68.8957 235.361C68.388 235.653 67.997 236.111 67.7892 236.659C67.6446 237.083 67.5513 237.523 67.511 237.969L68.0612 238.427C68.0612 238.427 68.0612 238.371 68.0612 238.347C68.0819 237.598 68.3565 236.878 68.8401 236.307C69.3964 235.793 70.1506 235.868 70.7441 235.453C71.8753 234.65 71.6837 233.111 72.2462 232.004V232.029ZM74.5087 234.205C74.3551 234.321 74.2123 234.452 74.0822 234.594C73.192 235.571 73.3033 236.838 72.9757 238.037C72.9176 238.353 72.7875 238.651 72.5956 238.908C72.4037 239.166 72.1551 239.375 71.8691 239.521C71.3746 239.731 70.8121 239.521 70.3793 239.923L70.3361 239.966C70.5957 240.115 70.8553 240.257 71.115 240.386C71.26 240.361 71.4066 240.344 71.5539 240.337C71.8341 240.329 72.1097 240.264 72.3637 240.145C72.8027 239.9 73.1499 239.518 73.3528 239.057C73.8967 237.939 73.6557 236.585 74.3295 235.515C74.485 235.271 74.6744 235.051 74.892 234.86L74.5087 234.205Z" fill="#959CE8"/>
<path opacity="0.2" d="M66.2148 225.773C66.7094 230.101 69.009 241.704 77.9602 241.908C76.721 237.861 74.7262 234.085 72.0813 230.781C70.3298 228.886 68.3607 227.206 66.2148 225.773Z" fill="black"/>
<path d="M77.9588 241.908C73.8541 241.29 70.3367 238.712 68.5254 230.991C66.7142 223.27 66.4422 219.777 67.6847 219.011C69.1189 218.127 74.7134 225.91 76.5122 229.334C81.0373 237.939 77.9588 241.908 77.9588 241.908Z" fill="#959CE8"/>
<path opacity="0.2" d="M70.3472 227.634C71.3672 227.955 72.6963 228.295 73.4381 227.288C73.7397 226.75 73.9882 226.185 74.1799 225.6L73.6297 224.815C73.1785 225.544 73.1908 226.614 72.3934 227.034C71.7752 227.257 71.0945 227.23 70.4956 226.96C69.9044 226.735 69.2724 226.638 68.6411 226.676C68.2939 226.725 67.9598 226.843 67.6582 227.022C67.7015 227.25 67.7571 227.485 67.8004 227.726C67.9341 227.652 68.0724 227.586 68.2145 227.529C68.9162 227.316 69.67 227.353 70.3472 227.634ZM69.1109 223.634C69.4025 223.79 69.7341 223.854 70.0629 223.82C70.6811 223.69 71.0087 223.084 71.2992 222.583C71.39 222.439 71.4956 222.304 71.6145 222.181C71.4826 222.021 71.3528 221.866 71.2251 221.718L71.1509 221.798C70.7614 222.268 70.4338 223.226 69.7105 223.238C69.3611 223.173 69.0193 223.071 68.6905 222.936C68.3983 222.882 68.0988 222.882 67.8065 222.936C67.5144 222.985 67.235 223.093 66.9844 223.251C66.9844 223.43 67.0276 223.616 67.0586 223.801C67.3907 223.602 67.7663 223.488 68.1527 223.467C68.4887 223.449 68.8246 223.506 69.1356 223.634H69.1109ZM73.5865 232.214C73.9 231.602 74.3184 231.05 74.8228 230.582C75.1296 230.384 75.4731 230.248 75.833 230.185C76.193 230.121 76.5621 230.13 76.9184 230.212C76.7763 229.921 76.6341 229.637 76.4795 229.34C76.0047 229.27 75.5206 229.299 75.0577 229.426C74.4251 229.626 73.8755 230.028 73.4938 230.57C73.1987 231.11 72.8486 231.617 72.449 232.085C71.6145 232.845 70.4832 232.177 69.5498 231.992C69.281 231.941 69.0073 231.92 68.7338 231.93C68.8018 232.202 68.876 232.468 68.9564 232.721C69.3215 232.719 69.6847 232.775 70.032 232.888C71.4909 233.321 72.6778 233.574 73.6112 232.214H73.5865ZM78.3093 233.717C78.2379 233.732 78.1677 233.753 78.0992 233.778C77.551 233.991 77.0719 234.35 76.7144 234.817C76.3126 235.33 76.0963 235.954 75.7315 236.48C75.5747 236.756 75.3213 236.964 75.0199 237.065C74.7186 237.165 74.3907 237.151 74.0996 237.024C73.5289 236.781 72.8939 236.736 72.2945 236.894C71.8647 237.042 71.4738 237.285 71.1509 237.605C71.293 237.815 71.4352 238.007 71.5774 238.223C71.8331 237.992 72.1342 237.818 72.4614 237.71C72.9384 237.59 73.4431 237.651 73.877 237.883C74.3818 238.134 74.9633 238.182 75.5024 238.017C76.0415 237.853 76.4973 237.489 76.7763 236.999C77.1286 236.486 77.3326 235.88 77.7221 235.392C77.9519 235.114 78.2414 234.893 78.569 234.743C78.5113 234.405 78.433 234.063 78.3341 233.717H78.3093Z" fill="white"/>
<path opacity="0.15" d="M76.5106 229.334C76.1891 228.716 75.7379 227.955 75.2062 227.127C73.4383 232.61 72.8634 240.603 77.9571 241.908C77.9571 241.908 81.0356 237.939 76.5106 229.334Z" fill="black"/>
<path d="M80.0742 241.907C85.2916 242.185 90.1628 239.033 93.3217 235.052C96.4806 231.071 98.9471 222.849 98.2362 222.348C97.5253 221.847 89.1119 227.028 85.9531 230.768C83.3068 234.076 81.312 237.856 80.0742 241.907Z" fill="#959CE8"/>
<path opacity="0.2" d="M80.0742 241.907C85.2916 242.185 90.1628 239.033 93.3217 235.052C96.4806 231.071 98.9471 222.849 98.2362 222.348C97.5253 221.847 89.1119 227.028 85.9531 230.768C83.3068 234.076 81.312 237.856 80.0742 241.907Z" fill="black"/>
<path d="M92.7594 229.371C93.3052 229.233 93.8657 229.163 94.4285 229.16C95.2445 229.284 95.0096 230.069 95.0838 230.675C95.1274 231.001 95.2624 231.307 95.4732 231.559C95.5721 231.367 95.6648 231.17 95.7576 230.972C95.6508 230.782 95.5874 230.571 95.5721 230.354C95.5721 229.859 95.6896 229.321 95.3496 228.901C94.6448 228.035 93.4332 228.82 92.5554 228.697C91.6776 228.573 91.894 227.85 91.9805 227.232C92.0778 226.752 92.0034 226.253 91.7703 225.822C91.5725 225.958 91.3747 226.094 91.1522 226.236C91.3402 226.539 91.4146 226.898 91.3623 227.25C91.1963 227.777 91.2182 228.345 91.4242 228.858C91.5752 229.061 91.7809 229.217 92.0173 229.308C92.2537 229.399 92.5111 229.421 92.7594 229.371ZM95.1456 226.138C95.3217 226.341 95.5701 226.467 95.8379 226.49C96.2336 226.521 96.5983 226.311 96.9939 226.323C97.1864 226.329 97.3748 226.38 97.5441 226.471L97.6615 226.094L97.4575 225.995C97.109 225.863 96.7263 225.85 96.3696 225.958C96.1971 226.019 96.0099 226.025 95.8339 225.976C95.6578 225.926 95.5016 225.823 95.3867 225.68C94.9972 225.179 94.9972 224.487 94.6139 223.986L94.1503 224.271C94.2358 224.344 94.3126 224.427 94.379 224.518C94.7005 225.012 94.719 225.668 95.1456 226.138ZM90.1631 231.874C92.0176 231.874 91.3129 233.933 92.1845 234.965C92.3907 235.202 92.6459 235.392 92.9325 235.521L93.3096 235.07C93.1849 235.024 93.0649 234.966 92.9511 234.897C92.2772 234.489 92.166 233.815 92.0547 233.092C92.026 232.583 91.8451 232.094 91.5354 231.689C91.3512 231.516 91.1306 231.387 90.8898 231.311C90.6491 231.235 90.3944 231.214 90.1445 231.25C89.8192 231.287 89.4902 231.226 89.2003 231.074C88.9104 230.922 88.6729 230.686 88.5187 230.397C88.2965 229.822 88.1732 229.214 88.154 228.598L87.6595 229.031C87.6823 229.402 87.7278 229.771 87.7955 230.137C87.9142 230.655 88.1907 231.124 88.5867 231.479C89.0448 231.802 89.6067 231.943 90.1631 231.874ZM87.2762 235.429C87.8944 235.843 88.6238 235.769 89.1802 236.282C89.6637 236.854 89.9384 237.573 89.9591 238.322C89.9591 238.322 89.9591 238.377 89.9591 238.402L90.5093 237.945C90.469 237.498 90.3756 237.058 90.2311 236.634C90.0233 236.087 89.6323 235.628 89.1246 235.336C88.5064 235.002 87.8017 235.064 87.3442 234.483C86.9809 233.89 86.7509 233.226 86.6704 232.536C86.5479 231.923 86.2592 231.357 85.8359 230.898C85.6813 231.083 85.5268 231.275 85.3846 231.46C85.5356 231.625 85.6663 231.808 85.7741 232.004C86.3304 233.111 86.1573 234.65 87.2762 235.429ZM83.1406 234.811C83.3582 235.001 83.5476 235.222 83.7032 235.466C84.377 236.529 84.1359 237.889 84.6799 239.008C84.8828 239.468 85.2299 239.85 85.669 240.096C85.9229 240.215 86.1986 240.28 86.4788 240.288C86.626 240.295 86.7726 240.311 86.9177 240.337C87.1773 240.207 87.4369 240.065 87.6966 239.917L87.6533 239.873C87.2206 239.478 86.658 239.682 86.1635 239.472C85.8775 239.326 85.6289 239.116 85.437 238.859C85.2451 238.602 85.1151 238.304 85.057 237.988C84.7293 236.789 84.8406 235.515 83.9504 234.545C83.8203 234.402 83.6776 234.272 83.5239 234.155L83.1406 234.811Z" fill="#959CE8"/>
<path opacity="0.2" d="M91.8195 225.773C91.325 230.101 89.0254 241.704 80.0742 241.908C81.3134 237.861 83.3082 234.085 85.9531 230.781C87.7046 228.886 89.6737 227.206 91.8195 225.773Z" fill="black"/>
<path d="M80.0735 241.908C84.1782 241.29 87.6956 238.712 89.5069 230.991C91.3181 223.27 91.5901 219.777 90.3476 219.011C88.9134 218.127 83.319 225.91 81.5201 229.334C76.995 237.939 80.0735 241.908 80.0735 241.908Z" fill="#959CE8"/>
<path opacity="0.2" d="M89.8166 227.529C89.9587 227.586 90.0971 227.652 90.2308 227.727C90.2741 227.486 90.3297 227.251 90.373 227.022C90.0713 226.843 89.7373 226.725 89.3901 226.676C88.7588 226.639 88.1268 226.736 87.5356 226.96C86.9367 227.231 86.256 227.257 85.6378 227.034C84.8465 226.614 84.8589 225.545 84.4014 224.815L83.8513 225.6C84.043 226.186 84.2915 226.751 84.5931 227.288C85.3596 228.295 86.6887 227.955 87.6839 227.634C88.3612 227.353 89.115 227.316 89.8166 227.529ZM89.8166 223.461C90.2052 223.481 90.5829 223.596 90.917 223.795C90.9479 223.61 90.9664 223.424 90.9912 223.245C90.7406 223.087 90.4612 222.98 90.169 222.93C89.8767 222.877 89.5773 222.877 89.285 222.93C88.9563 223.065 88.6145 223.167 88.265 223.233C87.5418 223.233 87.2141 222.262 86.8247 221.792L86.7505 221.712C86.6227 221.86 86.4929 222.015 86.3611 222.176C86.4799 222.298 86.5856 222.433 86.6763 222.577C86.9978 223.066 87.2945 223.672 87.9436 223.814C88.2723 223.849 88.604 223.784 88.8956 223.628C89.1874 223.508 89.5013 223.451 89.8166 223.461ZM87.9621 232.888C88.3094 232.776 88.6726 232.719 89.0377 232.722C89.1181 232.468 89.1861 232.202 89.2603 231.93C88.9868 231.92 88.7131 231.941 88.4443 231.992C87.5109 232.178 86.3796 232.845 85.5451 232.085C85.1369 231.619 84.7784 231.111 84.4756 230.57C84.0939 230.028 83.5443 229.626 82.9116 229.427C82.4488 229.3 81.9647 229.27 81.4898 229.34C81.3353 229.637 81.1931 229.921 81.0509 230.212C81.4062 230.13 81.7745 230.12 82.1335 230.184C82.4925 230.248 82.835 230.383 83.1404 230.583C83.6462 231.049 84.0649 231.602 84.3767 232.215C85.3534 233.575 86.5712 233.321 87.9621 232.888ZM79.4375 234.743C79.7651 234.893 80.0546 235.115 80.2844 235.392C80.6738 235.88 80.9026 236.486 81.2302 236.999C81.5092 237.489 81.965 237.853 82.5041 238.018C83.0431 238.182 83.6247 238.134 84.1294 237.883C84.5634 237.652 85.0681 237.59 85.5451 237.71C85.8712 237.816 86.1706 237.991 86.4229 238.223C86.5712 238.032 86.7134 237.84 86.8556 237.605C86.5327 237.285 86.1418 237.042 85.712 236.894C85.1125 236.736 84.4775 236.782 83.9069 237.024C83.6157 237.151 83.2879 237.166 82.9865 237.065C82.6852 236.965 82.4317 236.756 82.2749 236.48C81.904 235.955 81.6938 235.33 81.292 234.817C80.9345 234.35 80.4555 233.991 79.9073 233.779C79.8388 233.753 79.7685 233.733 79.6971 233.717C79.5859 234.063 79.4993 234.397 79.4375 234.718V234.743Z" fill="white"/>
<path opacity="0.15" d="M81.5201 229.334C81.8415 228.716 82.2928 227.955 82.8182 227.127C84.5924 232.61 85.1673 240.603 80.0735 241.908C80.0735 241.908 76.995 237.939 81.5201 229.334Z" fill="black"/>
<path d="M79.0157 242.755C82.4775 242.755 83.6273 238.05 83.2811 234.261C82.9349 230.472 80.5364 223.264 79.0157 223.264C77.495 223.264 75.0965 230.472 74.7503 234.261C74.4041 238.05 75.5539 242.755 79.0157 242.755Z" fill="#959CE8"/>
<path opacity="0.3" d="M79.0157 242.755C82.4775 242.755 83.6273 238.05 83.2811 234.261C82.9349 230.472 80.5364 223.264 79.0157 223.264C77.495 223.264 75.0965 230.472 74.7503 234.261C74.4041 238.05 75.5539 242.755 79.0157 242.755Z" fill="white"/>
<path opacity="0.2" d="M78.9962 228.19C79.5054 228.015 79.9523 227.695 80.282 227.269C80.5829 226.993 80.9522 226.803 81.3515 226.719C81.2649 226.496 81.1722 226.274 81.0795 226.063C80.5227 226.228 80.0194 226.538 79.6206 226.96C79.4255 227.195 79.1778 227.382 78.8973 227.504C78.4831 227.652 78.2235 227.423 77.9515 227.151C77.6492 226.816 77.2529 226.579 76.8141 226.471H76.777C76.709 226.651 76.6348 226.83 76.5668 227.022C77.0313 227.109 77.4545 227.346 77.7722 227.695C77.9125 227.881 78.1004 228.025 78.3159 228.112C78.5314 228.199 78.7665 228.226 78.9962 228.19ZM76.437 232.344C77.593 233.247 78.545 231.967 79.2806 231.207C79.3876 231.052 79.5274 230.922 79.69 230.827C79.8526 230.732 80.034 230.674 80.2215 230.657C80.4091 230.64 80.598 230.664 80.7751 230.728C80.9522 230.792 81.1131 230.894 81.2464 231.027C81.6256 231.42 82.0714 231.742 82.5631 231.979C82.6911 232.026 82.8237 232.059 82.9587 232.078C82.9154 231.862 82.866 231.646 82.8165 231.423C82.2867 231.217 81.8079 230.899 81.4133 230.49C80.3871 229.643 79.4599 229.995 78.6439 230.935C78.174 231.473 77.4075 232.4 76.6348 231.819C76.1835 231.479 75.9672 230.904 75.4912 230.582C75.4417 230.768 75.3923 230.959 75.349 231.145C75.757 231.429 75.9857 232.01 76.437 232.344ZM77.729 236.492C78.3842 237.358 79.2002 237.568 80.0842 236.826C80.4594 236.408 80.8556 236.01 81.2711 235.633C81.9264 235.188 82.6805 235.416 83.3605 235.682C83.3605 235.478 83.3605 235.274 83.3605 235.064C83.0519 234.932 82.731 234.83 82.4024 234.761C82.1464 234.71 81.8827 234.71 81.6268 234.762C81.3709 234.814 81.128 234.917 80.9126 235.064C80.4242 235.416 80.1213 235.954 79.6762 236.3C79.5458 236.428 79.3873 236.524 79.2135 236.58C79.0396 236.635 78.8552 236.65 78.6748 236.622C78.2791 236.474 78.0566 236.004 77.7537 235.688C77.3866 235.316 76.9249 235.051 76.4184 234.922C75.8635 234.784 75.2781 234.843 74.7617 235.089C74.7617 235.287 74.7617 235.484 74.7617 235.676C75.2741 235.464 75.8427 235.431 76.3763 235.581C76.9099 235.731 77.3776 236.057 77.7042 236.504L77.729 236.492ZM81.0115 240.016C80.4596 240.455 79.7604 240.665 79.058 240.603C78.6899 240.578 78.342 240.425 78.0751 240.17C77.8835 239.972 77.7475 239.731 77.5497 239.552C77.1973 239.203 76.7424 238.975 76.2515 238.903C75.8864 238.856 75.5154 238.887 75.1635 238.996C75.2254 239.206 75.2933 239.416 75.3613 239.614C75.6453 239.504 75.9524 239.469 76.2539 239.51C76.5554 239.551 76.8417 239.667 77.0861 239.849C77.5002 240.158 77.7042 240.665 78.1431 240.949C78.5493 241.193 79.0171 241.316 79.4908 241.301C79.9908 241.3 80.4829 241.177 80.9249 240.943C81.4195 240.683 81.7718 240.232 82.2602 239.954C82.3861 239.882 82.5185 239.822 82.6558 239.775C82.7547 239.521 82.8351 239.262 82.9154 238.99C82.7513 239.007 82.5896 239.042 82.4333 239.095C81.8987 239.31 81.4084 239.623 80.9867 240.016H81.0115Z" fill="white"/>
<path d="M278.804 101.742C282.136 102.125 283.582 102.911 285.876 107.368C288.169 111.825 291.637 128.151 292.638 131.544C293.64 134.938 293.93 136.174 293.257 139.877C292.564 143.735 289.937 150.529 288.793 154.268C288.268 155.993 287.885 157.681 287.471 159.455C287.056 161.229 286.148 162.979 285.474 164.753C285.126 165.587 284.563 166.315 283.842 166.861C283.384 167.219 282.797 167.225 282.364 167.559C281.932 167.893 281.802 168.493 281.215 168.752C280.627 169.012 279.836 168.808 279.261 169.105C278.69 169.494 278.094 169.843 277.475 170.149C276.919 170.285 276.404 170.552 275.973 170.928C275.589 171.312 275.194 172.165 274.538 172.09C273.883 172.016 273.716 171.262 273.71 170.638C273.796 169.435 274.264 168.292 275.045 167.374C275.849 166.416 276.418 165.278 277.326 164.419C278.122 163.545 278.712 162.504 279.051 161.371C279.323 160.617 279.298 159.64 278.291 160.036C277.104 160.506 275.818 161.551 274.446 161.272C273.494 161.056 273.475 160.296 274.069 159.69C275.042 158.69 275.941 157.62 276.758 156.488C277.592 155.338 278.297 154.108 279.162 152.983C279.629 152.397 280.133 151.841 280.671 151.32C282.154 149.855 282.198 147.753 282.451 145.818C282.81 143.11 283.069 140.397 283.354 137.677C283.483 137.187 283.531 136.68 283.496 136.174L277.765 120.25L278.804 101.742Z" fill="#FFA8A7"/>
<path d="M278.582 101.433C280.882 101.315 284.244 102.471 285.821 105.21C287.397 107.948 290.408 120.262 291.465 124.478C292.522 128.694 293.461 132.41 293.461 132.41C293.461 132.41 289.882 135.371 282.65 134.882L277.086 120.287L278.582 101.433Z" fill="#959CE8"/>
<path opacity="0.2" d="M278.582 101.433C280.882 101.315 284.244 102.471 285.821 105.21C287.397 107.948 290.408 120.262 291.465 124.478C292.522 128.694 293.461 132.41 293.461 132.41C293.461 132.41 289.882 135.371 282.65 134.882L277.086 120.287L278.582 101.433Z" fill="white"/>
<path d="M282.48 134.505C282.987 134.709 290.325 134.345 293.156 131.291L292.884 130.215C292.884 130.215 293.923 130.098 294.176 131.55C294.279 132.419 294.447 133.278 294.677 134.122C294.98 135.167 295.252 136.317 294.374 137.337C293.496 138.357 290.863 138.931 287.698 138.734C284.533 138.536 283.228 137.343 282.752 136.935C282.621 136.81 282.525 136.653 282.473 136.479C282.421 136.306 282.415 136.122 282.456 135.946C282.456 135.946 281.757 134.889 282.48 134.505Z" fill="#959CE8"/>
<g opacity="0.2">
<path d="M294.493 133.368C294.456 133.213 294.432 133.071 294.407 132.923C294.302 133.022 294.209 133.127 294.104 133.22C291.971 135.055 289.203 135.981 286.395 135.797C286.395 135.797 286.358 135.853 286.395 135.859C288.339 136.243 290.355 135.948 292.107 135.025C292.87 134.643 293.583 134.167 294.228 133.609L294.493 133.368Z" fill="black"/>
<path d="M291.057 137.312C291.143 137.312 291.156 137.096 291.057 137.108C289.354 137.309 287.63 137.234 285.951 136.885C285.194 136.744 284.452 136.538 283.731 136.267C283.391 136.132 283.059 135.977 282.736 135.804C282.569 135.711 282.415 135.6 282.254 135.488C282.313 135.647 282.39 135.798 282.483 135.94C282.48 135.977 282.48 136.014 282.483 136.051C282.827 136.245 283.184 136.414 283.552 136.558C284.349 136.886 285.178 137.133 286.025 137.293C287.687 137.601 289.392 137.607 291.057 137.312Z" fill="black"/>
</g>
<path d="M263.298 229.605C263.298 231.145 263.242 232.529 263.984 234.155C265.047 236.486 266.945 237.425 268.082 238.285C269.366 239.275 270.512 240.433 271.489 241.728C272.466 243.151 273.671 244.404 275.055 245.437C276.131 246.216 278.678 246.741 281.015 246.222C282.906 245.795 283.753 244.986 283.487 242.816C283.222 240.646 274.79 239.626 274.79 239.626L263.298 229.605Z" fill="#263238"/>
<path d="M282.449 235.973C283.03 236.14 282.901 237.339 283.024 238.637C283.129 239.731 283.772 241.326 283.309 243.774C282.931 244.504 282.072 244.974 280.694 245.202C278.746 245.536 275.717 244.695 274.376 243.286C272.695 241.524 271.526 239.948 269.171 237.834C267.125 235.979 265.122 235.497 263.929 231.565C263.168 229.037 263.49 227.937 265.165 227.04C267.452 225.804 270.525 226.317 273.412 229.148C274.598 230.323 281.868 235.812 282.449 235.973Z" fill="#37474F"/>
<path d="M265.291 234.433C265.291 234.433 265.94 229.438 272.326 228.202L272.635 228.449C271.591 227.242 270.125 226.479 268.537 226.316C266.021 226.15 264.599 226.737 263.591 228.288C262.584 229.84 264.098 233.599 265.291 234.433Z" fill="#FAFAFA"/>
<path d="M273.406 229.148C273.301 229.148 273.189 229.098 273.078 229.067C272.002 229.224 270.985 229.662 270.132 230.337C269.279 231.012 268.619 231.901 268.219 232.912C267.966 233.642 268.992 234.099 269.53 233.5C270.624 230.736 273.301 229.908 274.382 229.679C274.095 229.439 273.763 229.258 273.406 229.148Z" fill="#F0F0F0"/>
<path d="M275.05 230.224C274.039 230.427 273.095 230.882 272.307 231.548C271.519 232.214 270.912 233.068 270.543 234.032C270.29 234.761 271.316 235.218 271.848 234.65C272.21 233.792 272.758 233.026 273.452 232.405C274.145 231.784 274.968 231.324 275.86 231.058C275.594 230.724 275.316 230.459 275.05 230.224Z" fill="#F0F0F0"/>
<path d="M282.667 228.765L282.395 237.061C282.067 238.247 275.879 239.07 274.358 236.245C274.222 236.003 273.48 231.917 273.48 231.917L282.667 228.765Z" fill="#FFA8A7"/>
<path d="M230.708 252.645C230.448 253.503 230.427 254.415 230.646 255.284C230.899 255.81 232.5 257.559 235.715 258.196C238.929 258.832 243.387 258.196 245.291 258.078C247.194 257.961 253.209 258.696 255.113 258.95C258.111 259.358 260.417 258.703 261.536 257.615C261.72 257.399 261.855 257.147 261.933 256.875C262.011 256.604 262.029 256.318 261.987 256.038C261.98 255.314 261.874 254.595 261.672 253.899L230.708 252.645Z" fill="#263238"/>
<path d="M261.173 250.759C261.234 251.012 261.284 251.259 261.333 251.513C261.626 252.787 261.72 254.099 261.611 255.401C261.228 256.353 260.165 256.872 259.306 257.144C257.056 257.862 255.331 257.763 252.833 257.274C250.316 256.909 247.773 256.752 245.23 256.804C243.264 256.94 240.55 257.318 238.584 257.138C236.912 257.066 235.261 256.728 233.695 256.137C232.378 255.574 231.037 254.857 230.715 253.503C230.326 250.654 231.525 249.399 232.879 248.607C234.233 247.816 236.143 247.872 238.189 247.736C240.043 247.612 241.403 247.606 243.054 247.482C244.483 247.407 245.903 247.2 247.295 246.864C248.531 246.475 248.531 245.041 249.038 245.01C249.384 245.01 258.607 244.744 259.398 244.812C260.307 244.886 260.585 247.711 260.697 248.329C260.789 248.805 260.802 249.325 260.931 249.788C261.018 250.126 261.098 250.45 261.173 250.759Z" fill="#37474F"/>
<path d="M235.716 256.755C235.456 254.703 235.098 250.258 238.894 247.693H239.37C237.663 247.199 235.852 247.199 234.146 247.693C231.123 248.496 229.788 250.938 230.536 253.516C230.536 253.491 231.21 255.995 235.716 256.755Z" fill="#FAFAFA"/>
<path d="M246.739 247.043C245.503 248.125 245.095 250.585 245.095 250.585C244.934 251.506 243.24 251.642 243.42 250.759C243.677 249.53 244.17 248.362 244.872 247.321C245.445 247.019 246.103 246.921 246.739 247.043Z" fill="#F0F0F0"/>
<path d="M243.343 247.465C242.421 248.367 241.819 249.546 241.63 250.822C241.457 251.706 240.066 251.693 240.165 250.822C240.165 250.822 240.326 248.639 241.63 247.619C241.882 247.457 242.169 247.359 242.467 247.332C242.766 247.305 243.066 247.35 243.343 247.465Z" fill="#F0F0F0"/>
<path d="M260.555 225.13C260.555 225.13 259.535 244.139 259.572 245.338C259.609 246.537 258.224 248.361 254.552 248.299C251.968 248.262 250.417 247.767 249.088 246.216L248.383 230.477L260.555 225.13Z" fill="#FFA8A7"/>
<path d="M283.649 202.808C283.692 199.005 283.169 195.218 282.098 191.569C282.098 191.569 282.716 176.857 282.981 165.575C285.677 155.245 284.836 148.217 280.725 141.027C280.725 141.027 249.359 147.5 247.344 147.926C247.105 148.045 246.88 148.193 246.676 148.365C244.581 164.147 245.495 192.682 246.058 198.264C246.62 203.846 246.188 206.783 246.923 219.801C247.43 228.82 248.735 242.105 248.735 242.105C252.845 244.219 259.899 242.383 259.899 242.383C259.899 242.383 263.67 213.329 263.274 206.844C262.798 198.956 262.31 196.954 262.31 196.954C262.31 196.954 264.782 181.722 265.228 177.599C265.228 177.599 266.402 189.863 267.818 201.429C268.924 210.498 273.746 233.877 273.746 233.877C275.139 234.472 276.642 234.764 278.156 234.736C279.67 234.707 281.161 234.357 282.53 233.71C282.53 233.71 283.649 209.212 283.649 202.808Z" fill="#455A64"/>
<path opacity="0.18" d="M265.203 177.598L266.897 163.325C270.583 161.993 273.862 159.732 276.417 156.76C276.417 156.76 275.935 162.286 268.721 165.235L266.866 176.937L266.674 191.6L265.203 177.598Z" fill="black"/>
<path d="M254.401 81.2871C253.535 81.6766 250.988 85.8925 250.988 86.3809C250.988 87.0423 253.56 88.0376 253.56 88.0376C253.96 85.804 254.241 83.5506 254.401 81.2871Z" fill="#F28F8F"/>
<path d="M257.705 74.2464C255.758 74.9511 254.423 75.6806 253.947 79.7172C253.823 80.7929 254.392 82.3074 253.885 83.6921C251.69 89.6266 253.885 94.9614 254.961 96.1916C255.69 97.0199 259.838 97.7494 262.088 97.3414C264.901 96.8345 271.113 94.708 274.359 90.6836C278.173 85.9546 279.595 79.2474 276.127 76.1751C271.249 71.8479 259.776 73.4922 257.705 74.2464Z" fill="#FFA8A7"/>
<path d="M271.602 92.8594L272.69 100.407C274.377 100.772 274.544 102.763 273.697 104.271L274.087 106.397L262.576 108.505L261.148 97.4153L271.602 92.8594Z" fill="#FFA8A7"/>
<path d="M255.172 96.3641C256.093 96.9823 258.201 97.6004 261.15 97.4397L260.921 96.0488C260.023 96.2469 259.115 96.3934 258.201 96.4877C257.191 96.5918 256.17 96.5502 255.172 96.3641Z" fill="#F28F8F"/>
<path d="M253.857 71.4516C252.175 73.7017 252.002 76.9719 254.531 78.2948C253.863 81.1198 255.736 83.4874 257.968 83.0547C258.11 84.4209 258.518 85.5707 259.822 86.1456C260.607 86.4918 260.873 86.1456 261.225 85.5274C261.72 84.662 262.363 83.3205 264.316 83.7718C266.523 84.2849 266.789 87.7034 265.287 89.7804C264.993 90.2227 264.595 90.5867 264.129 90.8409C263.662 91.0951 263.141 91.2318 262.61 91.2393C262.321 91.2069 262.042 91.1135 261.792 90.9654C261.541 90.8173 261.325 90.6178 261.157 90.3801C261.175 91.5914 261.505 92.7776 262.116 93.8238C262.727 94.87 263.598 95.7407 264.644 96.3516C267.112 96.5128 269.591 96.3549 272.019 95.8818C274.046 94.0273 275.375 92.964 277.032 91.1961C281.977 85.8859 281.693 78.7275 278.701 77.0955C279.548 72.3047 274.627 68.5214 269.497 67.5138C262.227 66.0735 256.799 67.4953 253.857 71.4516Z" fill="#37474F"/>
<path d="M272.592 79.0249C272.519 80.2112 272.833 81.3893 273.486 82.3823C274.139 83.3754 275.097 84.1299 276.215 84.5328C274.731 86.3255 275.399 89.9542 276.988 91.1782C281.933 85.8681 281.649 78.7096 278.657 77.0776C278.822 76.1875 278.792 75.2724 278.57 74.3947C277.88 74.2213 277.167 74.1546 276.456 74.1969C273.328 74.3515 272.716 76.9107 272.592 79.0249Z" fill="#263238"/>
<path d="M248.242 134.784C248.633 132.139 248.697 129.457 248.434 126.797C245.213 123.626 244.533 119.286 246.345 115.021C248.626 109.624 250.814 104.734 253.114 103.702C256.823 102.633 261.7 101.705 261.7 101.705C263.631 102.302 265.669 102.468 267.672 102.194C273.068 101.52 272.728 100.988 272.691 100.407C272.691 100.407 276.4 101.025 278.255 101.365C279.429 101.576 282.075 102.633 283.077 107.51C285.246 118.062 281.407 123.28 281.086 129.455C280.907 131.31 282.941 143.84 283.627 147.302C284.134 150.609 280.592 152.971 273.643 154.572C266.695 156.173 259.536 155.19 252.786 149.379C247.513 154.652 246.122 151.957 246.122 151.957C246.122 151.957 247.841 138.005 248.242 134.784Z" fill="#959CE8"/>
<path d="M279.322 79.7492C281.129 77.7007 281.171 74.7862 279.417 73.2393C277.663 71.6924 274.777 72.099 272.97 74.1474C271.164 76.1959 271.121 79.1104 272.875 80.6573C274.629 82.2042 277.515 81.7976 279.322 79.7492Z" fill="#959CE8"/>
<path d="M273.018 77.9735C272.958 79.3174 273.358 80.6416 274.151 81.7281C274.944 82.8146 276.084 83.5987 277.382 83.9512C275.639 86.0592 276.047 89.9104 278.841 92.0988C277.135 93.8049 277.048 97.4583 279.651 99.8939C277.753 101.959 279.119 105.73 280.813 107.052C279.249 108.505 280.312 110.347 280.72 111.454C280.865 111.8 280.904 112.183 280.832 112.551C280.759 112.92 280.578 113.259 280.312 113.525C280.312 113.525 281.814 113.716 283.032 111.942C283.91 110.656 284.744 108.789 283.18 107.145C284.868 105.012 285.443 102.119 283.638 99.8569C287.069 96.1478 285.783 91.8206 284.046 91.4559C286.277 88.9399 286.426 84.1305 283.638 82.4614C286.624 76.4281 283.02 71.8659 277.685 72.9972C274.631 73.6525 273.16 75.8593 273.018 77.9735Z" fill="#37474F"/>
<path d="M257.719 102.546C261.133 104.417 265.096 105.025 268.914 104.265C275.714 103.029 275.065 100.704 275.065 100.704C274.376 99.9938 273.766 99.2102 273.247 98.3675C272.629 97.2486 272.209 97.0693 272.209 97.0693L272.301 97.8359C272.301 97.8359 271.51 99.1402 267.671 99.5358C265.583 99.7904 263.469 99.7362 261.397 99.3751C260.717 99.3751 259.876 101.298 257.719 102.546Z" fill="#959CE8"/>
<path opacity="0.2" d="M257.719 102.546C261.133 104.417 265.096 105.025 268.914 104.265C275.714 103.029 275.065 100.704 275.065 100.704C274.376 99.9938 273.766 99.2102 273.247 98.3675C272.629 97.2486 272.209 97.0693 272.209 97.0693L272.301 97.8359C272.301 97.8359 271.51 99.1402 267.671 99.5358C265.583 99.7904 263.469 99.7362 261.397 99.3751C260.717 99.3751 259.876 101.298 257.719 102.546Z" fill="white"/>
<path d="M240.256 109.996C240.59 108.061 241.177 106.602 241.733 106.546C242.784 106.441 244.651 105.607 245.665 102.602C245.999 102.046 246.416 101.543 246.901 101.113C248.354 99.5733 248.805 99.0478 248.607 98.442C248.329 97.6781 247.933 96.9626 247.433 96.3217C247.227 96.0774 246.935 95.9224 246.617 95.889C247.034 95.448 247.48 95.035 247.952 94.6526C248.434 94.2199 248.768 93.9046 249.071 93.6512C249.689 93.1504 250.721 92.9032 251.383 92.2355C252.421 91.1908 251.661 90.2759 251.099 90.4552C250.104 90.6958 249.126 90.9972 248.168 91.3577C246.141 92.5384 244.367 93.5213 243.402 94.0344C242.265 94.6526 240.769 95.3141 240.157 95.6788C239.798 95.889 235.595 100.97 235.329 101.657C235.063 102.343 229.765 114.675 228.956 117.111C227.651 121.154 227.033 127.781 228.381 129.134L238.271 122.501C238.271 122.501 239.934 111.807 240.256 109.996Z" fill="#FFA8A7"/>
<path d="M248.549 100.704C248.778 101.131 248.5 101.724 248.055 102.169C247.569 102.653 246.973 103.012 246.318 103.214C246.123 103.221 245.93 103.175 245.761 103.078C245.592 102.982 245.453 102.841 245.359 102.67L248.549 100.704Z" fill="#F28F8F"/>
<path d="M248.605 98.4424C249.409 99.5736 249.303 100.186 247.987 101.49C246.67 102.794 245.996 103.239 245.02 102.442C245.679 102.059 246.3 101.614 246.874 101.113C247.381 100.581 248.531 99.4933 248.574 99.0976C248.613 98.8816 248.624 98.6612 248.605 98.4424Z" fill="#FFA8A7"/>
<path d="M240.026 105.21C240.891 105.035 241.666 104.56 242.214 103.869C242.504 103.547 242.75 103.187 242.944 102.8C243.125 102.388 243.349 101.996 243.611 101.631C243.884 101.252 244.211 100.915 244.582 100.63C244.762 100.48 244.956 100.35 245.163 100.24C245.355 100.145 245.541 100.038 245.719 99.9188C246.082 99.683 246.425 99.4184 246.745 99.1276C247.061 98.8687 247.312 98.5409 247.481 98.1694C247.517 98.0996 247.536 98.0222 247.536 97.9438C247.536 97.8653 247.517 97.788 247.481 97.7181C247.39 97.5629 247.251 97.4413 247.085 97.372C246.704 97.2478 246.293 97.2478 245.911 97.372C245.081 97.6308 244.29 98.0032 243.562 98.4785C241.963 99.2737 240.248 99.8099 238.48 100.067C239.338 99.854 240.183 99.5898 241.009 99.2759C241.837 98.9843 242.637 98.6202 243.401 98.188C244.138 97.6657 244.951 97.2611 245.812 96.9887C246.278 96.8371 246.78 96.8371 247.246 96.9887C247.503 97.0845 247.72 97.2628 247.864 97.4956C247.941 97.6171 247.987 97.7549 248 97.8978C248.013 98.0407 247.992 98.1846 247.939 98.3178C247.741 98.7549 247.445 99.14 247.073 99.4428C246.73 99.7411 246.364 100.012 245.979 100.253C245.78 100.379 245.574 100.493 245.361 100.593C245.176 100.688 245 100.799 244.835 100.926C244.501 101.195 244.199 101.499 243.933 101.835C243.664 102.177 243.432 102.546 243.24 102.936C243.019 103.331 242.744 103.695 242.424 104.017C241.801 104.7 240.946 105.125 240.026 105.21Z" fill="#F28F8F"/>
<path d="M240.328 97.3105C240.643 97.4654 240.927 97.6747 241.169 97.9287C241.293 98.0555 241.405 98.1943 241.503 98.3429C241.606 98.4982 241.693 98.664 241.762 98.8374L241.36 98.9363C241.336 98.7839 241.294 98.6346 241.237 98.4913C241.175 98.3397 241.099 98.1947 241.008 98.0585C240.828 97.7705 240.598 97.5172 240.328 97.3105Z" fill="#F28F8F"/>
<path d="M243.68 101.817C243.87 101.979 244.092 102.101 244.331 102.176C244.57 102.25 244.822 102.275 245.071 102.25C245.553 102.117 245.984 101.841 246.307 101.459C246.672 101.1 247.036 100.735 247.383 100.358C247.733 100.001 248.051 99.6144 248.335 99.2023C248.39 99.1299 248.419 99.0401 248.415 98.9488C248.417 98.8364 248.405 98.7242 248.378 98.615C248.323 98.3752 248.25 98.1397 248.161 97.9103C247.974 97.4466 247.735 97.005 247.451 96.5936C247.342 96.3883 247.174 96.2203 246.968 96.1114C246.75 96.0375 246.513 96.0375 246.295 96.1114C245.813 96.2816 245.368 96.5417 244.984 96.878C245.323 96.4721 245.744 96.1433 246.22 95.9136C246.482 95.7946 246.777 95.7705 247.055 95.8456C247.321 95.9567 247.549 96.1437 247.71 96.3834C248.045 96.7995 248.321 97.2591 248.532 97.7496C248.641 97.9971 248.728 98.2536 248.792 98.5161C248.821 98.6586 248.838 98.8034 248.841 98.9488C248.844 99.1164 248.794 99.2805 248.699 99.4187C248.4 99.8643 248.056 100.279 247.673 100.655C247.302 101.026 246.925 101.384 246.523 101.718C246.137 102.105 245.644 102.367 245.108 102.472C244.836 102.474 244.568 102.417 244.321 102.303C244.074 102.19 243.855 102.024 243.68 101.817Z" fill="#F28F8F"/>
<path d="M243.129 98.337C243.228 97.9774 243.382 97.6354 243.586 97.3231C243.775 97.0141 244.01 96.7366 244.285 96.501C244.072 96.7783 243.903 97.0869 243.784 97.4159C243.658 97.7296 243.583 98.0614 243.562 98.3988L243.129 98.337Z" fill="#F28F8F"/>
<path d="M253.447 104.036C251.104 104.926 249.929 105.013 245.627 108.982C241.324 112.95 232.342 119.249 230.611 122.229C228.701 125.512 227.471 127.385 228.38 129.171C229.455 131.279 233.77 130.859 238.27 128.707C241.732 127.045 252.402 119.404 254.534 117.488C256.667 115.571 259.554 104.036 253.447 104.036Z" fill="#FFA8A7"/>
<path d="M236.385 116.184C235.062 115.664 232.453 117.575 230.871 119.12C229.061 120.917 227.708 123.121 226.927 125.549C226.383 127.502 227.625 129.406 227.625 129.406C227.955 130.128 228.538 130.705 229.264 131.026C229.647 131.276 230.086 131.429 230.542 131.47C230.998 131.511 231.457 131.439 231.878 131.261C232.494 131.54 233.187 131.598 233.84 131.423C234.492 131.248 235.064 130.852 235.458 130.303L236.385 116.184Z" fill="#959CE8"/>
<path opacity="0.2" d="M232.657 131.478L232.534 131.373C232.337 131.181 232.155 130.974 231.99 130.754C231.663 130.295 231.399 129.794 231.205 129.265C230.749 127.832 230.522 126.336 230.531 124.832C230.531 124.777 230.475 124.832 230.469 124.832C230.25 126.332 230.372 127.862 230.828 129.308C231.032 129.904 231.317 130.47 231.674 130.989C231.749 131.094 231.841 131.187 231.922 131.292C232.158 131.384 232.405 131.446 232.657 131.478Z" fill="black"/>
<path opacity="0.2" d="M230.166 121.654C230.166 121.654 230.166 121.549 230.135 121.586C228.957 122.913 228.11 124.499 227.662 126.216C227.444 127.014 227.293 127.829 227.211 128.652C227.32 128.913 227.45 129.166 227.6 129.406C227.601 129.422 227.601 129.439 227.6 129.455C227.657 128.302 227.848 127.159 228.169 126.049C228.658 124.51 229.328 123.034 230.166 121.654Z" fill="black"/>
<path d="M253.706 103.536C251.462 103.703 248.513 104.494 247.073 106.726C245.633 108.958 234.326 117.816 234.326 117.816C232.535 119.989 231.572 122.727 231.606 125.543C231.718 130.161 234.642 130.532 234.642 130.532C234.642 130.532 237.51 129.914 241.998 127.064C246.486 124.214 255.171 117.927 255.171 117.927C256.778 115.404 257.657 112.486 257.712 109.495C257.768 104.606 253.706 103.536 253.706 103.536Z" fill="#959CE8"/>
<path opacity="0.2" d="M253.706 103.536C251.462 103.703 248.513 104.494 247.073 106.726C245.633 108.958 234.326 117.816 234.326 117.816C232.535 119.989 231.572 122.727 231.606 125.543C231.718 130.161 234.642 130.532 234.642 130.532C234.642 130.532 237.51 129.914 241.998 127.064C246.486 124.214 255.171 117.927 255.171 117.927C256.778 115.404 257.657 112.486 257.712 109.495C257.768 104.606 253.706 103.536 253.706 103.536Z" fill="white"/>
<path d="M276.103 52.6535C275.534 57.3022 273.308 59.9479 270.477 61.3079L267.77 59.7378C268.452 58.8466 268.909 57.8028 269.099 56.6963C269.301 55.6528 269.324 54.5825 269.167 53.5313L273.395 51.0586C273.191 52.5608 276.103 52.6535 276.103 52.6535Z" fill="#959CE8"/>
<path opacity="0.2" d="M276.103 52.6535C275.534 57.3022 273.308 59.9479 270.477 61.3079L267.77 59.7378C268.452 58.8466 268.909 57.8028 269.099 56.6963C269.301 55.6528 269.324 54.5825 269.167 53.5313L273.395 51.0586C273.191 52.5608 276.103 52.6535 276.103 52.6535Z" fill="black"/>
<path d="M282.517 23.7045V47.4424C282.494 47.8837 282.366 48.3131 282.145 48.6956C281.923 49.0781 281.615 49.4028 281.244 49.6431L276.107 52.6536C275.538 57.3023 273.313 59.9481 270.481 61.3081C272.039 59.3608 272.113 56.5172 271.878 55.1263L269.103 56.7212L265.394 58.8415C265 59.0428 264.565 59.1478 264.123 59.1478C263.682 59.1478 263.246 59.0428 262.853 58.8415L261.814 58.2234C261.451 57.9766 261.151 57.6487 260.936 57.2657C260.722 56.8827 260.599 56.455 260.578 56.0165V32.2786C260.602 31.8382 260.73 31.4097 260.95 31.0275C261.17 30.6452 261.477 30.32 261.845 30.0779L277.702 20.9104C278.096 20.7124 278.531 20.6094 278.972 20.6094C279.413 20.6094 279.848 20.7124 280.242 20.9104L281.275 21.5285C281.636 21.7702 281.937 22.0925 282.152 22.4702C282.368 22.8478 282.493 23.2704 282.517 23.7045Z" fill="#959CE8"/>
<path opacity="0.2" d="M260.539 55.9977C260.563 56.4389 260.691 56.8681 260.912 57.2505C261.134 57.6329 261.442 57.9577 261.813 58.1984L262.845 58.8166C263.203 58.997 263.595 59.0996 263.996 59.1177C264.396 59.1358 264.796 59.069 265.169 58.9217C264.551 59.1442 264.112 58.8104 264.112 58.0871V34.3616C264.129 33.9239 264.259 33.498 264.489 33.1252L260.91 31.0605C260.684 31.4349 260.557 31.8601 260.539 32.2969V55.9977Z" fill="black"/>
<path opacity="0.3" d="M282.474 23.3457C282.325 22.8017 281.856 22.6348 281.237 22.9686L265.387 32.1485C265.005 32.3864 264.695 32.7241 264.491 33.1252L260.918 31.0605C261.13 30.6729 261.439 30.3469 261.814 30.1147L277.67 20.941C278.064 20.7397 278.499 20.6348 278.941 20.6348C279.383 20.6348 279.818 20.7397 280.211 20.941L281.25 21.5592C281.562 21.7611 281.831 22.0229 282.041 22.3296C282.251 22.6363 282.398 22.9817 282.474 23.3457Z" fill="white"/>
<path d="M272.889 31.1104C273.466 30.7537 274.114 30.526 274.787 30.4427C275.32 30.3756 275.862 30.4795 276.332 30.7395C276.797 31.034 277.158 31.4662 277.365 31.9758C277.635 32.6295 277.764 33.3333 277.742 34.0405C277.744 34.6651 277.671 35.2877 277.525 35.895C277.384 36.4637 277.202 37.0215 276.981 37.5641C276.753 38.0957 276.512 38.6026 276.252 39.0724C275.992 39.5423 275.733 40.0183 275.485 40.4695C275.238 40.9208 275.022 41.3844 274.824 41.8357C274.634 42.2687 274.497 42.7233 274.416 43.1895C274.384 43.4012 274.328 43.6086 274.249 43.8077C274.191 43.9725 274.08 44.1137 273.934 44.2095L271.739 45.4458C271.692 45.4867 271.632 45.5092 271.569 45.5092C271.507 45.5092 271.447 45.4867 271.399 45.4458C271.296 45.3218 271.244 45.162 271.257 45.0007C271.256 44.4031 271.337 43.8082 271.498 43.2328C271.665 42.6647 271.872 42.109 272.116 41.5699C272.352 41.0439 272.614 40.5301 272.902 40.0306C273.18 39.5299 273.445 39.0663 273.68 38.6212C273.912 38.2096 274.118 37.7843 274.299 37.3477C274.451 36.9789 274.533 36.5846 274.54 36.1856C274.54 35.6478 274.404 35.3078 274.144 35.1532C273.884 34.9987 273.47 35.0852 272.908 35.4005C272.443 35.6487 272.046 36.0074 271.752 36.4452C271.535 36.7934 271.363 37.1672 271.239 37.5579C271.134 37.9165 271.041 38.2379 270.96 38.5346C270.929 38.6629 270.872 38.7836 270.794 38.8897C270.715 38.9958 270.616 39.0853 270.503 39.1528L268.308 40.3892C268.269 40.4197 268.22 40.4363 268.169 40.4363C268.119 40.4363 268.07 40.4197 268.03 40.3892C267.986 40.3375 267.953 40.2775 267.933 40.2127C267.913 40.1479 267.906 40.0796 267.913 40.0121C267.943 39.2541 268.066 38.5027 268.278 37.7743C268.513 36.8995 268.841 36.0521 269.254 35.2459C269.681 34.397 270.201 33.5987 270.806 32.866C271.391 32.1617 272.096 31.5672 272.889 31.1104ZM274.453 49.0992C274.452 49.3133 274.403 49.5244 274.311 49.7174C274.244 49.8911 274.122 50.0385 273.965 50.1378L271.702 51.4421C271.656 51.4842 271.595 51.5076 271.532 51.5076C271.469 51.5076 271.409 51.4842 271.362 51.4421C271.31 51.3825 271.27 51.3129 271.246 51.2374C271.221 51.1619 271.213 51.0822 271.22 51.0032V48.2091C271.222 47.9951 271.27 47.7842 271.362 47.5909C271.433 47.4229 271.551 47.2791 271.702 47.1767L273.965 45.8662C274.013 45.8248 274.074 45.8021 274.138 45.8021C274.201 45.8021 274.263 45.8248 274.311 45.8662C274.415 45.9902 274.466 46.15 274.453 46.3113V49.0992Z" fill="#FAFAFA"/>
</svg>
