<svg width="267" height="233" viewBox="0 0 267 233" fill="none" xmlns="http://www.w3.org/2000/svg">
<path d="M39.5178 212.822C91.3928 239.237 175.504 239.237 227.379 212.822C279.254 186.407 279.254 143.638 227.379 117.247C175.504 90.8553 91.3928 90.8318 39.5178 117.247C-12.3571 143.662 -12.3631 186.437 39.5178 212.822Z" fill="#F5F5F5"/>
<path d="M194.671 188.867C208.283 188.867 219.319 182.662 219.319 175.008C219.319 167.353 208.283 161.148 194.671 161.148C181.059 161.148 170.023 167.353 170.023 175.008C170.023 182.662 181.059 188.867 194.671 188.867Z" fill="#E0E0E0"/>
<path d="M44.5442 167.77C44.1765 163.696 40.3971 155.519 35.5809 150.6C30.7648 145.681 23.5977 142.382 18.8961 144.419C14.5139 146.309 15.5205 152.05 21.3434 155.39C27.1662 158.73 35.81 162.845 38.8239 169.249L44.6045 176.927L44.5442 167.77Z" fill="#A5CE3E"/>
<path opacity="0.1" d="M44.5442 167.77C44.1765 163.696 40.3971 155.519 35.5809 150.6C30.7648 145.681 23.5977 142.382 18.8961 144.419C14.5139 146.309 15.5205 152.05 21.3434 155.39C27.1662 158.73 35.81 162.845 38.8239 169.249L44.6045 176.927L44.5442 167.77Z" fill="black"/>
<path d="M45.3498 173.317C45.2825 173.319 45.2166 173.298 45.1628 173.259C45.1091 173.219 45.0709 173.163 45.0544 173.099C41.0038 159.434 28.4419 149.121 21.305 147.207C21.2654 147.196 21.2284 147.179 21.1959 147.154C21.1634 147.13 21.1362 147.099 21.1157 147.065C21.0953 147.03 21.0821 146.992 21.0768 146.952C21.0715 146.913 21.0743 146.873 21.085 146.834C21.0957 146.796 21.1141 146.759 21.1391 146.728C21.1641 146.696 21.1953 146.67 21.2308 146.65C21.2664 146.63 21.3056 146.617 21.3462 146.612C21.3869 146.607 21.4282 146.609 21.4678 146.62C28.7373 148.569 41.5342 159.053 45.6391 172.923C45.6511 172.961 45.6553 173 45.6515 173.039C45.6476 173.078 45.6358 173.116 45.6167 173.15C45.5976 173.185 45.5716 173.215 45.5403 173.24C45.5089 173.264 45.4728 173.282 45.4342 173.293L45.3498 173.317Z" fill="white"/>
<path d="M44.0176 182.398C43.1376 180.167 39.9308 176.633 34.976 173.904C29.551 170.893 22.8843 169.859 21.1121 167.294C19.0205 164.224 21.5461 160.937 26.8807 161.125C32.2152 161.313 42.1189 167.535 44.5541 177.966L44.0176 182.398Z" fill="#A5CE3E"/>
<path d="M44.8255 179.909C44.7658 179.909 44.7073 179.893 44.6569 179.862C44.6066 179.83 44.5668 179.785 44.5422 179.733C39.1172 168.198 29.3884 164.811 25.0183 164.629C24.9779 164.627 24.9382 164.618 24.9015 164.602C24.8648 164.585 24.8318 164.562 24.8043 164.533C24.7769 164.504 24.7556 164.47 24.7416 164.433C24.7276 164.396 24.7213 164.357 24.7229 164.318C24.7236 164.279 24.7326 164.24 24.7493 164.204C24.7659 164.168 24.79 164.136 24.82 164.11C24.8499 164.083 24.8851 164.063 24.9233 164.05C24.9616 164.038 25.0021 164.033 25.0424 164.036C29.8646 164.23 39.509 167.705 45.1028 179.486C45.1341 179.558 45.1359 179.639 45.1079 179.712C45.0798 179.785 45.0241 179.845 44.9521 179.879C44.9123 179.897 44.8693 179.907 44.8255 179.909Z" fill="white"/>
<path d="M208.24 162.492C208.15 159.21 209.084 153.716 212.399 148.228C215.95 142.358 220.633 138.425 224.569 139.622C228.234 140.738 227.427 145.58 221.917 150.857C218.047 154.561 214.166 159.257 212.357 164.628L209.259 171.543L208.24 162.492Z" fill="#A5CE3E"/>
<path d="M208.24 162.492C208.15 159.21 209.084 153.716 212.399 148.228C215.95 142.358 220.633 138.425 224.569 139.622C228.234 140.738 227.427 145.58 221.917 150.857C218.047 154.561 214.166 159.257 212.357 164.628L209.259 171.543L208.24 162.492Z" fill="#A5CE3E"/>
<g opacity="0.1">
<path d="M208.24 162.492C208.15 159.21 209.084 153.716 212.399 148.228C215.95 142.358 220.633 138.425 224.569 139.622C228.234 140.738 227.427 145.58 221.917 150.857C218.047 154.561 214.166 159.257 212.357 164.628L209.259 171.543L208.24 162.492Z" fill="black"/>
</g>
<path d="M208.855 164.928C208.904 164.924 208.951 164.905 208.988 164.873C209.025 164.841 209.05 164.799 209.06 164.752C211.423 155.395 217.403 145.545 222.978 141.859C223.023 141.821 223.051 141.77 223.059 141.713C223.067 141.657 223.053 141.599 223.02 141.552C222.988 141.504 222.939 141.47 222.882 141.455C222.826 141.441 222.766 141.446 222.713 141.471C217.053 145.234 210.983 155.196 208.596 164.658C208.589 164.687 208.588 164.718 208.593 164.747C208.598 164.777 208.609 164.806 208.625 164.831C208.641 164.857 208.662 164.879 208.687 164.897C208.713 164.914 208.741 164.927 208.771 164.934C208.799 164.938 208.828 164.936 208.855 164.928Z" fill="white"/>
<path d="M208.21 173.099C210.07 174.706 212.332 175.807 214.768 176.292C218.988 177.19 220.953 175.329 220.953 175.329C220.953 175.329 219.518 171.367 217.186 170.14C219.753 170.859 222.176 171.996 224.353 173.504C224.353 173.504 226.932 173.692 228.198 169.911C228.198 169.911 226.806 167.505 221.743 165.961C224.307 165.664 226.906 165.941 229.344 166.771C229.675 166.924 231.417 162.04 231.996 159.774C232.574 157.508 231.622 157.473 229.82 156.892C228.017 156.311 221.779 155.647 220.573 156.563C219.368 157.479 218.572 160.801 218.572 160.801C218.572 160.801 217.589 158.84 217.969 157.156C216.712 156.725 215.349 156.678 214.063 157.021C211.96 157.608 212.032 158.588 211.941 160.05C211.844 161.52 211.962 162.997 212.291 164.435C212.291 164.435 210.941 163.149 211.164 158.723C211.164 158.723 208.234 160.883 206.993 162.832C205.751 164.781 205.727 169.964 208.21 173.099Z" fill="#A5CE3E"/>
<path d="M208.192 173.333C208.236 173.336 208.281 173.326 208.32 173.306C208.36 173.285 208.392 173.254 208.415 173.216C212.254 166.501 225.449 159.204 230.054 158.606C230.085 158.601 230.115 158.591 230.142 158.576C230.169 158.56 230.192 158.54 230.211 158.516C230.23 158.492 230.243 158.464 230.251 158.434C230.259 158.405 230.261 158.374 230.256 158.344C230.252 158.314 230.242 158.285 230.226 158.259C230.21 158.233 230.189 158.21 230.164 158.192C230.139 158.174 230.111 158.16 230.081 158.153C230.05 158.145 230.019 158.144 229.988 158.148C225.311 158.735 211.905 166.166 207.999 172.987C207.968 173.041 207.961 173.104 207.978 173.164C207.994 173.223 208.035 173.273 208.089 173.304C208.121 173.322 208.156 173.332 208.192 173.333Z" fill="white"/>
<path d="M47.8007 186.894L46.1611 185.972C45.459 185.527 44.8748 184.926 44.4559 184.219C44.0369 183.512 43.7951 182.719 43.75 181.904V41.9106C43.7946 41.0948 44.0362 40.3007 44.4552 39.5929C44.8741 38.8851 45.4586 38.2834 46.1611 37.8369L112.467 0.562324C113.214 0.192666 114.04 0 114.878 0C115.716 0 116.542 0.192666 117.289 0.562324L118.928 1.48391C119.63 1.92991 120.214 2.53062 120.633 3.23736C121.052 3.94411 121.294 4.73701 121.339 5.55183V145.551C121.294 146.366 121.052 147.159 120.633 147.866C120.214 148.573 119.63 149.173 118.928 149.619L52.6229 186.894C51.8758 187.264 51.0497 187.456 50.2118 187.456C49.3738 187.456 48.5477 187.264 47.8007 186.894Z" fill="#37474F"/>
<path d="M53.4487 44.6752L44.4552 39.6211C44.0226 40.3235 43.78 41.1212 43.75 41.9397V181.904C43.7951 182.719 44.0369 183.512 44.4559 184.219C44.8748 184.926 45.459 185.526 46.1611 185.972L47.8007 186.894C48.5477 187.263 49.3738 187.456 50.2118 187.456C51.0497 187.456 51.8758 187.263 52.6229 186.894L53.4426 186.436L53.4487 44.6752Z" fill="#263238"/>
<path d="M50.2109 45.5444V185.556C50.2109 187.059 51.2899 187.663 52.622 186.912L118.927 149.637C119.629 149.191 120.213 148.591 120.632 147.884C121.051 147.177 121.293 146.384 121.339 145.569V5.55204C121.339 4.05519 120.26 3.45058 118.927 4.19607L52.622 41.4765C51.9193 41.9214 51.3346 42.5219 50.9155 43.2289C50.4965 43.9358 50.2551 44.7292 50.2109 45.5444Z" fill="#455A64"/>
<path d="M55.5167 54.3959L115.794 20.4966C116.934 19.8568 117.862 20.3792 117.862 21.6706V133.348C117.823 134.046 117.616 134.726 117.256 135.332C116.897 135.938 116.396 136.452 115.794 136.834L55.5167 170.728C54.3715 171.373 53.4492 170.851 53.4492 169.554V57.8827C53.4867 57.1838 53.6935 56.5035 54.0529 55.8975C54.4123 55.2914 54.9139 54.7769 55.5167 54.3959Z" fill="#FAFAFA"/>
<g opacity="0.4">
<path d="M85.9942 63.1955C92.7513 59.3976 98.2305 62.4793 98.2305 70.0751C98.2305 77.6709 92.7513 86.922 85.9942 90.7199C79.2371 94.5178 73.7578 91.4419 73.7578 83.8403C73.7578 76.2386 79.2371 66.9816 85.9942 63.1955Z" fill="#A5CE3E"/>
<path d="M110.11 103.845C110.11 91.3593 101.111 85.8121 90.0075 92.0578L83.0635 95.9614C71.9604 102.201 62.9609 117.387 62.9609 129.872V133.236L110.11 106.739V103.845Z" fill="#A5CE3E"/>
</g>
<path d="M85.7756 26.4787C86.6677 25.9739 87.391 26.3848 87.391 27.3886C87.3611 27.9344 87.1992 28.4656 86.9185 28.939C86.6378 29.4123 86.2462 29.8143 85.7756 30.1123C84.8835 30.6171 84.1602 30.2062 84.1602 29.2024C84.19 28.6566 84.352 28.1254 84.6327 27.652C84.9134 27.1787 85.305 26.7767 85.7756 26.4787Z" fill="#263238"/>
<path d="M81.1107 34.3324C84.3958 32.5714 90.2548 29.1727 93.4917 27.3177C94.0402 27.0008 94.4863 27.218 94.4863 27.7991C94.4625 28.1268 94.3594 28.4444 94.1855 28.726C94.0116 29.0076 93.7718 29.2451 93.4857 29.4192L81.0865 36.3928C80.532 36.7039 80.0859 36.4867 80.0859 35.8997C80.1139 35.5772 80.2218 35.2662 80.4002 34.9933C80.5787 34.7203 80.8225 34.4935 81.1107 34.3324Z" fill="#263238"/>
<path d="M77.9766 36.0991C78.4769 35.8173 78.8868 36.0463 78.8868 36.6098C78.8691 36.9168 78.7774 37.2154 78.6193 37.4815C78.4612 37.7477 78.241 37.9739 77.9766 38.1419C77.4763 38.4236 77.0664 38.1947 77.0664 37.6312C77.0841 37.3242 77.1757 37.0256 77.3339 36.7594C77.492 36.4933 77.7121 36.2671 77.9766 36.0991Z" fill="#263238"/>
<path d="M85.7778 157.38C87.5861 156.376 89.0147 157.192 89.0147 159.199C88.9542 160.292 88.6295 161.356 88.067 162.304C87.5045 163.251 86.7201 164.056 85.7778 164.653C83.9694 165.656 82.5469 164.84 82.5469 162.833C82.6076 161.741 82.9318 160.678 83.4931 159.73C84.0545 158.783 84.8372 157.978 85.7778 157.38Z" fill="#263238"/>
<path d="M140.754 118.133L133.485 114.024L133.406 113.983C129.79 111.999 124.835 112.286 119.344 115.38C114.208 118.262 109.518 123.07 105.986 128.64C101.905 135.05 99.3555 142.476 99.3555 149.127C99.3555 155.331 101.586 159.693 105.19 161.73L112.574 165.839C116.221 168.104 121.363 167.899 127.077 164.694C138.114 158.554 147.077 143.415 147.077 130.965C147.077 124.508 144.642 120.052 140.754 118.133Z" fill="#A5CE3E"/>
<path opacity="0.1" d="M112.416 165.804L105.183 161.777C101.566 159.74 99.3477 155.378 99.3477 149.174C99.3477 142.517 101.915 135.086 105.978 128.688L113.706 133.025C109.619 139.441 107.075 146.849 107.075 153.494C107.045 159.417 109.089 163.661 112.416 165.804Z" fill="black"/>
<path opacity="0.4" d="M140.624 118.051C137.056 116.366 132.3 116.795 127.08 119.724C121.86 122.653 117.231 127.443 113.692 133.014L105.965 128.676C109.497 123.105 114.187 118.297 119.322 115.415C124.808 112.328 129.768 112.034 133.385 114.018L133.464 114.059L140.624 118.051Z" fill="white"/>
<path d="M137.484 125.975L134.711 124.414L123.855 149.332L125.706 150.371L137.484 125.975Z" fill="white"/>
<path d="M121.727 143.767L118.954 142.212L115.977 148.346L118.749 149.902L121.727 143.767Z" fill="white"/>
<path d="M126.417 157.679L118.75 149.902L121.728 143.768L125.706 150.371L137.484 125.976L141.848 130.12L126.417 157.679Z" fill="#F5F5F5"/>
<path d="M115.977 148.346L118.749 149.901L126.417 157.679L123.65 156.135L115.977 148.346Z" fill="#E0E0E0"/>
<path d="M197.29 56.9558C200.43 56.9558 203.441 55.7412 205.661 53.5792C207.881 51.4171 209.128 48.4847 209.128 45.4271V44.7462C209.129 43.463 208.87 42.1922 208.367 41.0065C207.863 39.8207 207.124 38.7433 206.193 37.8356C205.261 36.928 204.155 36.208 202.938 35.7167C201.721 35.2255 200.416 34.9727 199.098 34.9727H195.482C192.82 34.9727 190.267 36.0024 188.385 37.8353C186.503 39.6682 185.445 42.1541 185.445 44.7462V45.4271C185.445 46.9416 185.752 48.4412 186.347 49.8403C186.942 51.2394 187.815 52.5106 188.915 53.5812C190.015 54.6518 191.321 55.5009 192.758 56.08C194.195 56.659 195.735 56.9566 197.29 56.9558Z" fill="#263238"/>
<path d="M185.076 170.993C183.696 172.403 182.182 173.685 180.556 174.82C180.308 174.981 180.102 175.196 179.953 175.448C179.742 175.882 179.41 176.951 181.43 177.637C182.451 177.982 183.536 178.108 184.612 178.007C185.688 177.905 186.728 177.579 187.662 177.05C189.326 176.041 189.398 173.939 190.966 172.736C192.123 171.85 193.57 171.621 194.51 170.458C195.161 169.648 194.992 168.574 194.649 167.242C194.281 165.786 194.106 164.688 193.612 164.8L193.696 165.469C193.093 166.426 189.881 166.708 188.458 166.056C188.434 166.044 185.975 170.036 185.076 170.993Z" fill="#263238"/>
<path d="M183.672 172.348C184.154 171.92 184.624 171.474 185.076 170.992C186.022 169.796 186.894 168.546 187.686 167.247C188.232 166.461 188.489 165.517 188.415 164.571C188.301 163.561 188.018 160.984 188.018 160.984L193.081 160.632L193.684 165.469C193.804 166.566 192.876 167.541 191.224 168.926C189.573 170.311 187.487 173.534 185.992 174.344C184.497 175.154 183.436 175.125 182.798 174.708C182.159 174.291 182.068 173.951 183.672 172.348Z" fill="#B16668"/>
<path d="M204.337 171.432V170.687C204.042 171.561 202.65 175.301 200.534 177.179C198.858 178.67 196.568 180.39 195.983 182.057C195.398 183.724 199.172 184.364 200.739 184.094C202.547 183.783 204.922 182.773 206.206 181.241C207.104 180.161 207.683 178.893 208.328 178.03C208.973 177.167 210.456 176.234 210.805 175.248C210.998 174.708 210.769 173.528 210.498 172.53C210.226 171.532 209.985 170.605 209.666 170.687V171.274C208.907 171.853 207.966 172.162 207.002 172.148C206.224 172.16 204.331 172.007 204.337 171.432Z" fill="#263238"/>
<path d="M199.013 178.512C199.532 178.06 200.056 177.62 200.532 177.197C202.009 175.888 203.136 173.675 203.781 172.149C204.15 171.284 204.341 170.356 204.342 169.419V166.484H209.664V171.298V171.427C209.411 172.507 206.964 175.372 205.578 177.238C204.649 178.489 202.883 180.085 200.755 180.361C198.736 180.584 197.711 179.968 199.013 178.512Z" fill="#B16668"/>
<path d="M208.602 90.8607C212.731 99.6364 208.451 130.56 208.451 130.56C208.578 131.986 210.26 134.792 210.862 141.061C211.598 148.469 209.705 167.065 209.705 167.065C208.894 167.525 207.979 167.785 207.041 167.822C206.102 167.859 205.169 167.671 204.322 167.276C204.322 167.276 199.253 139.259 198.294 131.898C197.463 125.47 195.883 110.361 195.883 110.361L191.736 132.033C192.504 134.061 193.047 136.162 193.358 138.302C193.786 142.64 193.466 162.674 193.466 162.674C193.466 162.674 191.658 164.024 188.156 163.526C188.156 163.526 182.128 136.089 181.652 130.877C181.375 127.765 185.015 89.5752 185.015 89.5752L208.602 90.8607Z" fill="#A5CE3E"/>
<path opacity="0.6" d="M208.602 90.8607C212.731 99.6364 208.451 130.56 208.451 130.56C208.578 131.986 210.26 134.792 210.862 141.061C211.598 148.469 209.705 167.065 209.705 167.065C208.894 167.525 207.979 167.785 207.041 167.822C206.102 167.859 205.169 167.671 204.322 167.276C204.322 167.276 199.253 139.259 198.294 131.898C197.463 125.47 195.883 110.361 195.883 110.361L191.736 132.033C192.504 134.061 193.047 136.162 193.358 138.302C193.786 142.64 193.466 162.674 193.466 162.674C193.466 162.674 191.658 164.024 188.156 163.526C188.156 163.526 182.128 136.089 181.652 130.877C181.375 127.765 185.015 89.5752 185.015 89.5752L208.602 90.8607Z" fill="black"/>
<path opacity="0.3" d="M195.879 110.361L194.541 103.182C194.541 103.182 188.869 102.038 186.301 99.6602C186.301 99.6602 188.995 102.93 193.004 103.998L194.511 110.273L192.142 129.879L195.879 110.361Z" fill="black"/>
<path d="M215.331 87.0457C215.289 86.4587 214.18 80.3246 213.42 76.8848L206 79.0978L207.32 85.4256L213.565 90.3095C215.53 89.9338 215.373 87.621 215.331 87.0457Z" fill="#B16668"/>
<path d="M179.442 74.084L175.934 80.3473L181.395 84.9024L186.392 77.1833L179.442 74.084Z" fill="#B16668"/>
<path d="M192.606 60.1318C189.128 60.1671 185.295 61.3939 183.975 64.053C182.655 66.7121 179.008 74.032 179.008 74.032C179.008 74.032 182.257 78.3289 187.133 78.0177L192.606 60.1318Z" fill="#A5CE3E"/>
<path opacity="0.6" d="M192.606 60.1318C189.128 60.1671 185.295 61.3939 183.975 64.053C182.655 66.7121 179.008 74.032 179.008 74.032C179.008 74.032 182.257 78.3289 187.133 78.0177L192.606 60.1318Z" fill="black"/>
<path d="M199.802 60.2492L202.701 60.3666C205.848 61.1004 206.987 63.2077 208.307 65.9255C209.275 68.0243 209.366 70.4076 208.56 72.5704L204.871 82.9603C204.871 82.9603 206.595 87.0223 208.602 90.8613C199.35 95.8919 187.794 93.2445 185.01 89.5758C184.895 88.7951 185.052 85.2907 184.829 81.2991C184.594 77.0375 183.991 72.2299 184.678 69.6002C185.956 64.7163 188.343 60.1318 193.117 60.1318L199.802 60.2492Z" fill="#F5F5F5"/>
<path d="M202.714 60.3662C205.866 60.8006 210.508 61.4169 212.105 68.7251C213.727 76.1331 214.034 77.8999 214.034 77.8999C214.034 77.8999 211.273 80.5825 206.035 80.559C206.023 80.559 201.406 66.0132 202.714 60.3662Z" fill="#A5CE3E"/>
<path opacity="0.6" d="M202.714 60.3662C205.866 60.8006 210.508 61.4169 212.105 68.7251C213.727 76.1331 214.034 77.8999 214.034 77.8999C214.034 77.8999 211.273 80.5825 206.035 80.559C206.023 80.559 201.406 66.0132 202.714 60.3662Z" fill="black"/>
<path d="M205.884 80.1076C205.281 78.1646 204.678 75.9457 204.105 73.5625C204.13 76.5585 204.443 79.5457 205.04 82.4849L205.884 80.1076Z" fill="#EBEBEB"/>
<path d="M189.311 39.6338C188.063 40.3558 186.52 43.4199 186.67 49.8417C186.797 55.2832 188.611 56.6275 189.522 57.0149C190.432 57.4023 192.186 57.1675 193.892 56.8916V60.1612C193.892 60.1612 191.535 62.8262 191.679 64.323C191.824 65.8199 195.085 66.178 197.291 64.7105C198.72 63.7089 199.946 62.4592 200.908 61.0241V53.1231C200.908 53.1231 202.059 54.6199 203.922 53.4048C205.784 52.1897 205.875 49.1725 204.784 48.0866C203.693 47.0006 201.324 47.347 200.89 48.8438C200.89 48.8438 198.165 48.9436 194.543 47.0065C193.138 46.2633 191.932 45.2087 191.024 43.9279C190.115 42.6472 189.528 41.1762 189.311 39.6338Z" fill="#B16668"/>
<path d="M192.906 48.4733C192.904 48.6081 192.943 48.7405 193.017 48.8541C193.092 48.9676 193.199 49.0573 193.326 49.112C193.452 49.1666 193.592 49.1838 193.729 49.1614C193.865 49.1389 193.992 49.0779 194.093 48.9858C194.194 48.8938 194.265 48.7748 194.297 48.6437C194.33 48.5126 194.321 48.3751 194.274 48.2485C194.226 48.1219 194.142 48.0117 194.03 47.9316C193.919 47.8516 193.786 47.8052 193.648 47.7983C193.554 47.7951 193.46 47.8101 193.371 47.8423C193.283 47.8746 193.202 47.9234 193.133 47.9861C193.064 48.0488 193.009 48.1241 192.97 48.2077C192.931 48.2913 192.909 48.3816 192.906 48.4733Z" fill="#263238"/>
<path d="M192.719 53.0879L191.086 53.5986C191.114 53.7063 191.164 53.8074 191.233 53.8958C191.302 53.9842 191.388 54.0581 191.488 54.1129C191.587 54.1678 191.696 54.2025 191.81 54.215C191.923 54.2275 192.038 54.2175 192.147 54.1856C192.371 54.1118 192.556 53.9556 192.663 53.7504C192.77 53.5452 192.79 53.3074 192.719 53.0879Z" fill="#9A4A4D"/>
<path d="M187.146 46.3718L188.568 45.4149C188.509 45.3179 188.43 45.234 188.335 45.1686C188.241 45.1032 188.133 45.0577 188.02 45.0351C187.906 45.0124 187.789 45.0131 187.676 45.0371C187.563 45.061 187.456 45.1078 187.363 45.1743C187.176 45.3093 187.05 45.5085 187.01 45.7311C186.97 45.9537 187.018 46.1828 187.146 46.3718Z" fill="#263238"/>
<path d="M187.473 47.9808C187.472 48.1154 187.511 48.2472 187.587 48.3601C187.662 48.4729 187.77 48.5617 187.896 48.6154C188.023 48.6692 188.163 48.6855 188.299 48.6624C188.435 48.6393 188.561 48.5778 188.662 48.4854C188.762 48.3931 188.833 48.2741 188.864 48.1431C188.896 48.0122 188.887 47.875 188.84 47.7488C188.792 47.6225 188.707 47.5126 188.596 47.4328C188.485 47.353 188.352 47.3068 188.214 47.2999C188.024 47.2967 187.84 47.3661 187.701 47.4933C187.562 47.6206 187.481 47.7955 187.473 47.9808Z" fill="#263238"/>
<path d="M190.786 47.5869L190.677 51.7077L188.453 51.0385L190.786 47.5869Z" fill="#9A4A4D"/>
<path d="M193.891 56.8916C195.699 56.6627 199.382 55.6295 199.961 54.2031C199.73 54.9245 199.278 55.5597 198.665 56.0228C197.562 56.9444 193.891 57.9834 193.891 57.9834V56.8916Z" fill="#9A4A4D"/>
<path d="M164.469 73.7031L184.873 78.9333L190.901 103.599L171.497 98.1106L164.469 73.7031Z" fill="#A5CE3E"/>
<path opacity="0.15" d="M173.367 90.0215C173.18 90.5263 172.059 91.9234 169.684 91.8118L169.395 90.7905L173.367 90.0215Z" fill="black"/>
<path opacity="0.15" d="M177.93 90.79C178.02 91.4475 179.406 92.6684 181.751 93.4257C184.422 94.2944 188.514 93.8366 188.514 93.8366L188.147 92.6097L177.93 90.79Z" fill="black"/>
<path opacity="0.15" d="M170.444 77.2717C170.444 77.2717 170.371 76.9313 170.275 76.5145C170.178 76.0977 171.384 76.0742 172.951 76.4734L175.965 77.2306C177.532 77.6298 178.883 78.2931 178.979 78.7099L179.148 79.4671L170.444 77.2717Z" fill="black"/>
<path d="M169.032 74.4132C168.972 74.149 169.454 74.0845 170.111 74.2606L171.317 74.5775C171.317 74.5775 170.961 72.9398 173.601 73.5151C176.242 74.0903 176.82 75.9452 176.82 75.9452L178.092 76.2974C178.797 76.4912 179.43 76.8844 179.515 77.1251L179.665 77.5947L169.153 74.9004C169.153 74.9004 169.087 74.6715 169.032 74.4132Z" fill="#37474F"/>
<path d="M170.477 75.2291C171.442 75.458 171.84 75.5813 171.984 76.227C172.147 76.9666 172.213 77.5066 172.213 77.5066L176.867 78.6806C176.867 78.6806 176.644 77.7473 176.572 77.3834C176.499 77.0194 176.656 76.7964 177.397 76.9901L177.458 76.7024L170.164 74.918L170.477 75.2291Z" fill="#37474F"/>
<path d="M170.315 77.3427C170.315 77.3427 170.242 77.0022 170.146 76.5855C170.05 76.1687 171.255 76.1511 172.822 76.5444L175.836 77.3075C177.403 77.7008 178.754 78.3641 178.85 78.7808L179.019 79.5381L170.315 77.3427Z" fill="#37474F"/>
<path d="M213.565 90.3091L207.315 85.4252C207.315 85.4252 193.499 87.8202 191.871 87.9435C191.013 87.9661 190.167 87.7356 189.445 87.282C188.724 86.8284 188.159 86.173 187.827 85.4018C187.224 83.8462 186.121 84.0399 186.121 84.0399C186.121 84.0399 186.597 86.0064 186.724 86.6345C186.85 87.2626 182.987 87.8085 180.829 87.0689C178.671 86.3292 175.542 87.3917 177.477 90.2504C179.412 93.1091 183.179 93.4437 185.789 93.4437C186.884 93.4358 187.977 93.3652 189.063 93.2324C189.906 93.1267 190.75 93.0445 191.6 92.9858C196.983 92.6101 211.154 91.0487 213.565 90.3091Z" fill="#B16668"/>
<path d="M166.548 80.9109L167.453 84.0572C167.627 84.6442 169.996 85.7595 171.497 86.1645C172.998 86.5696 174.638 87.0392 173.908 89.0995C173.257 90.9838 170.786 91.4123 169.532 91.3595C168.278 91.3067 166.554 90.1385 165.879 88.2543C165.011 85.8476 165.475 83.2765 165.132 81.8736C164.788 80.4706 165.795 80.0715 166.548 80.9109Z" fill="#B16668"/>
<path d="M207.621 69.5997C206.74 69.6005 205.867 69.4321 205.052 69.1041C204.237 68.7761 203.497 68.295 202.873 67.6882C202.25 67.0815 201.755 66.361 201.418 65.568C201.08 64.7749 200.906 63.9249 200.906 63.0664V53.8916C202.685 53.8932 204.391 54.582 205.648 55.8069C206.906 57.0318 207.614 58.6927 207.615 60.4249L207.621 69.5997Z" fill="#263238"/>
</svg>
