<svg width="266" height="233" viewBox="0 0 266 233" fill="none" xmlns="http://www.w3.org/2000/svg">
<path d="M38.9085 212.822C90.7834 239.237 174.895 239.237 226.77 212.822C278.645 186.407 278.645 143.638 226.77 117.246C174.895 90.8548 90.7834 90.8313 38.9085 117.246C-12.9665 143.661 -12.9725 186.436 38.9085 212.822Z" fill="#F5F5F5"/>
<path d="M194.063 188.866C207.675 188.866 218.71 182.661 218.71 175.007C218.71 167.353 207.675 161.148 194.063 161.148C180.45 161.148 169.415 167.353 169.415 175.007C169.415 182.661 180.45 188.866 194.063 188.866Z" fill="#E0E0E0"/>
<path d="M43.9348 167.769C43.5672 163.695 39.7877 155.518 34.9716 150.599C30.1554 145.68 22.9884 142.381 18.2867 144.418C13.9045 146.308 14.9112 152.049 20.734 155.389C26.5568 158.729 35.2006 162.844 38.2145 169.248L43.9951 176.926L43.9348 167.769Z" fill="#A5CE3E"/>
<path opacity="0.1" d="M43.9348 167.769C43.5672 163.695 39.7877 155.518 34.9716 150.599C30.1554 145.68 22.9884 142.381 18.2867 144.418C13.9045 146.308 14.9112 152.049 20.734 155.389C26.5568 158.729 35.2006 162.844 38.2145 169.248L43.9951 176.926L43.9348 167.769Z" fill="black"/>
<path d="M44.7424 173.316C44.6751 173.318 44.6091 173.298 44.5554 173.258C44.5017 173.219 44.4635 173.163 44.447 173.099C40.3963 159.434 27.8345 149.12 20.6976 147.206C20.658 147.196 20.6209 147.178 20.5885 147.154C20.556 147.129 20.5288 147.099 20.5083 147.064C20.4879 147.03 20.4747 146.992 20.4694 146.952C20.4641 146.912 20.4669 146.872 20.4776 146.834C20.4883 146.795 20.5067 146.759 20.5317 146.727C20.5567 146.696 20.5879 146.669 20.6234 146.649C20.6589 146.629 20.6982 146.617 20.7388 146.611C20.7795 146.606 20.8208 146.609 20.8604 146.619C28.1298 148.568 40.9268 159.052 45.0317 172.923C45.0437 172.96 45.0479 173 45.044 173.039C45.0402 173.078 45.0284 173.115 45.0093 173.15C44.9902 173.184 44.9642 173.215 44.9328 173.239C44.9015 173.264 44.8654 173.282 44.8267 173.293L44.7424 173.316Z" fill="white"/>
<path d="M43.4102 182.397C42.5301 180.167 39.3234 176.633 34.3685 173.903C28.9435 170.892 22.2768 169.859 20.5047 167.294C18.413 164.224 20.9387 160.937 26.2732 161.124C31.6078 161.312 41.5114 167.534 43.9467 177.965L43.4102 182.397Z" fill="#A5CE3E"/>
<path d="M44.2181 179.908C44.1584 179.909 44.0998 179.892 44.0495 179.861C43.9992 179.83 43.9593 179.785 43.9348 179.732C38.5098 168.197 28.781 164.81 24.4108 164.629C24.3705 164.627 24.3308 164.618 24.2941 164.601C24.2574 164.585 24.2244 164.561 24.1969 164.533C24.1695 164.504 24.1482 164.47 24.1342 164.433C24.1202 164.396 24.1139 164.357 24.1155 164.317C24.1162 164.278 24.1251 164.239 24.1418 164.203C24.1585 164.168 24.1826 164.136 24.2125 164.109C24.2425 164.083 24.2777 164.063 24.3159 164.05C24.3542 164.037 24.3947 164.032 24.435 164.036C29.2572 164.229 38.9016 167.704 44.4954 179.485C44.5267 179.557 44.5285 179.638 44.5005 179.711C44.4724 179.785 44.4167 179.844 44.3447 179.879C44.3049 179.897 44.2619 179.907 44.2181 179.908Z" fill="white"/>
<path d="M207.631 162.492C207.54 159.21 208.475 153.716 211.79 148.228C215.34 142.358 220.024 138.425 223.96 139.622C227.625 140.738 226.817 145.58 221.308 150.857C217.438 154.561 213.556 159.257 211.748 164.628L208.65 171.543L207.631 162.492Z" fill="#A5CE3E"/>
<path d="M207.631 162.492C207.54 159.21 208.475 153.716 211.79 148.228C215.34 142.358 220.024 138.425 223.96 139.622C227.625 140.738 226.817 145.58 221.308 150.857C217.438 154.561 213.556 159.257 211.748 164.628L208.65 171.543L207.631 162.492Z" fill="#A5CE3E"/>
<g opacity="0.1">
<path d="M207.63 162.492C207.539 159.21 208.474 153.716 211.789 148.228C215.339 142.358 220.023 138.425 223.959 139.622C227.624 140.738 226.816 145.58 221.307 150.857C217.437 154.561 213.555 159.257 211.747 164.628L208.649 171.543L207.63 162.492Z" fill="black"/>
</g>
<path d="M208.245 164.928C208.294 164.924 208.341 164.905 208.377 164.873C208.414 164.841 208.44 164.799 208.45 164.752C210.813 155.395 216.792 145.545 222.368 141.859C222.412 141.821 222.441 141.77 222.448 141.713C222.456 141.657 222.443 141.599 222.41 141.552C222.378 141.504 222.329 141.47 222.272 141.455C222.216 141.441 222.155 141.446 222.103 141.471C216.443 145.234 210.373 155.196 207.986 164.658C207.979 164.687 207.978 164.718 207.982 164.747C207.987 164.777 207.998 164.806 208.014 164.831C208.031 164.857 208.052 164.879 208.077 164.897C208.102 164.914 208.131 164.927 208.161 164.934C208.189 164.938 208.218 164.936 208.245 164.928Z" fill="white"/>
<path d="M207.601 173.099C209.461 174.706 211.723 175.807 214.159 176.292C218.379 177.19 220.344 175.329 220.344 175.329C220.344 175.329 218.909 171.367 216.576 170.14C219.143 170.859 221.567 171.996 223.743 173.504C223.743 173.504 226.323 173.692 227.589 169.911C227.589 169.911 226.197 167.505 221.133 165.961C223.697 165.664 226.297 165.941 228.734 166.771C229.066 166.924 230.808 162.04 231.386 159.774C231.965 157.508 231.013 157.473 229.21 156.892C227.408 156.311 221.169 155.647 219.964 156.563C218.758 157.479 217.963 160.801 217.963 160.801C217.963 160.801 216.98 158.84 217.36 157.156C216.102 156.725 214.74 156.678 213.454 157.021C211.35 157.608 211.422 158.588 211.332 160.05C211.235 161.52 211.352 162.997 211.682 164.435C211.682 164.435 210.331 163.149 210.554 158.723C210.554 158.723 207.625 160.883 206.383 162.832C205.142 164.781 205.117 169.964 207.601 173.099Z" fill="#A5CE3E"/>
<path d="M207.582 173.334C207.627 173.336 207.672 173.327 207.711 173.306C207.75 173.285 207.783 173.254 207.805 173.217C211.645 166.501 224.84 159.205 229.445 158.606C229.476 158.602 229.506 158.592 229.533 158.576C229.559 158.561 229.583 158.541 229.602 158.516C229.62 158.492 229.634 158.464 229.642 158.435C229.65 158.406 229.651 158.375 229.647 158.345C229.643 158.315 229.632 158.286 229.616 158.26C229.601 158.234 229.58 158.211 229.555 158.192C229.53 158.174 229.501 158.161 229.471 158.153C229.441 158.146 229.41 158.144 229.379 158.148C224.701 158.735 211.295 166.167 207.389 172.988C207.359 173.041 207.351 173.105 207.368 173.164C207.385 173.223 207.425 173.274 207.48 173.305C207.511 173.322 207.546 173.332 207.582 173.334Z" fill="white"/>
<path d="M47.1903 186.894L45.5508 185.972C44.8487 185.527 44.2645 184.926 43.8455 184.219C43.4266 183.512 43.1847 182.719 43.1396 181.904V41.9106C43.1843 41.0948 43.4259 40.3007 43.8448 39.5929C44.2638 38.8851 44.8482 38.2834 45.5508 37.8369L111.856 0.562324C112.603 0.192666 113.429 0 114.267 0C115.105 0 115.931 0.192666 116.678 0.562324L118.318 1.48391C119.02 1.92991 119.604 2.53062 120.023 3.23736C120.441 3.94411 120.683 4.73701 120.729 5.55183V145.551C120.683 146.366 120.441 147.159 120.023 147.866C119.604 148.573 119.02 149.173 118.318 149.619L52.0125 186.894C51.2655 187.264 50.4394 187.456 49.6014 187.456C48.7635 187.456 47.9373 187.264 47.1903 186.894Z" fill="#37474F"/>
<path d="M52.8383 44.6757L43.8449 39.6216C43.4123 40.324 43.1696 41.1217 43.1396 41.9402V181.905C43.1847 182.72 43.4266 183.513 43.8455 184.219C44.2645 184.926 44.8487 185.527 45.5508 185.973L47.1903 186.894C47.9373 187.264 48.7635 187.456 49.6014 187.456C50.4394 187.456 51.2655 187.264 52.0125 186.894L52.8323 186.436L52.8383 44.6757Z" fill="#263238"/>
<path d="M49.6016 45.5444V185.556C49.6016 187.059 50.6805 187.663 52.0127 186.912L118.318 149.637C119.02 149.191 119.604 148.591 120.023 147.884C120.442 147.177 120.684 146.384 120.729 145.569V5.55204C120.729 4.05519 119.65 3.45058 118.318 4.19607L52.0127 41.4765C51.3099 41.9214 50.7252 42.5219 50.3062 43.2289C49.8871 43.9358 49.6457 44.7292 49.6016 45.5444Z" fill="#455A64"/>
<path d="M54.9054 54.3959L115.183 20.4966C116.322 19.8568 117.251 20.3792 117.251 21.6706V133.348C117.212 134.046 117.004 134.726 116.645 135.332C116.286 135.938 115.785 136.452 115.183 136.834L54.9054 170.728C53.7601 171.373 52.8379 170.851 52.8379 169.554V57.8827C52.8753 57.1838 53.0822 56.5035 53.4416 55.8975C53.8009 55.2914 54.3026 54.7769 54.9054 54.3959Z" fill="#FAFAFA"/>
<g opacity="0.4">
<path d="M85.3828 63.1955C92.14 59.3976 97.6192 62.4793 97.6192 70.0751C97.6192 77.6709 92.14 86.922 85.3828 90.7199C78.6257 94.5178 73.1465 91.4419 73.1465 83.8403C73.1465 76.2386 78.6257 66.9816 85.3828 63.1955Z" fill="#A5CE3E"/>
<path d="M109.5 103.845C109.5 91.3598 100.5 85.8126 89.3972 92.0583L82.4532 95.9619C71.35 102.202 62.3506 117.387 62.3506 129.873V133.236L109.5 106.739V103.845Z" fill="#A5CE3E"/>
</g>
<path d="M85.1652 26.4782C86.0574 25.9734 86.7807 26.3843 86.7807 27.3881C86.7508 27.9339 86.5889 28.4651 86.3081 28.9385C86.0274 29.4118 85.6358 29.8138 85.1652 30.1118C84.2731 30.6166 83.5498 30.2057 83.5498 29.2019C83.5797 28.6561 83.7416 28.1249 84.0223 27.6515C84.3031 27.1782 84.6947 26.7762 85.1652 26.4782Z" fill="#263238"/>
<path d="M80.5003 34.3324C83.7854 32.5714 89.6444 29.1727 92.8813 27.3177C93.4299 27.0008 93.8759 27.218 93.8759 27.7991C93.8521 28.1268 93.749 28.4444 93.5751 28.726C93.4012 29.0076 93.1614 29.2451 92.8753 29.4192L80.4762 36.3928C79.9216 36.7039 79.4756 36.4867 79.4756 35.8997C79.5036 35.5772 79.6114 35.2662 79.7899 34.9933C79.9684 34.7203 80.2121 34.4935 80.5003 34.3324Z" fill="#263238"/>
<path d="M77.3653 36.0996C77.8656 35.8178 78.2755 36.0468 78.2755 36.6103C78.2577 36.9173 78.1661 37.2159 78.008 37.482C77.8499 37.7482 77.6297 37.9744 77.3653 38.1423C76.865 38.4241 76.4551 38.1952 76.4551 37.6317C76.4728 37.3247 76.5644 37.026 76.7225 36.7599C76.8806 36.4938 77.1008 36.2676 77.3653 36.0996Z" fill="#263238"/>
<path d="M85.1655 157.38C86.9738 156.376 88.4024 157.192 88.4024 159.199C88.3419 160.292 88.0172 161.356 87.4547 162.304C86.8922 163.251 86.1078 164.056 85.1655 164.653C83.3571 165.656 81.9346 164.84 81.9346 162.833C81.9953 161.741 82.3195 160.678 82.8808 159.73C83.4422 158.783 84.2249 157.978 85.1655 157.38Z" fill="#263238"/>
<path d="M140.145 118.132L132.875 114.023L132.797 113.982C129.18 111.998 124.225 112.286 118.734 115.379C113.599 118.262 108.909 123.069 105.377 128.64C101.296 135.05 98.7461 142.475 98.7461 149.126C98.7461 155.331 100.976 159.692 104.581 161.729L111.965 165.838C115.612 168.104 120.753 167.898 126.468 164.693C137.505 158.553 146.468 143.415 146.468 130.964C146.468 124.507 144.033 120.052 140.145 118.132Z" fill="#A5CE3E"/>
<path opacity="0.1" d="M111.808 165.803L104.575 161.776C100.958 159.739 98.7402 155.378 98.7402 149.173C98.7402 142.517 101.308 135.085 105.371 128.687L113.098 133.025C109.012 139.441 106.468 146.849 106.468 153.494C106.438 159.417 108.481 163.661 111.808 165.803Z" fill="black"/>
<path opacity="0.4" d="M140.018 118.05C136.45 116.366 131.694 116.794 126.474 119.723C121.254 122.652 116.624 127.442 113.086 133.013L105.358 128.675C108.891 123.104 113.58 118.297 118.716 115.415C124.201 112.327 129.162 112.034 132.779 114.018L132.857 114.059L140.018 118.05Z" fill="white"/>
<path d="M136.878 125.975L134.105 124.414L123.249 149.332L125.1 150.371L136.878 125.975Z" fill="white"/>
<path d="M121.122 143.767L118.349 142.211L115.371 148.346L118.144 149.901L121.122 143.767Z" fill="white"/>
<path d="M125.811 157.679L118.144 149.901L121.121 143.767L125.1 150.37L136.878 125.975L141.242 130.119L125.811 157.679Z" fill="#F5F5F5"/>
<path d="M115.371 148.345L118.144 149.901L125.811 157.679L123.044 156.135L115.371 148.345Z" fill="#E0E0E0"/>
<path d="M196.679 56.9553C199.818 56.9553 202.829 55.7407 205.05 53.5787C207.27 51.4166 208.517 48.4842 208.517 45.4266V44.7457C208.518 43.4625 208.259 42.1917 207.755 41.006C207.252 39.8202 206.513 38.7428 205.581 37.8351C204.65 36.9275 203.544 36.2075 202.327 35.7163C201.109 35.225 199.805 34.9722 198.487 34.9722H194.87C192.208 34.9722 189.656 36.0019 187.774 37.8348C185.891 39.6677 184.834 42.1536 184.834 44.7457V45.4266C184.834 46.9411 185.14 48.4407 185.736 49.8398C186.331 51.239 187.204 52.5101 188.304 53.5807C189.403 54.6514 190.709 55.5004 192.146 56.0795C193.583 56.6585 195.123 56.9561 196.679 56.9553Z" fill="#263238"/>
<path d="M184.468 170.992C183.088 172.402 181.574 173.684 179.947 174.819C179.699 174.98 179.493 175.195 179.344 175.447C179.134 175.881 178.802 176.95 180.821 177.637C181.842 177.981 182.928 178.107 184.003 178.006C185.079 177.904 186.12 177.578 187.054 177.05C188.718 176.04 188.79 173.938 190.357 172.735C191.515 171.849 192.961 171.62 193.902 170.457C194.553 169.647 194.384 168.573 194.04 167.241C193.672 165.785 193.498 164.687 193.003 164.799L193.088 165.468C192.485 166.425 189.272 166.707 187.85 166.055C187.826 166.043 185.366 170.035 184.468 170.992Z" fill="#263238"/>
<path d="M183.063 172.348C183.545 171.919 184.016 171.473 184.468 170.992C185.414 169.796 186.286 168.545 187.078 167.247C187.623 166.46 187.88 165.517 187.807 164.57C187.692 163.56 187.409 160.984 187.409 160.984L192.473 160.631L193.075 165.468C193.196 166.566 192.268 167.54 190.616 168.926C188.964 170.311 186.879 173.534 185.384 174.344C183.889 175.154 182.828 175.124 182.189 174.708C181.55 174.291 181.46 173.95 183.063 172.348Z" fill="#B16668"/>
<path d="M203.726 171.432V170.687C203.431 171.561 202.038 175.301 199.923 177.179C198.247 178.67 195.956 180.39 195.372 182.057C194.787 183.724 198.56 184.364 200.127 184.094C201.936 183.783 204.311 182.773 205.595 181.241C206.493 180.161 207.071 178.893 207.716 178.03C208.361 177.167 209.844 176.234 210.194 175.248C210.387 174.708 210.158 173.528 209.886 172.53C209.615 171.532 209.374 170.605 209.055 170.687V171.274C208.295 171.853 207.355 172.162 206.39 172.148C205.613 172.16 203.72 172.007 203.726 171.432Z" fill="#263238"/>
<path d="M198.403 178.512C198.921 178.06 199.446 177.619 199.922 177.197C201.399 175.888 202.526 173.675 203.171 172.148C203.54 171.283 203.73 170.356 203.732 169.419V166.484H209.054V171.297V171.426C208.801 172.507 206.354 175.371 204.967 177.238C204.039 178.488 202.273 180.085 200.145 180.361C198.126 180.584 197.101 179.967 198.403 178.512Z" fill="#B16668"/>
<path d="M207.994 90.8607C212.123 99.6364 207.843 130.56 207.843 130.56C207.969 131.986 209.651 134.792 210.254 141.061C210.989 148.469 209.097 167.065 209.097 167.065C208.285 167.525 207.37 167.785 206.432 167.822C205.494 167.859 204.561 167.671 203.714 167.276C203.714 167.276 198.644 139.259 197.686 131.898C196.854 125.47 195.275 110.361 195.275 110.361L191.128 132.033C191.895 134.061 192.439 136.162 192.749 138.302C193.177 142.64 192.858 162.674 192.858 162.674C192.858 162.674 191.049 164.024 187.547 163.526C187.547 163.526 181.52 136.089 181.043 130.877C180.766 127.765 184.407 89.5752 184.407 89.5752L207.994 90.8607Z" fill="#A5CE3E"/>
<path opacity="0.6" d="M207.994 90.8607C212.123 99.6364 207.843 130.56 207.843 130.56C207.969 131.986 209.651 134.792 210.254 141.061C210.989 148.469 209.097 167.065 209.097 167.065C208.285 167.525 207.37 167.785 206.432 167.822C205.494 167.859 204.561 167.671 203.714 167.276C203.714 167.276 198.644 139.259 197.686 131.898C196.854 125.47 195.275 110.361 195.275 110.361L191.128 132.033C191.895 134.061 192.439 136.162 192.749 138.302C193.177 142.64 192.858 162.674 192.858 162.674C192.858 162.674 191.049 164.024 187.547 163.526C187.547 163.526 181.52 136.089 181.043 130.877C180.766 127.765 184.407 89.5752 184.407 89.5752L207.994 90.8607Z" fill="black"/>
<path opacity="0.3" d="M195.27 110.361L193.931 103.182C193.931 103.182 188.259 102.037 185.691 99.6597C185.691 99.6597 188.386 102.929 192.394 103.998L193.901 110.273L191.532 129.878L195.27 110.361Z" fill="black"/>
<path d="M214.721 87.0453C214.678 86.4583 213.569 80.3241 212.81 76.8843L205.39 79.0973L206.71 85.4251L212.954 90.309C214.92 89.9333 214.763 87.6205 214.721 87.0453Z" fill="#B16668"/>
<path d="M178.831 74.084L175.323 80.3473L180.784 84.9024L185.781 77.1833L178.831 74.084Z" fill="#B16668"/>
<path d="M191.996 60.1309C188.518 60.1661 184.684 61.3929 183.364 64.052C182.044 66.7111 178.397 74.031 178.397 74.031C178.397 74.031 181.646 78.3279 186.523 78.0168L191.996 60.1309Z" fill="#A5CE3E"/>
<path opacity="0.6" d="M191.996 60.1309C188.518 60.1661 184.684 61.3929 183.364 64.052C182.044 66.7111 178.397 74.031 178.397 74.031C178.397 74.031 181.646 78.3279 186.523 78.0168L191.996 60.1309Z" fill="black"/>
<path d="M199.192 60.2483L202.092 60.3657C205.238 61.0994 206.377 63.2067 207.698 65.9246C208.665 68.0233 208.756 70.4066 207.951 72.5694L204.262 82.9593C204.262 82.9593 205.986 87.0214 207.993 90.8603C198.74 95.8909 187.185 93.2436 184.4 89.5748C184.286 88.7941 184.442 85.2897 184.219 81.2981C183.984 77.0365 183.382 72.2289 184.069 69.5992C185.347 64.7153 187.734 60.1309 192.508 60.1309L199.192 60.2483Z" fill="#F5F5F5"/>
<path d="M202.104 60.3657C205.257 60.8001 209.898 61.4165 211.496 68.7246C213.117 76.1326 213.425 77.8994 213.425 77.8994C213.425 77.8994 210.664 80.582 205.426 80.5586C205.414 80.5586 200.796 66.0127 202.104 60.3657Z" fill="#A5CE3E"/>
<path opacity="0.6" d="M202.104 60.3657C205.257 60.8001 209.898 61.4165 211.496 68.7246C213.117 76.1326 213.425 77.8994 213.425 77.8994C213.425 77.8994 210.664 80.582 205.426 80.5586C205.414 80.5586 200.796 66.0127 202.104 60.3657Z" fill="black"/>
<path d="M205.275 80.1066C204.672 78.1636 204.07 75.9447 203.497 73.5615C203.522 76.5575 203.835 79.5447 204.431 82.4839L205.275 80.1066Z" fill="#EBEBEB"/>
<path d="M188.698 39.6328C187.451 40.3548 185.907 43.419 186.058 49.8408C186.185 55.2822 187.999 56.6265 188.909 57.0139C189.819 57.4013 191.573 57.1665 193.279 56.8906V60.1602C193.279 60.1602 190.922 62.8252 191.067 64.3221C191.212 65.8189 194.473 66.177 196.679 64.7095C198.107 63.7079 199.333 62.4582 200.296 61.0231V53.1221C200.296 53.1221 201.447 54.6189 203.31 53.4038C205.172 52.1888 205.263 49.1716 204.172 48.0856C203.08 46.9997 200.712 47.346 200.278 48.8429C200.278 48.8429 197.553 48.9426 193.93 47.0055C192.526 46.2623 191.32 45.2077 190.411 43.9269C189.502 42.6462 188.916 41.1752 188.698 39.6328Z" fill="#B16668"/>
<path d="M192.297 48.4733C192.295 48.6081 192.333 48.7405 192.408 48.8541C192.482 48.9676 192.59 49.0573 192.716 49.112C192.843 49.1666 192.983 49.1838 193.119 49.1614C193.256 49.1389 193.383 49.0779 193.484 48.9858C193.585 48.8938 193.656 48.7748 193.688 48.6437C193.72 48.5126 193.712 48.3751 193.665 48.2485C193.617 48.1219 193.532 48.0117 193.421 47.9316C193.31 47.8516 193.177 47.8052 193.038 47.7983C192.944 47.7951 192.85 47.8101 192.762 47.8423C192.674 47.8746 192.593 47.9234 192.524 47.9861C192.455 48.0488 192.4 48.1241 192.361 48.2077C192.322 48.2913 192.3 48.3816 192.297 48.4733Z" fill="#263238"/>
<path d="M192.11 53.0869L190.477 53.5976C190.504 53.7053 190.554 53.8064 190.623 53.8948C190.692 53.9832 190.779 54.0571 190.878 54.112C190.977 54.1668 191.087 54.2015 191.2 54.214C191.313 54.2265 191.428 54.2165 191.537 54.1846C191.761 54.1108 191.947 53.9546 192.054 53.7494C192.161 53.5443 192.181 53.3065 192.11 53.0869Z" fill="#9A4A4D"/>
<path d="M186.535 46.3718L187.958 45.4149C187.899 45.3179 187.819 45.234 187.725 45.1686C187.63 45.1032 187.523 45.0577 187.41 45.0351C187.296 45.0124 187.179 45.0131 187.066 45.0371C186.953 45.061 186.846 45.1078 186.752 45.1743C186.566 45.3093 186.44 45.5085 186.4 45.7311C186.359 45.9537 186.408 46.1828 186.535 46.3718Z" fill="#263238"/>
<path d="M186.86 47.9799C186.859 48.1144 186.899 48.2463 186.974 48.3591C187.05 48.4719 187.157 48.5607 187.284 48.6144C187.411 48.6682 187.551 48.6845 187.687 48.6614C187.823 48.6383 187.949 48.5768 188.049 48.4845C188.15 48.3922 188.22 48.2731 188.252 48.1422C188.284 48.0112 188.275 47.8741 188.228 47.7478C188.18 47.6215 188.095 47.5116 187.984 47.4318C187.873 47.3521 187.74 47.3058 187.602 47.2989C187.411 47.2957 187.227 47.3651 187.089 47.4924C186.95 47.6196 186.868 47.7946 186.86 47.9799Z" fill="#263238"/>
<path d="M190.176 47.5869L190.067 51.7077L187.843 51.0385L190.176 47.5869Z" fill="#9A4A4D"/>
<path d="M193.279 56.8906C195.088 56.6617 198.771 55.6286 199.349 54.2021C199.119 54.9236 198.666 55.5587 198.053 56.0219C196.95 56.9434 193.279 57.9824 193.279 57.9824V56.8906Z" fill="#9A4A4D"/>
<path d="M163.858 73.7026L184.262 78.9328L190.29 103.599L170.887 98.1101L163.858 73.7026Z" fill="#A5CE3E"/>
<path opacity="0.15" d="M172.755 90.021C172.568 90.5258 171.447 91.9229 169.072 91.8113L168.782 90.79L172.755 90.021Z" fill="black"/>
<path opacity="0.15" d="M177.318 90.79C177.409 91.4475 178.795 92.6684 181.14 93.4257C183.81 94.2944 187.903 93.8366 187.903 93.8366L187.535 92.6097L177.318 90.79Z" fill="black"/>
<path opacity="0.15" d="M169.831 77.2712C169.831 77.2712 169.759 76.9308 169.663 76.514C169.566 76.0972 170.772 76.0738 172.339 76.4729L175.353 77.2302C176.92 77.6293 178.27 78.2926 178.367 78.7094L178.536 79.4666L169.831 77.2712Z" fill="black"/>
<path d="M168.421 74.4127C168.361 74.1485 168.843 74.084 169.5 74.2601L170.706 74.577C170.706 74.577 170.35 72.9393 172.99 73.5146C175.63 74.0898 176.209 75.9448 176.209 75.9448L177.481 76.297C178.186 76.4907 178.819 76.884 178.903 77.1246L179.054 77.5942L168.542 74.8999C168.542 74.8999 168.475 74.671 168.421 74.4127Z" fill="#37474F"/>
<path d="M169.868 75.2286C170.833 75.4575 171.23 75.5808 171.375 76.2265C171.538 76.9661 171.604 77.5061 171.604 77.5061L176.258 78.6801C176.258 78.6801 176.035 77.7468 175.962 77.3829C175.89 77.0189 176.047 76.7959 176.788 76.9896L176.848 76.702L169.555 74.9175L169.868 75.2286Z" fill="#37474F"/>
<path d="M169.704 77.3417C169.704 77.3417 169.632 77.0013 169.536 76.5845C169.439 76.1677 170.645 76.1501 172.212 76.5434L175.226 77.3065C176.793 77.6998 178.143 78.3631 178.24 78.7799L178.409 79.5371L169.704 77.3417Z" fill="#37474F"/>
<path d="M212.954 90.3086L206.703 85.4248C206.703 85.4248 192.888 87.8197 191.26 87.943C190.401 87.9657 189.556 87.7351 188.834 87.2815C188.112 86.8279 187.548 86.1726 187.216 85.4013C186.613 83.8457 185.51 84.0394 185.51 84.0394C185.51 84.0394 185.986 86.0059 186.112 86.634C186.239 87.2621 182.375 87.808 180.217 87.0684C178.059 86.3287 174.931 87.3912 176.866 90.2499C178.801 93.1086 182.568 93.4432 185.178 93.4432C186.272 93.4353 187.365 93.3647 188.451 93.2319C189.295 93.1262 190.139 93.044 190.989 92.9853C196.372 92.6097 210.543 91.0482 212.954 90.3086Z" fill="#B16668"/>
<path d="M165.938 80.9109L166.842 84.0572C167.017 84.6442 169.386 85.7595 170.887 86.1645C172.388 86.5696 174.027 87.0392 173.298 89.0995C172.647 90.9838 170.176 91.4123 168.922 91.3595C167.668 91.3067 165.944 90.1385 165.269 88.2543C164.401 85.8476 164.865 83.2765 164.521 81.8736C164.178 80.4706 165.185 80.0715 165.938 80.9109Z" fill="#B16668"/>
<path d="M207.011 69.5993C206.129 69.6 205.256 69.4316 204.442 69.1036C203.627 68.7756 202.887 68.2945 202.263 67.6878C201.639 67.081 201.145 66.3605 200.807 65.5675C200.47 64.7744 200.296 63.9244 200.296 63.0659V53.8911C202.075 53.8927 203.78 54.5815 205.038 55.8064C206.296 57.0313 207.003 58.6922 207.005 60.4244L207.011 69.5993Z" fill="#263238"/>
</svg>
