<svg width="301" height="285" viewBox="0 0 301 285" fill="none" xmlns="http://www.w3.org/2000/svg">
<path d="M150.609 284.604C233.452 284.604 300.609 245.832 300.609 198.004C300.609 150.176 233.452 111.404 150.609 111.404C67.7667 111.404 0.609375 150.176 0.609375 198.004C0.609375 245.832 67.7667 284.604 150.609 284.604Z" fill="#FAFAFA"/>
<path d="M206.919 152.328L203.928 150.578C202.79 149.999 201.532 149.697 200.256 149.697C198.979 149.697 197.721 149.999 196.584 150.578L38.5473 241.846C36.5259 243.008 36.5259 244.936 38.5473 246.086L41.5393 247.811C42.6775 248.387 43.9354 248.688 45.2112 248.688C46.4871 248.688 47.745 248.387 48.8832 247.811L96.8906 220.092L110.299 227.727C115.807 230.904 124.814 230.904 130.321 227.727L167.196 206.424C171.894 203.71 171.894 199.266 167.196 196.533L152.322 188.058L206.919 156.531C208.941 155.406 208.941 153.496 206.919 152.328Z" fill="#E0E0E0"/>
<path d="M94.0167 255.755C93.8645 256.482 93.5681 257.171 93.1451 257.782C92.2901 258.987 91.1717 259.981 89.8749 260.688C84.2124 263.952 75.0387 263.952 69.3763 260.688C68.0782 259.982 66.9594 258.988 66.1061 257.782C65.6866 257.17 65.3924 256.481 65.2407 255.755C64.74 253.282 66.1185 250.741 69.3824 248.856C75.0449 245.586 84.2186 245.586 89.8811 248.856C93.1203 250.723 94.5174 253.301 94.0167 255.755Z" fill="#E0E0E0"/>
<path d="M294.749 247.094C294.366 248.959 293.607 250.726 292.518 252.287C290.719 255.001 287.919 257.541 284.142 259.705C269.645 268.075 246.13 268.075 231.634 259.705C227.851 257.517 225.05 254.976 223.251 252.287C222.172 250.722 221.417 248.956 221.032 247.094C219.74 240.801 223.288 234.242 231.646 229.421C246.142 221.038 269.658 221.038 284.154 229.421C292.499 234.242 296.041 240.832 294.749 247.094Z" fill="#E0E0E0"/>
<path d="M131.33 222.954L159.494 206.665C162.4 204.99 163.852 202.789 163.852 200.595C163.852 198.4 163.852 196.676 163.852 196.676L145.307 186.334C144.493 185.802 143.816 185.087 143.33 184.245C142.845 183.402 142.565 182.458 142.513 181.487V156.358L93.3125 184.794V209.923C93.3632 210.897 93.6433 211.844 94.13 212.688C94.6166 213.533 95.2961 214.25 96.1128 214.782L110.3 222.973C116.105 226.305 125.519 226.305 131.33 222.954Z" fill="#F5F5F5"/>
<path opacity="0.15" d="M105.124 216.055V219.956L96.105 214.757C95.2915 214.228 94.6141 213.514 94.1276 212.674C93.6411 211.835 93.3592 210.892 93.3047 209.923V184.788L102.676 179.379C102.874 181.759 103.084 184.219 103.294 186.618L96.7232 190.42V207.945C96.7719 208.918 97.0512 209.865 97.5381 210.709C98.025 211.553 98.7055 212.268 99.5235 212.797L105.124 216.055Z" fill="black"/>
<path d="M96.7077 207.951C96.7584 208.924 97.0385 209.871 97.5252 210.716C98.0118 211.56 98.6913 212.278 99.508 212.809L110.295 219.034C116.106 222.385 125.521 222.391 131.313 219.034L159.496 202.752C165.306 199.401 165.306 193.967 159.496 190.611L148.696 184.373C147.88 183.842 147.201 183.126 146.715 182.282C146.228 181.439 145.947 180.493 145.896 179.521V161.989L96.6953 190.425L96.7077 207.951Z" fill="#E6E6E6"/>
<path opacity="0.15" d="M154.42 187.668L148.708 184.367C147.892 183.836 147.213 183.12 146.726 182.276C146.24 181.433 145.959 180.487 145.908 179.515V161.989L96.707 190.425V207.957C96.7577 208.93 97.0378 209.878 97.5245 210.722C98.0112 211.566 98.6906 212.284 99.5074 212.816L105.12 216.055L154.42 187.668Z" fill="black"/>
<path d="M47.9256 227.751C48.879 228.212 49.9276 228.442 50.9864 228.423C52.0453 228.404 53.0847 228.135 54.0208 227.64L199.267 143.778C200.182 143.182 200.944 142.378 201.491 141.431C202.038 140.485 202.354 139.423 202.413 138.332V6.00589C202.373 4.94682 202.084 3.9122 201.568 2.98625C201.052 2.06029 200.325 1.26915 199.446 0.677226C198.494 0.213462 197.445 -0.018221 196.385 0.00111857C195.326 0.0204581 194.286 0.290271 193.351 0.788497L48.0801 84.6439C47.1646 85.2406 46.4027 86.0446 45.856 86.9909C45.3093 87.9371 44.9933 88.9988 44.9336 90.09V222.416C44.9766 223.478 45.2701 224.515 45.79 225.442C46.31 226.37 47.0417 227.161 47.9256 227.751Z" fill="#455A64"/>
<path d="M54.0192 227.633L199.265 143.778C200.182 143.182 200.944 142.378 201.491 141.432C202.038 140.485 202.353 139.423 202.412 138.332V6.00543C202.412 3.99636 201.003 3.18655 199.265 4.18799L54.0254 88.0433C53.1099 88.6401 52.348 89.4441 51.8013 90.3904C51.2546 91.3366 50.9386 92.3983 50.8789 93.4895V225.822C50.8789 227.85 52.2822 228.635 54.0192 227.633Z" fill="#37474F"/>
<path d="M50.8789 215.122V225.823C50.8789 227.826 52.2822 228.635 54.0192 227.634L199.265 143.779C200.182 143.183 200.944 142.379 201.491 141.432C202.038 140.486 202.353 139.424 202.412 138.332V127.632L50.8789 215.122Z" fill="#EBEBEB"/>
<path d="M55.0352 205.169V94.8929C55.0717 94.2216 55.266 93.5685 55.6022 92.9863C55.9383 92.4042 56.407 91.9095 56.97 91.5424L196.319 11.0931C197.388 10.475 198.254 10.9757 198.254 12.2059V122.482C198.225 123.153 198.038 123.808 197.708 124.394C197.378 124.979 196.915 125.478 196.356 125.851L56.97 206.282C55.9006 206.9 55.0352 206.399 55.0352 205.169Z" fill="#263238"/>
<path d="M45.9022 86.9805L51.7996 90.3804C51.2408 91.3187 50.9223 92.3804 50.8723 93.4713V225.822C50.8723 227.677 52.1087 228.672 54.0126 227.64C53.0785 228.141 52.0384 228.412 50.9785 228.432C49.9186 228.451 48.8693 228.218 47.9174 227.751C47.0543 227.236 46.3328 226.514 45.818 225.651C45.3033 224.788 45.0114 223.81 44.9688 222.806V90.0899C45.0115 88.9911 45.3327 87.9211 45.9022 86.9805Z" fill="#263238"/>
<path d="M123.894 178.941L131.003 174.854C131.621 174.49 132.159 174.749 132.159 175.473C132.13 175.859 132.01 176.234 131.809 176.566C131.608 176.897 131.332 177.177 131.003 177.383L123.894 181.469C123.276 181.834 122.738 181.574 122.738 180.888C122.762 180.495 122.879 180.113 123.08 179.774C123.281 179.435 123.56 179.15 123.894 178.941Z" fill="#959CE8"/>
<path d="M55.4922 80.3858L67.392 73.5178C66.3667 72.4362 65.1776 71.5225 63.8685 70.8102C63.0226 70.3146 62.0607 70.0513 61.0803 70.0469C60.0999 70.0426 59.1357 70.2974 58.2855 70.7856C57.4353 71.2738 56.7291 71.978 56.2386 72.8269C55.7481 73.6758 55.4906 74.6392 55.4922 75.6196V80.3858Z" fill="#E0E0E0"/>
<path opacity="0.2" d="M55.4922 80.3858L67.392 73.5178C66.3667 72.4362 65.1776 71.5225 63.8685 70.8102C63.0226 70.3146 62.0607 70.0513 61.0803 70.0469C60.0999 70.0426 59.1357 70.2974 58.2855 70.7856C57.4353 71.2738 56.7291 71.978 56.2386 72.8269C55.7481 73.6758 55.4906 74.6392 55.4922 75.6196V80.3858Z" fill="black"/>
<path d="M55.4922 80.3854V74.4819C55.4922 72.3183 56.2835 70.7728 57.594 70.0557C59.1271 69.1779 61.371 69.3634 63.8685 70.8099L64.3074 71.0572C68.9375 73.7339 72.6898 80.2309 72.6898 85.5719V189.604L70.2171 188.183V85.5657C70.2171 81.0778 66.9346 75.3906 63.0463 73.1466L62.6136 72.8993C60.7158 71.8052 59.3681 71.7928 58.7438 72.1514C57.9772 72.5903 57.8598 73.7957 57.8598 74.4757V78.9822L55.4922 80.3854Z" fill="#E0E0E0"/>
<path d="M174.861 7.23012L174.423 6.98285C171.913 5.53014 169.656 5.35087 168.123 6.24104L57.5938 70.0552C59.1268 69.1774 61.3708 69.3628 63.8682 70.8093L64.3071 71.0566C68.9373 73.7333 72.6896 80.2303 72.6896 85.5714V189.604L183.238 125.777V21.7448C183.238 16.4347 179.485 9.90681 174.861 7.23012Z" fill="#FAFAFA"/>
<path d="M170.287 6.30349C171.646 6.36699 172.966 6.78005 174.12 7.50274L174.559 7.7562C179.009 10.3278 182.632 16.6023 182.632 21.7455V125.426L73.2892 188.554V85.572C73.2892 80.0455 69.3947 73.3012 64.6348 70.538L64.1959 70.2845C63.1142 69.6324 61.9184 69.1919 60.6723 68.9864L168.426 6.76712C168.992 6.4496 169.632 6.2895 170.281 6.30349M170.281 5.68531C169.524 5.67119 168.777 5.85896 168.117 6.22931L57.5938 70.0558C58.2489 69.697 58.9857 69.5138 59.7326 69.5242C61.1997 69.5845 62.6255 70.0278 63.8682 70.81L64.3071 71.0572C68.9373 73.7339 72.6896 80.231 72.6896 85.572V189.605L183.238 125.778V21.7455C183.238 16.4045 179.485 9.90744 174.861 7.23075L174.423 6.98348C173.179 6.20212 171.754 5.7589 170.287 5.69768L170.281 5.68531Z" fill="#E0E0E0"/>
<path d="M174.169 108.32L81.7578 161.675V164.512L174.169 111.158V108.32Z" fill="#E0E0E0"/>
<path d="M81.7578 130.47V133.307L174.169 79.9527V77.1152L81.7578 130.47Z" fill="#E0E0E0"/>
<path d="M81.7578 136.145V138.982L174.169 85.6275V82.79L81.7578 136.145Z" fill="#E0E0E0"/>
<path d="M81.7578 124.795V127.632L174.169 74.2779V71.4404L81.7578 124.795Z" fill="#E0E0E0"/>
<path d="M81.7578 99.2648V102.102L174.169 48.7476V45.9102L81.7578 99.2648Z" fill="#E0E0E0"/>
<path d="M81.7578 87.9149V90.7523L174.169 37.4038V34.5664L81.7578 87.9149Z" fill="#E0E0E0"/>
<path d="M81.7578 93.59V96.4274L174.169 43.0728V40.2354L81.7578 93.59Z" fill="#E0E0E0"/>
<path d="M81.457 174.756V168.383L174.474 114.688V121.056L81.457 174.756ZM82.0752 168.735V173.681L173.88 120.685V115.708L82.0752 168.735Z" fill="#E0E0E0"/>
<path d="M169.855 14.3643L75.1445 69.0418C75.6082 69.7156 76.0409 70.4141 76.4489 71.1312L171.277 16.3795C170.879 15.6573 170.402 14.9814 169.855 14.3643Z" fill="#E0E0E0"/>
<path d="M101.986 65.1717C101.904 64.7793 101.86 64.3796 101.857 63.9786C101.847 63.6031 101.893 63.2282 101.993 62.8659C102.099 62.5169 102.264 62.1886 102.481 61.8954C102.73 61.5749 103.041 61.3079 103.396 61.1103C103.724 60.9124 104.091 60.786 104.472 60.7394C104.786 60.7112 105.102 60.7689 105.386 60.9063C105.671 61.0502 105.915 61.2627 106.097 61.5245C106.31 61.8291 106.469 62.1678 106.567 62.5259L106.685 62.971C106.722 63.1317 106.759 63.3048 106.79 63.4779C106.821 63.651 106.851 63.8303 106.882 64.0034C106.913 64.1765 106.926 64.331 106.938 64.4732C106.991 64.9002 106.991 65.332 106.938 65.759C106.88 66.1857 106.761 66.602 106.586 66.9953C106.412 67.3846 106.183 67.7468 105.906 68.071C105.627 68.3983 105.294 68.6763 104.923 68.8931C104.622 69.0897 104.274 69.2028 103.915 69.2208C103.648 69.2266 103.389 69.1342 103.186 68.9611C102.963 68.7564 102.792 68.5023 102.685 68.2193C102.545 67.866 102.442 67.4994 102.376 67.1252L102.289 66.6677C102.256 66.4987 102.225 66.3256 102.197 66.1484C102.16 65.9753 102.129 65.8023 102.092 65.6353C102.054 65.4684 102.011 65.3139 101.986 65.1717ZM105.529 63.1874C105.491 62.9895 105.412 62.802 105.296 62.6377C105.179 62.4734 105.029 62.3362 104.855 62.2354C104.691 62.1671 104.514 62.141 104.338 62.1594C104.162 62.1777 103.993 62.24 103.847 62.3405C103.495 62.5412 103.228 62.8647 103.099 63.2492C102.96 63.6939 102.943 64.1679 103.05 64.6215C103.099 64.8935 103.161 65.2026 103.229 65.5364C103.297 65.8703 103.346 66.1546 103.402 66.4575C103.432 66.8571 103.616 67.2295 103.915 67.4961C104.055 67.5803 104.218 67.6201 104.381 67.6101C104.545 67.6002 104.701 67.541 104.83 67.4404C105.201 67.2251 105.495 66.8986 105.671 66.507C105.873 66.0468 105.945 65.5403 105.881 65.0419C105.881 64.7575 105.801 64.4237 105.739 64.1085C105.677 63.7932 105.603 63.4532 105.529 63.1874Z" fill="#455A64"/>
<path d="M111.757 64.8068C111.67 64.8563 111.602 64.8625 111.553 64.8068C111.513 64.7748 111.476 64.7397 111.441 64.7017C110.663 63.4544 109.724 62.3154 108.647 61.3142C109.034 62.8196 109.242 64.3654 109.266 65.9195C109.27 66.0075 109.251 66.0951 109.21 66.173C109.183 66.2467 109.133 66.3096 109.068 66.3523L108.45 66.717C108.429 66.7341 108.402 66.7434 108.375 66.7434C108.348 66.7434 108.322 66.7341 108.301 66.717C108.277 66.6929 108.258 66.6638 108.247 66.6318C108.235 66.5997 108.23 66.5655 108.233 66.5315C108.246 64.1373 107.788 61.7638 106.886 59.5462C106.861 59.474 106.861 59.3958 106.886 59.3236C106.893 59.2902 106.907 59.2586 106.927 59.2309C106.948 59.2033 106.973 59.1801 107.003 59.1629L107.547 58.8476C107.582 58.8237 107.622 58.8084 107.664 58.803C107.706 58.7976 107.748 58.8023 107.788 58.8167L107.943 58.8971C109.18 59.7703 110.291 60.8104 111.244 61.988C111.07 60.5025 110.698 59.0471 110.137 57.6607C110.112 57.5887 110.112 57.5103 110.137 57.4382C110.143 57.4043 110.157 57.3722 110.177 57.3444C110.198 57.3166 110.224 57.2937 110.255 57.2775L110.873 56.9127C110.9 56.8976 110.931 56.8896 110.962 56.8896C110.994 56.8896 111.025 56.8976 111.052 56.9127C111.084 56.9258 111.112 56.946 111.134 56.9718C111.157 56.9975 111.173 57.0281 111.182 57.0611C112.087 59.2782 112.547 61.6518 112.536 64.0465C112.535 64.1339 112.516 64.2203 112.48 64.2999C112.451 64.3741 112.399 64.4369 112.332 64.4792L111.757 64.8068Z" fill="#455A64"/>
<path d="M117.278 60.1282C117.301 60.1117 117.328 60.1027 117.356 60.1027C117.383 60.1027 117.41 60.1117 117.433 60.1282C117.459 60.1515 117.479 60.1801 117.493 60.2121C117.507 60.2441 117.514 60.2788 117.513 60.3137C117.513 60.6413 117.513 60.802 117.556 61.1358C117.562 61.2239 117.542 61.3116 117.501 61.3893C117.474 61.463 117.424 61.5259 117.359 61.5686L113.94 63.5405C113.92 63.5588 113.893 63.5689 113.866 63.5689C113.839 63.5689 113.812 63.5588 113.792 63.5405C113.768 63.5161 113.749 63.4871 113.736 63.4552C113.723 63.4234 113.717 63.3894 113.718 63.3551C113.733 60.9605 113.275 58.5865 112.37 56.3697C112.345 56.2997 112.345 56.2234 112.37 56.1534C112.376 56.1186 112.39 56.0857 112.41 56.0569C112.43 56.028 112.457 56.004 112.487 55.9865L113.106 55.6217C113.133 55.6066 113.164 55.5986 113.195 55.5986C113.227 55.5986 113.257 55.6066 113.285 55.6217C113.316 55.6348 113.345 55.655 113.367 55.6808C113.39 55.7065 113.406 55.7371 113.415 55.7701C114.175 57.6336 114.61 59.6137 114.7 61.6242L117.278 60.1282Z" fill="#455A64"/>
<path d="M118.526 60.9009C118.504 60.9175 118.477 60.9264 118.449 60.9264C118.421 60.9264 118.394 60.9175 118.372 60.9009C118.326 60.8504 118.301 60.7838 118.304 60.7154C118.317 58.3212 117.859 55.9477 116.956 53.7301C116.931 53.658 116.931 53.5796 116.956 53.5075C116.974 53.441 117.016 53.3836 117.074 53.3468L117.692 52.9821C117.719 52.9669 117.75 52.959 117.781 52.959C117.813 52.959 117.844 52.9669 117.871 52.9821C117.903 52.9952 117.932 53.0153 117.956 53.041C117.979 53.0666 117.997 53.0972 118.007 53.1304C118.91 55.3479 119.368 57.7215 119.355 60.1158C119.359 60.2038 119.34 60.2913 119.299 60.3693C119.273 60.443 119.223 60.5059 119.157 60.5485L118.526 60.9009Z" fill="#455A64"/>
<path d="M124.123 57.6675C124.036 57.7232 123.968 57.7232 123.919 57.6675C123.879 57.6374 123.844 57.6021 123.814 57.5624C123.03 56.3175 122.089 55.1789 121.013 54.1748C121.403 55.6797 121.61 57.2259 121.631 58.7802C121.637 58.8682 121.617 58.956 121.576 59.0337C121.549 59.1074 121.499 59.1703 121.434 59.213L120.815 59.5777C120.794 59.5964 120.767 59.6067 120.738 59.6067C120.71 59.6067 120.682 59.5964 120.661 59.5777C120.615 59.5272 120.59 59.4606 120.593 59.3922C120.606 56.998 120.148 54.6245 119.245 52.4069C119.22 52.3348 119.22 52.2564 119.245 52.1843C119.264 52.1186 119.306 52.0617 119.363 52.0236L119.907 51.7083C119.944 51.6898 119.985 51.6802 120.027 51.6802C120.069 51.6802 120.11 51.6898 120.148 51.7083L120.302 51.7887C121.54 52.664 122.653 53.7039 123.61 54.8796C123.432 53.3943 123.058 51.9392 122.497 50.5523C122.472 50.4824 122.472 50.4059 122.497 50.336C122.504 50.3017 122.518 50.2692 122.539 50.2405C122.559 50.2118 122.585 50.1875 122.614 50.1691L123.233 49.8044C123.26 49.7892 123.291 49.7812 123.322 49.7812C123.353 49.7812 123.384 49.7892 123.412 49.8044C123.444 49.8182 123.472 49.8385 123.496 49.8641C123.519 49.8896 123.537 49.9198 123.548 49.9527C124.45 52.1703 124.908 54.5438 124.895 56.9381C124.895 57.0255 124.876 57.1119 124.84 57.1915C124.813 57.2652 124.763 57.3282 124.698 57.3708L124.123 57.6675Z" fill="#455A64"/>
<path d="M129.654 52.9884C129.677 52.9719 129.704 52.9629 129.732 52.9629C129.759 52.9629 129.786 52.9719 129.809 52.9884C129.832 53.012 129.851 53.0399 129.864 53.0707C129.876 53.1014 129.883 53.1344 129.883 53.1677C129.883 53.4953 129.914 53.6622 129.932 53.9899C129.932 54.0793 129.913 54.1677 129.877 54.2495C129.844 54.3214 129.793 54.3832 129.728 54.4288L126.304 56.4007C126.283 56.419 126.257 56.4291 126.23 56.4291C126.202 56.4291 126.176 56.419 126.155 56.4007C126.131 56.3766 126.113 56.3475 126.101 56.3155C126.089 56.2835 126.085 56.2493 126.087 56.2153C126.098 53.8207 125.638 51.4473 124.734 49.2299C124.709 49.16 124.709 49.0835 124.734 49.0136C124.741 48.9792 124.755 48.9468 124.775 48.9181C124.795 48.8894 124.821 48.8651 124.851 48.8467L128.208 46.9118C128.235 46.8966 128.266 46.8887 128.297 46.8887C128.329 46.8887 128.36 46.8966 128.387 46.9118C128.419 46.9256 128.447 46.9459 128.471 46.9715C128.494 46.997 128.512 47.0273 128.523 47.0601C128.628 47.3383 128.678 47.4743 128.776 47.7587C128.801 47.8329 128.801 47.9131 128.776 47.9874C128.769 48.0224 128.754 48.0553 128.733 48.0841C128.711 48.1129 128.684 48.1368 128.653 48.1543L126.137 49.607C126.315 50.1513 126.466 50.7043 126.588 51.2637L128.937 49.9099C128.961 49.8914 128.99 49.8813 129.021 49.8813C129.051 49.8813 129.08 49.8914 129.104 49.9099C129.132 49.9293 129.155 49.9541 129.174 49.9827C129.192 50.0114 129.204 50.0434 129.209 50.0768C129.271 50.3797 129.302 50.5343 129.358 50.8495C129.379 50.9285 129.379 51.0117 129.358 51.0906C129.333 51.1639 129.286 51.227 129.222 51.2699L126.879 52.6237C126.996 53.3531 127.039 53.7302 127.101 54.4782L129.654 52.9884Z" fill="#455A64"/>
<path d="M134.66 43.1842C134.687 43.1691 134.718 43.1611 134.75 43.1611C134.781 43.1611 134.812 43.1691 134.839 43.1842C134.9 43.2147 134.947 43.268 134.969 43.3326C135.08 43.6108 135.13 43.753 135.223 44.0373C135.248 44.1094 135.248 44.1878 135.223 44.2599C135.215 44.294 135.201 44.3264 135.181 44.355C135.16 44.3837 135.135 44.4081 135.105 44.4268L133.702 45.2366C134.361 47.1739 134.701 49.2052 134.71 51.2514C134.709 51.3389 134.69 51.4253 134.654 51.5049C134.625 51.579 134.573 51.6418 134.506 51.6841L133.887 52.0489C133.867 52.0671 133.841 52.0772 133.813 52.0772C133.786 52.0772 133.759 52.0671 133.739 52.0489C133.715 52.0244 133.696 51.9954 133.683 51.9635C133.671 51.9317 133.664 51.8977 133.665 51.8634C133.659 49.8189 133.319 47.7892 132.657 45.8547L131.254 46.6646C131.228 46.6797 131.198 46.6877 131.167 46.6877C131.137 46.6877 131.107 46.6797 131.081 46.6646C131.051 46.6487 131.024 46.6268 131.003 46.6002C130.982 46.5736 130.966 46.5429 130.957 46.51C130.858 46.2257 130.809 46.0897 130.704 45.8115C130.682 45.7389 130.682 45.6615 130.704 45.5889C130.721 45.5224 130.763 45.465 130.821 45.4282L134.66 43.1842Z" fill="#455A64"/>
<path d="M140.67 46.6264C140.692 46.6099 140.719 46.6009 140.747 46.6009C140.775 46.6009 140.802 46.6099 140.824 46.6264C140.848 46.65 140.867 46.6779 140.879 46.7087C140.892 46.7395 140.899 46.7724 140.899 46.8057C140.899 47.1333 140.936 47.3003 140.948 47.6279C140.947 47.7173 140.928 47.8057 140.892 47.8875C140.862 47.9606 140.81 48.023 140.744 48.0668L137.319 50.045C137.298 50.062 137.272 50.0713 137.245 50.0713C137.218 50.0713 137.192 50.062 137.171 50.045C137.147 50.0208 137.128 49.9917 137.117 49.9597C137.105 49.9277 137.1 49.8935 137.103 49.8595C137.113 47.4649 136.653 45.0915 135.749 42.8741C135.724 42.8042 135.724 42.7277 135.749 42.6578C135.757 42.6243 135.771 42.5927 135.791 42.5651C135.811 42.5374 135.837 42.5142 135.867 42.497L139.217 40.5436C139.245 40.5285 139.275 40.5205 139.307 40.5205C139.338 40.5205 139.369 40.5285 139.396 40.5436C139.459 40.5733 139.508 40.6266 139.532 40.692C139.638 40.9701 139.693 41.1123 139.786 41.3967C139.811 41.4688 139.811 41.5471 139.786 41.6192C139.778 41.6542 139.763 41.6872 139.742 41.7159C139.721 41.7447 139.693 41.7686 139.662 41.7861L137.146 43.2388C137.337 43.7736 137.498 44.3184 137.628 44.8708L139.978 43.517C140.002 43.5003 140.031 43.4913 140.061 43.4913C140.091 43.4913 140.12 43.5003 140.144 43.517C140.172 43.5364 140.196 43.5612 140.214 43.5898C140.232 43.6185 140.244 43.6505 140.25 43.6839C140.311 43.9868 140.342 44.1414 140.398 44.4567C140.419 44.5377 140.419 44.6228 140.398 44.7039C140.372 44.7745 140.324 44.835 140.262 44.877L137.919 46.2308C138.036 46.9603 138.08 47.3373 138.142 48.0853L140.67 46.6264Z" fill="#455A64"/>
<path d="M142.291 38.6893C142.593 38.5038 142.93 38.3818 143.28 38.3307C143.559 38.2911 143.844 38.31 144.115 38.3864C144.349 38.45 144.562 38.5736 144.733 38.7449C144.886 38.8974 145.004 39.0808 145.079 39.2827C145.105 39.3546 145.106 39.433 145.083 39.5057C145.059 39.5784 145.012 39.6412 144.949 39.6845L144.399 39.9998C144.368 40.0221 144.333 40.038 144.296 40.0465C144.259 40.055 144.22 40.0559 144.183 40.0492C144.119 40.0195 144.061 39.9799 144.01 39.9318C143.876 39.8032 143.705 39.7209 143.521 39.6969C143.249 39.6825 142.98 39.7585 142.755 39.9132C142.624 39.9934 142.502 40.0866 142.39 40.1914C142.285 40.2935 142.196 40.4101 142.124 40.5376C142.053 40.6567 142.007 40.7893 141.988 40.9271C141.961 41.0575 141.961 41.1922 141.988 41.3227C142.021 41.4503 142.082 41.5687 142.168 41.6689C142.254 41.7466 142.367 41.7886 142.483 41.7863C142.656 41.7889 142.828 41.7702 142.996 41.7307L143.763 41.539C144.048 41.4575 144.343 41.4118 144.64 41.403C144.855 41.394 145.068 41.4408 145.259 41.539C145.44 41.6399 145.586 41.7928 145.679 41.9779C145.8 42.2127 145.873 42.469 145.895 42.7321C145.933 43.0793 145.913 43.4305 145.833 43.7707C145.752 44.1291 145.617 44.473 145.432 44.7906C145.244 45.1246 145.014 45.4323 144.745 45.7055C144.469 45.9928 144.153 46.2385 143.806 46.435C143.548 46.594 143.263 46.705 142.965 46.7626C142.726 46.813 142.478 46.7958 142.248 46.7132C142.028 46.6352 141.839 46.4876 141.71 46.2928C141.552 46.0554 141.45 45.7846 141.413 45.5015C141.401 45.4152 141.414 45.3272 141.451 45.2481C141.477 45.176 141.527 45.115 141.593 45.075L142.137 44.7597C142.166 44.7361 142.2 44.7194 142.236 44.7109C142.273 44.7023 142.31 44.7021 142.347 44.7103C142.41 44.7363 142.46 44.7848 142.489 44.8463C142.535 44.9238 142.589 44.9963 142.65 45.0626C142.713 45.1318 142.794 45.1812 142.885 45.2048C142.998 45.2326 143.117 45.2326 143.231 45.2048C143.411 45.1654 143.583 45.0943 143.738 44.9946C143.895 44.9051 144.044 44.8017 144.183 44.6855C144.322 44.5707 144.444 44.4376 144.548 44.2899C144.651 44.1527 144.732 44.0005 144.789 43.8387C144.845 43.6802 144.864 43.511 144.844 43.3441C144.842 43.2794 144.827 43.2158 144.799 43.1573C144.772 43.0988 144.732 43.0467 144.684 43.0041C144.572 42.9368 144.441 42.9106 144.313 42.9299C144.116 42.9473 143.922 42.9824 143.732 43.035C143.503 43.0968 143.237 43.1525 142.934 43.2143C142.694 43.2734 142.446 43.3025 142.199 43.3008C141.998 43.2964 141.801 43.2389 141.63 43.1339C141.459 43.0224 141.317 42.872 141.216 42.695C141.082 42.4557 140.981 42.2001 140.913 41.9347C140.828 41.6291 140.795 41.3116 140.814 40.9951C140.831 40.6869 140.9 40.3839 141.018 40.0987C141.264 39.5077 141.699 39.0145 142.254 38.6954L142.291 38.6893Z" fill="#455A64"/>
<path d="M149.09 34.8512C149.117 34.8361 149.148 34.8281 149.179 34.8281C149.211 34.8281 149.241 34.8361 149.269 34.8512C149.33 34.8829 149.379 34.9355 149.405 34.9996C149.51 35.2778 149.559 35.4199 149.658 35.7043C149.683 35.7764 149.683 35.8548 149.658 35.9268C149.641 35.9966 149.596 36.0567 149.535 36.0938L148.138 36.8912C148.799 38.8279 149.139 40.8596 149.145 42.906C149.151 42.996 149.131 43.0858 149.09 43.1657C149.061 43.2383 149.012 43.3008 148.947 43.3449L148.329 43.7097C148.309 43.7279 148.282 43.738 148.255 43.738C148.228 43.738 148.201 43.7279 148.181 43.7097C148.157 43.6855 148.138 43.6565 148.126 43.6244C148.115 43.5924 148.11 43.5582 148.113 43.5242C148.104 41.48 147.764 39.4507 147.105 37.5156L145.665 38.313C145.638 38.3266 145.608 38.3337 145.578 38.3337C145.548 38.3337 145.519 38.3266 145.492 38.313C145.461 38.2962 145.433 38.2734 145.411 38.2458C145.388 38.2182 145.372 38.1864 145.362 38.1523C145.269 37.8679 145.22 37.7319 145.109 37.4537C145.084 37.3838 145.084 37.3073 145.109 37.2374C145.116 37.2031 145.13 37.1706 145.15 37.1419C145.17 37.1132 145.196 37.0889 145.226 37.0705L149.09 34.8512Z" fill="#455A64"/>
<path d="M240.808 12.9297L237.55 11.0381L173.668 47.9616V94.0404C173.668 95.1469 174.051 95.8949 174.682 96.2843L177.94 98.1759C178.335 98.3614 178.774 98.4368 179.209 98.3944C179.644 98.352 180.06 98.1932 180.412 97.9349L237.346 65.0542C238.358 64.3942 239.199 63.5051 239.803 62.459C240.407 61.4128 240.755 60.2392 240.82 59.0331L240.808 12.9297Z" fill="#E6E6E6"/>
<path d="M178.849 97.984C179.327 97.9613 179.791 97.8165 180.197 97.5636L237.155 64.6829C238.108 64.0599 238.901 63.2217 239.47 62.236C240.039 61.2502 240.368 60.1446 240.432 59.0081V13.6279L177.378 50.0569V95.9007C177.329 97.2051 177.897 97.984 178.849 97.984Z" fill="#FAFAFA"/>
<path d="M240.004 14.3206V59.0084C239.935 60.0741 239.62 61.1092 239.084 62.0327C238.548 62.9562 237.805 63.7428 236.913 64.3309L179.98 97.2178C179.632 97.4324 179.237 97.5577 178.83 97.5825C177.816 97.5825 177.711 96.408 177.711 95.901V50.286L240.004 14.3206ZM240.808 12.9297L176.926 49.8161V95.8949C176.926 97.4712 177.705 98.3676 178.848 98.3676C179.398 98.3465 179.933 98.1824 180.4 97.8916L237.334 65.0109C238.345 64.3509 239.187 63.4618 239.791 62.4157C240.394 61.3696 240.743 60.1959 240.808 58.9899V12.9297Z" fill="#E0E0E0"/>
<path d="M236.537 5.69689C235.919 5.30744 235.029 5.35071 234.064 5.91325L177.13 38.7939C176.119 39.4535 175.277 40.3425 174.673 41.3887C174.069 42.4349 173.721 43.6088 173.656 44.815V47.9058L176.914 49.7974L240.809 12.9295V9.83866C240.85 9.41022 240.779 8.9784 240.602 8.58593C240.425 8.19345 240.149 7.8539 239.801 7.60086C239.214 7.23614 237.155 6.04307 236.537 5.69689Z" fill="#959CE8"/>
<path opacity="0.25" d="M236.537 5.69689C235.919 5.30744 235.029 5.35071 234.064 5.91325L177.13 38.7939C176.119 39.4535 175.277 40.3425 174.673 41.3887C174.069 42.4349 173.721 43.6088 173.656 44.815V47.9058L176.914 49.7974L240.809 12.9295V9.83866C240.85 9.41022 240.779 8.9784 240.602 8.58593C240.425 8.19345 240.149 7.8539 239.801 7.60086C239.214 7.23614 237.155 6.04307 236.537 5.69689Z" fill="black"/>
<path d="M176.926 46.7254C176.989 45.519 177.337 44.3448 177.941 43.2984C178.545 42.2521 179.387 41.3632 180.4 40.7044L237.334 7.8237C239.25 6.71717 240.808 7.61352 240.808 9.82659V12.9175L176.926 49.8163V46.7254Z" fill="#959CE8"/>
<path d="M239.832 7.59433C239.214 7.20489 238.317 7.24197 237.328 7.81069L180.401 40.6914C179.367 41.327 178.515 42.2193 177.928 43.2815L174.664 41.3961C175.251 40.3309 176.103 39.4346 177.137 38.7936L234.064 5.92526C235.047 5.36273 235.919 5.30709 236.537 5.7089C237.155 6.11072 239.189 7.24816 239.776 7.56343L239.832 7.59433Z" fill="#959CE8"/>
<path opacity="0.2" d="M239.832 7.59433C239.214 7.20489 238.317 7.24197 237.328 7.81069L180.401 40.6914C179.367 41.327 178.515 42.2193 177.928 43.2815L174.664 41.3961C175.251 40.3309 176.103 39.4346 177.137 38.7936L234.064 5.92526C235.047 5.36273 235.919 5.30709 236.537 5.7089C237.155 6.11072 239.189 7.24816 239.776 7.56343L239.832 7.59433Z" fill="white"/>
<path d="M228.674 15.1986C228.317 15.425 228.018 15.7331 227.803 16.0974C227.588 16.4618 227.463 16.872 227.438 17.2942C227.437 18.0731 227.981 18.3822 228.674 17.9989C229.031 17.7704 229.328 17.461 229.543 17.0959C229.758 16.7307 229.884 16.32 229.91 15.8972C229.885 15.143 229.341 14.8277 228.674 15.1986Z" fill="#FAFAFA"/>
<path d="M232.92 12.769C232.562 12.9964 232.263 13.3055 232.049 13.671C231.834 14.0364 231.709 14.4476 231.684 14.8708C231.684 15.6435 232.221 15.9588 232.92 15.5694C233.278 15.342 233.576 15.0328 233.791 14.6674C234.006 14.302 234.131 13.8908 234.156 13.4676C234.132 12.7258 233.588 12.3796 232.92 12.769Z" fill="#FAFAFA"/>
<path d="M237.154 10.3213C236.797 10.5491 236.498 10.8583 236.284 11.2236C236.069 11.5889 235.943 12 235.918 12.4231C235.918 13.202 236.462 13.5111 237.154 13.1278C237.511 12.8993 237.809 12.5899 238.024 12.2247C238.239 11.8595 238.364 11.4489 238.391 11.026C238.391 10.2533 237.834 9.93802 237.154 10.3213Z" fill="#FAFAFA"/>
<path d="M200.393 43.7948L233.737 24.5448C234.028 24.3779 234.262 24.4706 234.262 24.755C234.244 24.9216 234.187 25.0815 234.096 25.2221C234.004 25.3627 233.882 25.4801 233.737 25.5648L200.393 44.8147C200.102 44.9878 199.867 44.8889 199.867 44.6107C199.885 44.4431 199.941 44.2819 200.033 44.1401C200.124 43.9984 200.247 43.8801 200.393 43.7948Z" fill="#E0E0E0"/>
<path d="M200.393 46.6319L233.737 27.382C234.028 27.215 234.262 27.3078 234.262 27.586C234.245 27.7536 234.188 27.9148 234.097 28.0566C234.006 28.1983 233.882 28.3166 233.737 28.4019L200.393 47.6519C200.102 47.8188 199.867 47.7261 199.867 47.4479C199.885 47.2802 199.941 47.119 200.033 46.9773C200.124 46.8355 200.247 46.7172 200.393 46.6319Z" fill="#E0E0E0"/>
<path d="M200.393 49.4698L233.737 30.2198C234.028 30.0529 234.262 30.1457 234.262 30.4238C234.245 30.5915 234.188 30.7527 234.097 30.8945C234.006 31.0362 233.882 31.1545 233.737 31.2398L200.393 50.4898C200.102 50.6567 199.867 50.564 199.867 50.2858C199.885 50.1181 199.941 49.9569 200.033 49.8152C200.124 49.6734 200.247 49.5551 200.393 49.4698Z" fill="#E0E0E0"/>
<path d="M200.393 57.9816L233.737 38.7255C234.028 38.5586 234.262 38.6513 234.262 38.9356C234.245 39.1033 234.188 39.2645 234.097 39.4063C234.006 39.548 233.882 39.6663 233.737 39.7516L200.393 59.0016C200.102 59.1685 199.867 59.0758 199.867 58.7914C199.886 58.6248 199.943 58.4648 200.034 58.3242C200.125 58.1836 200.248 58.0663 200.393 57.9816Z" fill="#E0E0E0"/>
<path d="M200.393 60.8195L233.737 41.5634C234.028 41.3964 234.262 41.4892 234.262 41.7735C234.244 41.9409 234.187 42.1018 234.096 42.2434C234.005 42.385 233.882 42.5035 233.737 42.5895L200.393 61.8395C200.102 62.0064 199.867 61.9137 199.867 61.6293C199.886 61.4627 199.943 61.3027 200.034 61.1621C200.125 61.0215 200.248 60.9042 200.393 60.8195Z" fill="#E0E0E0"/>
<path d="M200.393 63.6564L233.737 44.4003C234.028 44.2334 234.262 44.3261 234.262 44.6105C234.244 44.777 234.187 44.937 234.096 45.0776C234.004 45.2182 233.882 45.3355 233.737 45.4203L200.393 64.6517C200.102 64.8186 199.867 64.7258 199.867 64.4415C199.888 64.279 199.947 64.1236 200.038 63.9874C200.129 63.8512 200.25 63.7379 200.393 63.6564Z" fill="#E0E0E0"/>
<path d="M200.393 72.1632L233.737 52.9071C234.028 52.7402 234.262 52.8329 234.262 53.1173C234.244 53.2839 234.187 53.4438 234.096 53.5844C234.004 53.725 233.882 53.8424 233.737 53.9271L200.393 73.1832C200.102 73.3501 199.867 73.2574 199.867 72.9792C199.885 72.8116 199.941 72.6503 200.033 72.5086C200.124 72.3669 200.247 72.2486 200.393 72.1632Z" fill="#E0E0E0"/>
<path d="M200.393 75.0001L233.737 55.7501C234.028 55.5832 234.262 55.6759 234.262 55.9541C234.245 56.1218 234.188 56.283 234.097 56.4247C234.006 56.5665 233.882 56.6848 233.737 56.7701L200.393 76.0201C200.102 76.187 199.867 76.0942 199.867 75.8161C199.885 75.6484 199.941 75.4872 200.033 75.3454C200.124 75.2037 200.247 75.0854 200.393 75.0001Z" fill="#E0E0E0"/>
<path d="M200.393 77.838L233.737 58.588C234.028 58.4211 234.262 58.5138 234.262 58.792C234.245 58.9597 234.188 59.1209 234.097 59.2626C234.006 59.4044 233.882 59.5227 233.737 59.608L200.393 78.8703C200.102 79.0372 199.867 78.9445 199.867 78.6663C199.883 78.4965 199.939 78.3328 200.03 78.1887C200.121 78.0447 200.246 77.9245 200.393 77.838Z" fill="#E0E0E0"/>
<path d="M240.808 80.7256L237.55 78.834L173.668 115.708V157.014C173.668 158.121 174.051 158.869 174.682 159.258L177.94 161.15C178.335 161.335 178.774 161.411 179.209 161.369C179.644 161.326 180.06 161.167 180.412 160.909L237.346 128.028C238.357 127.368 239.198 126.478 239.802 125.432C240.405 124.386 240.754 123.213 240.82 122.007L240.808 80.7256Z" fill="#E6E6E6"/>
<path d="M178.849 160.989C179.327 160.966 179.791 160.822 180.196 160.569L237.155 127.707C238.108 127.083 238.9 126.245 239.469 125.26C240.039 124.274 240.368 123.168 240.431 122.032V81.4053L177.328 117.816V158.887C177.328 160.21 177.897 160.989 178.849 160.989Z" fill="#FAFAFA"/>
<path d="M240.004 82.0969V122.012C239.935 123.078 239.62 124.113 239.084 125.037C238.548 125.96 237.805 126.747 236.913 127.335L179.98 160.222C179.632 160.436 179.237 160.562 178.83 160.587C177.816 160.587 177.711 159.412 177.711 158.905V118.069L239.986 82.0969M240.789 80.7061L176.926 117.605V158.905C176.926 160.481 177.705 161.378 178.848 161.378C179.398 161.357 179.933 161.193 180.4 160.902L237.334 128.021C238.345 127.36 239.186 126.471 239.789 125.425C240.393 124.379 240.742 123.206 240.808 122V80.7246L240.789 80.7061Z" fill="#E0E0E0"/>
<path d="M236.537 73.4742C235.919 73.0848 235.029 73.1281 234.064 73.6906L177.13 106.577C176.119 107.236 175.277 108.124 174.673 109.169C174.069 110.214 173.721 111.387 173.656 112.592V115.683L176.914 117.581L240.809 80.7254V77.6345C240.851 77.2051 240.78 76.772 240.604 76.3784C240.427 75.9847 240.15 75.6442 239.801 75.3906C239.214 75.0135 237.155 73.8204 236.537 73.4742Z" fill="#959CE8"/>
<path opacity="0.25" d="M236.537 73.4742C235.919 73.0848 235.029 73.1281 234.064 73.6906L177.13 106.577C176.119 107.236 175.277 108.124 174.673 109.169C174.069 110.214 173.721 111.387 173.656 112.592V115.683L176.914 117.581L240.809 80.7254V77.6345C240.851 77.2051 240.78 76.772 240.604 76.3784C240.427 75.9847 240.15 75.6442 239.801 75.3906C239.214 75.0135 237.155 73.8204 236.537 73.4742Z" fill="black"/>
<path d="M176.926 114.49C176.989 113.284 177.337 112.109 177.941 111.063C178.545 110.017 179.387 109.128 180.4 108.469L237.334 75.5882C239.25 74.4817 240.808 75.378 240.808 77.5973V80.6881L176.926 117.606V114.49Z" fill="#959CE8"/>
<path d="M239.832 75.3775C239.214 74.9819 238.317 75.019 237.328 75.5939L180.401 108.468C179.367 109.104 178.515 109.996 177.928 111.059L174.664 109.204C175.252 108.141 176.103 107.246 177.137 106.608L234.064 73.6899C235.047 73.1274 235.919 73.0717 236.537 73.4736C237.155 73.8754 239.189 75.0128 239.776 75.3281C239.79 75.3292 239.802 75.3346 239.812 75.3435C239.823 75.3524 239.829 75.3644 239.832 75.3775Z" fill="#959CE8"/>
<path opacity="0.2" d="M239.832 75.3775C239.214 74.9819 238.317 75.019 237.328 75.5939L180.401 108.468C179.367 109.104 178.515 109.996 177.928 111.059L174.664 109.204C175.252 108.141 176.103 107.246 177.137 106.608L234.064 73.6899C235.047 73.1274 235.919 73.0717 236.537 73.4736C237.155 73.8754 239.189 75.0128 239.776 75.3281C239.79 75.3292 239.802 75.3346 239.812 75.3435C239.823 75.3524 239.829 75.3644 239.832 75.3775Z" fill="white"/>
<path d="M228.674 82.9933C228.316 83.2207 228.017 83.5299 227.802 83.8953C227.587 84.2607 227.462 84.6719 227.438 85.0951C227.438 85.8679 227.981 86.1831 228.674 85.7937C229.031 85.5652 229.328 85.2558 229.543 84.8906C229.758 84.5254 229.884 84.1147 229.91 83.6919C229.885 82.9192 229.341 82.5792 228.674 82.9933Z" fill="#FAFAFA"/>
<path d="M232.92 80.5462C232.562 80.7736 232.263 81.0827 232.049 81.4481C231.834 81.8135 231.709 82.2248 231.684 82.648C231.684 83.4207 232.221 83.736 232.92 83.3465C233.278 83.1191 233.576 82.81 233.791 82.4446C234.006 82.0792 234.131 81.6679 234.156 81.2447C234.132 80.472 233.588 80.1629 232.92 80.5462Z" fill="#FAFAFA"/>
<path d="M237.154 78.1036C236.796 78.3302 236.497 78.6392 236.282 79.0047C236.067 79.3703 235.942 79.7819 235.918 80.2054C235.918 80.9781 236.462 81.2872 237.154 80.9039C237.511 80.6754 237.809 80.366 238.024 80.0008C238.239 79.6356 238.364 79.225 238.391 78.8021C238.391 78.0294 237.834 77.7141 237.154 78.1036Z" fill="#FAFAFA"/>
<path d="M183.807 120.016L227.593 94.7388C227.97 94.5162 228.279 94.6399 228.279 95.0108C228.255 95.2299 228.18 95.4405 228.061 95.626C227.942 95.8115 227.782 95.967 227.593 96.0802L183.807 121.357C183.43 121.574 183.121 121.45 183.121 121.085C183.144 120.866 183.218 120.655 183.337 120.469C183.457 120.284 183.617 120.128 183.807 120.016Z" fill="#E0E0E0"/>
<path d="M183.807 123.738L227.593 98.461C227.97 98.2446 228.279 98.3682 228.279 98.7391C228.255 98.9574 228.18 99.1672 228.061 99.3517C227.942 99.5362 227.782 99.6905 227.593 99.8024L183.807 125.08C183.43 125.302 183.121 125.178 183.121 124.808C183.145 124.588 183.22 124.378 183.339 124.192C183.458 124.007 183.618 123.851 183.807 123.738Z" fill="#E0E0E0"/>
<path d="M183.807 127.465L227.593 102.188C227.97 101.965 228.279 102.089 228.279 102.46C228.255 102.679 228.18 102.89 228.061 103.075C227.942 103.261 227.782 103.416 227.593 103.529L183.807 128.807C183.43 129.023 183.121 128.899 183.121 128.528C183.145 128.31 183.22 128.1 183.339 127.916C183.458 127.731 183.618 127.577 183.807 127.465Z" fill="#E0E0E0"/>
<path d="M232.958 91.0489C233.27 90.8609 233.618 90.7389 233.978 90.6903C234.268 90.6481 234.563 90.7051 234.815 90.8522C235.068 90.9993 235.263 91.2277 235.369 91.5002C235.516 91.8522 235.586 92.2317 235.573 92.6129C235.577 92.9523 235.537 93.2909 235.456 93.6205C235.381 93.9281 235.284 94.2298 235.165 94.523C235.047 94.7994 234.915 95.0697 234.77 95.3328L234.356 96.087C234.226 96.3343 234.108 96.5754 234.003 96.8226C233.899 97.0557 233.824 97.3007 233.781 97.5521C233.764 97.6688 233.733 97.783 233.688 97.8921C233.659 97.9815 233.6 98.058 233.521 98.1084L232.34 98.7884C232.314 98.8106 232.282 98.8228 232.248 98.8228C232.214 98.8228 232.181 98.8106 232.155 98.7884C232.1 98.7209 232.073 98.6343 232.081 98.5473C232.08 98.2256 232.124 97.9052 232.21 97.5954C232.295 97.289 232.403 96.9894 232.532 96.699C232.662 96.4085 232.804 96.1303 232.952 95.8645C233.101 95.5987 233.249 95.3452 233.379 95.1103C233.509 94.8754 233.614 94.6405 233.7 94.4241C233.781 94.2279 233.825 94.0183 233.83 93.806C233.83 93.5216 233.762 93.3361 233.62 93.2558C233.478 93.1754 233.255 93.2125 232.958 93.3856C232.709 93.5189 232.497 93.7123 232.34 93.9481C232.223 94.1412 232.131 94.3491 232.068 94.5663C232.006 94.7579 231.957 94.9372 231.914 95.0918C231.898 95.1631 231.868 95.2305 231.825 95.29C231.783 95.3495 231.729 95.3998 231.666 95.4379L230.486 96.1179C230.464 96.1331 230.438 96.1412 230.412 96.1412C230.385 96.1412 230.359 96.1331 230.337 96.1179C230.313 96.0902 230.295 96.0577 230.285 96.0226C230.274 95.9874 230.271 95.9504 230.276 95.9139C230.289 95.5057 230.354 95.1008 230.467 94.7085C230.596 94.2366 230.772 93.7789 230.993 93.3423C231.225 92.886 231.507 92.4568 231.833 92.0627C232.142 91.658 232.524 91.3142 232.958 91.0489ZM233.805 100.748C233.802 100.862 233.774 100.973 233.725 101.076C233.689 101.168 233.624 101.246 233.54 101.298L232.303 102.003C232.277 102.025 232.245 102.037 232.21 102.037C232.176 102.037 232.144 102.025 232.118 102.003C232.091 101.971 232.07 101.933 232.057 101.893C232.045 101.853 232.04 101.81 232.044 101.768V100.26C232.045 100.146 232.07 100.035 232.118 99.9321C232.152 99.8385 232.217 99.7598 232.303 99.7095L233.54 99.0048C233.565 98.9826 233.598 98.9704 233.632 98.9704C233.666 98.9704 233.699 98.9826 233.725 99.0048C233.782 99.0695 233.81 99.1539 233.805 99.2397V100.748Z" fill="#959CE8"/>
<path d="M182.367 155.592V135.038L237.02 103.511V124.065L182.367 155.592ZM182.985 135.39V154.553L236.414 123.688V104.525L182.985 135.39Z" fill="#E0E0E0"/>
<path d="M92.6583 242.76H66.5898L69.2851 253.992C69.4891 255.346 70.4843 256.669 72.277 257.701C76.3323 260.038 82.9096 260.038 86.9649 257.701C88.8936 256.582 89.895 255.136 89.9877 253.677L92.6583 242.76Z" fill="#37474F"/>
<path d="M89.4795 250.456C90.0312 250.139 90.5545 249.775 91.0435 249.368L92.5024 243.366C91.7422 244.2 90.8531 244.908 89.869 245.461C84.3673 248.639 75.5521 248.719 69.8649 245.721L70.5263 243.044L70.3223 242.76H66.6133L69.3085 253.986C69.5125 255.34 70.5078 256.663 72.3005 257.695C75.1935 259.358 79.3538 259.834 82.9764 259.123C76.4855 259.611 72.0285 256.768 71.3547 254.177C71.0889 253.133 70.6252 250.821 70.6252 250.821C76.0343 253.559 84.2931 253.448 89.4795 250.456Z" fill="#263238"/>
<path d="M94.018 239.44C93.8559 240.163 93.5512 240.846 93.1216 241.449C92.2667 242.654 91.1483 243.648 89.8515 244.355C84.189 247.619 75.0153 247.619 69.3528 244.355C68.0547 243.649 66.9359 242.655 66.0827 241.449C65.6631 240.837 65.369 240.148 65.2172 239.422C64.7165 236.949 66.095 234.408 69.359 232.523C75.0215 229.253 84.1952 229.253 89.8577 232.523C93.1216 234.427 94.5187 236.986 94.018 239.44Z" fill="#455A64"/>
<path d="M93.1231 241.449C92.2682 242.654 91.1498 243.648 89.853 244.355C84.1905 247.619 75.0168 247.619 69.3543 244.355C68.0563 243.65 66.9375 242.656 66.0842 241.449C65.6647 240.837 65.3705 240.148 65.2188 239.422L65.8369 243.842C66.1336 245.616 67.4565 247.353 69.818 248.713C75.2146 251.804 83.9556 251.804 89.3461 248.713C91.6766 247.365 92.9995 245.659 93.3148 243.904L93.3519 243.675L93.97 239.422C93.8253 240.147 93.5374 240.837 93.1231 241.449Z" fill="#37474F"/>
<path d="M88.175 233.524C83.4521 230.798 75.8115 230.798 71.0948 233.524C68.4243 235.07 67.2683 237.147 67.6145 239.156C67.8865 240.701 69.0487 242.203 71.0948 243.384C75.8053 246.11 83.4583 246.11 88.175 243.384C90.215 242.203 91.3771 240.701 91.6429 239.162C91.9891 237.122 90.8331 235.07 88.175 233.524Z" fill="#263238"/>
<path d="M68.3945 241.023C69.1018 242 70.0184 242.806 71.0774 243.384C75.7879 246.11 83.4409 246.11 88.1576 243.384C89.2136 242.805 90.1278 241.998 90.8343 241.023C90.7972 239.391 89.703 237.771 87.5518 236.522C83.1689 233.994 76.0599 233.994 71.6832 236.522C69.5382 237.771 68.444 239.397 68.3945 241.023Z" fill="#FAFAFA"/>
<path d="M80.5284 235.954C78.3586 235.367 77.9939 230.675 79.2055 225.717C80.3862 220.902 84.1509 213.669 84.9731 213.83C85.7953 213.991 86.7843 221.866 86.2094 227.034C85.5295 233.321 82.6982 236.541 80.5284 235.954Z" fill="#959CE8"/>
<path opacity="0.3" d="M80.5284 235.954C78.3586 235.367 77.9939 230.675 79.2055 225.717C80.3862 220.902 84.1509 213.669 84.9731 213.83C85.7953 213.991 86.7843 221.866 86.2094 227.034C85.5295 233.321 82.6982 236.541 80.5284 235.954Z" fill="black"/>
<path opacity="0.5" d="M81.5851 220.778C81.9746 221.396 82.2033 222.429 83.1244 222.435C83.8538 222.435 84.2371 221.662 84.8923 221.489C85.1524 221.45 85.4177 221.469 85.6698 221.543C85.9219 221.618 86.1545 221.747 86.3512 221.922C86.3512 221.736 86.3512 221.545 86.3512 221.359C85.9928 221.091 85.5622 220.936 85.1149 220.914C84.7229 220.957 84.3548 221.124 84.064 221.39C83.7302 221.65 83.316 222.051 82.8276 221.86C82.3393 221.668 82.1476 220.976 81.8756 220.537C81.7406 220.285 81.5425 220.072 81.3008 219.919C81.2389 220.049 81.1833 220.185 81.1215 220.314C81.3149 220.424 81.4751 220.585 81.5851 220.778ZM84.1567 218.843C84.4658 218.695 84.6451 218.386 84.8862 218.151C85.0321 218.011 85.2153 217.916 85.4137 217.878C85.6122 217.839 85.8175 217.859 86.0051 217.934H86.0421C86.0421 217.767 85.9989 217.607 85.9803 217.446C85.9128 217.42 85.8421 217.404 85.7701 217.397C85.4558 217.342 85.1325 217.41 84.8676 217.588C84.5647 217.805 84.3978 218.175 84.0825 218.361C83.52 218.701 83.0687 218.083 82.9018 217.619C82.8215 217.415 82.7658 217.199 82.6916 217.001C82.636 217.112 82.5804 217.224 82.5186 217.335C82.5618 217.483 82.5989 217.632 82.6422 217.774C82.8338 218.392 83.4149 219.195 84.1567 218.843ZM84.0825 225.111C83.7233 225.421 83.3241 225.681 82.8956 225.884C81.7829 226.206 81.5233 224.481 80.8124 223.968C80.5154 223.765 80.1565 223.673 79.7986 223.708L79.6688 224.104C79.8558 224.06 80.0505 224.06 80.2375 224.104C80.4541 224.167 80.6541 224.277 80.823 224.427C80.9918 224.577 81.1255 224.762 81.2142 224.969C81.5727 225.587 82.024 226.527 82.9204 226.348C83.3046 226.229 83.6588 226.028 83.9589 225.76C84.166 225.588 84.4082 225.463 84.6687 225.393C84.9292 225.324 85.2017 225.312 85.4672 225.359C85.7829 225.436 86.0741 225.591 86.3141 225.81C86.3141 225.643 86.3141 225.47 86.3141 225.297C86.0157 225.057 85.6598 224.9 85.2818 224.839C84.8632 224.798 84.4424 224.894 84.0825 225.111ZM84.7625 228.901C84.2628 228.79 83.74 228.858 83.2851 229.092C82.7658 229.346 82.3949 229.847 81.8509 230.051C80.6702 230.502 80.4909 228.814 79.6255 228.369C79.3463 228.236 79.0378 228.177 78.7291 228.196C78.7291 228.332 78.6921 228.468 78.6797 228.598C78.7928 228.589 78.9065 228.589 79.0197 228.598C79.2898 228.636 79.5456 228.743 79.7622 228.908C79.9788 229.074 80.1489 229.293 80.256 229.544C80.6702 230.323 81.2204 230.953 82.1786 230.49C82.6855 230.236 83.0502 229.772 83.5756 229.55C83.8547 229.408 84.168 229.348 84.4797 229.377C84.7913 229.405 85.0886 229.521 85.3374 229.711C85.462 229.833 85.5739 229.968 85.6712 230.112C85.7145 229.946 85.7516 229.772 85.7949 229.599C85.5417 229.254 85.1769 229.008 84.7625 228.901Z" fill="#959CE8"/>
<path opacity="0.1" d="M80.5291 235.954C82.6989 236.541 85.5301 233.321 86.2163 227.034C86.3822 225.25 86.4174 223.457 86.3214 221.668C84.5472 223.121 82.773 226.088 82.773 226.088C82.1561 224.472 81.4545 222.889 80.6713 221.347C80.0748 222.775 79.5791 224.244 79.1876 225.742C77.9946 230.675 78.3593 235.367 80.5291 235.954Z" fill="black"/>
<path d="M78.7583 238.563C75.9085 240.418 73.2504 233.884 71.8348 228.969C70.4191 224.055 71.3402 211.215 72.7744 210.511C73.7944 210.016 79.1787 221.526 80.2358 227.127C81.0023 231.176 81.027 237.123 78.7583 238.563Z" fill="#959CE8"/>
<path opacity="0.1" d="M78.7583 238.563C75.9085 240.418 73.2504 233.884 71.8348 228.969C70.4191 224.055 71.3402 211.215 72.7744 210.511C73.7944 210.016 79.1787 221.526 80.2358 227.127C81.0023 231.176 81.027 237.123 78.7583 238.563Z" fill="black"/>
<path d="M72.609 219.579C73.5053 220.024 74.2162 220.024 74.9148 219.27C75.6133 218.516 76.0398 217.681 77.0536 217.792L76.7569 217.125C76.5926 217.117 76.4279 217.133 76.2686 217.174C75.3846 217.409 74.9828 218.33 74.3646 218.911C73.4064 219.808 72.3864 218.633 71.2737 218.695H71.1748C71.1748 218.893 71.1748 219.091 71.1748 219.313C71.668 219.272 72.1632 219.364 72.609 219.579ZM80.4474 228.419C80.2946 228.361 80.1375 228.316 79.9776 228.283C79.7443 228.237 79.5039 228.24 79.2719 228.292C79.0399 228.345 78.8213 228.444 78.63 228.586C77.7645 229.204 77.7274 230.626 76.3304 230.261C75.2733 229.977 74.4758 229.278 73.3631 229.841C72.9781 230.035 72.6306 230.297 72.337 230.613C72.3926 230.774 72.4421 230.935 72.4977 231.102C72.8762 230.695 73.3563 230.396 73.8886 230.236C75.0878 229.927 75.9966 231.145 77.1896 230.947C78.1663 230.78 78.2714 229.711 78.9453 229.185C79.1744 229.025 79.4434 228.931 79.7226 228.913C80.0018 228.896 80.2804 228.956 80.5278 229.086C80.503 228.858 80.4721 228.635 80.4474 228.419ZM72.6584 214.918C72.9922 215.375 73.462 215.882 74.0802 215.567C74.6984 215.252 74.7911 214.423 75.2177 213.898C75.1373 213.75 75.0631 213.601 74.9828 213.459C74.5686 214.009 74.3646 215.215 73.5733 215.171C72.9551 215.134 72.714 214.219 72.1948 213.935C72.0378 213.851 71.8588 213.816 71.6817 213.836C71.6817 213.96 71.6384 214.083 71.6199 214.213C71.6609 214.207 71.7025 214.207 71.7435 214.213C72.1762 214.25 72.4297 214.603 72.6584 214.918ZM74.8035 224.666C75.9286 224.908 76.4787 223.572 76.9856 222.812C77.3589 222.221 77.9049 221.759 78.5496 221.489C78.4754 221.291 78.4013 221.087 78.3209 220.871C78.1157 220.914 77.9178 220.987 77.7336 221.087C77.2299 221.396 76.8063 221.82 76.4973 222.324C76.219 222.904 75.8282 223.423 75.3475 223.85C74.7293 224.246 74.0431 223.634 73.4188 223.517C72.6416 223.364 71.8353 223.505 71.1563 223.912C71.1563 224.197 71.1562 224.469 71.1995 224.741C71.7167 224.307 72.3798 224.086 73.054 224.122C73.6535 224.246 74.2394 224.429 74.8035 224.666Z" fill="#959CE8"/>
<path opacity="0.1" d="M78.7405 222.027C77.7988 223.175 77.0207 224.449 76.4285 225.81C76.4285 225.81 73.3377 221.607 71.1555 219.709C71.0381 223.195 71.2112 226.83 71.8293 228.982C73.2449 233.896 75.9031 240.405 78.7529 238.576C81.0216 237.117 80.9969 231.188 80.2303 227.139C79.8639 225.4 79.3658 223.691 78.7405 222.027Z" fill="black"/>
<path d="M78.5681 241.907C73.3507 242.185 68.4795 239.033 65.3206 235.052C62.1618 231.071 59.6953 222.849 60.3752 222.348C61.0552 221.847 69.4995 227.028 72.6584 230.768C75.3156 234.073 77.321 237.853 78.5681 241.907Z" fill="#959CE8"/>
<path opacity="0.2" d="M78.5681 241.907C73.3507 242.185 68.4795 239.033 65.3206 235.052C62.1618 231.071 59.6953 222.849 60.3752 222.348C61.0552 221.847 69.4995 227.028 72.6584 230.768C75.3156 234.073 77.321 237.853 78.5681 241.907Z" fill="black"/>
<path d="M67.1869 228.845C67.3929 228.333 67.4148 227.765 67.2488 227.238C67.1965 226.886 67.2709 226.526 67.4589 226.224C67.2673 226.082 67.0695 225.946 66.8717 225.81C66.6386 226.241 66.5642 226.739 66.6615 227.219C66.748 227.838 66.8902 228.573 66.0866 228.678C65.283 228.783 63.9972 228.017 63.2924 228.882C62.9524 229.303 63.0823 229.84 63.0699 230.335C63.0546 230.552 62.9913 230.763 62.8844 230.953C62.9772 231.151 63.0699 231.349 63.1688 231.54C63.3796 231.289 63.5146 230.982 63.5583 230.656C63.6324 230.038 63.3975 229.266 64.2135 229.142C64.7763 229.144 65.3368 229.215 65.8826 229.352C66.1256 229.397 66.3762 229.373 66.6065 229.283C66.8368 229.194 67.0377 229.042 67.1869 228.845ZM64.2753 224.518C64.3418 224.427 64.4186 224.344 64.5041 224.271L64.0404 223.986C63.6572 224.487 63.6572 225.179 63.2677 225.68C63.1528 225.823 62.9966 225.926 62.8205 225.976C62.6445 226.025 62.4573 226.019 62.2848 225.958C61.9281 225.85 61.5453 225.863 61.1968 225.995L60.9805 226.119L61.0979 226.496C61.2673 226.404 61.4557 226.354 61.6481 226.348C62.0437 226.348 62.4084 226.546 62.8041 226.515C63.0719 226.492 63.3203 226.365 63.4964 226.162C63.923 225.668 63.9415 225.013 64.2753 224.493V224.518ZM70.0553 231.503C70.4626 231.145 70.746 230.667 70.8651 230.137C70.9338 229.772 70.9771 229.402 70.9949 229.031L70.5065 228.598C70.4874 229.214 70.3641 229.822 70.1418 230.397C69.9877 230.686 69.7502 230.922 69.4603 231.074C69.1703 231.226 68.8413 231.287 68.516 231.25C68.2661 231.214 68.0114 231.235 67.7707 231.311C67.53 231.387 67.3094 231.516 67.1251 231.689C66.8162 232.095 66.6335 232.583 66.5997 233.092C66.4946 233.815 66.3833 234.489 65.7095 234.897C65.5957 234.966 65.4756 235.024 65.351 235.07L65.728 235.521C66.0146 235.392 66.2698 235.202 66.476 234.965C67.3477 233.933 66.6429 231.874 68.4975 231.874C69.0477 231.938 69.6022 231.797 70.0553 231.479V231.503ZM72.8556 232.029C72.9633 231.833 73.094 231.65 73.245 231.485C73.1029 231.299 72.9483 231.108 72.7938 230.922C72.3704 231.381 72.0817 231.948 71.9592 232.56C71.8759 233.25 71.6461 233.914 71.2854 234.508C70.828 235.089 70.1047 235.027 69.5051 235.361C68.9973 235.653 68.6063 236.111 68.3986 236.659C68.254 237.083 68.1606 237.523 68.1204 237.969L68.6706 238.427C68.6706 238.427 68.6706 238.371 68.6706 238.347C68.6913 237.598 68.9659 236.878 69.4495 236.307C70.0058 235.793 70.76 235.868 71.3534 235.453C72.4847 234.65 72.2931 233.111 72.8556 232.004V232.029ZM75.1181 234.205C74.9644 234.321 74.8217 234.452 74.6916 234.594C73.8014 235.571 73.9127 236.838 73.585 238.037C73.5269 238.353 73.3969 238.651 73.205 238.908C73.0131 239.166 72.7645 239.375 72.4785 239.521C71.984 239.731 71.4214 239.521 70.9887 239.923L70.9454 239.966C71.2051 240.115 71.4647 240.257 71.7243 240.386C71.8694 240.361 72.016 240.344 72.1632 240.337C72.4435 240.329 72.7191 240.264 72.9731 240.145C73.4121 239.9 73.7592 239.518 73.9621 239.057C74.5061 237.939 74.265 236.585 74.9388 235.515C75.0944 235.271 75.2838 235.051 75.5014 234.86L75.1181 234.205Z" fill="#959CE8"/>
<path opacity="0.2" d="M66.8242 225.773C67.3188 230.101 69.6184 241.704 78.5695 241.908C77.3303 237.861 75.3355 234.085 72.6907 230.781C70.9392 228.886 68.97 227.206 66.8242 225.773Z" fill="black"/>
<path d="M78.5682 241.908C74.4635 241.29 70.9461 238.712 69.1348 230.991C67.3236 223.27 67.0516 219.777 68.2941 219.011C69.7283 218.127 75.3227 225.91 77.1216 229.334C81.6467 237.939 78.5682 241.908 78.5682 241.908Z" fill="#959CE8"/>
<path opacity="0.2" d="M70.9566 227.634C71.9766 227.955 73.3057 228.295 74.0475 227.288C74.3491 226.75 74.5975 226.185 74.7893 225.6L74.2391 224.815C73.7879 225.544 73.8002 226.614 73.0028 227.034C72.3846 227.257 71.7039 227.23 71.105 226.96C70.5138 226.735 69.8818 226.638 69.2505 226.676C68.9032 226.725 68.5692 226.843 68.2676 227.022C68.3108 227.25 68.3665 227.485 68.4097 227.726C68.5435 227.652 68.6818 227.586 68.8239 227.529C69.5255 227.316 70.2794 227.353 70.9566 227.634ZM69.7203 223.634C70.0119 223.79 70.3435 223.854 70.6723 223.82C71.2904 223.69 71.6181 223.084 71.9086 222.583C71.9993 222.439 72.105 222.304 72.2239 222.181C72.092 222.021 71.9622 221.866 71.8344 221.718L71.7602 221.798C71.3708 222.268 71.0432 223.226 70.3199 223.238C69.9704 223.173 69.6286 223.071 69.2999 222.936C69.0076 222.882 68.7082 222.882 68.4159 222.936C68.1238 222.985 67.8444 223.093 67.5938 223.251C67.5938 223.43 67.637 223.616 67.6679 223.801C68.0001 223.602 68.3757 223.488 68.7621 223.467C69.0981 223.449 69.434 223.506 69.745 223.634H69.7203ZM74.1959 232.214C74.5093 231.602 74.9278 231.05 75.4322 230.582C75.7389 230.384 76.0825 230.248 76.4424 230.185C76.8024 230.121 77.1715 230.13 77.5278 230.212C77.3856 229.921 77.2435 229.637 77.0889 229.34C76.6141 229.27 76.13 229.299 75.6671 229.426C75.0344 229.626 74.4849 230.028 74.1031 230.57C73.8081 231.11 73.458 231.617 73.0584 232.085C72.2239 232.845 71.0926 232.177 70.1592 231.992C69.8904 231.941 69.6166 231.92 69.3432 231.93C69.4112 232.202 69.4854 232.468 69.5657 232.721C69.9309 232.719 70.2941 232.775 70.6413 232.888C72.1002 233.321 73.2871 233.574 74.2206 232.214H74.1959ZM78.9187 233.717C78.8473 233.732 78.7771 233.753 78.7085 233.778C78.1604 233.991 77.6813 234.35 77.3238 234.817C76.922 235.33 76.7056 235.954 76.3409 236.48C76.1841 236.756 75.9306 236.964 75.6293 237.065C75.328 237.165 75.0001 237.151 74.7089 237.024C74.1383 236.781 73.5033 236.736 72.9039 236.894C72.4741 237.042 72.0832 237.285 71.7602 237.605C71.9024 237.815 72.0446 238.007 72.1868 238.223C72.4425 237.992 72.7436 237.818 73.0708 237.71C73.5478 237.59 74.0525 237.651 74.4864 237.883C74.9911 238.134 75.5727 238.182 76.1118 238.017C76.6509 237.853 77.1066 237.489 77.3856 236.999C77.738 236.486 77.942 235.88 78.3314 235.392C78.5613 235.114 78.8508 234.893 79.1783 234.743C79.1206 234.405 79.0423 234.063 78.9434 233.717H78.9187Z" fill="white"/>
<path opacity="0.15" d="M77.12 229.334C76.7985 228.716 76.3472 227.955 75.8156 227.127C74.0476 232.61 73.4727 240.603 78.5665 241.908C78.5665 241.908 81.645 237.939 77.12 229.334Z" fill="black"/>
<path d="M80.6836 241.907C85.901 242.185 90.7722 239.033 93.9311 235.052C97.0899 231.071 99.5565 222.849 98.8456 222.348C98.1346 221.847 89.7213 227.028 86.5624 230.768C83.9162 234.076 81.9214 237.856 80.6836 241.907Z" fill="#959CE8"/>
<path opacity="0.2" d="M80.6836 241.907C85.901 242.185 90.7722 239.033 93.9311 235.052C97.0899 231.071 99.5565 222.849 98.8456 222.348C98.1346 221.847 89.7213 227.028 86.5624 230.768C83.9162 234.076 81.9214 237.856 80.6836 241.907Z" fill="black"/>
<path d="M93.3688 229.371C93.9146 229.233 94.475 229.163 95.0379 229.16C95.8539 229.284 95.619 230.069 95.6931 230.675C95.7368 231.001 95.8718 231.307 96.0826 231.559C96.1815 231.367 96.2742 231.17 96.3669 230.972C96.2601 230.782 96.1968 230.571 96.1815 230.354C96.1815 229.859 96.2989 229.321 95.9589 228.901C95.2542 228.035 94.0426 228.82 93.1648 228.697C92.287 228.573 92.5034 227.85 92.5899 227.232C92.6872 226.752 92.6128 226.253 92.3797 225.822C92.1819 225.958 91.9841 226.094 91.7615 226.236C91.9495 226.539 92.024 226.898 91.9717 227.25C91.8057 227.777 91.8275 228.345 92.0335 228.858C92.1845 229.061 92.3902 229.217 92.6267 229.308C92.8631 229.399 93.1205 229.421 93.3688 229.371ZM95.7549 226.138C95.931 226.341 96.1794 226.467 96.4473 226.49C96.8429 226.521 97.2077 226.311 97.6033 226.323C97.7957 226.329 97.9841 226.38 98.1535 226.471L98.2709 226.094L98.0669 225.995C97.7184 225.863 97.3357 225.85 96.9789 225.958C96.8065 226.019 96.6193 226.025 96.4432 225.976C96.2672 225.926 96.1109 225.823 95.996 225.68C95.6066 225.179 95.6066 224.487 95.2233 223.986L94.7597 224.271C94.8452 224.344 94.9219 224.427 94.9884 224.518C95.3099 225.012 95.3284 225.668 95.7549 226.138ZM90.7725 231.874C92.627 231.874 91.9223 233.933 92.7939 234.965C93.0001 235.202 93.2553 235.392 93.5419 235.521L93.919 235.07C93.7943 235.024 93.6743 234.966 93.5604 234.897C92.8866 234.489 92.7753 233.815 92.6641 233.092C92.6354 232.583 92.4545 232.094 92.1448 231.689C91.9606 231.516 91.7399 231.387 91.4992 231.311C91.2585 231.235 91.0038 231.214 90.7539 231.25C90.4286 231.287 90.0996 231.226 89.8097 231.074C89.5197 230.922 89.2823 230.686 89.1281 230.397C88.9059 229.822 88.7826 229.214 88.7634 228.598L88.2689 229.031C88.2917 229.402 88.3371 229.771 88.4049 230.137C88.5236 230.655 88.8 231.124 89.1961 231.479C89.6542 231.802 90.2161 231.943 90.7725 231.874ZM87.8856 235.429C88.5038 235.843 89.2332 235.769 89.7896 236.282C90.2731 236.854 90.5478 237.573 90.5685 238.322C90.5685 238.322 90.5685 238.377 90.5685 238.402L91.1186 237.945C91.0784 237.498 90.985 237.058 90.8405 236.634C90.6327 236.087 90.2417 235.628 89.7339 235.336C89.1158 235.002 88.411 235.064 87.9536 234.483C87.5902 233.89 87.3603 233.226 87.2798 232.536C87.1573 231.923 86.8686 231.357 86.4452 230.898C86.2907 231.083 86.1362 231.275 85.994 231.46C86.145 231.625 86.2757 231.808 86.3834 232.004C86.9398 233.111 86.7667 234.65 87.8856 235.429ZM83.75 234.811C83.9676 235.001 84.157 235.222 84.3125 235.466C84.9864 236.529 84.7453 237.889 85.2893 239.008C85.4922 239.468 85.8393 239.85 86.2783 240.096C86.5323 240.215 86.8079 240.28 87.0881 240.288C87.2354 240.295 87.382 240.311 87.527 240.337C87.7867 240.207 88.0463 240.065 88.306 239.917L88.2627 239.873C87.83 239.478 87.2674 239.682 86.7729 239.472C86.4869 239.326 86.2383 239.116 86.0464 238.859C85.8545 238.602 85.7244 238.304 85.6663 237.988C85.3387 236.789 85.45 235.515 84.5598 234.545C84.4297 234.402 84.2869 234.272 84.1333 234.155L83.75 234.811Z" fill="#959CE8"/>
<path opacity="0.2" d="M92.4289 225.773C91.9344 230.101 89.6348 241.704 80.6836 241.908C81.9228 237.861 83.9176 234.085 86.5624 230.781C88.314 228.886 90.2831 227.206 92.4289 225.773Z" fill="black"/>
<path d="M80.6829 241.908C84.7876 241.29 88.305 238.712 90.1163 230.991C91.9275 223.27 92.1995 219.777 90.957 219.011C89.5228 218.127 83.9283 225.91 82.1294 229.334C77.6044 237.939 80.6829 241.908 80.6829 241.908Z" fill="#959CE8"/>
<path opacity="0.2" d="M90.426 227.529C90.5681 227.586 90.7065 227.652 90.8402 227.727C90.8835 227.486 90.9391 227.251 90.9824 227.022C90.6807 226.843 90.3467 226.725 89.9995 226.676C89.3682 226.639 88.7361 226.736 88.145 226.96C87.546 227.231 86.8654 227.257 86.2472 227.034C85.4559 226.614 85.4683 225.545 85.0108 224.815L84.4606 225.6C84.6524 226.186 84.9008 226.751 85.2024 227.288C85.969 228.295 87.2981 227.955 88.2933 227.634C88.9706 227.353 89.7244 227.316 90.426 227.529ZM90.426 223.461C90.8145 223.481 91.1923 223.596 91.5264 223.795C91.5573 223.61 91.5758 223.424 91.6005 223.245C91.3499 223.087 91.0705 222.98 90.7784 222.93C90.4861 222.877 90.1867 222.877 89.8944 222.93C89.5657 223.065 89.2239 223.167 88.8744 223.233C88.1511 223.233 87.8235 222.262 87.4341 221.792L87.3599 221.712C87.2321 221.86 87.1023 222.015 86.9704 222.176C87.0893 222.298 87.195 222.433 87.2857 222.577C87.6071 223.066 87.9039 223.672 88.553 223.814C88.8817 223.849 89.2133 223.784 89.5049 223.628C89.7968 223.508 90.1107 223.451 90.426 223.461ZM88.5715 232.888C88.9188 232.776 89.282 232.719 89.6471 232.722C89.7275 232.468 89.7955 232.202 89.8697 231.93C89.5962 231.92 89.3225 231.941 89.0537 231.992C88.1202 232.178 86.989 232.845 86.1544 232.085C85.7462 231.619 85.3878 231.111 85.085 230.57C84.7033 230.028 84.1537 229.626 83.521 229.427C83.0582 229.3 82.574 229.27 82.0992 229.34C81.9447 229.637 81.8025 229.921 81.6603 230.212C82.0156 230.13 82.3838 230.12 82.7429 230.184C83.1019 230.248 83.4444 230.383 83.7497 230.583C84.2556 231.049 84.6743 231.602 84.9861 232.215C85.9628 233.575 87.1806 233.321 88.5715 232.888ZM80.0469 234.743C80.3744 234.893 80.6639 235.115 80.8938 235.392C81.2832 235.88 81.5119 236.486 81.8396 236.999C82.1186 237.489 82.5744 237.853 83.1134 238.018C83.6525 238.182 84.2341 238.134 84.7388 237.883C85.1728 237.652 85.6775 237.59 86.1544 237.71C86.4806 237.816 86.78 237.991 87.0322 238.223C87.1806 238.032 87.3228 237.84 87.465 237.605C87.1421 237.285 86.7512 237.042 86.3213 236.894C85.7219 236.736 85.0869 236.782 84.5163 237.024C84.2251 237.151 83.8972 237.166 83.5959 237.065C83.2946 236.965 83.0411 236.756 82.8843 236.48C82.5134 235.955 82.3032 235.33 81.9014 234.817C81.5439 234.35 81.0648 233.991 80.5167 233.779C80.4481 233.753 80.3779 233.733 80.3065 233.717C80.1952 234.063 80.1087 234.397 80.0469 234.718V234.743Z" fill="white"/>
<path opacity="0.15" d="M82.1294 229.334C82.4509 228.716 82.9022 227.955 83.4276 227.127C85.2018 232.61 85.7767 240.603 80.6829 241.908C80.6829 241.908 77.6044 237.939 82.1294 229.334Z" fill="black"/>
<path d="M79.6251 242.755C83.0868 242.755 84.2366 238.05 83.8905 234.261C83.5443 230.472 81.1458 223.264 79.6251 223.264C78.1043 223.264 75.7058 230.472 75.3597 234.261C75.0135 238.05 76.1633 242.755 79.6251 242.755Z" fill="#959CE8"/>
<path opacity="0.3" d="M79.6251 242.755C83.0868 242.755 84.2366 238.05 83.8905 234.261C83.5443 230.472 81.1458 223.264 79.6251 223.264C78.1043 223.264 75.7058 230.472 75.3597 234.261C75.0135 238.05 76.1633 242.755 79.6251 242.755Z" fill="white"/>
<path opacity="0.2" d="M79.6056 228.19C80.1148 228.015 80.5617 227.695 80.8914 227.269C81.1922 226.993 81.5616 226.803 81.9608 226.719C81.8743 226.496 81.7816 226.274 81.6888 226.063C81.132 226.228 80.6288 226.538 80.2299 226.96C80.0349 227.195 79.7871 227.382 79.5067 227.504C79.0925 227.652 78.8329 227.423 78.5609 227.151C78.2586 226.816 77.8622 226.579 77.4234 226.471H77.3863C77.3183 226.651 77.2442 226.83 77.1762 227.022C77.6406 227.109 78.0639 227.346 78.3816 227.695C78.5219 227.881 78.7098 228.025 78.9253 228.112C79.1408 228.199 79.3759 228.226 79.6056 228.19ZM77.0464 232.344C78.2023 233.247 79.1543 231.967 79.89 231.207C79.997 231.052 80.1368 230.922 80.2994 230.827C80.462 230.732 80.6434 230.674 80.8309 230.657C81.0184 230.64 81.2074 230.664 81.3845 230.728C81.5616 230.792 81.7224 230.894 81.8557 231.027C82.235 231.42 82.6808 231.742 83.1725 231.979C83.3005 232.026 83.4331 232.059 83.5681 232.078C83.5248 231.862 83.4754 231.646 83.4259 231.423C82.8961 231.217 82.4173 230.899 82.0227 230.49C80.9965 229.643 80.0692 229.995 79.2532 230.935C78.7834 231.473 78.0169 232.4 77.2442 231.819C76.7929 231.479 76.5765 230.904 76.1005 230.582C76.0511 230.768 76.0016 230.959 75.9584 231.145C76.3664 231.429 76.5951 232.01 77.0464 232.344ZM78.3383 236.492C78.9936 237.358 79.8096 237.568 80.6936 236.826C81.0688 236.408 81.465 236.01 81.8805 235.633C82.5357 235.188 83.2899 235.416 83.9699 235.682C83.9699 235.478 83.9699 235.274 83.9699 235.064C83.6613 234.932 83.3403 234.83 83.0117 234.761C82.7558 234.71 82.492 234.71 82.2362 234.762C81.9803 234.814 81.7374 234.917 81.5219 235.064C81.0336 235.416 80.7307 235.954 80.2856 236.3C80.1551 236.428 79.9967 236.524 79.8229 236.58C79.649 236.635 79.4646 236.65 79.2841 236.622C78.8885 236.474 78.666 236.004 78.3631 235.688C77.996 235.316 77.5343 235.051 77.0278 234.922C76.4729 234.784 75.8874 234.843 75.3711 235.089C75.3711 235.287 75.3711 235.484 75.3711 235.676C75.8834 235.464 76.4521 235.431 76.9857 235.581C77.5193 235.731 77.987 236.057 78.3136 236.504L78.3383 236.492ZM81.6208 240.016C81.069 240.455 80.3698 240.665 79.6674 240.603C79.2992 240.578 78.9514 240.425 78.6845 240.17C78.4929 239.972 78.3569 239.731 78.1591 239.552C77.8067 239.203 77.3518 238.975 76.8609 238.903C76.4958 238.856 76.1248 238.887 75.7729 238.996C75.8347 239.206 75.9027 239.416 75.9707 239.614C76.2547 239.504 76.5617 239.469 76.8633 239.51C77.1648 239.551 77.4511 239.667 77.6954 239.849C78.1096 240.158 78.3136 240.665 78.7525 240.949C79.1587 241.193 79.6264 241.316 80.1001 241.301C80.6002 241.3 81.0923 241.177 81.5343 240.943C82.0288 240.683 82.3812 240.232 82.8696 239.954C82.9954 239.882 83.1279 239.822 83.2652 239.775C83.3641 239.521 83.4445 239.262 83.5248 238.99C83.3607 239.007 83.199 239.042 83.0426 239.095C82.5081 239.31 82.0178 239.623 81.5961 240.016H81.6208Z" fill="white"/>
<path d="M279.413 101.742C282.745 102.125 284.192 102.911 286.485 107.368C288.778 111.825 292.246 128.151 293.248 131.544C294.249 134.938 294.54 136.174 293.866 139.877C293.174 143.735 290.546 150.529 289.403 154.268C288.877 155.993 288.494 157.681 288.08 159.455C287.666 161.229 286.757 162.979 286.083 164.753C285.735 165.587 285.172 166.315 284.451 166.861C283.994 167.219 283.407 167.225 282.974 167.559C282.541 167.893 282.411 168.493 281.824 168.752C281.237 169.012 280.445 168.808 279.871 169.105C279.3 169.494 278.703 169.843 278.084 170.149C277.528 170.285 277.013 170.552 276.582 170.928C276.199 171.312 275.803 172.165 275.148 172.09C274.492 172.016 274.326 171.262 274.319 170.638C274.406 169.435 274.873 168.292 275.655 167.374C276.458 166.416 277.027 165.278 277.936 164.419C278.732 163.545 279.321 162.504 279.66 161.371C279.932 160.617 279.908 159.64 278.9 160.036C277.713 160.506 276.427 161.551 275.055 161.272C274.103 161.056 274.084 160.296 274.678 159.69C275.652 158.69 276.55 157.62 277.367 156.488C278.202 155.338 278.906 154.108 279.772 152.983C280.238 152.397 280.742 151.841 281.28 151.32C282.764 149.855 282.807 147.753 283.06 145.818C283.419 143.11 283.679 140.397 283.963 137.677C284.092 137.187 284.14 136.68 284.105 136.174L278.375 120.25L279.413 101.742Z" fill="#FFA8A7"/>
<path d="M279.191 101.433C281.491 101.315 284.854 102.471 286.43 105.21C288.006 107.948 291.017 120.262 292.074 124.478C293.131 128.694 294.071 132.41 294.071 132.41C294.071 132.41 290.492 135.371 283.259 134.882L277.695 120.287L279.191 101.433Z" fill="#959CE8"/>
<path opacity="0.2" d="M279.191 101.433C281.491 101.315 284.854 102.471 286.43 105.21C288.006 107.948 291.017 120.262 292.074 124.478C293.131 128.694 294.071 132.41 294.071 132.41C294.071 132.41 290.492 135.371 283.259 134.882L277.695 120.287L279.191 101.433Z" fill="white"/>
<path d="M283.09 134.505C283.597 134.709 290.934 134.345 293.766 131.291L293.494 130.215C293.494 130.215 294.532 130.098 294.786 131.55C294.889 132.419 295.056 133.278 295.286 134.122C295.589 135.167 295.861 136.317 294.983 137.337C294.106 138.357 291.472 138.931 288.307 138.734C285.142 138.536 283.838 137.343 283.362 136.935C283.231 136.81 283.135 136.653 283.083 136.479C283.031 136.306 283.025 136.122 283.065 135.946C283.065 135.946 282.366 134.889 283.09 134.505Z" fill="#959CE8"/>
<g opacity="0.2">
<path d="M295.103 133.368C295.066 133.213 295.041 133.071 295.016 132.923C294.911 133.022 294.818 133.127 294.713 133.22C292.581 135.055 289.813 135.981 287.005 135.797C287.005 135.797 286.968 135.853 287.005 135.859C288.948 136.243 290.964 135.948 292.717 135.025C293.48 134.643 294.192 134.167 294.837 133.609L295.103 133.368Z" fill="black"/>
<path d="M291.666 137.312C291.753 137.312 291.765 137.096 291.666 137.108C289.963 137.309 288.239 137.234 286.56 136.885C285.804 136.744 285.061 136.538 284.341 136.267C284 136.132 283.668 135.977 283.345 135.804C283.179 135.711 283.024 135.6 282.863 135.488C282.922 135.647 282.999 135.798 283.092 135.94C283.089 135.977 283.089 136.014 283.092 136.051C283.436 136.245 283.793 136.414 284.161 136.558C284.959 136.886 285.787 137.133 286.634 137.293C288.297 137.601 290.001 137.607 291.666 137.312Z" fill="black"/>
</g>
<path d="M263.907 229.605C263.907 231.145 263.852 232.529 264.593 234.155C265.657 236.486 267.554 237.425 268.692 238.285C269.976 239.275 271.121 240.433 272.098 241.728C273.076 243.151 274.281 244.404 275.665 245.437C276.74 246.216 279.287 246.741 281.624 246.222C283.516 245.795 284.363 244.986 284.097 242.816C283.831 240.646 275.399 239.626 275.399 239.626L263.907 229.605Z" fill="#263238"/>
<path d="M283.059 235.973C283.64 236.14 283.51 237.339 283.634 238.637C283.739 239.731 284.382 241.326 283.918 243.774C283.541 244.504 282.682 244.974 281.303 245.202C279.356 245.536 276.327 244.695 274.985 243.286C273.304 241.524 272.136 239.948 269.78 237.834C267.734 235.979 265.731 235.497 264.538 231.565C263.778 229.037 264.099 227.937 265.775 227.04C268.062 225.804 271.134 226.317 274.021 229.148C275.208 230.323 282.478 235.812 283.059 235.973Z" fill="#37474F"/>
<path d="M265.901 234.433C265.901 234.433 266.55 229.438 272.935 228.202L273.245 228.449C272.2 227.242 270.734 226.479 269.146 226.316C266.63 226.15 265.208 226.737 264.201 228.288C263.193 229.84 264.708 233.599 265.901 234.433Z" fill="#FAFAFA"/>
<path d="M274.015 229.148C273.91 229.148 273.799 229.098 273.687 229.067C272.611 229.224 271.595 229.662 270.742 230.337C269.888 231.012 269.229 231.901 268.829 232.912C268.575 233.642 269.601 234.099 270.139 233.5C271.233 230.736 273.91 229.908 274.992 229.679C274.705 229.439 274.373 229.258 274.015 229.148Z" fill="#F0F0F0"/>
<path d="M275.659 230.224C274.648 230.427 273.704 230.882 272.916 231.548C272.128 232.214 271.522 233.068 271.153 234.032C270.899 234.761 271.926 235.218 272.457 234.65C272.82 233.792 273.367 233.026 274.061 232.405C274.755 231.784 275.577 231.324 276.469 231.058C276.203 230.724 275.925 230.459 275.659 230.224Z" fill="#F0F0F0"/>
<path d="M283.276 228.765L283.004 237.061C282.676 238.247 276.488 239.07 274.968 236.245C274.832 236.003 274.09 231.917 274.09 231.917L283.276 228.765Z" fill="#FFA8A7"/>
<path d="M231.317 252.645C231.058 253.503 231.036 254.415 231.255 255.284C231.509 255.81 233.11 257.559 236.324 258.196C239.539 258.832 243.996 258.196 245.9 258.078C247.804 257.961 253.819 258.696 255.723 258.95C258.721 259.358 261.027 258.703 262.146 257.615C262.329 257.399 262.464 257.147 262.542 256.875C262.62 256.604 262.639 256.318 262.597 256.038C262.589 255.314 262.483 254.595 262.281 253.899L231.317 252.645Z" fill="#263238"/>
<path d="M261.782 250.759C261.844 251.012 261.893 251.259 261.943 251.513C262.235 252.787 262.329 254.099 262.221 255.401C261.838 256.353 260.774 256.872 259.915 257.144C257.665 257.862 255.94 257.763 253.443 257.274C250.925 256.909 248.382 256.752 245.839 256.804C243.873 256.94 241.16 257.318 239.194 257.138C237.521 257.066 235.871 256.728 234.304 256.137C232.987 255.574 231.646 254.857 231.324 253.503C230.935 250.654 232.134 249.399 233.488 248.607C234.842 247.816 236.752 247.872 238.798 247.736C240.653 247.612 242.013 247.606 243.663 247.482C245.093 247.407 246.512 247.2 247.904 246.864C249.14 246.475 249.14 245.041 249.647 245.01C249.993 245.01 259.217 244.744 260.008 244.812C260.916 244.886 261.195 247.711 261.306 248.329C261.399 248.805 261.411 249.325 261.541 249.788C261.627 250.126 261.708 250.45 261.782 250.759Z" fill="#37474F"/>
<path d="M236.325 256.755C236.066 254.703 235.707 250.258 239.503 247.693H239.979C238.273 247.199 236.462 247.199 234.755 247.693C231.732 248.496 230.397 250.938 231.145 253.516C231.145 253.491 231.819 255.995 236.325 256.755Z" fill="#FAFAFA"/>
<path d="M247.348 247.043C246.112 248.125 245.704 250.585 245.704 250.585C245.543 251.506 243.85 251.642 244.029 250.759C244.286 249.53 244.779 248.362 245.482 247.321C246.054 247.019 246.713 246.921 247.348 247.043Z" fill="#F0F0F0"/>
<path d="M243.952 247.465C243.03 248.367 242.429 249.546 242.24 250.822C242.067 251.706 240.676 251.693 240.775 250.822C240.775 250.822 240.935 248.639 242.24 247.619C242.491 247.457 242.779 247.359 243.077 247.332C243.375 247.305 243.675 247.35 243.952 247.465Z" fill="#F0F0F0"/>
<path d="M261.164 225.13C261.164 225.13 260.144 244.139 260.181 245.338C260.218 246.537 258.834 248.361 255.162 248.299C252.578 248.262 251.026 247.767 249.697 246.216L248.992 230.477L261.164 225.13Z" fill="#FFA8A7"/>
<path d="M284.258 202.808C284.301 199.005 283.778 195.218 282.707 191.569C282.707 191.569 283.325 176.857 283.591 165.575C286.286 155.245 285.445 148.217 281.335 141.027C281.335 141.027 249.968 147.5 247.953 147.926C247.714 148.045 247.49 148.193 247.285 148.365C245.19 164.147 246.105 192.682 246.667 198.264C247.23 203.846 246.797 206.783 247.533 219.801C248.04 228.82 249.344 242.105 249.344 242.105C253.455 244.219 260.508 242.383 260.508 242.383C260.508 242.383 264.279 213.329 263.883 206.844C263.407 198.956 262.919 196.954 262.919 196.954C262.919 196.954 265.392 181.722 265.837 177.599C265.837 177.599 267.011 189.863 268.427 201.429C269.534 210.498 274.355 233.877 274.355 233.877C275.748 234.472 277.251 234.764 278.765 234.736C280.28 234.707 281.77 234.357 283.14 233.71C283.14 233.71 284.258 209.212 284.258 202.808Z" fill="#455A64"/>
<path opacity="0.18" d="M265.812 177.598L267.506 163.325C271.192 161.993 274.471 159.732 277.026 156.76C277.026 156.76 276.544 162.286 269.33 165.235L267.475 176.937L267.284 191.6L265.812 177.598Z" fill="black"/>
<path d="M255.01 81.2871C254.145 81.6766 251.598 85.8925 251.598 86.3809C251.598 87.0423 254.169 88.0376 254.169 88.0376C254.57 85.804 254.85 83.5506 255.01 81.2871Z" fill="#F28F8F"/>
<path d="M258.315 74.2464C256.367 74.9511 255.032 75.6806 254.556 79.7172C254.433 80.7929 255.001 82.3074 254.494 83.6921C252.3 89.6266 254.494 94.9614 255.57 96.1916C256.299 97.0199 260.447 97.7494 262.698 97.3414C265.51 96.8345 271.723 94.708 274.968 90.6836C278.782 85.9546 280.204 79.2474 276.736 76.1751C271.859 71.8479 260.386 73.4922 258.315 74.2464Z" fill="#FFA8A7"/>
<path d="M272.211 92.8594L273.299 100.407C274.987 100.772 275.154 102.763 274.307 104.271L274.696 106.397L263.186 108.505L261.758 97.4153L272.211 92.8594Z" fill="#FFA8A7"/>
<path d="M255.781 96.3641C256.702 96.9823 258.81 97.6004 261.759 97.4397L261.53 96.0488C260.633 96.2469 259.725 96.3934 258.81 96.4877C257.8 96.5918 256.78 96.5502 255.781 96.3641Z" fill="#F28F8F"/>
<path d="M254.466 71.4516C252.785 73.7017 252.612 76.9719 255.14 78.2948C254.472 81.1198 256.345 83.4874 258.577 83.0547C258.719 84.4209 259.127 85.5707 260.432 86.1456C261.217 86.4918 261.482 86.1456 261.835 85.5274C262.329 84.662 262.972 83.3205 264.926 83.7718C267.133 84.2849 267.398 87.7034 265.896 89.7804C265.602 90.2227 265.205 90.5867 264.738 90.8409C264.272 91.0951 263.751 91.2318 263.219 91.2393C262.93 91.2069 262.651 91.1135 262.401 90.9654C262.151 90.8173 261.934 90.6178 261.767 90.3801C261.785 91.5914 262.115 92.7776 262.726 93.8238C263.336 94.87 264.207 95.7407 265.253 96.3516C267.722 96.5128 270.2 96.3549 272.628 95.8818C274.656 94.0273 275.985 92.964 277.641 91.1961C282.587 85.8859 282.303 78.7275 279.311 77.0955C280.157 72.3047 275.237 68.5214 270.106 67.5138C262.836 66.0735 257.409 67.4953 254.466 71.4516Z" fill="#37474F"/>
<path d="M273.202 79.0249C273.129 80.2112 273.442 81.3893 274.095 82.3823C274.749 83.3754 275.706 84.1299 276.824 84.5328C275.341 86.3255 276.008 89.9542 277.597 91.1782C282.542 85.8681 282.258 78.7096 279.266 77.0776C279.431 76.1875 279.401 75.2724 279.18 74.3947C278.489 74.2213 277.776 74.1546 277.065 74.1969C273.937 74.3515 273.325 76.9107 273.202 79.0249Z" fill="#263238"/>
<path d="M248.852 134.784C249.242 132.139 249.307 129.457 249.043 126.797C245.823 123.626 245.143 119.286 246.954 115.021C249.235 109.624 251.423 104.734 253.723 103.702C257.432 102.633 262.309 101.705 262.309 101.705C264.241 102.302 266.279 102.468 268.281 102.194C273.678 101.52 273.338 100.988 273.301 100.407C273.301 100.407 277.01 101.025 278.864 101.365C280.039 101.576 282.685 102.633 283.686 107.51C285.856 118.062 282.017 123.28 281.695 129.455C281.516 131.31 283.55 143.84 284.236 147.302C284.743 150.609 281.201 152.971 274.253 154.572C267.304 156.173 260.146 155.19 253.395 149.379C248.122 154.652 246.731 151.957 246.731 151.957C246.731 151.957 248.45 138.005 248.852 134.784Z" fill="#959CE8"/>
<path d="M279.931 79.7492C281.738 77.7007 281.781 74.7862 280.027 73.2393C278.273 71.6924 275.386 72.099 273.58 74.1474C271.773 76.1959 271.73 79.1104 273.484 80.6573C275.238 82.2042 278.125 81.7976 279.931 79.7492Z" fill="#959CE8"/>
<path d="M273.627 77.9735C273.567 79.3174 273.967 80.6416 274.76 81.7281C275.553 82.8146 276.693 83.5987 277.991 83.9512C276.248 86.0592 276.656 89.9104 279.45 92.0988C277.744 93.8049 277.657 97.4583 280.26 99.8939C278.362 101.959 279.728 105.73 281.422 107.052C279.858 108.505 280.921 110.347 281.329 111.454C281.475 111.8 281.514 112.183 281.441 112.551C281.368 112.92 281.187 113.259 280.921 113.525C280.921 113.525 282.424 113.716 283.641 111.942C284.519 110.656 285.354 108.789 283.79 107.145C285.477 105.012 286.052 102.119 284.247 99.8569C287.678 96.1478 286.392 91.8206 284.655 91.4559C286.887 88.9399 287.035 84.1305 284.247 82.4614C287.233 76.4281 283.629 71.8659 278.294 72.9972C275.24 73.6525 273.769 75.8593 273.627 77.9735Z" fill="#37474F"/>
<path d="M258.328 102.546C261.742 104.417 265.706 105.025 269.523 104.265C276.323 103.029 275.674 100.704 275.674 100.704C274.985 99.9938 274.376 99.2102 273.857 98.3675C273.238 97.2486 272.818 97.0693 272.818 97.0693L272.911 97.8359C272.911 97.8359 272.12 99.1402 268.281 99.5358C266.193 99.7904 264.079 99.7362 262.006 99.3751C261.326 99.3751 260.486 101.298 258.328 102.546Z" fill="#959CE8"/>
<path opacity="0.2" d="M258.328 102.546C261.742 104.417 265.706 105.025 269.523 104.265C276.323 103.029 275.674 100.704 275.674 100.704C274.985 99.9938 274.376 99.2102 273.857 98.3675C273.238 97.2486 272.818 97.0693 272.818 97.0693L272.911 97.8359C272.911 97.8359 272.12 99.1402 268.281 99.5358C266.193 99.7904 264.079 99.7362 262.006 99.3751C261.326 99.3751 260.486 101.298 258.328 102.546Z" fill="white"/>
<path d="M240.865 109.996C241.199 108.061 241.786 106.602 242.343 106.546C243.394 106.441 245.26 105.607 246.274 102.602C246.608 102.046 247.025 101.543 247.511 101.113C248.963 99.5733 249.415 99.0478 249.217 98.442C248.939 97.6781 248.542 96.9626 248.042 96.3217C247.836 96.0774 247.544 95.9224 247.226 95.889C247.644 95.448 248.09 95.035 248.561 94.6526C249.044 94.2199 249.377 93.9046 249.68 93.6512C250.299 93.1504 251.331 92.9032 251.992 92.2355C253.031 91.1908 252.27 90.2759 251.708 90.4552C250.714 90.6958 249.735 90.9972 248.778 91.3577C246.75 92.5384 244.976 93.5213 244.012 94.0344C242.874 94.6526 241.378 95.3141 240.766 95.6788C240.408 95.889 236.204 100.97 235.938 101.657C235.673 102.343 230.375 114.675 229.565 117.111C228.261 121.154 227.642 127.781 228.99 129.134L238.881 122.501C238.881 122.501 240.544 111.807 240.865 109.996Z" fill="#FFA8A7"/>
<path d="M249.159 100.704C249.387 101.131 249.109 101.724 248.664 102.169C248.178 102.653 247.582 103.012 246.927 103.214C246.732 103.221 246.54 103.175 246.37 103.078C246.201 102.982 246.062 102.841 245.969 102.67L249.159 100.704Z" fill="#F28F8F"/>
<path d="M249.214 98.4424C250.018 99.5736 249.913 100.186 248.596 101.49C247.279 102.794 246.606 103.239 245.629 102.442C246.288 102.059 246.909 101.614 247.483 101.113C247.99 100.581 249.14 99.4933 249.183 99.0976C249.223 98.8816 249.233 98.6612 249.214 98.4424Z" fill="#FFA8A7"/>
<path d="M240.635 105.21C241.5 105.035 242.275 104.56 242.824 103.869C243.114 103.547 243.359 103.187 243.553 102.8C243.734 102.388 243.958 101.996 244.221 101.631C244.494 101.252 244.821 100.915 245.191 100.63C245.371 100.48 245.566 100.35 245.772 100.24C245.964 100.145 246.15 100.038 246.329 99.9188C246.691 99.683 247.035 99.4184 247.355 99.1276C247.67 98.8687 247.922 98.5409 248.09 98.1694C248.126 98.0996 248.145 98.0222 248.145 97.9438C248.145 97.8653 248.126 97.788 248.09 97.7181C248 97.5629 247.861 97.4413 247.695 97.372C247.313 97.2478 246.902 97.2478 246.52 97.372C245.69 97.6308 244.9 98.0032 244.171 98.4785C242.572 99.2737 240.857 99.8099 239.09 100.067C239.948 99.854 240.792 99.5898 241.618 99.2759C242.446 98.9843 243.247 98.6202 244.011 98.188C244.747 97.6657 245.56 97.2611 246.421 96.9887C246.887 96.8371 247.39 96.8371 247.856 96.9887C248.112 97.0845 248.329 97.2628 248.474 97.4956C248.55 97.6171 248.597 97.7549 248.61 97.8978C248.622 98.0407 248.601 98.1846 248.548 98.3178C248.351 98.7549 248.054 99.14 247.682 99.4428C247.34 99.7411 246.974 100.012 246.588 100.253C246.39 100.379 246.183 100.493 245.97 100.593C245.785 100.688 245.609 100.799 245.445 100.926C245.111 101.195 244.808 101.499 244.542 101.835C244.274 102.177 244.042 102.546 243.85 102.936C243.628 103.331 243.353 103.695 243.034 104.017C242.411 104.7 241.555 105.125 240.635 105.21Z" fill="#F28F8F"/>
<path d="M240.938 97.3105C241.252 97.4654 241.537 97.6747 241.778 97.9287C241.903 98.0555 242.015 98.1943 242.112 98.3429C242.216 98.4982 242.303 98.664 242.372 98.8374L241.97 98.9363C241.945 98.7839 241.904 98.6346 241.846 98.4913C241.785 98.3397 241.708 98.1947 241.617 98.0585C241.437 97.7705 241.207 97.5172 240.938 97.3105Z" fill="#F28F8F"/>
<path d="M244.289 101.817C244.48 101.979 244.701 102.101 244.94 102.176C245.179 102.25 245.431 102.275 245.68 102.25C246.163 102.117 246.594 101.841 246.916 101.459C247.281 101.1 247.646 100.735 247.992 100.358C248.342 100.001 248.661 99.6144 248.944 99.2023C249 99.1299 249.028 99.0401 249.024 98.9488C249.027 98.8364 249.014 98.7242 248.987 98.615C248.932 98.3752 248.86 98.1397 248.771 97.9103C248.583 97.4466 248.345 97.005 248.06 96.5936C247.951 96.3883 247.783 96.2203 247.578 96.1114C247.359 96.0375 247.122 96.0375 246.904 96.1114C246.422 96.2816 245.978 96.5417 245.593 96.878C245.932 96.4721 246.354 96.1433 246.83 95.9136C247.092 95.7946 247.387 95.7705 247.664 95.8456C247.931 95.9567 248.159 96.1437 248.32 96.3834C248.654 96.7995 248.931 97.2591 249.142 97.7496C249.25 97.9971 249.337 98.2536 249.401 98.5161C249.431 98.6586 249.447 98.8034 249.451 98.9488C249.453 99.1164 249.403 99.2805 249.309 99.4187C249.009 99.8643 248.665 100.279 248.282 100.655C247.912 101.026 247.534 101.384 247.133 101.718C246.746 102.105 246.253 102.367 245.717 102.472C245.446 102.474 245.177 102.417 244.93 102.303C244.683 102.19 244.465 102.024 244.289 101.817Z" fill="#F28F8F"/>
<path d="M243.738 98.337C243.837 97.9774 243.992 97.6354 244.196 97.3231C244.384 97.0141 244.62 96.7366 244.894 96.501C244.681 96.7783 244.512 97.0869 244.394 97.4159C244.268 97.7296 244.192 98.0614 244.171 98.3988L243.738 98.337Z" fill="#F28F8F"/>
<path d="M254.056 104.036C251.713 104.926 250.538 105.013 246.236 108.982C241.933 112.95 232.951 119.249 231.221 122.229C229.31 125.512 228.08 127.385 228.989 129.171C230.065 131.279 234.379 130.859 238.88 128.707C242.341 127.045 253.011 119.404 255.144 117.488C257.277 115.571 260.163 104.036 254.056 104.036Z" fill="#FFA8A7"/>
<path d="M236.994 116.184C235.671 115.664 233.063 117.575 231.48 119.12C229.67 120.917 228.318 123.121 227.536 125.549C226.992 127.502 228.235 129.406 228.235 129.406C228.564 130.128 229.147 130.705 229.873 131.026C230.256 131.276 230.695 131.429 231.151 131.47C231.607 131.511 232.066 131.439 232.488 131.261C233.103 131.54 233.796 131.598 234.449 131.423C235.102 131.248 235.674 130.852 236.067 130.303L236.994 116.184Z" fill="#959CE8"/>
<path opacity="0.2" d="M233.267 131.478L233.143 131.373C232.946 131.181 232.765 130.974 232.599 130.754C232.273 130.295 232.009 129.794 231.814 129.265C231.358 127.832 231.131 126.336 231.14 124.832C231.14 124.777 231.085 124.832 231.078 124.832C230.859 126.332 230.982 127.862 231.437 129.308C231.641 129.904 231.926 130.47 232.284 130.989C232.358 131.094 232.451 131.187 232.531 131.292C232.768 131.384 233.015 131.446 233.267 131.478Z" fill="black"/>
<path opacity="0.2" d="M230.775 121.654C230.775 121.654 230.775 121.549 230.744 121.586C229.566 122.913 228.719 124.499 228.272 126.216C228.053 127.014 227.902 127.829 227.82 128.652C227.929 128.913 228.06 129.166 228.21 129.406C228.211 129.422 228.211 129.439 228.21 129.455C228.266 128.302 228.457 127.159 228.778 126.049C229.267 124.51 229.937 123.034 230.775 121.654Z" fill="black"/>
<path d="M254.315 103.536C252.072 103.703 249.123 104.494 247.682 106.726C246.242 108.958 234.936 117.816 234.936 117.816C233.145 119.989 232.181 122.727 232.216 125.543C232.327 130.161 235.251 130.532 235.251 130.532C235.251 130.532 238.119 129.914 242.607 127.064C247.095 124.214 255.781 117.927 255.781 117.927C257.387 115.404 258.267 112.486 258.321 109.495C258.377 104.606 254.315 103.536 254.315 103.536Z" fill="#959CE8"/>
<path opacity="0.2" d="M254.315 103.536C252.072 103.703 249.123 104.494 247.682 106.726C246.242 108.958 234.936 117.816 234.936 117.816C233.145 119.989 232.181 122.727 232.216 125.543C232.327 130.161 235.251 130.532 235.251 130.532C235.251 130.532 238.119 129.914 242.607 127.064C247.095 124.214 255.781 117.927 255.781 117.927C257.387 115.404 258.267 112.486 258.321 109.495C258.377 104.606 254.315 103.536 254.315 103.536Z" fill="white"/>
<path d="M276.712 52.6535C276.143 57.3022 273.918 59.9479 271.087 61.3079L268.379 59.7378C269.062 58.8466 269.518 57.8028 269.708 56.6963C269.91 55.6528 269.933 54.5825 269.776 53.5313L274.004 51.0586C273.8 52.5608 276.712 52.6535 276.712 52.6535Z" fill="#959CE8"/>
<path opacity="0.2" d="M276.712 52.6535C276.143 57.3022 273.918 59.9479 271.087 61.3079L268.379 59.7378C269.062 58.8466 269.518 57.8028 269.708 56.6963C269.91 55.6528 269.933 54.5825 269.776 53.5313L274.004 51.0586C273.8 52.5608 276.712 52.6535 276.712 52.6535Z" fill="black"/>
<path d="M283.127 23.7045V47.4424C283.103 47.8837 282.975 48.3131 282.754 48.6956C282.533 49.0781 282.224 49.4028 281.853 49.6431L276.716 52.6536C276.147 57.3023 273.922 59.9481 271.091 61.3081C272.648 59.3608 272.723 56.5172 272.488 55.1263L269.712 56.7212L266.003 58.8415C265.61 59.0428 265.174 59.1478 264.733 59.1478C264.291 59.1478 263.856 59.0428 263.462 58.8415L262.424 58.2234C262.061 57.9766 261.76 57.6487 261.546 57.2657C261.331 56.8827 261.208 56.455 261.188 56.0165V32.2786C261.212 31.8382 261.339 31.4097 261.559 31.0275C261.779 30.6452 262.086 30.32 262.455 30.0779L278.311 20.9104C278.705 20.7124 279.14 20.6094 279.581 20.6094C280.022 20.6094 280.457 20.7124 280.852 20.9104L281.884 21.5285C282.245 21.7702 282.546 22.0925 282.762 22.4702C282.977 22.8478 283.102 23.2704 283.127 23.7045Z" fill="#959CE8"/>
<path opacity="0.2" d="M261.148 55.9977C261.172 56.4389 261.3 56.8681 261.522 57.2505C261.743 57.6329 262.051 57.9577 262.422 58.1984L263.454 58.8166C263.812 58.997 264.205 59.0996 264.605 59.1177C265.006 59.1358 265.406 59.069 265.779 58.9217C265.16 59.1442 264.721 58.8104 264.721 58.0871V34.3616C264.738 33.9239 264.868 33.498 265.099 33.1252L261.519 31.0605C261.294 31.4349 261.166 31.8601 261.148 32.2969V55.9977Z" fill="black"/>
<path opacity="0.3" d="M283.083 23.3457C282.935 22.8017 282.465 22.6348 281.847 22.9686L265.997 32.1485C265.615 32.3864 265.305 32.7241 265.1 33.1252L261.527 31.0605C261.739 30.6729 262.048 30.3469 262.424 30.1147L278.28 20.941C278.673 20.7397 279.108 20.6348 279.55 20.6348C279.992 20.6348 280.427 20.7397 280.821 20.941L281.859 21.5592C282.171 21.7611 282.44 22.0229 282.65 22.3296C282.86 22.6363 283.008 22.9817 283.083 23.3457Z" fill="white"/>
<path d="M273.499 31.1104C274.076 30.7537 274.723 30.526 275.396 30.4427C275.93 30.3756 276.471 30.4795 276.942 30.7395C277.406 31.034 277.767 31.4662 277.974 31.9758C278.245 32.6295 278.373 33.3333 278.351 34.0405C278.353 34.6651 278.281 35.2877 278.135 35.895C277.994 36.4637 277.812 37.0215 277.591 37.5641C277.362 38.0957 277.121 38.6026 276.861 39.0724C276.602 39.5423 276.342 40.0183 276.095 40.4695C275.848 40.9208 275.631 41.3844 275.433 41.8357C275.243 42.2687 275.106 42.7233 275.025 43.1895C274.994 43.4012 274.938 43.6086 274.858 43.8077C274.8 43.9725 274.69 44.1137 274.543 44.2095L272.349 45.4458C272.302 45.4867 272.241 45.5092 272.179 45.5092C272.116 45.5092 272.056 45.4867 272.009 45.4458C271.905 45.3218 271.854 45.162 271.867 45.0007C271.865 44.4031 271.946 43.8082 272.108 43.2328C272.275 42.6647 272.481 42.109 272.726 41.5699C272.961 41.0439 273.223 40.5301 273.511 40.0306C273.789 39.5299 274.055 39.0663 274.29 38.6212C274.521 38.2096 274.728 37.7843 274.908 37.3477C275.06 36.9789 275.142 36.5846 275.149 36.1856C275.149 35.6478 275.013 35.3078 274.753 35.1532C274.494 34.9987 274.08 35.0852 273.517 35.4005C273.052 35.6487 272.655 36.0074 272.361 36.4452C272.145 36.7934 271.972 37.1672 271.848 37.5579C271.743 37.9165 271.65 38.2379 271.57 38.5346C271.538 38.6629 271.482 38.7836 271.403 38.8897C271.325 38.9958 271.226 39.0853 271.112 39.1528L268.918 40.3892C268.878 40.4197 268.829 40.4363 268.779 40.4363C268.728 40.4363 268.68 40.4197 268.64 40.3892C268.596 40.3375 268.562 40.2775 268.542 40.2127C268.522 40.1479 268.515 40.0796 268.522 40.0121C268.553 39.2541 268.675 38.5027 268.887 37.7743C269.123 36.8995 269.45 36.0521 269.864 35.2459C270.29 34.397 270.811 33.5987 271.415 32.866C272 32.1617 272.705 31.5672 273.499 31.1104ZM275.062 49.0992C275.061 49.3133 275.013 49.5244 274.92 49.7174C274.853 49.8911 274.732 50.0385 274.574 50.1378L272.312 51.4421C272.265 51.4842 272.204 51.5076 272.142 51.5076C272.079 51.5076 272.018 51.4842 271.972 51.4421C271.919 51.3825 271.88 51.3129 271.855 51.2374C271.831 51.1619 271.822 51.0822 271.829 51.0032V48.2091C271.831 47.9951 271.88 47.7842 271.972 47.5909C272.043 47.4229 272.161 47.2791 272.312 47.1767L274.574 45.8662C274.622 45.8248 274.684 45.8021 274.747 45.8021C274.811 45.8021 274.872 45.8248 274.92 45.8662C275.024 45.9902 275.075 46.15 275.062 46.3113V49.0992Z" fill="#FAFAFA"/>
</svg>
