<svg width="25" height="25" viewBox="0 0 25 25" fill="none" xmlns="http://www.w3.org/2000/svg">
<g id="answer-correct-icon 1" clip-path="url(#clip0_860_478)">
<g id="Group">
<path id="Vector" d="M14.8936 1.57023H6.16331C5.59372 1.57023 5.06795 1.66646 4.59684 1.85872C4.12574 2.05098 3.6878 2.33927 3.29326 2.7238C2.89894 3.10832 2.60329 3.53556 2.40613 3.99495C2.20897 4.45435 2.11049 4.96684 2.11049 5.52246V13.8326C2.11049 14.388 2.20917 14.9007 2.40613 15.3601C2.60329 15.8195 2.89914 16.2465 3.29326 16.6313C3.69865 17.0158 4.13679 17.3149 4.6079 17.4963C5.07901 17.6886 5.59372 17.7848 6.16331 17.7848H9.90964C10.348 17.7848 10.7094 18.1372 10.7094 18.5647C10.7094 18.6609 10.6874 18.7463 10.6655 18.8318C10.523 19.3445 10.3699 19.8572 10.1944 20.3485C10.0081 20.8718 9.81116 21.3631 9.59188 21.8439C9.48234 22.0896 9.3509 22.3246 9.20861 22.5702C9.97536 22.2392 10.6983 21.8545 11.3666 21.4274C12.0676 20.9788 12.725 20.4767 13.3274 19.9318C13.9406 19.3764 14.4882 18.7675 14.9921 18.116C15.1454 17.913 15.3866 17.8064 15.6276 17.8064H18.8482C19.4175 17.8064 19.9325 17.7102 20.4036 17.5179C20.8747 17.3258 21.3126 17.0374 21.7182 16.6526C22.1125 16.2681 22.4082 15.8409 22.6053 15.3815C22.8025 14.9223 22.9012 14.4096 22.9012 13.854V5.54382C22.9012 4.9884 22.8025 4.47571 22.6053 4.01632C22.4082 3.55693 22.1125 3.12968 21.7182 2.74516C21.3237 2.36064 20.8855 2.07214 20.4146 1.88009C19.9435 1.68783 19.4178 1.5918 18.8482 1.5918H14.8936V1.57023ZM8.49611 10.7454C8.30457 10.566 8.20526 10.3269 8.20025 10.0865C8.19546 9.84599 8.28455 9.60327 8.46857 9.4163C8.65259 9.22953 8.89753 9.13269 9.14414 9.12801C9.39096 9.12313 9.63966 9.2096 9.8314 9.38945L11.4882 10.9438L14.7864 6.85832C14.7849 6.85425 14.8139 6.83044 14.8183 6.82739C15.2158 6.4919 15.8154 6.52913 16.1667 6.91101C16.5185 7.2935 16.4899 7.88086 16.1025 8.22876L12.1442 12.9272C12.146 12.9291 12.1225 12.9492 12.1198 12.9515C11.9345 13.1099 11.7004 13.1879 11.4678 13.184C11.233 13.1799 10.9989 13.0933 10.8166 12.9226L8.49611 10.7454ZM10.1177 0.0107829H18.8482C19.6149 0.0107829 20.3379 0.14974 21.017 0.416667C21.6852 0.683797 22.2989 1.08968 22.8465 1.62374C23.3942 2.1578 23.8104 2.75594 24.0844 3.40759C24.3583 4.05925 24.5004 4.7642 24.5004 5.52266V13.8326C24.5004 14.5911 24.3581 15.2958 24.0844 15.9477C23.8107 16.5995 23.3942 17.1975 22.8465 17.7315C22.2989 18.2656 21.6855 18.6609 21.017 18.9386C20.3489 19.2057 19.626 19.3445 18.8482 19.3445H16.0219C15.5291 19.9534 14.9921 20.5302 14.4227 21.0535C13.7434 21.673 13.0205 22.2284 12.2429 22.7197C11.465 23.2218 10.6326 23.6597 9.74523 24.0336C8.86894 24.4076 7.92694 24.717 6.94112 24.9736C6.65632 25.0482 6.34962 24.9628 6.1414 24.7386C5.84576 24.4181 5.87852 23.9268 6.20712 23.6383C6.66717 23.2432 7.0615 22.8371 7.37926 22.4314C7.68596 22.0361 7.93799 21.6302 8.1241 21.2136V21.203C8.33232 20.7544 8.51864 20.295 8.68284 19.8356C8.7375 19.6755 8.79237 19.5046 8.84725 19.3337H6.15225C5.3855 19.3337 4.66256 19.1947 3.98323 18.9276C3.31496 18.6607 2.70156 18.2548 2.15388 17.7205C1.60621 17.1865 1.18997 16.5885 0.916027 15.9367C0.642501 15.2747 0.5 14.5697 0.5 13.822V5.51168C0.5 4.764 0.642501 4.05884 0.916236 3.39661C1.19018 2.74495 1.60641 2.14681 2.15409 1.61275C2.70177 1.07869 3.31517 0.672811 3.98344 0.40568C4.65172 0.13855 5.37444 0 6.15225 0H10.1066L10.1177 0.0107829Z" fill="white"/>
</g>
</g>
<defs>
<clipPath id="clip0_860_478">
<rect width="24" height="25" fill="white" transform="translate(0.5)"/>
</clipPath>
</defs>
</svg>
