<svg xmlns="http://www.w3.org/2000/svg" width="25" height="24" viewBox="0 0 25 24" fill="none">
  <path d="M11.3632 4.71652C11.433 4.78617 11.4883 4.86889 11.526 4.95994C11.5638 5.05098 11.5832 5.14858 11.5832 5.24714C11.5832 5.3457 11.5638 5.4433 11.526 5.53435C11.4883 5.6254 11.433 5.70811 11.3632 5.77777L5.89293 11.2471L20.5826 11.2471C20.7815 11.2471 20.9723 11.3262 21.113 11.4668C21.2536 11.6075 21.3326 11.7982 21.3326 11.9971C21.3326 12.1961 21.2536 12.3868 21.113 12.5275C20.9723 12.6681 20.7815 12.7471 20.5826 12.7471L5.89293 12.7471L11.3632 18.2165C11.504 18.3572 11.583 18.5481 11.583 18.7471C11.583 18.9462 11.504 19.137 11.3632 19.2778C11.2225 19.4185 11.0316 19.4976 10.8326 19.4976C10.6336 19.4976 10.4427 19.4185 10.302 19.2778L3.552 12.5278C3.48226 12.4581 3.42694 12.3754 3.3892 12.2843C3.35146 12.1933 3.33203 12.0957 3.33203 11.9971C3.33203 11.8986 3.35146 11.801 3.3892 11.7099C3.42694 11.6189 3.48226 11.5362 3.552 11.4665L10.302 4.71652C10.3717 4.64678 10.4544 4.59146 10.5454 4.55372C10.6365 4.51598 10.7341 4.49655 10.8326 4.49655C10.9312 4.49655 11.0288 4.51598 11.1198 4.55372C11.2109 4.59146 11.2936 4.64678 11.3632 4.71652Z" fill="#757575"/>
</svg>