<svg width="24" height="24" viewBox="0 0 24 24" fill="none" xmlns="http://www.w3.org/2000/svg">
<g id="chevron-forward-circle">
<path id="Vector" d="M2.25 12.0022C2.25 17.3867 6.61547 21.7522 12 21.7522C17.3845 21.7522 21.75 17.3867 21.75 12.0022C21.75 6.61767 17.3845 2.2522 12 2.2522C6.61547 2.2522 2.25 6.61767 2.25 12.0022ZM14.3142 12.0022L10.3448 8.03235C10.2101 7.89056 10.1361 7.70175 10.1386 7.50617C10.1411 7.3106 10.2199 7.12375 10.3582 6.98545C10.4965 6.84714 10.6834 6.76834 10.879 6.76584C11.0745 6.76333 11.2634 6.83733 11.4052 6.97204L15.9052 11.472C16.0457 11.6127 16.1247 11.8034 16.1247 12.0022C16.1247 12.201 16.0457 12.3917 15.9052 12.5324L11.4052 17.0324C11.2634 17.1671 11.0745 17.2411 10.879 17.2386C10.6834 17.2361 10.4965 17.1573 10.3582 17.019C10.2199 16.8806 10.1411 16.6938 10.1386 16.4982C10.1361 16.3027 10.2101 16.1138 10.3448 15.972L14.3142 12.0022Z" fill="#A5CE3E"/>
</g>
</svg>
