<svg width="16" height="16" viewBox="0 0 16 16" fill="none" xmlns="http://www.w3.org/2000/svg">
<g id="fluent:delete-20-filled">
<path id="Vector" d="M6.8001 3.2002H9.2001C9.2001 2.88194 9.07367 2.57671 8.84863 2.35167C8.62358 2.12662 8.31836 2.0002 8.0001 2.0002C7.68184 2.0002 7.37661 2.12662 7.15157 2.35167C6.92653 2.57671 6.8001 2.88194 6.8001 3.2002ZM6.0001 3.2002C6.0001 2.66976 6.21081 2.16105 6.58588 1.78598C6.96096 1.41091 7.46966 1.2002 8.0001 1.2002C8.53053 1.2002 9.03924 1.41091 9.41431 1.78598C9.78938 2.16105 10.0001 2.66976 10.0001 3.2002H14.0001C14.1062 3.2002 14.2079 3.24234 14.2829 3.31735C14.358 3.39237 14.4001 3.49411 14.4001 3.6002C14.4001 3.70628 14.358 3.80802 14.2829 3.88304C14.2079 3.95805 14.1062 4.0002 14.0001 4.0002H13.1569L12.2017 12.2754C12.1342 12.8603 11.854 13.4001 11.4144 13.7919C10.9748 14.1836 10.4065 14.4002 9.8177 14.4002H6.1825C5.59366 14.4002 5.02539 14.1836 4.58581 13.7919C4.14623 13.4001 3.86602 12.8603 3.7985 12.2754L2.8433 4.0002H2.0001C1.89401 4.0002 1.79227 3.95805 1.71726 3.88304C1.64224 3.80802 1.6001 3.70628 1.6001 3.6002C1.6001 3.49411 1.64224 3.39237 1.71726 3.31735C1.79227 3.24234 1.89401 3.2002 2.0001 3.2002H6.0001ZM7.2001 6.4002C7.2001 6.29411 7.15796 6.19237 7.08294 6.11735C7.00793 6.04234 6.90618 6.0002 6.8001 6.0002C6.69401 6.0002 6.59227 6.04234 6.51725 6.11735C6.44224 6.19237 6.4001 6.29411 6.4001 6.4002V11.2002C6.4001 11.3063 6.44224 11.408 6.51725 11.483C6.59227 11.5581 6.69401 11.6002 6.8001 11.6002C6.90618 11.6002 7.00793 11.5581 7.08294 11.483C7.15796 11.408 7.2001 11.3063 7.2001 11.2002V6.4002ZM9.2001 6.0002C9.09401 6.0002 8.99227 6.04234 8.91725 6.11735C8.84224 6.19237 8.8001 6.29411 8.8001 6.4002V11.2002C8.8001 11.3063 8.84224 11.408 8.91725 11.483C8.99227 11.5581 9.09401 11.6002 9.2001 11.6002C9.30618 11.6002 9.40793 11.5581 9.48294 11.483C9.55796 11.408 9.6001 11.3063 9.6001 11.2002V6.4002C9.6001 6.29411 9.55796 6.19237 9.48294 6.11735C9.40793 6.04234 9.30618 6.0002 9.2001 6.0002Z" fill="#808080"/>
</g>
</svg>
