<svg width="41" height="40" viewBox="0 0 41 40" fill="none" xmlns="http://www.w3.org/2000/svg">
<rect x="0.609375" width="40" height="40" rx="20" fill="#2C3AD1" fill-opacity="0.5"/>
<path d="M12.6576 26V14.8H19.6336V16.432H14.4256V19.336H18.5296V20.968H14.4256V24.368H19.7856V26H12.6576ZM21.7607 26V14.8H25.5847C26.3794 14.8 27.0674 14.9253 27.6487 15.176C28.23 15.4213 28.6754 15.8107 28.9847 16.344C29.2994 16.8773 29.4567 17.5707 29.4567 18.424C29.4567 19.2773 29.2994 19.976 28.9847 20.52C28.6754 21.0587 28.23 21.456 27.6487 21.712C27.0727 21.968 26.39 22.096 25.6007 22.096H23.5527V26H21.7607ZM23.5527 20.584H25.3687C26.1367 20.584 26.7127 20.4107 27.0967 20.064C27.4807 19.7173 27.6727 19.1787 27.6727 18.448C27.6727 17.712 27.486 17.1733 27.1127 16.832C26.7394 16.4853 26.1527 16.312 25.3527 16.312H23.5527V20.584Z" fill="white"/>
</svg>
