<svg width="375" height="416" viewBox="0 0 375 416" fill="none" xmlns="http://www.w3.org/2000/svg">
<path fill-rule="evenodd" clip-rule="evenodd" d="M187.192 114.181C215.927 106.39 247.556 90.921 274.342 103.433C301.002 115.886 301.829 151.23 317.493 175.047C336.091 203.324 375.963 223.211 374.982 256.453C374.012 289.348 334.479 307.647 312.821 333.484C289.878 360.856 279.08 401.864 243.911 412.821C208.729 423.782 171.417 403.447 138.259 387.869C109.377 374.301 88.9229 351.311 66.4884 329.468C42.6651 306.273 10.1474 287.502 2.80819 255.992C-4.65379 223.955 2.47209 185.193 27.5884 162.454C52.5328 139.87 94.319 153.274 127.273 143.307C149.117 136.7 165.144 120.159 187.192 114.181Z" fill="#E1E1E1"/>
<path d="M312.279 274.767H320.345" stroke="#263238" stroke-width="0.601926" stroke-linecap="round" stroke-linejoin="round"/>
<path d="M36.4463 274.767H306.368" stroke="#263238" stroke-width="0.601926" stroke-linecap="round" stroke-linejoin="round"/>
<g opacity="0.2">
<path d="M227.31 33.2504C229.116 35.1465 234.533 37.3195 234.533 37.3195C234.533 37.3195 234.876 33.3046 234.864 33.0518C234.738 30.0783 232.739 24.4081 229.531 23.5293C228.993 23.3968 228.434 23.379 227.889 23.4771C227.344 23.5752 226.825 23.787 226.368 24.0988C225.91 24.4106 225.523 24.8153 225.232 25.2865C224.941 25.7578 224.753 26.285 224.679 26.8339C224.288 29.1513 225.781 31.6313 227.31 33.2504Z" fill="black"/>
<path d="M281.219 57.6165C281.255 57.6646 283.723 54.4563 283.855 54.2396C285.384 51.6875 286.865 45.8608 284.656 43.3508C284.28 42.944 283.823 42.6209 283.314 42.4025C282.805 42.1841 282.256 42.0753 281.703 42.0833C281.149 42.0912 280.603 42.2157 280.101 42.4486C279.598 42.6815 279.151 43.0177 278.787 43.4351C277.18 45.1506 277.059 48.0458 277.439 50.2368C277.884 52.8071 281.219 57.6104 281.219 57.6165Z" fill="black"/>
<path d="M305.584 44.9639C302.671 43.3387 297.272 45.9691 295.093 47.9735C294.906 48.1481 292.276 51.2239 292.336 51.248H292.396C291.541 51.6573 290.632 52.1088 289.645 52.6144C287.84 53.5715 285.781 54.673 283.626 56.0153C281.302 57.4382 279.063 58.9958 276.921 60.6802C274.518 62.5695 272.29 64.6707 270.263 66.9583L270.191 67.0426C270.588 66.1517 271.624 63.6236 271.678 63.431C272.484 60.5719 272.352 54.5646 269.577 52.7227C269.108 52.4291 268.583 52.2377 268.035 52.1609C267.487 52.0841 266.929 52.1237 266.397 52.277C265.865 52.4304 265.372 52.694 264.949 53.0509C264.526 53.4077 264.184 53.8497 263.943 54.3479C262.848 56.4306 263.492 59.2536 264.437 61.2641C265.496 63.5333 269.637 67.0546 269.968 67.3375C267.948 69.6972 266.09 72.1909 264.407 74.8014C263.413 76.3182 262.462 77.8712 261.529 79.4483C261.848 78.6658 262.131 77.9615 262.131 77.8592C262.938 75 262.805 68.9928 260.031 67.1509C259.562 66.8573 259.036 66.6659 258.488 66.5891C257.94 66.5123 257.382 66.5518 256.851 66.7052C256.319 66.8585 255.826 67.1222 255.403 67.4791C254.98 67.8359 254.637 68.2778 254.396 68.7761C253.301 70.8588 253.945 73.6818 254.89 75.6983C255.835 77.7147 259.314 80.8086 260.241 81.6092C259.892 82.2111 259.531 82.813 259.182 83.415C257.502 86.3343 255.841 89.2536 254.126 92.0707C253.524 93.0638 252.892 94.0149 252.26 94.978C252.543 94.2797 252.777 93.6959 252.801 93.5995C253.608 90.7344 253.476 84.7271 250.701 82.8853C250.231 82.5928 249.705 82.4025 249.157 82.3266C248.609 82.2507 248.051 82.291 247.52 82.4449C246.989 82.5987 246.496 82.8627 246.073 83.2196C245.65 83.5765 245.307 84.0184 245.067 84.5165C243.971 86.5991 244.615 89.4222 245.56 91.4326C246.505 93.443 249.647 96.248 250.749 97.2051C250.075 98.1621 249.4 99.1312 248.702 100.028C248.215 100.63 247.787 101.232 247.258 101.834L245.753 103.573C244.754 104.645 243.724 105.752 242.743 106.77C242.051 107.486 241.383 108.154 240.709 108.828C241.311 107.847 242.478 105.903 242.557 105.728C243.55 103.307 243.907 100.671 243.592 98.0719C243.712 97.806 243.809 97.5301 243.881 97.2472C244.034 96.7155 244.073 96.1576 243.995 95.6097C243.918 95.0619 243.727 94.5364 243.433 94.0675C243.14 93.5986 242.751 93.1966 242.292 92.8879C241.833 92.5791 241.314 92.3704 240.769 92.2753C237.47 91.8058 233.377 96.1999 232.071 98.8965C231.999 99.059 231.355 100.859 230.963 102.008C231.09 101.298 231.222 100.612 231.343 99.8837C231.59 98.439 231.794 96.9944 232.017 95.4354C232.101 94.683 232.185 93.9186 232.27 93.1481C232.354 92.3776 232.378 91.5711 232.438 90.7765C232.535 88.9226 232.541 87.0446 232.504 85.1485C233.768 85.3592 238.265 86.0574 240.426 85.4976C242.587 84.9378 245.169 83.6437 246.072 81.4707C246.303 80.9678 246.426 80.4217 246.432 79.8682C246.438 79.3146 246.327 78.766 246.107 78.2582C245.886 77.7504 245.561 77.2947 245.153 76.921C244.744 76.5473 244.262 76.264 243.736 76.0895C240.528 75.0963 235.815 78.8524 234.148 81.2601C234.045 81.4105 233.022 83.3006 232.486 84.354C232.456 83.2103 232.432 82.0787 232.366 80.923C232.173 77.6003 231.872 74.2476 231.59 70.8949C231.499 69.8656 231.427 68.8423 231.349 67.819C231.794 67.9033 237.127 68.8423 239.547 68.2163C241.696 67.6625 244.284 66.3624 245.193 64.1894C245.422 63.6862 245.544 63.1405 245.549 62.5875C245.554 62.0345 245.443 61.4866 245.222 60.9793C245.002 60.472 244.678 60.0166 244.271 59.6426C243.863 59.2686 243.382 58.9843 242.858 58.8082C239.667 57.8451 234.954 61.5711 233.263 64.0149C233.13 64.2015 231.668 66.9222 231.331 67.6264C231.162 65.3692 231.012 63.118 230.951 60.8969C230.855 57.8839 230.956 54.8679 231.252 51.868C231.457 51.9041 237.013 52.9093 239.493 52.2713C241.648 51.7175 244.236 50.4174 245.139 48.2444C245.37 47.7415 245.493 47.1954 245.499 46.6419C245.505 46.0883 245.394 45.5397 245.174 45.0319C244.953 44.524 244.628 44.0684 244.22 43.6947C243.811 43.321 243.329 43.0377 242.803 42.8632C239.619 41.8941 234.906 45.626 233.209 48.0699C233.1 48.2324 232.005 50.303 231.475 51.3022L231.295 51.248C231.669 48.2467 232.314 45.2853 233.221 42.3997C233.696 40.8046 234.244 39.3058 234.81 37.8612C235.821 38.1561 240.48 39.4443 242.773 39.1132C245.067 38.7821 247.691 37.789 248.829 35.7364C249.113 35.2614 249.294 34.732 249.36 34.1825C249.427 33.633 249.377 33.0757 249.214 32.5467C249.051 32.0177 248.779 31.5289 248.415 31.112C248.051 30.695 247.603 30.3592 247.101 30.1264C244.037 28.8142 238.945 32.0044 236.989 34.2496C236.886 34.37 235.941 35.7304 235.267 36.7296C235.532 36.0795 235.797 35.4053 236.062 34.7914C237.049 32.4739 238.102 30.4154 239.071 28.5975C239.619 27.5682 240.131 26.6533 240.618 25.7986C241.768 25.5638 246.379 24.5947 248.233 23.2464C250.087 21.8981 251.983 19.8094 252.043 17.4559C252.077 16.9035 251.995 16.35 251.801 15.8316C251.607 15.3132 251.306 14.8415 250.918 14.4473C250.529 14.0531 250.062 13.7453 249.546 13.5439C249.031 13.3425 248.479 13.2521 247.926 13.2785C244.603 13.5253 241.551 18.6959 240.853 21.5911C240.793 21.8439 240.293 25.8588 240.36 25.8467H240.426C239.938 26.6593 239.427 27.5382 238.885 28.5073C237.898 30.313 236.796 32.3475 235.749 34.6529C234.602 37.1236 233.597 39.6578 232.739 42.2432C231.743 45.146 231.006 48.1311 230.536 51.1638C230.539 51.1998 230.539 51.236 230.536 51.2721C230.374 50.309 229.838 47.6605 229.778 47.4318C228.869 44.5967 225.444 39.6549 222.115 39.6549C221.562 39.6685 221.017 39.7987 220.517 40.037C220.018 40.2752 219.574 40.6163 219.215 41.0378C218.856 41.4593 218.59 41.9518 218.434 42.4831C218.278 43.0144 218.236 43.5726 218.311 44.1212C218.546 46.4627 220.64 48.4611 222.524 49.6168C224.667 50.923 230.061 51.5791 230.488 51.6272C230.107 54.7121 229.934 57.819 229.97 60.927C229.97 62.7328 230.043 64.5386 230.133 66.3865C229.964 65.5558 229.814 64.8154 229.784 64.7191C228.875 61.8841 225.45 56.9483 222.121 56.9422C221.569 56.956 221.026 57.0859 220.527 57.3234C220.028 57.561 219.585 57.9009 219.226 58.321C218.867 58.7412 218.601 59.2322 218.444 59.762C218.287 60.2919 218.244 60.8488 218.317 61.3965C218.552 63.738 220.646 65.7364 222.531 66.8921C224.415 68.0478 229.043 68.6979 230.259 68.8724C230.301 69.5707 230.337 70.2749 230.38 70.9731C230.59 74.3319 230.813 77.6846 230.933 80.9832C230.982 82.1449 230.976 83.2886 230.982 84.4322C230.837 83.6979 230.705 83.0839 230.675 82.9876C229.766 80.1585 226.347 75.2167 223.012 75.2107C222.458 75.225 221.914 75.3559 221.415 75.5949C220.915 75.834 220.472 76.1757 220.113 76.5977C219.755 77.0198 219.489 77.5128 219.334 78.0444C219.179 78.5761 219.138 79.1344 219.214 79.683C219.443 82.0245 221.543 84.0229 223.427 85.1786C225.311 86.3343 229.495 86.9362 230.939 87.1288C230.903 88.3026 230.873 89.4763 230.795 90.614C230.717 91.3845 230.699 92.1369 230.584 92.9133C230.47 93.6898 230.38 94.4362 230.283 95.1946C230.037 96.6332 229.796 98.126 229.525 99.5285C229.338 100.504 229.146 101.431 228.959 102.37C228.929 101.208 228.821 98.9507 228.791 98.7581C228.321 95.8207 225.691 90.4214 222.398 89.9158C221.849 89.8464 221.291 89.8934 220.762 90.0537C220.232 90.2141 219.742 90.4842 219.323 90.8464C218.905 91.2087 218.567 91.655 218.333 92.1563C218.098 92.6576 217.972 93.2027 217.962 93.756C217.842 96.1036 219.605 98.3969 221.309 99.8295C223.181 101.401 228.201 102.839 228.827 103.008C228.508 104.555 228.183 106.053 227.852 107.462C226.726 112.307 225.606 116.31 224.776 119.109L226.852 119.994L226.907 119.807C227.683 116.948 228.712 112.855 229.778 107.889C230.109 106.324 230.434 104.639 230.753 102.911C232.43 102.946 234.109 102.884 235.779 102.725C236.628 105.09 239.8 108.792 240.209 109.268C239.09 110.375 237.988 111.447 236.935 112.446C233.323 115.865 230.181 118.579 227.948 120.464L230.223 121.433C232.366 119.531 235.159 116.978 238.307 113.86C239.451 112.735 240.648 111.513 241.864 110.249C242.394 110.616 246.68 113.583 249.088 114.023C251.272 114.426 254.168 114.324 255.901 112.735C256.322 112.374 256.662 111.929 256.899 111.429C257.136 110.928 257.265 110.384 257.277 109.83C257.29 109.276 257.186 108.726 256.971 108.215C256.757 107.705 256.438 107.245 256.034 106.866C253.548 104.657 247.703 106.065 245.139 107.576C244.988 107.661 243.459 108.78 242.502 109.557C242.996 109.033 243.484 108.533 243.989 107.992C244.988 106.926 245.957 105.831 246.999 104.657L248.468 102.887C248.973 102.285 249.431 101.629 249.918 100.997C251.02 99.5044 252.067 97.9394 253.084 96.3443C254.017 97.2171 257.388 100.281 259.495 101.009C261.602 101.738 264.473 102.075 266.429 100.762C266.899 100.47 267.301 100.081 267.611 99.6227C267.921 99.164 268.13 98.6452 268.226 98.1001C268.322 97.555 268.303 96.9959 268.168 96.459C268.034 95.9221 267.788 95.4195 267.446 94.984C265.321 92.4198 259.338 92.9314 256.575 94.0329C256.401 94.0991 254.505 95.1164 253.482 95.6942C254.083 94.7312 254.685 93.7681 255.287 92.7689C256.961 89.8917 258.562 86.9242 260.175 83.9747C260.669 83.0719 261.166 82.173 261.668 81.2781C261.999 81.5911 265.923 85.317 268.289 86.1357C270.384 86.858 273.261 87.2011 275.217 85.8889C275.687 85.5966 276.091 85.2086 276.401 84.7502C276.711 84.2917 276.921 83.773 277.018 83.2279C277.114 82.6828 277.095 82.1235 276.961 81.5863C276.827 81.0492 276.582 80.5463 276.24 80.1104C274.11 77.5462 268.126 78.0578 265.364 79.1593C265.153 79.2436 262.432 80.7063 261.752 81.1156C262.854 79.1353 263.967 77.179 265.147 75.289C266.727 72.7317 268.47 70.2788 270.366 67.9454C270.516 68.0959 274.579 72.0024 277.017 72.8391C279.118 73.5614 281.995 73.9045 283.945 72.5923C284.415 72.3001 284.819 71.9121 285.129 71.4536C285.439 70.9951 285.649 70.4765 285.746 69.9314C285.842 69.3863 285.823 68.8269 285.689 68.2898C285.555 67.7527 285.31 67.2498 284.968 66.8138C282.844 64.2496 276.854 64.7613 274.091 65.8628C273.911 65.935 271.834 67.0666 270.859 67.6024L270.739 67.4519C272.711 65.1593 274.882 63.0462 277.228 61.1377C278.51 60.0723 279.792 59.1212 281.056 58.2304C281.742 59.0309 284.914 62.6786 287.009 63.6477C289.104 64.6168 291.824 65.2548 293.925 64.1654C294.424 63.9262 294.867 63.5848 295.225 63.1634C295.583 62.7419 295.848 62.2498 296.004 61.719C296.16 61.1882 296.202 60.6306 296.128 60.0824C296.054 59.5343 295.865 59.0079 295.574 58.5373C293.768 55.7504 287.749 55.5999 284.872 56.3945C284.715 56.4366 283.175 57.0566 282.067 57.5141C282.669 57.1228 283.235 56.7015 283.795 56.3102C285.901 54.9258 287.912 53.7881 289.699 52.795C290.723 52.2412 291.662 51.7536 292.541 51.3142C293.624 51.7536 298.018 53.4691 300.293 53.3849C302.569 53.3006 305.319 52.5843 306.668 50.6581C306.993 50.2209 307.224 49.721 307.346 49.19C307.468 48.659 307.478 48.1084 307.376 47.5732C307.274 47.0379 307.062 46.5297 306.754 46.0805C306.446 45.6314 306.047 45.2512 305.584 44.9639Z" fill="black"/>
</g>
<g opacity="0.2">
<path d="M131.178 34.4121C129.372 36.3142 123.954 38.4811 123.954 38.4872C123.954 38.4932 123.611 34.4723 123.623 34.2135C123.75 31.24 125.748 25.5758 128.962 24.691C129.498 24.5642 130.054 24.5508 130.594 24.6517C131.135 24.7526 131.649 24.9654 132.102 25.2767C132.556 25.5879 132.939 25.9906 133.228 26.4589C133.516 26.9271 133.704 27.4506 133.778 27.9956C134.193 30.313 132.7 32.799 131.178 34.4121Z" fill="black"/>
<path d="M77.2631 58.7781C77.2631 58.8323 74.7651 55.624 74.6326 55.4013C73.0977 52.8491 71.629 47.0225 73.8321 44.5425C74.2077 44.1367 74.6644 43.8144 75.1727 43.5967C75.6809 43.3789 76.2293 43.2704 76.7822 43.2784C77.3351 43.2863 77.8802 43.4105 78.382 43.6428C78.8837 43.8751 79.3311 44.2104 79.6948 44.6268C81.302 46.3483 81.4284 49.2375 81.0492 51.4286C80.6037 53.9687 77.2691 58.7781 77.2631 58.7781Z" fill="black"/>
<path d="M52.9035 46.1256C55.8108 44.5004 61.2101 47.1308 63.3891 49.1352C63.5757 49.3098 66.2061 52.3856 66.1519 52.4097H66.0857C66.9404 52.813 67.8553 53.2644 68.8425 53.7761C70.6483 54.7331 72.7009 55.8287 74.8618 57.171C77.1857 58.5973 79.4264 60.1548 81.5732 61.8359C83.976 63.7314 86.2077 65.8341 88.2426 68.12L88.3088 68.2103C87.9115 67.3194 86.8822 64.7853 86.822 64.5987C86.0215 61.7335 86.1479 55.7263 88.9228 53.8844C89.3926 53.591 89.919 53.3998 90.4676 53.3233C91.0162 53.2469 91.5748 53.2869 92.107 53.4409C92.6391 53.5948 93.1328 53.8591 93.556 54.2166C93.9791 54.5741 94.3222 55.0167 94.5628 55.5157C95.6583 57.5923 95.0143 60.4214 94.0692 62.4318C93.0038 64.701 88.8626 68.2223 88.5315 68.4992C90.5517 70.8624 92.4118 73.358 94.0993 75.9691C95.0865 77.4799 96.0375 79.0389 96.9765 80.61C96.6515 79.8274 96.3746 79.1292 96.3746 79.0269C95.574 76.1617 95.7004 70.1545 98.4753 68.3126C98.9451 68.0191 99.4715 67.8279 100.02 67.7515C100.569 67.6751 101.127 67.7151 101.66 67.869C102.192 68.0229 102.685 68.2872 103.109 68.6447C103.532 69.0022 103.875 69.4449 104.115 69.9438C105.211 72.0265 104.567 74.8495 103.622 76.86C102.677 78.8704 99.1916 81.9763 98.2647 82.7769C98.6198 83.3788 98.9749 83.9807 99.324 84.5827C101.003 87.502 102.665 90.4213 104.38 93.2323C104.982 94.2255 105.62 95.1826 106.246 96.1396C105.963 95.4474 105.735 94.8575 105.704 94.7673C104.904 91.9021 105.03 85.8949 107.805 84.053C108.275 83.7595 108.801 83.5683 109.35 83.4919C109.899 83.4154 110.457 83.4555 110.989 83.6094C111.522 83.7633 112.015 84.0276 112.438 84.3851C112.862 84.7426 113.205 85.1852 113.445 85.6842C114.541 87.7608 113.897 90.5899 112.952 92.6003C112.007 94.6107 108.859 97.4157 107.763 98.3668C108.437 99.3298 109.111 100.293 109.804 101.196C110.297 101.798 110.725 102.4 111.248 103.002L112.759 104.735C113.758 105.807 114.782 106.914 115.769 107.937C116.461 108.648 117.135 109.316 117.809 109.99C117.207 109.009 116.034 107.065 115.955 106.89C114.96 104.469 114.606 101.832 114.926 99.2335C114.804 98.9699 114.705 98.696 114.631 98.4149C114.479 97.8827 114.442 97.3245 114.52 96.7767C114.598 96.2289 114.791 95.7037 115.086 95.2353C115.38 94.7669 115.77 94.3658 116.23 94.058C116.69 93.7502 117.21 93.5428 117.755 93.449C121.054 92.9735 125.147 97.3736 126.453 100.07C126.531 100.227 127.175 102.033 127.56 103.176C127.434 102.466 127.308 101.786 127.187 101.051C126.94 99.6128 126.736 98.1621 126.507 96.6091C126.429 95.8507 126.345 95.0923 126.26 94.3218C126.176 93.5514 126.152 92.7388 126.092 91.9141C125.995 90.0602 125.989 88.1822 126.019 86.2861C124.755 86.5028 120.259 87.195 118.098 86.6413C115.937 86.0875 113.361 84.7813 112.452 82.6144C112.222 82.1109 112.1 81.5646 112.094 81.0109C112.088 80.4572 112.199 79.9085 112.42 79.4005C112.64 78.8924 112.965 78.4364 113.372 78.062C113.78 77.6875 114.263 77.4031 114.788 77.2271C117.978 76.264 122.691 79.99 124.382 82.4338C124.491 82.5903 125.508 84.4803 126.05 85.5277C126.08 84.39 126.098 83.2524 126.17 82.1027C126.363 78.7801 126.658 75.4214 126.946 72.0686C127.031 71.0453 127.103 70.0221 127.187 68.9928C126.736 69.077 121.409 70.0161 118.989 69.3961C116.834 68.8423 114.246 67.5361 113.343 65.3692C113.112 64.8663 112.989 64.3202 112.983 63.7666C112.977 63.2131 113.088 62.6645 113.308 62.1566C113.528 61.6488 113.853 61.1932 114.262 60.8195C114.67 60.4458 115.153 60.1625 115.678 59.988C118.863 59.0189 123.576 62.7448 125.273 65.1886C125.399 65.3752 126.862 68.0959 127.199 68.8002C127.374 66.549 127.524 64.2978 127.584 62.0706C127.679 59.0677 127.579 56.0617 127.284 53.0718C127.073 53.1079 121.517 54.1192 119.037 53.4811C116.888 52.9274 114.3 51.6212 113.391 49.4543C113.155 48.9493 113.029 48.4002 113.021 47.843C113.013 47.2859 113.123 46.7333 113.343 46.2216C113.564 45.7099 113.89 45.2507 114.301 44.8742C114.712 44.4977 115.198 44.2123 115.727 44.0369C118.917 43.0738 123.63 46.7998 125.321 49.2436C125.436 49.4061 126.525 51.4827 127.061 52.4759L127.241 52.4217C126.861 49.4208 126.214 46.4597 125.309 43.5734C124.834 41.9783 124.286 40.4795 123.726 39.0349C122.709 39.3299 118.05 40.618 115.757 40.2929C113.56 39.9799 110.845 38.9687 109.701 36.9101C109.417 36.4352 109.237 35.9059 109.171 35.3566C109.105 34.8073 109.155 34.2502 109.319 33.7216C109.482 33.1931 109.755 32.7048 110.12 32.2887C110.484 31.8725 110.932 31.5378 111.435 31.3062C114.499 29.994 119.591 33.1782 121.541 35.4234C121.649 35.5437 122.588 36.9041 123.263 37.9033C122.998 37.2592 122.739 36.5851 122.474 35.9651C121.481 33.6537 120.428 31.5891 119.464 29.7773C118.923 28.748 118.405 27.827 117.918 26.9723C116.768 26.7376 112.157 25.7685 110.309 24.4262C108.461 23.0839 106.541 21.0193 106.493 18.6597C106.46 18.1073 106.543 17.554 106.737 17.0357C106.931 16.5174 107.232 16.0458 107.62 15.6513C108.008 15.2568 108.475 14.9484 108.99 14.746C109.505 14.5436 110.057 14.4517 110.61 14.4763C113.933 14.7231 116.985 19.8937 117.683 22.7949C117.743 23.0417 118.243 27.0626 118.182 27.0506H118.11C118.598 27.8632 119.115 28.742 119.657 29.7111C120.644 31.5169 121.74 33.5574 122.787 35.8567C123.94 38.3268 124.945 40.8634 125.797 43.4531C126.775 46.3444 127.493 49.3178 127.94 52.3375C127.94 52.3736 127.94 52.4097 127.94 52.4458C128.096 51.4827 128.632 48.8042 128.698 48.6055C129.631 45.7464 133.026 40.8287 136.385 40.8226C136.938 40.838 137.482 40.9695 137.981 41.2088C138.481 41.448 138.924 41.7896 139.283 42.2114C139.642 42.6331 139.908 43.1256 140.064 43.6568C140.22 44.1881 140.262 44.7462 140.189 45.2949C139.954 47.6304 137.853 49.6348 135.975 50.7905C133.838 52.0907 128.445 52.7468 128.012 52.7949C128.395 55.8796 128.57 58.9866 128.536 62.0947C128.536 63.9005 128.457 65.7063 128.373 67.5542C128.536 66.7295 128.692 65.9892 128.722 65.8868C129.631 63.0518 133.05 58.116 136.385 58.11C136.938 58.1253 137.482 58.2569 137.981 58.4961C138.481 58.7354 138.924 59.0769 139.283 59.4987C139.642 59.9204 139.908 60.4129 140.064 60.9441C140.22 61.4754 140.262 62.0335 140.189 62.5823C139.954 64.9177 137.853 66.9222 135.975 68.0779C134.097 69.2335 129.462 69.8836 128.247 70.0582C128.204 70.7564 128.174 71.4547 128.126 72.1589C127.916 75.5177 127.693 78.8704 127.572 82.1629C127.53 83.3246 127.53 84.4683 127.524 85.618C127.675 84.8836 127.801 84.2636 127.831 84.1734C128.74 81.3383 132.165 76.3965 135.494 76.3965C136.047 76.41 136.592 76.5402 137.091 76.7785C137.591 77.0168 138.035 77.3578 138.394 77.7793C138.753 78.2008 139.019 78.6933 139.175 79.2246C139.331 79.756 139.373 80.3141 139.298 80.8628C139.063 83.2043 136.969 85.2027 135.084 86.3584C133.2 87.514 129.017 88.116 127.572 88.3086C127.572 89.4823 127.633 90.6561 127.717 91.7937C127.789 92.5702 127.807 93.3166 127.928 94.0931C128.048 94.8696 128.126 95.622 128.229 96.3744C128.469 97.819 128.71 99.3058 128.987 100.708C129.168 101.689 129.36 102.616 129.553 103.549C129.553 102.394 129.685 100.13 129.715 99.9378C130.185 97.0004 132.821 91.6011 136.114 91.0895C136.663 91.0201 137.22 91.0671 137.749 91.2275C138.279 91.3879 138.768 91.658 139.186 92.0204C139.604 92.3827 139.941 92.8291 140.175 93.3304C140.409 93.8317 140.535 94.3767 140.544 94.9298C140.67 97.2773 138.901 99.5706 137.203 101.003C135.331 102.58 130.305 104.013 129.679 104.181C129.998 105.728 130.329 107.227 130.66 108.636C131.786 113.487 132.906 117.484 133.736 120.289L131.654 121.174C131.654 121.108 131.654 121.047 131.605 120.981C130.829 118.128 129.769 114.029 128.728 109.063C128.397 107.498 128.072 105.813 127.759 104.085C126.079 104.123 124.399 104.061 122.727 103.898C121.884 106.264 118.712 109.966 118.297 110.441C119.416 111.555 120.518 112.626 121.571 113.62C125.183 117.039 128.325 119.759 130.564 121.637L128.21 122.612C126.074 120.716 123.281 118.158 120.127 115.046C118.989 113.921 117.785 112.693 116.569 111.435C116.046 111.796 111.754 114.769 109.346 115.209C107.155 115.606 104.26 115.504 102.532 113.915C102.112 113.555 101.771 113.111 101.534 112.611C101.296 112.112 101.167 111.567 101.153 111.014C101.14 110.461 101.244 109.911 101.458 109.401C101.672 108.89 101.991 108.431 102.394 108.052C104.886 105.837 110.725 107.245 113.289 108.756C113.439 108.846 114.974 109.996 115.925 110.736C115.432 110.213 114.944 109.713 114.444 109.171C113.439 108.106 112.47 107.01 111.435 105.837L109.966 104.067C109.46 103.465 109.003 102.809 108.515 102.177C107.414 100.69 106.373 99.1252 105.355 97.5241C104.416 98.4029 101.052 101.461 98.9388 102.189C96.8261 102.917 93.9609 103.254 92.0106 101.942C91.5407 101.651 91.1374 101.263 90.8272 100.805C90.517 100.347 90.3067 99.8291 90.2102 99.2844C90.1136 98.7398 90.1329 98.1809 90.2669 97.6443C90.4008 97.1076 90.6463 96.6052 90.9874 96.1697C93.1122 93.5995 99.1013 94.1111 101.864 95.2127C102.033 95.2849 103.929 96.3022 104.958 96.88C104.356 95.9109 103.754 94.9478 103.152 93.9547C101.485 91.0774 99.8778 88.1099 98.2707 85.1605C97.7771 84.2516 97.2715 83.3547 96.7719 82.4579C96.4468 82.7769 92.5163 86.4968 90.1507 87.3154C88.05 88.0437 85.1728 88.3808 83.2165 87.0746C82.7468 86.7819 82.344 86.3935 82.0343 85.9348C81.7246 85.4761 81.515 84.9574 81.419 84.4123C81.3231 83.8672 81.343 83.308 81.4774 82.7711C81.6118 82.2343 81.8578 81.7317 82.1992 81.2962C84.324 78.7259 90.3132 79.2376 93.07 80.3451C93.2807 80.4234 96.0014 81.8921 96.6816 82.2953C95.5801 80.321 94.4665 78.3588 93.2867 76.4747C91.7136 73.9143 89.9722 71.461 88.074 69.1312C87.9175 69.2757 83.8606 73.1822 81.4529 74.0189C79.3521 74.7412 76.4749 75.0843 74.5187 73.7721C74.05 73.4818 73.6476 73.0963 73.3374 72.6405C73.0272 72.1848 72.8162 71.669 72.718 71.1265C72.6198 70.584 72.6367 70.027 72.7675 69.4914C72.8983 68.9559 73.1401 68.4538 73.4773 68.0177C75.6021 65.4474 81.5853 65.9591 84.3481 67.0606C84.5287 67.1328 86.6053 68.2645 87.5805 68.8002L87.7009 68.6557C85.7306 66.3598 83.5591 64.2446 81.2121 62.3355C79.936 61.2701 78.6539 60.325 77.3838 59.4282C76.6976 60.2348 73.5255 63.8764 71.4308 64.8455C69.4264 65.8026 66.6154 66.4526 64.5207 65.3692C64.0206 65.1307 63.5763 64.7895 63.2169 64.3678C62.8575 63.9461 62.5911 63.4534 62.4349 62.9218C62.2787 62.3902 62.2363 61.8317 62.3105 61.2826C62.3847 60.7335 62.5737 60.2062 62.8654 59.7352C64.7013 56.9543 70.6904 56.8038 73.5736 57.5983C73.7301 57.6405 75.2651 58.2544 76.3786 58.7179C75.7767 58.3206 75.2109 57.9053 74.6511 57.514C72.5443 56.1296 70.5339 54.992 68.7402 53.9928C67.7169 53.4631 66.814 52.9695 65.8991 52.5361C64.8156 52.9755 60.4216 54.691 58.1463 54.6128C55.871 54.5345 53.1202 53.8122 51.7659 51.886C51.4337 51.443 51.1984 50.9351 51.0754 50.3952C50.9523 49.8553 50.9441 49.2956 51.0514 48.7524C51.1587 48.2091 51.379 47.6946 51.6981 47.242C52.0172 46.7895 52.4279 46.4091 52.9035 46.1256Z" fill="black"/>
</g>
<path d="M314.572 102.707V105.451C314.549 105.776 314.405 106.079 314.167 106.301C313.93 106.522 313.617 106.646 313.292 106.646C312.968 106.646 312.655 106.522 312.417 106.301C312.18 106.079 312.036 105.776 312.013 105.451V102.707H304.531V105.451C304.509 105.776 304.365 106.079 304.127 106.301C303.89 106.522 303.577 106.646 303.252 106.646C302.928 106.646 302.615 106.522 302.377 106.301C302.14 106.079 301.995 105.776 301.973 105.451V102.707H294.497V105.451C294.497 105.791 294.362 106.118 294.122 106.358C293.881 106.598 293.555 106.734 293.215 106.734C292.875 106.734 292.549 106.598 292.309 106.358C292.068 106.118 291.933 105.791 291.933 105.451V102.707H284.457V105.451C284.435 105.776 284.291 106.079 284.053 106.301C283.816 106.522 283.503 106.646 283.178 106.646C282.853 106.646 282.541 106.522 282.303 106.301C282.066 106.079 281.921 105.776 281.899 105.451V102.707H274.417V105.451C274.417 105.79 274.283 106.114 274.043 106.354C273.804 106.593 273.479 106.728 273.141 106.728C272.803 106.728 272.478 106.593 272.239 106.354C271.999 106.114 271.865 105.79 271.865 105.451V102.707H268.458V138.22H318.039V102.707H314.572ZM276.614 133.098H272.756V129.24H276.614V133.098ZM276.614 127.5H272.756V123.642H276.614V127.5ZM276.614 121.902H272.756V118.044H276.614V121.902ZM276.614 116.304H272.756V112.446H276.614V116.304ZM282.796 133.098H278.932V129.24H282.796V133.098ZM282.796 127.5H278.932V123.642H282.796V127.5ZM282.796 121.902H278.932V118.044H282.796V121.902ZM282.796 116.304H278.932V112.446H282.796V116.304ZM288.966 133.098H285.113V129.24H288.966V133.098ZM288.966 127.5H285.113V123.642H288.966V127.5ZM288.966 121.902H285.113V118.044H288.966V121.902ZM288.966 116.304H285.113V112.446H288.966V116.304ZM295.147 133.098H291.283V129.24H295.147V133.098ZM295.147 127.5H291.283V123.642H295.147V127.5ZM295.147 121.902H291.283V118.044H295.147V121.902ZM295.147 116.304H291.283V112.446H295.147V116.304ZM301.323 133.098H297.465V129.24H301.323V133.098ZM301.323 127.5H297.465V123.642H301.323V127.5ZM301.323 121.902H297.465V118.044H301.323V121.902ZM301.323 116.304H297.465V112.446H301.323V116.304ZM307.505 133.098H303.641V129.24H307.505V133.098ZM307.505 127.5H303.641V123.642H307.505V127.5ZM307.505 121.902H303.641V118.044H307.505V121.902ZM307.505 116.304H303.641V112.446H307.505V116.304ZM313.675 133.098H309.822V129.24H313.675V133.098ZM313.675 127.5H309.822V123.642H313.675V127.5ZM313.675 121.902H309.822V118.044H313.675V121.902ZM313.675 116.304H309.822V112.446H313.675V116.304Z" stroke="#263238" stroke-width="0.601926" stroke-linecap="round" stroke-linejoin="round"/>
<path d="M314.572 99.8234V105.451C314.55 105.776 314.405 106.079 314.168 106.301C313.93 106.522 313.618 106.646 313.293 106.646C312.968 106.646 312.655 106.522 312.418 106.301C312.18 106.079 312.036 105.776 312.014 105.451V99.8234C312.036 99.4993 312.18 99.1958 312.418 98.9741C312.655 98.7524 312.968 98.6291 313.293 98.6291C313.618 98.6291 313.93 98.7524 314.168 98.9741C314.405 99.1958 314.55 99.4993 314.572 99.8234Z" stroke="#263238" stroke-width="0.601926" stroke-linecap="round" stroke-linejoin="round"/>
<path d="M304.531 99.8234V105.451C304.509 105.776 304.364 106.079 304.127 106.301C303.889 106.522 303.577 106.646 303.252 106.646C302.927 106.646 302.614 106.522 302.377 106.301C302.139 106.079 301.995 105.776 301.973 105.451V99.8234C301.995 99.4993 302.139 99.1958 302.377 98.9741C302.614 98.7524 302.927 98.6291 303.252 98.6291C303.577 98.6291 303.889 98.7524 304.127 98.9741C304.364 99.1958 304.509 99.4993 304.531 99.8234Z" stroke="#263238" stroke-width="0.601926" stroke-linecap="round" stroke-linejoin="round"/>
<path d="M294.497 99.8234V105.451C294.497 105.791 294.362 106.118 294.121 106.358C293.881 106.598 293.555 106.734 293.215 106.734C292.875 106.734 292.549 106.598 292.308 106.358C292.068 106.118 291.933 105.791 291.933 105.451V99.8234C291.933 99.6553 291.966 99.4889 292.03 99.3337C292.095 99.1785 292.189 99.0375 292.308 98.919C292.428 98.8004 292.569 98.7065 292.725 98.6427C292.88 98.579 293.047 98.5466 293.215 98.5473C293.383 98.5455 293.549 98.5776 293.704 98.6418C293.859 98.7059 294 98.8007 294.118 98.9205C294.238 99.0382 294.333 99.1787 294.398 99.3338C294.463 99.4888 294.497 99.6553 294.497 99.8234Z" stroke="#263238" stroke-width="0.601926" stroke-linecap="round" stroke-linejoin="round"/>
<path d="M284.458 99.8234V105.451C284.435 105.776 284.291 106.079 284.054 106.301C283.816 106.522 283.503 106.646 283.179 106.646C282.854 106.646 282.541 106.522 282.304 106.301C282.066 106.079 281.922 105.776 281.899 105.451V99.8234C281.899 99.6553 281.933 99.4889 281.997 99.3337C282.062 99.1785 282.156 99.0375 282.275 98.919C282.394 98.8004 282.536 98.7065 282.691 98.6427C282.847 98.579 283.013 98.5466 283.182 98.5473C283.52 98.5473 283.845 98.6818 284.084 98.9211C284.323 99.1604 284.458 99.485 284.458 99.8234Z" stroke="#263238" stroke-width="0.601926" stroke-linecap="round" stroke-linejoin="round"/>
<path d="M274.417 99.8234V105.451C274.417 105.79 274.283 106.114 274.044 106.354C273.804 106.593 273.48 106.728 273.141 106.728C272.803 106.728 272.478 106.593 272.239 106.354C272 106.114 271.865 105.79 271.865 105.451V99.8234C271.865 99.485 272 99.1604 272.239 98.9211C272.478 98.6818 272.803 98.5473 273.141 98.5473C273.48 98.5473 273.804 98.6818 274.044 98.9211C274.283 99.1604 274.417 99.485 274.417 99.8234Z" stroke="#263238" stroke-width="0.601926" stroke-linecap="round" stroke-linejoin="round"/>
<path d="M71.8215 141.116C83.0744 141.116 92.1967 131.993 92.1967 120.74C92.1967 109.487 83.0744 100.365 71.8215 100.365C60.5686 100.365 51.4463 109.487 51.4463 120.74C51.4463 131.993 60.5686 141.116 71.8215 141.116Z" stroke="#263238" stroke-width="0.601926" stroke-linecap="round" stroke-linejoin="round"/>
<path d="M75.9291 138.289C85.6216 136.026 91.6447 126.334 89.3821 116.642C87.1194 106.949 77.4279 100.926 67.7354 103.189C58.0429 105.452 52.0198 115.143 54.2824 124.836C56.5451 134.528 66.2366 140.551 75.9291 138.289Z" stroke="#263238" stroke-width="0.601926" stroke-linecap="round" stroke-linejoin="round"/>
<path d="M71.8221 122.462C72.7729 122.462 73.5436 121.691 73.5436 120.74C73.5436 119.79 72.7729 119.019 71.8221 119.019C70.8713 119.019 70.1006 119.79 70.1006 120.74C70.1006 121.691 70.8713 122.462 71.8221 122.462Z" fill="#263238" stroke="#263238" stroke-width="0.601926" stroke-linecap="round" stroke-linejoin="round"/>
<path d="M78.0937 123.81L71.8217 120.74L61.3662 132.171" stroke="#263238" stroke-width="0.601926" stroke-linecap="round" stroke-linejoin="round"/>
<path d="M255.131 43.8503H109.808C107.787 43.8503 106.148 45.4888 106.148 47.51V266.208C106.148 268.229 107.787 269.868 109.808 269.868H255.131C257.152 269.868 258.791 268.229 258.791 266.208V47.51C258.791 45.4888 257.152 43.8503 255.131 43.8503Z" fill="#263238" stroke="#263238" stroke-width="0.601926" stroke-linecap="round" stroke-linejoin="round"/>
<path d="M251.038 48.9486H113.907V261.158H251.038V48.9486Z" fill="white" stroke="#263238" stroke-width="0.601926" stroke-linecap="round" stroke-linejoin="round"/>
<path d="M201.62 104.001H212.268" stroke="#263238" stroke-width="0.601926" stroke-miterlimit="10"/>
<path d="M127.769 104.001H193.372" stroke="#263238" stroke-width="0.601926" stroke-miterlimit="10"/>
<path d="M185.819 112.247H212.268" stroke="#263238" stroke-width="0.601926" stroke-miterlimit="10"/>
<path d="M145.286 112.247H178.609" stroke="#263238" stroke-width="0.601926" stroke-miterlimit="10"/>
<path d="M127.769 112.247H139.103" stroke="#263238" stroke-width="0.601926" stroke-miterlimit="10"/>
<path d="M160.742 120.488H212.267" stroke="#263238" stroke-width="0.601926" stroke-miterlimit="10"/>
<path d="M127.769 120.488H149.408" stroke="#263238" stroke-width="0.601926" stroke-miterlimit="10"/>
<path d="M235.714 120.249C240.514 119.108 243.48 114.292 242.339 109.492C241.198 104.693 236.383 101.727 231.583 102.868C226.783 104.008 223.817 108.824 224.958 113.624C226.099 118.423 230.915 121.389 235.714 120.249Z" stroke="#263238" stroke-width="0.601926" stroke-miterlimit="10"/>
<path d="M138.417 140.754H127.769" stroke="#263238" stroke-width="0.601926" stroke-miterlimit="10"/>
<path d="M212.268 140.754H146.664" stroke="#263238" stroke-width="0.601926" stroke-miterlimit="10"/>
<path d="M154.217 149.001H127.769" stroke="#263238" stroke-width="0.601926" stroke-miterlimit="10"/>
<path d="M194.752 149.001H161.43" stroke="#263238" stroke-width="0.601926" stroke-miterlimit="10"/>
<path d="M212.268 149.001H200.934" stroke="#263238" stroke-width="0.601926" stroke-miterlimit="10"/>
<path d="M179.293 157.241H127.769" stroke="#263238" stroke-width="0.601926" stroke-miterlimit="10"/>
<path d="M212.268 157.241H190.629" stroke="#263238" stroke-width="0.601926" stroke-miterlimit="10"/>
<path d="M235.713 156.993C240.513 155.853 243.479 151.037 242.338 146.237C241.197 141.438 236.382 138.472 231.582 139.612C226.782 140.753 223.816 145.569 224.957 150.368C226.098 155.168 230.914 158.134 235.713 156.993Z" stroke="#263238" stroke-width="0.601926" stroke-miterlimit="10"/>
<path d="M201.62 177.508H212.268" stroke="#263238" stroke-width="0.601926" stroke-miterlimit="10"/>
<path d="M127.769 177.508H193.372" stroke="#263238" stroke-width="0.601926" stroke-miterlimit="10"/>
<path d="M185.819 185.754H212.268" stroke="#263238" stroke-width="0.601926" stroke-miterlimit="10"/>
<path d="M145.286 185.754H178.609" stroke="#263238" stroke-width="0.601926" stroke-miterlimit="10"/>
<path d="M127.769 185.754H139.103" stroke="#263238" stroke-width="0.601926" stroke-miterlimit="10"/>
<path d="M160.742 193.995H212.267" stroke="#263238" stroke-width="0.601926" stroke-miterlimit="10"/>
<path d="M127.769 193.995H149.408" stroke="#263238" stroke-width="0.601926" stroke-miterlimit="10"/>
<path d="M239.961 191.376C243.449 187.888 243.449 182.232 239.961 178.744C236.472 175.255 230.816 175.255 227.328 178.744C223.84 182.232 223.84 187.888 227.328 191.376C230.816 194.865 236.472 194.865 239.961 191.376Z" stroke="#263238" stroke-width="0.601926" stroke-miterlimit="10"/>
<path d="M194.018 26.0514C193.709 26.0514 193.412 25.9283 193.193 25.7093C192.974 25.4903 192.851 25.1933 192.851 24.8836V18.3226C192.851 17.997 192.787 17.6745 192.662 17.3736C192.537 17.0727 192.355 16.7993 192.124 16.569C191.894 16.3388 191.621 16.1561 191.32 16.0315C191.019 15.9068 190.696 15.8427 190.371 15.8427H179.795C179.469 15.8419 179.146 15.9055 178.844 16.0297C178.542 16.154 178.268 16.3366 178.037 16.5669C177.807 16.7973 177.623 17.0709 177.498 17.3722C177.373 17.6735 177.309 17.9964 177.309 18.3226V24.8836C177.31 25.0367 177.28 25.1884 177.222 25.33C177.164 25.4717 177.079 25.6005 176.971 25.709C176.863 25.8175 176.735 25.9036 176.593 25.9624C176.452 26.0211 176.3 26.0514 176.147 26.0514C175.994 26.0506 175.842 26.08 175.701 26.1381C175.559 26.1961 175.43 26.2815 175.322 26.3895C175.213 26.4974 175.127 26.6258 175.069 26.7671C175.01 26.9084 174.979 27.06 174.979 27.2131V44.988H195.18V27.2131C195.18 26.905 195.058 26.6095 194.84 26.3916C194.622 26.1738 194.327 26.0514 194.018 26.0514ZM185.08 25.4494C184.436 25.4482 183.807 25.2562 183.272 24.8977C182.738 24.5392 182.321 24.0302 182.076 23.435C181.83 22.8399 181.766 22.1853 181.893 21.554C182.019 20.9227 182.33 20.3431 182.785 19.8883C183.241 19.4334 183.821 19.1239 184.453 18.9987C185.084 18.8736 185.739 18.9384 186.333 19.1851C186.928 19.4317 187.436 19.8491 187.794 20.3845C188.151 20.9199 188.342 21.5492 188.342 22.193C188.339 23.0556 187.994 23.8817 187.382 24.49C186.77 25.0983 185.942 25.439 185.08 25.4374V25.4494Z" fill="#263238" stroke="#263238" stroke-width="0.601926" stroke-linecap="round" stroke-linejoin="round"/>
<path d="M158.746 39.3358H211.42C212.8 39.3374 214.123 39.8867 215.098 40.863C216.073 41.8392 216.621 43.1627 216.621 44.5425V50.5317H153.539V44.5425C153.539 43.1616 154.088 41.8373 155.064 40.8608C156.04 39.8844 157.365 39.3358 158.746 39.3358Z" fill="white" stroke="#263238" stroke-width="0.601926" stroke-linecap="round" stroke-linejoin="round"/>
<path d="M155.103 41.2741H215.06C214.504 40.6631 213.827 40.1751 213.071 39.8414C212.316 39.5076 211.498 39.3354 210.672 39.3359H159.509C158.679 39.3322 157.859 39.5028 157.1 39.8367C156.341 40.1706 155.66 40.6603 155.103 41.2741Z" fill="#263238" stroke="#263238" stroke-width="0.601926" stroke-linecap="round" stroke-linejoin="round"/>
<path d="M216.621 50.4775H153.539V54.1553H216.621V50.4775Z" fill="white" stroke="#263238" stroke-width="0.601926" stroke-linecap="round" stroke-linejoin="round"/>
<path d="M230.241 146.834L232.667 151.144L241.84 142.247" stroke="#A5CE3E" stroke-width="3.61156" stroke-miterlimit="10" stroke-linecap="round"/>
<path d="M230.241 109.689L232.667 114.005L241.84 105.102" stroke="#A5CE3E" stroke-width="3.61156" stroke-miterlimit="10" stroke-linecap="round"/>
<path d="M201.62 67.6685H212.268" stroke="#263238" stroke-width="0.601926" stroke-miterlimit="10"/>
<path d="M127.769 67.6685H193.372" stroke="#263238" stroke-width="0.601926" stroke-miterlimit="10"/>
<path d="M185.819 75.9089H212.268" stroke="#263238" stroke-width="0.601926" stroke-miterlimit="10"/>
<path d="M145.286 75.9089H178.609" stroke="#263238" stroke-width="0.601926" stroke-miterlimit="10"/>
<path d="M127.769 75.9089H139.103" stroke="#263238" stroke-width="0.601926" stroke-miterlimit="10"/>
<path d="M160.742 84.1553H212.267" stroke="#263238" stroke-width="0.601926" stroke-miterlimit="10"/>
<path d="M127.769 84.1553H149.408" stroke="#263238" stroke-width="0.601926" stroke-miterlimit="10"/>
<path d="M239.965 81.5351C243.454 78.0467 243.454 72.3909 239.965 68.9025C236.477 65.4141 230.821 65.4141 227.333 68.9025C223.845 72.3909 223.845 78.0467 227.333 81.5351C230.821 85.0235 236.477 85.0235 239.965 81.5351Z" stroke="#263238" stroke-width="0.601926" stroke-miterlimit="10"/>
<path d="M230.241 73.3568L232.667 77.6726L241.84 68.7701" stroke="#A5CE3E" stroke-width="3.61156" stroke-miterlimit="10" stroke-linecap="round"/>
<path d="M228.96 181.878L231.386 186.194L240.553 177.291" stroke="#A5CE3E" stroke-width="3.61156" stroke-miterlimit="10" stroke-linecap="round"/>
<path d="M278.036 125.002C278.036 125.002 281.292 127.759 281.045 130.179C280.799 132.598 277.542 138.521 276.796 140.273C276.049 142.024 277.795 146.196 277.795 146.196L266.96 149.868C267.094 149.234 267.094 148.581 266.96 147.947C266.713 147.345 266.292 145.774 266.292 145.774L264.125 146.527C263.626 146.695 261.874 145.859 261.79 145.112C261.705 144.366 261.705 143.86 261.621 142.771C261.573 141.65 261.434 140.535 261.206 139.436C261.037 139.105 259.37 138.016 259.454 137.432C259.539 136.848 261.453 134.597 261.621 133.85C261.79 133.104 261.374 131.443 261.537 130.51C261.699 129.577 263.289 126.423 263.289 126.423C263.289 126.423 262.289 125.586 265.04 123.335C267.791 121.083 274.701 120.415 278.036 125.002Z" fill="white" stroke="#263238" stroke-width="0.601926" stroke-linecap="round" stroke-linejoin="round"/>
<path d="M278.036 125.002C274.702 120.415 267.804 121.083 265.023 123.335C262.242 125.586 263.271 126.423 263.271 126.423L265.775 128.343C265.775 128.343 263.44 131.009 263.777 131.352C264.114 131.695 265.944 134.019 265.944 134.019L265.781 134.795L265.45 133.537C265.45 133.537 264.415 137.685 264.246 138.72C264.078 139.755 264.048 140.146 263.596 140.279C263.145 140.411 261.188 139.442 261.188 139.442C261.188 139.442 261.188 141.898 261.11 142.933C261.032 143.969 260.978 144.817 260.911 145.72C260.845 146.623 262.212 148.128 263.831 147.797C265.45 147.466 266.323 146.623 266.275 145.78C266.226 144.938 266.81 142.03 266.552 141.447C266.293 140.863 265.805 137.967 266.275 136.691C266.275 136.691 267.358 134.356 268.532 134.356C269.706 134.356 269.862 137.522 269.531 138.274C269.2 139.027 269.031 139.442 269.031 139.442C269.031 139.442 269.031 139.942 272.282 141.025C274.726 141.844 276.086 141.386 276.616 141.11C276.625 140.825 276.684 140.543 276.79 140.279C277.537 138.527 280.793 132.604 281.04 130.185C281.287 127.765 278.036 125.002 278.036 125.002Z" fill="#263238" stroke="#263238" stroke-width="0.601926" stroke-linecap="round" stroke-linejoin="round"/>
<path d="M269.062 139.436C269.062 139.436 268.309 140.604 267.641 140.857C266.973 141.11 266.558 140.189 266.558 140.189" stroke="#263238" stroke-width="0.601926" stroke-linecap="round" stroke-linejoin="round"/>
<path d="M261.838 134.097C261.838 134.699 261.988 135.181 262.169 135.181C262.35 135.181 262.506 134.699 262.506 134.097C262.506 133.495 262.356 133.014 262.169 133.014C261.982 133.014 261.838 133.501 261.838 134.097Z" fill="#263238"/>
<path d="M262.854 132.761C262.854 132.761 263.023 131.677 261.687 132.159" stroke="#263238" stroke-width="0.601926" stroke-linecap="round" stroke-linejoin="round"/>
<path d="M262.061 141.844C262.525 141.726 262.954 141.499 263.313 141.182" stroke="white" stroke-width="0.601926" stroke-linecap="round" stroke-linejoin="round"/>
<path d="M231.513 163.182H250.395L254.777 177.983H235.895L231.513 163.182Z" fill="white" stroke="#263238" stroke-width="0.601926" stroke-linecap="round" stroke-linejoin="round"/>
<path d="M232.855 164.037H249.559L253.435 177.129H236.732L232.855 164.037Z" fill="white" stroke="#263238" stroke-width="0.601926" stroke-linecap="round" stroke-linejoin="round"/>
<path d="M236.028 179.139H259.069V178.14H236.028V179.139Z" fill="white" stroke="#263238" stroke-width="0.601926" stroke-linecap="round" stroke-linejoin="round"/>
<path d="M266.364 273.822C266.364 273.822 264.329 276.669 262.957 277.434C261.584 278.198 258.226 279.035 258.226 279.896C258.226 280.756 258.478 280.895 259.977 281.394C261.476 281.894 264.191 281.894 265.714 281.894C266.919 281.852 268.126 281.895 269.325 282.02C270.813 282.237 272.312 282.361 273.815 282.394C275.061 282.394 275.019 279.077 275.019 279.077L266.364 273.822Z" fill="white" stroke="#263238" stroke-width="0.601926" stroke-linecap="round" stroke-linejoin="round"/>
<path d="M286.438 203.126C286.438 203.126 283.507 226.402 280.702 234.149C277.897 241.896 279.095 244.25 277.193 252.147C275.291 260.044 274.996 278.632 274.996 279.077C274.996 279.522 274.117 279.077 271.047 277.464C269.265 276.559 267.675 275.319 266.364 273.81C266.451 272.875 266.597 271.946 266.804 271.029C267.093 269.825 267.682 266.786 267.682 266.786C267.682 266.786 266.509 256.83 267.827 240.903C269.145 224.976 269.729 206.039 269.729 206.039C269.729 206.039 280.437 204.589 286.438 203.126Z" fill="#263238" stroke="#263238" stroke-width="0.601926" stroke-linecap="round" stroke-linejoin="round"/>
<path d="M271.703 278.866C271.703 278.866 269.596 281.057 268.284 281.762C266.972 282.466 262.867 283.953 262.759 284.567C262.65 285.181 263.108 286.409 263.36 286.493C265.703 286.946 268.078 287.21 270.463 287.281C273.792 287.372 277.65 286.932 278.613 286.932C279.576 286.932 281.858 287.811 281.948 285.181C282.038 282.55 280.63 278.782 280.63 278.782C280.63 278.782 275.995 280.185 271.703 278.866Z" fill="white" stroke="#263238" stroke-width="0.601926" stroke-linecap="round" stroke-linejoin="round"/>
<path d="M278.541 211.878C278.541 211.878 277.476 226.926 276.946 231.465C276.417 236.003 277.488 245.586 278.692 252.207C279.896 258.828 280.293 272.588 280.293 272.588C280.509 272.726 280.668 272.937 280.741 273.182C280.814 273.428 280.796 273.691 280.69 273.925C280.386 274.575 280.119 275.242 279.89 275.923C279.89 275.923 281.358 276.453 281.226 277.386C281.094 278.319 280.69 280.052 280.69 280.052C279.491 280.175 278.284 280.219 277.079 280.185C275.377 280.183 273.681 280.003 272.017 279.649L270.951 279.119C270.951 279.119 270.68 276.988 270.68 275.785C270.68 274.581 272.017 273.377 271.884 272.721C271.752 272.065 271.09 268.327 270.554 265.263C270.018 262.199 270.421 260.333 269.488 257.137C268.555 253.941 263.361 234.866 263.361 234.866C263.361 234.866 260.953 212.751 260.827 209.687C260.7 206.623 260.694 205.287 260.694 205.287C260.694 205.287 264.824 201.958 265.757 201.958C266.69 201.958 278.541 211.878 278.541 211.878Z" fill="#263238" stroke="#263238" stroke-width="0.601926" stroke-linecap="round" stroke-linejoin="round"/>
<path d="M260.297 203.042C260.297 203.042 259.84 206.394 260.297 207.075C260.755 207.755 264.715 208.826 269.663 209.362C274.611 209.898 280.937 209.362 283.068 208.597C285.199 207.833 286.571 207.153 286.878 206.617C287.185 206.081 286.95 203.27 286.95 203.27C286.95 203.27 267.255 204.414 260.297 203.042Z" fill="#FEFEFE" stroke="#263238" stroke-width="0.601926" stroke-linecap="round" stroke-linejoin="round"/>
<path d="M279.541 148.194C279.541 148.194 286.548 152.877 287.854 160.317C289.009 166.938 287.131 190.323 287.131 191.575C287.131 192.827 288.094 202.963 288.094 202.963C289.088 205.094 280.968 207.045 276.519 207.46C272.583 207.827 263.879 206.948 261.393 205.714C260.604 205.323 259.846 204.896 259.828 204.017C259.738 199.93 259.527 189.029 259.798 187.404C260.135 185.399 259.768 173.722 259.768 169.719C259.768 165.716 258.269 159.625 259.605 157.037C260.942 154.448 264.361 152.703 264.361 152.703C268.726 149.447 274.106 147.849 279.541 148.194Z" fill="#FEFEFE" stroke="#263238" stroke-width="0.601926" stroke-linecap="round" stroke-linejoin="round"/>
<path d="M279.607 171.862C279.095 172.881 278.491 173.85 277.801 174.757" stroke="#263238" stroke-width="0.601926" stroke-linecap="round" stroke-linejoin="round"/>
<path d="M284.373 161.882C284.373 161.882 282.766 165.542 281.062 169.009" stroke="#263238" stroke-width="0.601926" stroke-linecap="round" stroke-linejoin="round"/>
<path d="M281.088 173.445L277.536 178.176" stroke="#263238" stroke-width="0.601926" stroke-linecap="round" stroke-linejoin="round"/>
<path d="M279.625 144.775L281.208 148.778C281.208 148.778 277.874 148.947 274.786 149.38C271.698 149.813 264.36 152.721 264.36 152.721C264.36 152.721 265.107 149.711 265.691 149.109C267.589 147.231 269.999 145.954 272.619 145.437C274.913 144.896 277.27 144.673 279.625 144.775Z" fill="#FEFEFE" stroke="#263238" stroke-width="0.601926" stroke-linecap="round" stroke-linejoin="round"/>
<path d="M267.551 182.763C267.551 182.763 267.015 189.065 266.347 189.384C265.679 189.703 248.464 183.696 247.23 183.082C246.555 182.748 245.824 182.544 245.075 182.48C244.84 182.408 242.757 182.408 241.987 182.016C241.337 181.576 240.743 181.059 240.217 180.476C239.982 180.325 238.134 180.247 237.599 179.874C237.063 179.5 236.365 179.181 236.828 178.947C237.737 178.661 238.661 178.43 239.597 178.254C239.597 178.254 239.675 177.177 240.602 177.02C241.529 176.864 241.204 177.255 243.456 175.943C245.707 174.631 245.46 175.714 247.386 177.099C249.312 178.483 250.233 180.03 250.468 180.108C250.703 180.187 257.691 182.811 257.691 182.811L267.551 182.763Z" fill="white" stroke="#263238" stroke-width="0.601926" stroke-linecap="round" stroke-linejoin="round"/>
<path d="M239.573 178.212L243.353 177.749" stroke="#263238" stroke-width="0.601926" stroke-linecap="round" stroke-linejoin="round"/>
<path d="M252.207 180.674C252.207 180.674 251.147 179.759 250.431 180.072C249.715 180.385 248.674 181.728 248.571 183.389C248.469 185.05 251.172 185.261 251.172 185.261L252.207 180.674Z" fill="#FEFEFE" stroke="#263238" stroke-width="0.601926" stroke-linecap="round" stroke-linejoin="round"/>
<path d="M266.419 153.455C265.029 153.455 261.369 154.466 260.231 155.73C259.094 156.994 258.967 160.654 259.346 165.578C259.726 170.502 261.658 179.723 261.664 179.771C261.664 179.663 261.429 180.259 261.369 180.373C261.116 180.825 261.76 180.897 261.158 180.975C260.634 181.051 260.105 181.091 259.575 181.095L256.927 180.644C255.157 180.338 253.37 180.149 251.575 180.078C251.016 180.078 249.535 184.605 250.372 185.592C251.208 186.579 267.948 193.074 269.073 192.815C270.199 192.556 272.348 177.767 272.318 177.677C272.643 173.62 273.034 168.864 273.106 168.365" fill="#FEFEFE"/>
<path d="M266.419 153.455C265.029 153.455 261.369 154.466 260.231 155.73C259.094 156.994 258.967 160.654 259.346 165.578C259.726 170.502 261.658 179.723 261.664 179.771C261.664 179.663 261.429 180.259 261.369 180.373C261.116 180.825 261.76 180.897 261.158 180.975C260.634 181.051 260.105 181.091 259.575 181.095L256.927 180.644C255.157 180.338 253.37 180.149 251.575 180.078C251.016 180.078 249.535 184.605 250.372 185.592C251.208 186.579 267.948 193.074 269.073 192.815C270.199 192.556 272.348 177.767 272.318 177.677C272.643 173.62 273.034 168.864 273.106 168.365" stroke="#263238" stroke-width="0.601926" stroke-linecap="round" stroke-linejoin="round"/>
<path d="M261.157 180.987C262.259 182.141 263.44 183.217 264.691 184.207" stroke="#263238" stroke-width="0.601926" stroke-linecap="round" stroke-linejoin="round"/>
<path d="M262.716 183.901C263.462 184.599 264.301 185.193 265.208 185.664" stroke="#263238" stroke-width="0.601926" stroke-linecap="round" stroke-linejoin="round"/>
<path d="M200.296 143.012C199.952 140.947 198.574 139.569 198.225 138.305C197.931 137.352 197.548 136.429 197.081 135.548C195.91 137.949 195.005 140.473 194.385 143.072L194.084 142.356L188.402 146.834L188.064 156.796L197.322 157.229C197.322 157.229 196.943 155.58 196.81 154.358C196.71 153.15 196.781 151.934 197.021 150.746C197.021 150.746 199.639 150.807 199.868 149.886C200.097 148.965 200.639 145.064 200.296 143.012Z" fill="white" stroke="#263238" stroke-width="0.601926" stroke-linecap="round" stroke-linejoin="round"/>
<path d="M198.809 139.346C199.156 139.478 199.518 139.569 199.886 139.617C200.223 139.617 200.825 139.683 200.626 140.496C200.547 140.927 200.306 141.313 199.952 141.573L198.809 139.346Z" fill="white" stroke="#263238" stroke-width="0.601926" stroke-linecap="round" stroke-linejoin="round"/>
<path d="M196.059 254.446C196.059 254.446 194.795 275.959 194.795 276.302C194.795 276.645 193.2 281.984 193.429 282.779C193.657 283.573 195.475 283.802 196.727 283.917C197.979 284.031 200.586 284.368 201.609 284.368C203.399 284.343 205.185 284.192 206.954 283.917C207.634 283.688 208.543 283.008 207.749 282.436C206.954 281.864 205.022 281.641 202.746 279.029C201.67 277.883 200.718 276.626 199.905 275.279L204.721 254.675L196.059 254.446Z" fill="white" stroke="#263238" stroke-width="0.601926" stroke-linecap="round" stroke-linejoin="round"/>
<path d="M164.127 250.474C164.127 250.474 155.273 272.498 154.593 273.407C153.912 274.316 149.314 280.124 149.175 281.232C149.037 282.339 154.942 282.472 155.965 281.792C156.988 281.112 158.204 275.171 158.884 273.967C159.564 272.763 174.667 252.057 174.667 252.057L164.127 250.474Z" fill="white" stroke="#263238" stroke-width="0.601926" stroke-linecap="round" stroke-linejoin="round"/>
<path d="M179.036 186.429L178.867 190.124C178.867 190.124 174.257 200.068 169.772 212.396C164.885 225.837 158.528 249.113 158.528 249.113C158.528 249.113 162.742 252.978 174.178 254.825C185.615 256.673 192.718 257.456 198.93 257.269C206.448 257.041 216.024 254.994 216.024 254.994C216.024 254.994 210.649 222.057 206.279 207.099C201.909 192.141 200.862 190.654 200.862 190.654L199.375 182.317L179.036 186.429Z" fill="#8F8F8F" stroke="#263238" stroke-width="0.601926" stroke-linecap="round" stroke-linejoin="round"/>
<path d="M186.168 211.878L184.916 256.005" stroke="#263238" stroke-width="0.601926" stroke-linecap="round" stroke-linejoin="round"/>
<path d="M186.258 208.61L186.21 210.343" stroke="#263238" stroke-width="0.601926" stroke-linecap="round" stroke-linejoin="round"/>
<path d="M195.8 190.985C196.502 190.841 197.188 190.666 197.858 190.462" stroke="#263238" stroke-width="0.601926" stroke-linecap="round" stroke-linejoin="round"/>
<path d="M180.884 191.298C184.978 191.795 189.115 191.833 193.217 191.413" stroke="#263238" stroke-width="0.601926" stroke-linecap="round" stroke-linejoin="round"/>
<path d="M220.905 142.957C220.626 141.738 220.425 140.501 220.303 139.256C220.219 137.775 218.822 135.801 218.985 134.976C219.147 134.151 219.972 134.236 220.387 134.482C220.748 134.784 221.054 135.147 221.29 135.554C221.29 135.554 222.446 132.014 222.446 130.449C222.446 128.884 223.433 129.053 223.842 130.118C224.252 131.184 223.68 135.307 223.68 135.307C224.46 135.509 225.228 135.756 225.979 136.047C226.726 136.378 228.122 137.034 227.875 139.093C227.628 141.152 227.382 142.301 226.888 142.301C226.395 142.301 225.979 141.645 225.979 141.645C225.979 141.645 225.979 143.866 225.239 144.522C224.581 144.969 223.812 145.225 223.018 145.263C223.018 145.263 223.216 143.62 220.905 142.957Z" fill="white" stroke="#263238" stroke-width="0.601926" stroke-linecap="round" stroke-linejoin="round"/>
<path d="M226.01 141.645C226.01 141.645 226.509 139.749 226.509 139.502" stroke="#263238" stroke-width="0.601926" stroke-linecap="round" stroke-linejoin="round"/>
<path d="M221.321 135.554L220.827 137.859" stroke="#263238" stroke-width="0.601926" stroke-linecap="round" stroke-linejoin="round"/>
<path d="M218.864 145.263L220.411 142.638C220.411 142.638 221.013 141.802 222.44 142.283H222.482C223.108 142.5 223.628 142.946 223.938 143.531C224.247 144.117 224.323 144.798 224.149 145.437L223.752 146.918C223.752 146.918 220.652 145.142 218.864 145.263Z" fill="#A5CE3E" stroke="#263238" stroke-width="0.601926" stroke-linecap="round" stroke-linejoin="round"/>
<path d="M154.152 197.865C154.152 197.865 154.531 199.833 154.718 201.236C154.905 202.638 155.838 205.449 156.524 205.823C157.21 206.196 158.023 206.665 157.09 206.948C156.157 207.231 155.591 207.321 154.748 206.665C154.213 206.256 153.73 205.783 153.31 205.257C153.31 205.257 152.659 208.158 152.19 209.567C151.674 210.835 151.047 212.055 150.318 213.214C150.305 213.421 150.244 213.622 150.139 213.801C150.035 213.979 149.89 214.131 149.716 214.244C149.156 214.527 148.753 213.407 148.753 213.407C148.753 213.407 148.001 215.165 147.513 213.311C147.111 211.146 146.861 208.955 146.767 206.756C146.857 205.817 150.643 197.125 150.643 197.125L154.152 197.865Z" fill="white" stroke="#263238" stroke-width="0.601926" stroke-linecap="round" stroke-linejoin="round"/>
<path d="M148.837 208.164C148.552 208.625 148.348 209.132 148.235 209.663C148.235 210.036 148.723 213.413 148.723 213.413" stroke="#263238" stroke-width="0.601926" stroke-linecap="round" stroke-linejoin="round"/>
<path d="M150.318 213.22L149.837 209.946L150.692 207.791" stroke="#263238" stroke-width="0.601926" stroke-linecap="round" stroke-linejoin="round"/>
<path d="M150.974 212.101C150.974 212.101 151.01 210.331 151.13 209.524C151.251 208.718 151.455 208.862 151.732 207.887" stroke="#263238" stroke-width="0.601926" stroke-linecap="round" stroke-linejoin="round"/>
<path d="M151.906 203.487C151.819 204.051 151.558 204.573 151.16 204.98C150.537 205.552 149.88 206.084 149.191 206.575" stroke="#263238" stroke-width="0.601926" stroke-linecap="round" stroke-linejoin="round"/>
<path d="M177.001 158.024C177.001 158.024 169.363 161.726 168.887 162.677C168.412 163.628 158.871 180.686 157.559 182.36C156.247 184.033 152.19 186.176 151.714 187.843C151.239 189.51 151.594 194.049 151.594 194.049L150.637 197.149C150.637 197.149 150.757 198.22 152.442 198.581L154.116 198.937L156.981 196.192C156.981 196.192 163.181 194.645 165.685 191.659C168.189 188.674 174.274 174.721 174.274 174.721L173.317 184.147C177.825 184.737 182.382 184.856 186.915 184.502C194.312 183.9 202.42 182.697 202.42 182.697L201.349 171.724C201.349 171.724 219.004 168.864 219.955 168.028C220.906 167.191 221.76 164.928 221.863 164.091C221.965 163.254 224.963 147.273 224.963 147.273C224.546 146.678 224.015 146.171 223.401 145.782C222.788 145.392 222.103 145.128 221.387 145.004C218.883 144.528 216.379 145.841 216.259 146.557C216.138 147.273 211.01 157.65 211.01 157.65C211.01 157.65 210.649 157.41 209.343 158.006C208.036 158.602 205.731 157.669 205.731 157.669C205.731 157.669 201.12 156.338 198.508 156.579C195.896 156.82 193.379 157.181 193.379 157.181C193.379 157.181 188.727 155.032 185.272 155.977C181.816 156.922 177.001 158.024 177.001 158.024Z" fill="#A5CE3E" stroke="#263238" stroke-width="0.601926" stroke-linecap="round" stroke-linejoin="round"/>
<path d="M193.459 172.813L201.332 171.742L196.083 174.486" stroke="#263238" stroke-width="0.601926" stroke-linecap="round" stroke-linejoin="round"/>
<path d="M174.377 169.358L174.256 174.721L172.469 172.458" stroke="#263238" stroke-width="0.601926" stroke-linecap="round" stroke-linejoin="round"/>
<path d="M152.666 194.524C152.666 194.524 153.027 195.728 155.886 195.728" stroke="#263238" stroke-width="0.601926" stroke-linecap="round" stroke-linejoin="round"/>
<path d="M183.465 148.447C187.384 151.457 190.688 149.651 192.091 148.23C193.806 146.509 193.794 144.258 194.914 142.109C195.058 141.326 197.653 138.581 197.851 137.931C198.315 136.439 197.424 133.82 197.424 133.82C197.424 133.82 199.952 134.169 198.802 131.641C197.653 129.113 196.617 128.192 194.204 127.963C193.479 127.916 192.755 128.048 192.094 128.349C191.434 128.649 190.858 129.108 190.417 129.685C190.417 129.685 187.546 128.307 185.602 129.342C183.658 130.377 180.817 129.342 178.511 136.342C178.178 137.136 177.942 137.966 177.807 138.816C177.705 140.845 178.866 142.289 180.016 143.963C181.78 146.533 181.003 146.545 183.465 148.447Z" fill="#263238" stroke="#263238" stroke-width="0.601926" stroke-linecap="round" stroke-linejoin="round"/>
<path d="M188.15 145.155C188.15 145.73 187.979 146.292 187.66 146.77C187.34 147.248 186.886 147.62 186.355 147.841C185.824 148.061 185.239 148.118 184.675 148.006C184.111 147.894 183.593 147.617 183.186 147.21C182.78 146.804 182.503 146.286 182.391 145.722C182.279 145.158 182.336 144.573 182.556 144.042C182.776 143.511 183.149 143.057 183.627 142.737C184.105 142.418 184.667 142.247 185.242 142.247C186.013 142.249 186.751 142.556 187.296 143.101C187.841 143.645 188.148 144.384 188.15 145.155Z" fill="white" stroke="#263238" stroke-width="0.601926" stroke-linecap="round" stroke-linejoin="round"/>
<path d="M179.933 150.524C179.933 152.33 179.933 154.105 178.32 155.339C176.514 156.681 169.592 161.834 173.396 167.095C177.201 172.356 177.742 170.899 177.411 172.693C177.08 174.486 169.689 179.404 171.031 183.768C172.373 188.132 177.857 190.594 177.05 192.273C176.244 193.953 178.73 202.235 188.24 197.871C197.75 193.507 197.094 185.989 193.278 177.502C192.393 175.54 192.809 173.036 196.39 169.003C199.972 164.97 197.275 157.235 193.501 153.353C191.274 151.047 190.365 149.212 190.491 148.766C190.618 148.321 187.024 143.06 184.002 144.625C182.124 145.6 180.391 147.46 179.988 149.645C179.944 149.936 179.925 150.23 179.933 150.524Z" fill="#263238" stroke="#263238" stroke-width="0.601926" stroke-linecap="round" stroke-linejoin="round"/>
<path d="M194.915 142.109C194.915 142.109 193.711 140.465 192.91 142.229C192.609 142.941 192.543 143.732 192.724 144.484C192.905 145.236 193.323 145.91 193.916 146.406C194.734 147.051 195.324 144.697 195.324 144.697" fill="white"/>
<path d="M194.915 142.109C194.915 142.109 193.711 140.465 192.91 142.229C192.609 142.941 192.543 143.732 192.724 144.484C192.905 145.236 193.323 145.91 193.916 146.406C194.734 147.051 195.324 144.697 195.324 144.697" stroke="#263238" stroke-width="0.601926" stroke-linecap="round" stroke-linejoin="round"/>
<path d="M206.953 283.917C207.633 283.688 208.542 283.008 207.748 282.436C206.953 281.864 205.021 281.641 202.746 279.029L202.625 281.063C199.683 280.934 196.755 280.579 193.867 280.004C193.59 280.903 193.442 281.838 193.428 282.779C193.656 283.573 195.474 283.802 196.726 283.917C197.978 284.031 200.585 284.368 201.608 284.368C203.398 284.343 205.184 284.192 206.953 283.917Z" fill="#A5CE3E" stroke="#263238" stroke-width="0.601926" stroke-linecap="round" stroke-linejoin="round"/>
<path d="M155.987 281.822C156.415 281.539 156.866 280.359 157.306 278.993C155.172 279.08 153.039 278.816 150.992 278.21C150.028 279.571 149.246 280.799 149.186 281.262C149.089 282.394 154.964 282.502 155.987 281.822Z" fill="#A5CE3E" stroke="#263238" stroke-width="0.601926" stroke-linecap="round" stroke-linejoin="round"/>
<path d="M77.0277 226.198H71.9775V235.16H77.0277V226.198Z" fill="#263238" stroke="#263238" stroke-width="0.601926" stroke-linecap="round" stroke-linejoin="round"/>
<path d="M77.2864 190.443H70.9481C65.7522 190.443 61.54 194.656 61.54 199.851V219.516C61.54 224.712 65.7522 228.925 70.9481 228.925H77.2864C82.4824 228.925 86.6945 224.712 86.6945 219.516V199.851C86.6945 194.656 82.4824 190.443 77.2864 190.443Z" fill="#949494" stroke="#263238" stroke-width="0.601926" stroke-linecap="round" stroke-linejoin="round"/>
<path d="M66.5784 282.135C66.5784 281.712 66.453 281.299 66.2182 280.948C65.9834 280.596 65.6497 280.322 65.2593 280.161C64.8688 279.999 64.4392 279.957 64.0246 280.039C63.6101 280.121 63.2294 280.325 62.9306 280.624C62.6317 280.923 62.4282 281.303 62.3457 281.718C62.2633 282.132 62.3056 282.562 62.4673 282.952C62.6291 283.343 62.903 283.677 63.2544 283.911C63.6058 284.146 64.0189 284.272 64.4415 284.272C64.7224 284.272 65.0006 284.218 65.2602 284.111C65.5198 284.003 65.7557 283.846 65.9543 283.648C66.1529 283.449 66.3102 283.213 66.4173 282.953C66.5244 282.694 66.5792 282.416 66.5784 282.135Z" fill="#263238" stroke="#263238" stroke-width="0.601926" stroke-linecap="round" stroke-linejoin="round"/>
<path d="M108.31 282.135C108.31 281.712 108.184 281.299 107.95 280.948C107.715 280.596 107.381 280.322 106.991 280.161C106.6 279.999 106.171 279.957 105.756 280.039C105.342 280.121 104.961 280.325 104.662 280.624C104.363 280.923 104.16 281.303 104.077 281.718C103.995 282.132 104.037 282.562 104.199 282.952C104.361 283.343 104.634 283.677 104.986 283.911C105.337 284.146 105.75 284.272 106.173 284.272C106.454 284.272 106.732 284.218 106.992 284.111C107.251 284.003 107.487 283.846 107.686 283.648C107.884 283.449 108.042 283.213 108.149 282.953C108.256 282.694 108.311 282.416 108.31 282.135Z" fill="#263238" stroke="#263238" stroke-width="0.601926" stroke-linecap="round" stroke-linejoin="round"/>
<path d="M86.3457 282.135C86.3457 280.931 85.9003 280.004 85.3526 280.004C84.8048 280.004 84.3594 280.955 84.3594 282.135C84.3594 283.315 84.8048 284.272 85.3526 284.272C85.9003 284.272 86.3457 283.315 86.3457 282.135Z" fill="#263238" stroke="#263238" stroke-width="0.601926" stroke-linecap="round" stroke-linejoin="round"/>
<path d="M87.2967 270.542V239.922H83.1013V270.668L62.4131 278.854V280.913H65.4167V279.173L85.3585 275.056L105.3 279.173V280.913H108.304V278.854L87.2967 270.542Z" fill="#263238" stroke="#263238" stroke-width="0.601926" stroke-linecap="round" stroke-linejoin="round"/>
<path d="M84.305 280.907H86.3997L86.8511 270.963H83.8535L84.305 280.907Z" fill="#263238" stroke="#263238" stroke-width="0.601926" stroke-linecap="round" stroke-linejoin="round"/>
<path d="M90.5234 238.754H79.8633V245.086H90.5234V238.754Z" fill="#263238" stroke="#263238" stroke-width="0.601926" stroke-linecap="round" stroke-linejoin="round"/>
<path d="M100.298 232.921H69.0945C67.1298 232.921 65.5371 234.514 65.5371 236.479V237.526C65.5371 239.491 67.1298 241.083 69.0945 241.083H100.298C102.263 241.083 103.856 239.491 103.856 237.526V236.479C103.856 234.514 102.263 232.921 100.298 232.921Z" fill="#949494" stroke="#263238" stroke-width="0.601926" stroke-linecap="round" stroke-linejoin="round"/>
<path d="M130.539 251.852L133.717 256.565L137.491 256.33C137.491 256.33 143.017 256.402 143.962 256.162C144.907 255.921 145.256 256.764 144.786 257.697C144.317 258.63 140.212 261.579 138.087 262.879C135.744 264.225 133.298 265.384 130.773 266.346C130.171 266.467 129.473 265.287 128.179 261.633C127.208 259.082 125.984 256.634 124.525 254.326L130.539 251.852Z" fill="white" stroke="#263238" stroke-width="0.601926" stroke-linecap="round" stroke-linejoin="round"/>
<path d="M144.786 257.697C145.255 256.752 144.906 255.927 143.961 256.162C143.016 256.396 137.49 256.33 137.49 256.33L133.716 256.565C133.742 257.652 133.945 258.728 134.318 259.749C134.318 259.749 129.015 261.043 128.19 261.633C129.485 265.287 130.195 266.449 130.785 266.346C133.31 265.384 135.755 264.225 138.098 262.879C140.211 261.579 144.316 258.642 144.786 257.697Z" fill="white" stroke="#263238" stroke-width="0.601926" stroke-linecap="round" stroke-linejoin="round"/>
<path d="M144.624 256.216C143.327 257.515 141.888 258.662 140.332 259.635C136.903 261.744 133.301 263.556 129.563 265.052C130.063 266.045 130.436 266.4 130.767 266.334C133.292 265.372 135.738 264.213 138.081 262.867C140.206 261.567 144.311 258.654 144.78 257.685C145.117 257.022 145.063 256.42 144.624 256.216Z" fill="#FEFEFE" stroke="#263238" stroke-width="0.601926" stroke-linecap="round" stroke-linejoin="round"/>
<path d="M122.286 214.448C122.726 213.467 126.247 226.348 129.07 238.634C130.978 246.928 132.646 251.876 132.646 251.876C131.293 253.048 129.838 254.097 128.3 255.012C126.65 255.837 123.821 256.896 123.821 256.896C123.821 256.896 119.608 247.735 117.248 243.136C114.889 238.537 114.239 235.467 112.349 232.048C110.459 228.63 109.983 222.478 109.983 222.478C109.983 222.478 108.779 216.585 113.282 215.05C117.784 213.515 120.986 212.799 122.286 214.448Z" fill="#FEFEFE" stroke="#263238" stroke-width="0.601926" stroke-linecap="round" stroke-linejoin="round"/>
<path d="M109.826 264.029C109.826 264.029 109.007 269.079 108.459 270.921C107.912 272.763 106.395 276.116 106.87 276.94C107.346 277.765 109.88 278.626 111.144 278.746C112.408 278.866 114.069 280.949 116.459 281.816C118.849 282.683 121.997 282.448 121.924 281.816C121.852 281.184 114.858 273.479 114.515 271.613C114.172 269.747 115.4 263.884 115.4 263.884L109.826 264.029Z" fill="white" stroke="#263238" stroke-width="0.601926" stroke-linecap="round" stroke-linejoin="round"/>
<path d="M113.642 272.865L113.45 273.395C111.604 273.187 109.779 272.821 107.996 272.299C107.346 274.105 106.497 276.296 106.871 276.952C107.346 277.789 109.88 278.638 111.144 278.758C112.408 278.878 114.07 280.961 116.459 281.828C118.849 282.695 121.997 282.46 121.925 281.828C121.853 281.196 114.858 273.491 114.515 271.625C114.162 271.991 113.868 272.409 113.642 272.865Z" fill="white" stroke="#263238" stroke-width="0.601926" stroke-linecap="round" stroke-linejoin="round"/>
<path d="M116.315 280.564C114.425 279.637 112.703 278.054 110.205 277.205C108.568 276.645 107.43 276.194 106.835 275.947C106.74 276.277 106.752 276.629 106.871 276.952C107.346 277.789 109.88 278.638 111.144 278.758C112.408 278.878 114.07 280.961 116.459 281.828C118.735 282.658 121.696 282.478 121.907 281.918C120.336 281.701 117.609 281.202 116.315 280.564Z" fill="#FEFEFE" stroke="#263238" stroke-width="0.601926" stroke-linecap="round" stroke-linejoin="round"/>
<path d="M108.575 226.065C108.575 226.065 117.887 227.125 118.591 231.838C119.295 236.551 117.652 265.895 117.652 265.895C116.271 265.957 114.888 265.878 113.523 265.66C111.639 265.305 108.461 264.601 108.461 264.601C108.461 264.601 107.985 254.585 107.395 250.576C106.805 246.567 106.336 234.926 106.336 234.926C106.336 234.926 90.782 233.632 89.3674 232.687C87.9529 231.742 108.575 226.065 108.575 226.065Z" fill="#FEFEFE" stroke="#263238" stroke-width="0.601926" stroke-linecap="round" stroke-linejoin="round"/>
<path d="M120.824 222.713C120.824 222.713 97.8485 231.814 92.5335 233.583C87.7461 235.096 82.6147 235.136 77.8044 233.698C74.1507 232.494 72.3871 227.829 72.3871 227.829C72.3871 227.829 71.4721 226.746 71.9416 225.686C72.4111 224.627 79.9533 217.909 84.5821 216.729C89.2109 215.55 97.4934 216.067 97.4934 216.067C97.4934 216.067 117.574 210.927 120.048 211.282C122.521 211.637 124.49 220.443 124.863 221.623" fill="#FEFEFE"/>
<path d="M120.824 222.713C120.824 222.713 97.8485 231.814 92.5335 233.583C87.7461 235.096 82.6147 235.136 77.8044 233.698C74.1507 232.494 72.3871 227.829 72.3871 227.829C72.3871 227.829 71.4721 226.746 71.9416 225.686C72.4111 224.627 79.9533 217.909 84.5821 216.729C89.2109 215.55 97.4934 216.067 97.4934 216.067C97.4934 216.067 117.574 210.927 120.048 211.282C122.521 211.637 124.49 220.443 124.863 221.623" stroke="#263238" stroke-width="0.601926" stroke-linecap="round" stroke-linejoin="round"/>
<path d="M77.6953 228.774C77.6953 228.774 79.3446 222.291 83.7146 219.583" stroke="#263238" stroke-width="0.601926" stroke-linecap="round" stroke-linejoin="round"/>
<path d="M76.7568 224.416C76.7568 224.416 78.5205 221.701 80.88 221.112" stroke="#263238" stroke-width="0.601926" stroke-linecap="round" stroke-linejoin="round"/>
<path d="M95.1638 180.915C95.1638 180.915 96.789 182.685 98.6911 187.295C100.593 191.906 103.675 205.859 103.675 205.859C102.789 206.223 101.85 206.443 100.894 206.509C99.6903 206.509 98.047 206.677 97.3668 205.859C96.6867 205.04 94.7545 198.678 94.7545 198.678C94.7545 198.678 93.8034 190.937 93.5506 187C93.2978 183.064 92.0579 182.251 93.2798 181.029C94.5017 179.807 95.1638 180.915 95.1638 180.915Z" fill="white" stroke="#263238" stroke-width="0.601926" stroke-linecap="round" stroke-linejoin="round"/>
<path d="M90.5048 178.17C90.5048 178.17 94.0019 179.019 95.1637 180.945C96.3254 182.871 95.8017 187.289 95.8017 187.289C95.8017 187.289 98.8896 196.252 98.3117 198.377C97.7339 200.502 95.4165 203.583 95.4165 203.583C95.4165 203.583 95.6091 210.53 96.1869 211.878C96.696 213.264 97.1162 214.682 97.445 216.122C97.445 216.122 95.8017 217.277 90.4024 218.048C85.0032 218.818 80.567 219.203 78.7371 220.654C76.9072 222.105 72.8503 227.594 72.3687 227.877C71.8872 228.16 71.5019 227.089 71.1107 226.318C70.7194 225.548 70.8218 223.224 71.7126 219.751C72.6035 216.278 73.0369 206.202 71.827 199.827C70.5208 192.917 69.7925 191.918 70.5629 187.386C71.3334 182.853 82.0417 175.949 83.5826 175.654C85.1235 175.359 90.5048 178.17 90.5048 178.17Z" fill="white" stroke="#263238" stroke-width="0.601926" stroke-linecap="round" stroke-linejoin="round"/>
<path d="M73.4336 222.057C73.4336 222.057 76.377 218.638 77.7915 218.048C79.2061 217.458 89.1078 217.446 89.1078 217.446" stroke="white" stroke-width="0.601926" stroke-linecap="round" stroke-linejoin="round"/>
<path d="M75.5771 217.699C76.4983 217.164 77.4888 216.759 78.5206 216.495C80.0912 216.372 81.669 216.372 83.2397 216.495" stroke="white" stroke-width="0.601926" stroke-linecap="round" stroke-linejoin="round"/>
<path d="M80.7598 205.913C83.97 204.658 86.8966 202.773 89.3673 200.369" stroke="#263238" stroke-width="0.601926" stroke-linecap="round" stroke-linejoin="round"/>
<path d="M90.6614 153.949C90.6614 153.949 91.9615 156.73 92.3949 157.596C92.8283 158.463 92.6537 159.938 92.9968 161.154C93.3399 162.37 95.3383 163.152 95.3383 163.844C95.2003 164.579 94.9355 165.283 94.5558 165.927C94.5558 165.927 94.1224 171.308 93.4302 171.916C92.738 172.524 89.8728 172.699 89.8728 172.699L89.6321 177.851L91.2693 178.814C91.2693 178.814 91.5582 184.502 91.2693 186.531C90.9804 188.559 90.0655 188.981 87.5073 187.452C84.6481 185.748 80.9523 181.222 80.5671 180.259C80.1818 179.296 81.3676 175.907 79.6281 170.357C77.8885 164.807 81.7167 159.769 84.2328 157.422C86.7488 155.074 87.9708 153.491 90.6614 153.949Z" fill="white" stroke="#263238" stroke-width="0.601926" stroke-linecap="round" stroke-linejoin="round"/>
<path d="M90.6612 153.949C90.5709 152.39 90.3963 151.782 87.1881 151.433C83.9798 151.083 77.1178 150.831 74.4272 155.598C71.7366 160.365 71.7366 170.79 71.7366 170.79C71.7366 170.79 64.7543 175.148 64.2727 178.616C63.7912 182.083 66.0785 185.363 69.7683 186.525L69.985 186.579C70.3093 184.964 70.9945 183.443 71.9894 182.131C74.0721 179.633 75.8779 179.91 78.5203 179.211C81.1628 178.513 82.8421 178.339 83.2334 175.323C83.5618 172.78 83.5779 170.207 83.2816 167.66C83.1973 166.619 84.3229 165.054 84.3229 165.054C84.3229 165.054 87.0135 165.746 88.747 161.063C90.4806 156.38 90.7454 155.514 90.6612 153.949Z" fill="#263238" stroke="#263238" stroke-width="0.601926" stroke-linecap="round" stroke-linejoin="round"/>
<path d="M85.4728 166.36C85.4728 166.36 84.6 162.37 82.3428 163.953C80.0856 165.536 83.4744 169.942 83.9921 170.026C84.4851 170.004 84.9641 169.854 85.3825 169.593" fill="white"/>
<path d="M85.4728 166.36C85.4728 166.36 84.6 162.37 82.3428 163.953C80.0856 165.536 83.4744 169.942 83.9921 170.026C84.4851 170.004 84.9641 169.854 85.3825 169.593" stroke="#263238" stroke-width="0.601926" stroke-linecap="round" stroke-linejoin="round"/>
<path d="M89.8781 172.699L87.1875 172.349L89.7216 172.795L89.8781 172.699Z" fill="#263238" stroke="#263238" stroke-width="0.601926" stroke-linecap="round" stroke-linejoin="round"/>
<path d="M92.7315 162.147C92.8459 162.749 92.7316 163.254 92.4667 163.303C92.2019 163.351 91.9069 162.917 91.7986 162.327C91.6902 161.738 91.7986 161.226 92.0574 161.172C92.3162 161.118 92.6172 161.563 92.7315 162.147Z" fill="#263238"/>
<path d="M78.9117 189.781L78.0088 188.656" stroke="#263238" stroke-width="0.601926" stroke-linecap="round" stroke-linejoin="round"/>
<path d="M75.6853 179.091C75.6853 179.091 72.3205 178.977 69.7683 182.57C67.2162 186.164 68.1431 190.69 68.8414 192.55C69.5396 194.41 75.1074 205.311 75.92 206.701C76.7326 208.092 79.6279 210.066 80.3261 210.313C81.0243 210.56 83.3357 197.781 83.113 196.619C82.8903 195.457 77.5392 187.337 77.5392 187.337" fill="white"/>
<path d="M75.6853 179.091C75.6853 179.091 72.3205 178.977 69.7683 182.57C67.2162 186.164 68.1431 190.69 68.8414 192.55C69.5396 194.41 75.1074 205.311 75.92 206.701C76.7326 208.092 79.6279 210.066 80.3261 210.313C81.0243 210.56 83.3357 197.781 83.113 196.619C82.8903 195.457 77.5392 187.337 77.5392 187.337" stroke="#263238" stroke-width="0.601926" stroke-linecap="round" stroke-linejoin="round"/>
<path d="M78.0092 209.693C77.011 209.571 76.0046 209.529 74.9996 209.567C74.1449 209.681 74.3435 209.825 74.801 210.289C75.2584 210.752 76.2576 210.554 76.2576 210.554L78.0092 209.693Z" stroke="#263238" stroke-width="0.601926" stroke-linecap="round" stroke-linejoin="round"/>
<path d="M102.448 202.891C103.362 203.74 105.391 209.302 101.466 210.084C97.5419 210.867 87.2068 209.825 86.8095 210.217C86.4122 210.608 83.1498 213.16 82.4275 213.684C81.6774 214.136 80.8827 214.509 80.0559 214.797C80.0559 214.797 78.5511 215.971 78.1598 215.712C77.7686 215.453 78.5511 214.797 78.5511 214.797C77.8902 215.199 77.1879 215.528 76.4564 215.778C75.9327 215.845 75.9989 215.056 75.9989 215.056C75.7581 215.18 75.4847 215.227 75.2164 215.189C75.1639 214.996 75.16 214.793 75.2052 214.599C75.2504 214.405 75.3432 214.225 75.4752 214.075C75.9327 213.551 78.1598 211.396 78.1598 211.396C77.635 211.555 77.1301 211.773 76.655 212.047C76.5226 212.245 75.7401 212.769 75.2826 213.16C74.8252 213.551 74.4279 213.485 74.3015 213.16C74.1751 212.835 74.9034 211.728 75.6318 210.975C76.3601 210.223 80.2907 208.712 81.0491 208.712C81.8075 208.712 88.224 206.695 88.224 206.695C88.224 206.695 100.016 202.626 100.341 202.482" fill="white"/>
<path d="M102.448 202.891C103.362 203.74 105.391 209.302 101.466 210.084C97.5419 210.867 87.2068 209.825 86.8095 210.217C86.4122 210.608 83.1498 213.16 82.4275 213.684C81.6774 214.136 80.8827 214.509 80.0559 214.797C80.0559 214.797 78.5511 215.971 78.1598 215.712C77.7686 215.453 78.5511 214.797 78.5511 214.797C77.8902 215.199 77.1879 215.528 76.4564 215.778C75.9327 215.845 75.9989 215.056 75.9989 215.056C75.7581 215.18 75.4847 215.227 75.2164 215.189C75.1639 214.996 75.16 214.793 75.2052 214.599C75.2504 214.405 75.3432 214.225 75.4752 214.075C75.9327 213.551 78.1598 211.396 78.1598 211.396C77.635 211.555 77.1301 211.773 76.655 212.047C76.5226 212.245 75.7401 212.769 75.2826 213.16C74.8252 213.551 74.4279 213.485 74.3015 213.16C74.1751 212.835 74.9034 211.728 75.6318 210.975C76.3601 210.223 80.2907 208.712 81.0491 208.712C81.8075 208.712 88.224 206.695 88.224 206.695C88.224 206.695 100.016 202.626 100.341 202.482" stroke="#263238" stroke-width="0.601926" stroke-linecap="round" stroke-linejoin="round"/>
<path d="M92.2627 205.329C92.2627 205.329 93.6531 207.37 91.8955 210.06" stroke="#263238" stroke-width="0.601926" stroke-linecap="round" stroke-linejoin="round"/>
<path d="M76.0156 215.056L78.4715 213.004L79.7957 211.944" stroke="#263238" stroke-width="0.601926" stroke-linecap="round" stroke-linejoin="round"/>
<path d="M78.5684 214.797C78.5684 214.797 80.5246 213.196 80.7233 213.13" stroke="#263238" stroke-width="0.601926" stroke-linecap="round" stroke-linejoin="round"/>
<path d="M75.9199 201.483C76.0283 203.86 75.318 207.297 78.8031 209.494C80.4765 210.548 82.9625 211.547 84.2205 208.79C85.4785 206.033 86.3814 181.33 86.3814 181.33L87.8441 180.933C89.3068 180.53 90.1194 178.116 90.1194 178.116C89.9403 178.321 89.8416 178.584 89.8416 178.856C89.8416 179.129 89.9403 179.392 90.1194 179.597C90.7875 180.265 93.454 177.466 93.5865 176.665C93.7189 175.865 91.8529 173.337 91.8529 173.337C92.1008 173.191 92.2979 172.972 92.4174 172.711C92.5369 172.449 92.5731 172.157 92.521 171.874C92.3886 170.808 88.6988 171.874 88.6988 171.874L86.5259 174.691C86.5259 174.691 83.3417 178.772 83.0648 179.861C82.8481 180.746 79.8023 190.353 78.0507 194.615" fill="white"/>
<path d="M75.9199 201.483C76.0283 203.86 75.318 207.297 78.8031 209.494C80.4765 210.548 82.9625 211.547 84.2205 208.79C85.4785 206.033 86.3814 181.33 86.3814 181.33L87.8441 180.933C89.3068 180.53 90.1194 178.116 90.1194 178.116C89.9403 178.321 89.8416 178.584 89.8416 178.856C89.8416 179.129 89.9403 179.392 90.1194 179.597C90.7875 180.265 93.454 177.466 93.5865 176.665C93.7189 175.865 91.8529 173.337 91.8529 173.337C92.1008 173.191 92.2979 172.972 92.4174 172.711C92.5369 172.449 92.5731 172.157 92.521 171.874C92.3886 170.808 88.6988 171.874 88.6988 171.874L86.5259 174.691C86.5259 174.691 83.3417 178.772 83.0648 179.861C82.8481 180.746 79.8023 190.353 78.0507 194.615" stroke="#263238" stroke-width="0.601926" stroke-linecap="round" stroke-linejoin="round"/>
<path d="M80.8496 187.049L85.6771 188.908" stroke="#263238" stroke-width="0.601926" stroke-linecap="round" stroke-linejoin="round"/>
</svg>
