<svg width="12" height="19" viewBox="0 0 12 19" fill="none" xmlns="http://www.w3.org/2000/svg">
<path d="M3.375 7.10352C4.44141 7.10352 5.34375 8.00586 5.34375 9.07227C5.34375 10.166 4.44141 11.041 3.375 11.041C2.28125 11.041 1.40625 10.166 1.40625 9.07227C1.40625 8.00586 2.28125 7.10352 3.375 7.10352ZM1.40625 4.25977C1.40625 3.19336 2.28125 2.29102 3.375 2.29102C4.44141 2.29102 5.34375 3.19336 5.34375 4.25977C5.34375 5.35352 4.44141 6.22852 3.375 6.22852C2.28125 6.22852 1.40625 5.35352 1.40625 4.25977ZM1.40625 13.8848C1.40625 12.8184 2.28125 11.916 3.375 11.916C4.44141 11.916 5.34375 12.8184 5.34375 13.8848C5.34375 14.9785 4.44141 15.8535 3.375 15.8535C2.28125 15.8535 1.40625 14.9785 1.40625 13.8848Z" fill="#C9C9C9"/>
<path d="M9.375 7.10352C10.4414 7.10352 11.3438 8.00586 11.3438 9.07227C11.3438 10.166 10.4414 11.041 9.375 11.041C8.28125 11.041 7.40625 10.166 7.40625 9.07227C7.40625 8.00586 8.28125 7.10352 9.375 7.10352ZM7.40625 4.25977C7.40625 3.19336 8.28125 2.29102 9.375 2.29102C10.4414 2.29102 11.3438 3.19336 11.3438 4.25977C11.3438 5.35352 10.4414 6.22852 9.375 6.22852C8.28125 6.22852 7.40625 5.35352 7.40625 4.25977ZM7.40625 13.8848C7.40625 12.8184 8.28125 11.916 9.375 11.916C10.4414 11.916 11.3438 12.8184 11.3438 13.8848C11.3438 14.9785 10.4414 15.8535 9.375 15.8535C8.28125 15.8535 7.40625 14.9785 7.40625 13.8848Z" fill="#C9C9C9"/>
</svg>
