<svg width="291" height="290" viewBox="0 0 291 290" fill="none" xmlns="http://www.w3.org/2000/svg">
<circle cx="145.609" cy="145" r="145" fill="#2C3AD1" fill-opacity="0.05"/>
<circle cx="145.109" cy="145.5" r="117.5" fill="#2C3AD1" fill-opacity="0.25"/>
<circle cx="145.109" cy="145.5" r="92.5" fill="#2C3AD1" fill-opacity="0.5"/>
<path d="M89.0684 153.308C87.5577 153.308 86.2267 152.978 85.0754 152.318C83.9314 151.658 83.0367 150.727 82.3914 149.524C81.7534 148.321 81.4344 146.906 81.4344 145.278C81.4344 143.665 81.7754 142.26 82.4574 141.065C83.1467 139.862 84.0927 138.935 85.2954 138.282C86.498 137.622 87.8767 137.292 89.4314 137.292C90.2527 137.292 91.0374 137.38 91.7854 137.556C92.5334 137.725 93.1824 137.934 93.7324 138.183L93.4794 140.372C92.9 140.13 92.2767 139.928 91.6094 139.767C90.942 139.606 90.227 139.525 89.4644 139.525C88.225 139.525 87.2057 139.782 86.4064 140.295C85.607 140.801 85.013 141.49 84.6244 142.363C84.243 143.228 84.0524 144.196 84.0524 145.267C84.0524 146.389 84.2467 147.386 84.6354 148.259C85.0314 149.132 85.629 149.821 86.4284 150.327C87.2277 150.826 88.236 151.075 89.4534 151.075C89.7834 151.075 90.1647 151.049 90.5974 150.998C91.03 150.939 91.4444 150.848 91.8404 150.723V147.357H89.5414V145.278H94.2384V152.142C93.659 152.465 92.9257 152.74 92.0384 152.967C91.151 153.194 90.161 153.308 89.0684 153.308ZM101.764 153.22C100.466 153.22 99.3804 152.96 98.5078 152.439C97.6351 151.911 96.9751 151.214 96.5278 150.349C96.0878 149.476 95.8678 148.523 95.8678 147.489C95.8678 146.484 96.0731 145.56 96.4838 144.717C96.9018 143.874 97.5068 143.199 98.2988 142.693C99.0981 142.18 100.062 141.923 101.192 141.923C102.152 141.923 102.985 142.117 103.689 142.506C104.393 142.895 104.932 143.437 105.306 144.134C105.687 144.831 105.878 145.645 105.878 146.576C105.878 146.767 105.867 146.965 105.845 147.17C105.83 147.375 105.801 147.592 105.757 147.819H98.2438C98.3391 148.677 98.5664 149.359 98.9258 149.865C99.2851 150.364 99.7324 150.719 100.268 150.932C100.803 151.145 101.382 151.251 102.006 151.251C102.563 151.251 103.113 151.189 103.656 151.064C104.198 150.932 104.708 150.745 105.185 150.503L105.394 152.384C104.976 152.582 104.462 152.773 103.854 152.956C103.245 153.132 102.548 153.22 101.764 153.22ZM98.3758 146.246H103.524C103.524 145.813 103.443 145.421 103.282 145.069C103.12 144.71 102.864 144.424 102.512 144.211C102.167 143.998 101.72 143.892 101.17 143.892C100.363 143.892 99.7361 144.105 99.2888 144.53C98.8488 144.955 98.5444 145.527 98.3758 146.246ZM111.492 153.22C110.81 153.22 110.256 153.088 109.831 152.824C109.413 152.56 109.105 152.223 108.907 151.812C108.716 151.401 108.621 150.969 108.621 150.514V143.969H106.894L107.103 142.132H108.621V139.569L110.92 139.327V142.132H113.582V143.969H110.92V149.348C110.92 149.979 110.956 150.437 111.03 150.723C111.103 151.002 111.283 151.178 111.569 151.251C111.855 151.324 112.309 151.361 112.933 151.361H113.549L113.351 153.22H111.492ZM118.968 153.22C118.286 153.22 117.732 153.088 117.307 152.824C116.889 152.56 116.581 152.223 116.383 151.812C116.192 151.401 116.097 150.969 116.097 150.514V143.969H114.37L114.579 142.132H116.097V139.569L118.396 139.327V142.132H121.058V143.969H118.396V149.348C118.396 149.979 118.433 150.437 118.506 150.723C118.579 151.002 118.759 151.178 119.045 151.251C119.331 151.324 119.786 151.361 120.409 151.361H121.025L120.827 153.22H118.968ZM122.782 153V142.132H125.081V153H122.782ZM122.782 140.02V137.6H125.081V140.02H122.782ZM127.702 153V142.132H129.671L129.946 144.189L129.242 143.639C129.836 143.023 130.455 142.583 131.101 142.319C131.746 142.055 132.421 141.923 133.125 141.923C134.628 141.923 135.721 142.385 136.403 143.309C137.085 144.226 137.426 145.447 137.426 146.972V153H135.127V147.071C135.127 145.978 134.932 145.175 134.544 144.662C134.155 144.149 133.499 143.892 132.575 143.892C131.893 143.892 131.291 144.05 130.771 144.365C130.257 144.673 129.883 145.135 129.649 145.751L130.001 144.486V153H127.702ZM144.282 158.522C143.285 158.522 142.401 158.397 141.631 158.148C140.861 157.899 140.256 157.536 139.816 157.059C139.384 156.59 139.167 156.014 139.167 155.332C139.167 154.76 139.329 154.261 139.651 153.836C139.974 153.418 140.425 153.066 141.004 152.78C140.682 152.604 140.429 152.395 140.245 152.153C140.069 151.904 139.981 151.629 139.981 151.328C139.981 150.991 140.08 150.69 140.278 150.426C140.484 150.162 140.788 149.946 141.191 149.777C140.605 149.396 140.157 148.89 139.849 148.259C139.541 147.628 139.387 146.935 139.387 146.18C139.387 145.395 139.56 144.68 139.904 144.035C140.256 143.382 140.762 142.865 141.422 142.484C142.09 142.103 142.896 141.912 143.842 141.912C144.341 141.912 144.807 141.982 145.239 142.121C145.679 142.253 146.075 142.44 146.427 142.682C146.713 142.521 147.073 142.385 147.505 142.275C147.945 142.158 148.433 142.099 148.968 142.099C149.042 142.099 149.111 142.099 149.177 142.099C149.243 142.099 149.309 142.099 149.375 142.099L149.155 143.584C149.038 143.584 148.921 143.584 148.803 143.584C148.686 143.584 148.569 143.584 148.451 143.584C148.378 143.584 148.242 143.591 148.044 143.606C147.846 143.621 147.656 143.646 147.472 143.683C147.744 144.035 147.949 144.424 148.088 144.849C148.228 145.274 148.297 145.718 148.297 146.18C148.297 146.994 148.121 147.727 147.769 148.38C147.425 149.033 146.919 149.553 146.251 149.942C145.591 150.331 144.788 150.525 143.842 150.525C143.608 150.525 143.377 150.51 143.149 150.481C142.929 150.444 142.717 150.4 142.511 150.349C142.247 150.437 142.115 150.595 142.115 150.822C142.115 150.998 142.222 151.145 142.434 151.262C142.647 151.372 142.984 151.464 143.446 151.537L145.91 151.9C147.084 152.076 147.993 152.413 148.638 152.912C149.291 153.411 149.617 154.122 149.617 155.046C149.617 155.787 149.401 156.414 148.968 156.927C148.543 157.448 147.931 157.844 147.131 158.115C146.332 158.386 145.382 158.522 144.282 158.522ZM144.436 156.63C145.412 156.63 146.156 156.505 146.669 156.256C147.183 156.014 147.439 155.647 147.439 155.156C147.439 154.745 147.271 154.434 146.933 154.221C146.596 154.008 146.09 153.843 145.415 153.726L142.621 153.286C142.24 153.447 141.91 153.664 141.631 153.935C141.36 154.214 141.224 154.551 141.224 154.947C141.224 155.526 141.51 155.952 142.082 156.223C142.662 156.494 143.446 156.63 144.436 156.63ZM143.842 148.754C144.605 148.754 145.181 148.519 145.569 148.05C145.965 147.573 146.163 146.954 146.163 146.191C146.163 145.443 145.965 144.838 145.569 144.376C145.181 143.907 144.605 143.672 143.842 143.672C143.08 143.672 142.5 143.907 142.104 144.376C141.716 144.838 141.521 145.443 141.521 146.191C141.521 146.954 141.716 147.573 142.104 148.05C142.5 148.519 143.08 148.754 143.842 148.754ZM155.824 153V136.5H158.134V143.881L157.474 143.65C157.958 143.151 158.482 142.741 159.047 142.418C159.619 142.088 160.327 141.923 161.17 141.923C162.116 141.923 162.897 142.136 163.513 142.561C164.129 142.979 164.587 143.566 164.888 144.321C165.189 145.076 165.339 145.953 165.339 146.95V153H163.04V147.17C163.04 146.048 162.846 145.223 162.457 144.695C162.068 144.16 161.456 143.892 160.62 143.892C159.953 143.892 159.381 144.061 158.904 144.398C158.435 144.735 158.046 145.186 157.738 145.751L158.134 144.431V153H155.824ZM173.092 153.22C171.794 153.22 170.709 152.96 169.836 152.439C168.963 151.911 168.303 151.214 167.856 150.349C167.416 149.476 167.196 148.523 167.196 147.489C167.196 146.484 167.401 145.56 167.812 144.717C168.23 143.874 168.835 143.199 169.627 142.693C170.426 142.18 171.391 141.923 172.52 141.923C173.481 141.923 174.313 142.117 175.017 142.506C175.721 142.895 176.26 143.437 176.634 144.134C177.015 144.831 177.206 145.645 177.206 146.576C177.206 146.767 177.195 146.965 177.173 147.17C177.158 147.375 177.129 147.592 177.085 147.819H169.572C169.667 148.677 169.895 149.359 170.254 149.865C170.613 150.364 171.061 150.719 171.596 150.932C172.131 151.145 172.711 151.251 173.334 151.251C173.891 151.251 174.441 151.189 174.984 151.064C175.527 150.932 176.036 150.745 176.513 150.503L176.722 152.384C176.304 152.582 175.791 152.773 175.182 152.956C174.573 153.132 173.877 153.22 173.092 153.22ZM169.704 146.246H174.852C174.852 145.813 174.771 145.421 174.61 145.069C174.449 144.71 174.192 144.424 173.84 144.211C173.495 143.998 173.048 143.892 172.498 143.892C171.691 143.892 171.064 144.105 170.617 144.53C170.177 144.955 169.873 145.527 169.704 146.246ZM181.951 153.22C181.276 153.22 180.733 153.092 180.323 152.835C179.912 152.578 179.611 152.245 179.421 151.834C179.237 151.416 179.146 150.972 179.146 150.503V136.5H181.445V149.37C181.445 149.971 181.481 150.415 181.555 150.701C181.635 150.98 181.786 151.159 182.006 151.24C182.233 151.321 182.567 151.361 183.007 151.361L182.743 153.22H181.951ZM184.592 158.324V142.132H186.418L186.847 144.321L186.187 143.969C186.657 143.346 187.21 142.851 187.848 142.484C188.486 142.11 189.267 141.923 190.191 141.923C191.211 141.923 192.08 142.18 192.798 142.693C193.517 143.199 194.063 143.881 194.437 144.739C194.811 145.59 194.998 146.536 194.998 147.577C194.998 148.611 194.815 149.557 194.448 150.415C194.089 151.266 193.554 151.948 192.842 152.461C192.131 152.967 191.247 153.22 190.191 153.22C189.333 153.22 188.589 153.07 187.958 152.769C187.335 152.461 186.818 151.992 186.407 151.361L186.891 150.91V158.324H184.592ZM189.795 151.251C190.69 151.251 191.387 150.921 191.885 150.261C192.391 149.601 192.644 148.706 192.644 147.577C192.644 146.44 192.391 145.542 191.885 144.882C191.387 144.222 190.69 143.892 189.795 143.892C189.187 143.892 188.655 144.035 188.2 144.321C187.753 144.607 187.401 145.025 187.144 145.575C186.895 146.118 186.77 146.785 186.77 147.577C186.77 148.384 186.895 149.058 187.144 149.601C187.401 150.144 187.753 150.554 188.2 150.833C188.655 151.112 189.187 151.251 189.795 151.251ZM196.747 153V150.393H199.321V153H196.747ZM201.452 153V150.393H204.026V153H201.452ZM206.157 153V150.393H208.731V153H206.157Z" fill="white"/>
</svg>
