<svg width="16" height="16" viewBox="0 0 16 16" fill="none" xmlns="http://www.w3.org/2000/svg">
<g id="Line Duotone / Map &#38; Location / Global" clip-path="url(#clip0_4073_8109)">
<path id="Vector" d="M1.33203 7.99992H14.6654M10.6654 7.99992C10.6654 8.8754 10.5964 9.7423 10.4624 10.5511C10.3284 11.36 10.1319 12.0949 9.88432 12.714C9.63669 13.333 9.34272 13.8241 9.01919 14.1591C8.69565 14.4941 8.34889 14.6666 7.9987 14.6666C7.64851 14.6666 7.30174 14.4941 6.97821 14.1591C6.65467 13.8241 6.3607 13.333 6.11308 12.714C5.86546 12.0949 5.66903 11.36 5.53502 10.5511C5.40101 9.7423 5.33203 8.8754 5.33203 7.99992C5.33203 7.12444 5.40101 6.25753 5.53502 5.4487C5.66903 4.63986 5.86546 3.90493 6.11308 3.28587C6.3607 2.66682 6.65467 2.17575 6.97821 1.84072C7.30174 1.50569 7.64851 1.33325 7.9987 1.33325C8.34889 1.33325 8.69565 1.50569 9.01919 1.84072C9.34272 2.17575 9.63669 2.66682 9.88432 3.28587C10.1319 3.90493 10.3284 4.63986 10.4624 5.4487C10.5964 6.25753 10.6654 7.12444 10.6654 7.99992Z" stroke="#808080" stroke-width="1.5" stroke-linecap="round"/>
<path id="Vector_2" d="M14.6654 7.99992C14.6654 8.8754 14.4929 9.7423 14.1579 10.5511C13.8229 11.36 13.3318 12.0949 12.7127 12.714C12.0937 13.333 11.3588 13.8241 10.5499 14.1591C9.74108 14.4941 8.87418 14.6666 7.9987 14.6666C7.12322 14.6666 6.25631 14.4941 5.44747 14.1591C4.63864 13.8241 3.90371 13.333 3.28465 12.714C2.6656 12.0949 2.17453 11.36 1.8395 10.5511C1.50447 9.7423 1.33203 8.8754 1.33203 7.99992C1.33203 7.12444 1.50447 6.25753 1.8395 5.4487C2.17453 4.63986 2.6656 3.90493 3.28465 3.28587C3.90371 2.66682 4.63864 2.17575 5.44748 1.84072C6.25631 1.50569 7.12322 1.33325 7.9987 1.33325C8.87418 1.33325 9.74108 1.50569 10.5499 1.84072C11.3588 2.17575 12.0937 2.66682 12.7127 3.28587C13.3318 3.90493 13.8229 4.63986 14.1579 5.4487C14.4929 6.25753 14.6654 7.12444 14.6654 7.99992L14.6654 7.99992Z" stroke="#808080" stroke-width="1.5"/>
</g>
<defs>
<clipPath id="clip0_4073_8109">
<rect width="16" height="16" fill="white"/>
</clipPath>
</defs>
</svg>
