<svg width="65" height="58" viewBox="0 0 65 58" fill="none" xmlns="http://www.w3.org/2000/svg">
<g clip-path="url(#clip0_481_1747)">
<path d="M6.47431 30.9505C6.47431 30.9505 8.23717 31.936 8.23717 37.0241C8.23717 40.4771 7.011 44.1803 7.011 44.1803C7.011 44.1803 10.1342 43.3404 11.9977 45.2368C13.8612 47.1331 14.4352 51.8703 14.3867 53.5987C14.3383 55.3271 11.9977 58 11.9977 58C11.9977 58 0.540939 57.8021 0.540939 47.5139C0.540939 37.2257 -0.383363 27.9715 6.47431 30.9505Z" fill="#A5CE3E"/>
<path d="M60.2959 56.6449H14.9905V56.4582H60.1096V5.43897H9.17268V25.392H8.98633V5.25232H60.2959V56.6449Z" fill="black"/>
<path d="M25.8921 0.182878V18.7845H40.7628V0.182878H25.8921Z" fill="white"/>
<path d="M40.8521 18.8817H25.7876V0.0933838H40.8447L40.8521 18.8817ZM25.9814 18.695H40.6658V0.280035H25.9814V18.695Z" fill="#A5CE3E"/>
<path d="M29.0226 2.10547H28.6499V16.5261H29.0226V2.10547Z" fill="black"/>
<path d="M33.5099 7.23462H33.1372V16.5261H33.5099V7.23462Z" fill="black"/>
<path d="M35.6939 4.20337H35.5076V16.5261H35.6939V4.20337Z" fill="#A5CE3E"/>
<path d="M38.0644 10.949H37.6917V16.5261H38.0644V10.949Z" fill="black"/>
<path d="M31.1732 9.04138H30.9868V16.5261H31.1732V9.04138Z" fill="#A5CE3E"/>
<path d="M31.9036 18.975H25.7019V11.7404H26.0746V18.6017H31.9036V18.975Z" fill="black"/>
<path d="M40.9453 7.2346H40.5726V0.373302H34.7473V0H40.9453V7.2346Z" fill="black"/>
<path d="M12.6873 21.2073L11.9978 23.8279L14.1632 27.0793H19.3996L19.2095 24.5035" fill="white"/>
<path d="M19.601 27.266H14.0626L11.7966 23.8615L12.5085 21.1588L12.8663 21.2559L12.1991 23.7906L14.2639 26.8927H19.1984L19.0233 24.5185L19.396 24.4924L19.601 27.266Z" fill="black"/>
<path d="M14.5172 57.8357C13.3469 57.8357 1.1559 57.4923 0.775742 45.0501C0.552122 37.7894 1.18199 29.2482 2.61688 27.5235C3.96605 25.9034 6.98865 26.0565 7.53279 26.0975C8.22601 25.5226 10.0634 24.6827 10.1417 24.6454L10.2982 24.9851C10.2796 24.9851 8.31174 25.8922 7.72287 26.4298L7.66323 26.4858H7.57751C7.5477 26.4858 4.2232 26.1797 2.90384 27.7737C1.58449 29.3677 0.932276 38.0133 1.14844 45.0501C1.52114 57.6677 14.4277 57.4811 14.5656 57.4773L26.533 54.797H26.5628C26.5964 54.797 29.9507 55.0695 30.4016 53.05C30.6812 51.8106 31.2626 49.2236 29.6562 40.5107C29.0077 36.9681 27.42 29.9911 26.5069 29.125C25.5938 28.259 22.4594 27.3966 22.4072 27.3892L22.3289 27.3668L22.2917 27.2958C22.2917 27.2958 21.5276 25.9445 20.4692 26.0079L20.4506 25.6346C21.6171 25.56 22.3923 26.7545 22.5787 27.0457C23.0781 27.1838 25.7876 27.9491 26.7455 28.8525C27.8896 29.9388 29.6078 38.2709 30.0028 40.4249C31.6092 49.2124 31.0166 51.8479 30.7482 53.1172C30.2414 55.357 26.9169 55.1853 26.5405 55.1554L14.6066 57.8357H14.5172Z" fill="black"/>
<path d="M14.5432 46.2634C14.5432 46.2634 16.4067 48.9288 15.6054 53.2665L14.7929 57.6006C14.7929 57.6006 22.5525 57.0929 25.7018 55.5176C28.8512 53.9422 28.2325 50.8438 27.8374 49.1527C27.5497 48.0205 27.1346 46.9247 26.6 45.8864C26.6 45.8864 23.734 46.8457 14.5432 46.2634Z" fill="white"/>
<path d="M14.5657 57.8022L15.4229 53.2292C16.2056 49.0296 14.4092 46.3978 14.3905 46.3716L14.1707 46.0543L14.5434 46.0767C23.5627 46.6479 26.4995 45.7221 26.5256 45.7034L26.6747 45.6549L26.7493 45.793C27.2964 46.8435 27.7179 47.9549 28.0053 49.1042C28.3444 50.5676 29.1234 53.987 25.7691 55.6781C22.6235 57.2534 15.1098 57.7611 14.7893 57.7798L14.5657 57.8022ZM14.89 46.4724C15.3596 47.3086 16.4553 49.7388 15.7882 53.3001L15.0204 57.4065C16.3509 57.3019 22.8471 56.7457 25.6162 55.357C28.7283 53.8004 28.0053 50.6945 27.6549 49.205C27.3864 48.1364 27.0001 47.101 26.5033 46.1178C25.8101 46.2933 22.7055 46.9428 14.89 46.4724Z" fill="black"/>
<path d="M14.8973 47.4767C14.8973 47.4393 13.7271 43.7847 9.98143 43.3704C6.15753 42.9411 4.35739 43.5383 4.34248 43.5458L4.21948 43.1912C4.29402 43.165 6.10535 42.5603 10.0224 43.0008C14.0178 43.4487 15.2402 47.3348 15.2402 47.3759L14.8973 47.4767Z" fill="black"/>
<path d="M9.81385 43.1762C9.81385 43.0941 9.70949 34.9636 8.99391 32.5968C8.54799 31.1818 7.62598 29.9654 6.38501 29.155L6.56763 28.8302C7.90096 29.6796 8.88913 30.9763 9.35542 32.4886C10.1008 34.9076 10.1866 42.8365 10.1903 43.1725L9.81385 43.1762Z" fill="black"/>
<path d="M25.5901 32.7087C25.5901 32.7087 27.3865 39.1855 27.4536 40.9214C27.4536 40.9214 26.22 42.6685 26.6113 45.8751" fill="white"/>
<path d="M26.4175 45.9125C26.0448 42.9261 27.0436 41.2089 27.2561 40.8804C27.1629 39.0923 25.4261 32.8245 25.3926 32.7611L25.7653 32.6603C25.8398 32.9253 27.5691 39.1781 27.6288 40.9252V40.9887L27.5915 41.0409C27.5915 41.0409 26.4026 42.773 26.7827 45.864L26.4175 45.9125Z" fill="black"/>
<path d="M42.272 44.5574C42.272 44.5574 42.0298 49.3319 39.078 50.5302C36.3066 51.5671 33.4721 52.4262 30.5917 53.1023C30.3531 53.1023 25.8882 42.2466 25.8882 42.2466L33.6925 44.2475C33.6925 44.2475 33.167 42.4856 35.0231 42.9596C35.0231 42.9596 37.6021 33.5226 39.9837 30.958C42.3652 28.3934 46.3196 27.9716 46.3196 27.9716" fill="white"/>
<path d="M30.5917 53.2815C30.4315 53.2815 30.219 53.2815 25.7168 42.3101L25.5752 41.9667L33.4541 43.9862C33.4187 43.8078 33.4227 43.6238 33.4658 43.4471C33.509 43.2704 33.5902 43.1053 33.7038 42.9634C33.8652 42.8253 34.0595 42.7315 34.2678 42.6909C34.4762 42.6504 34.6914 42.6645 34.8927 42.7319C35.2654 41.3992 37.6134 33.2314 39.8459 30.8236C42.246 28.2329 46.1408 27.8036 46.3048 27.7849L46.342 28.1582C46.3048 28.1582 42.4212 28.5912 40.1179 31.0774C37.8147 33.5636 35.2281 42.9074 35.202 43.0231L35.1536 43.1986L34.9784 43.1538C34.6392 43.0642 34.192 43.0119 33.9721 43.2396C33.7522 43.4673 33.8156 44.0236 33.8715 44.2065L33.9609 44.5201L26.2013 42.5304C27.8449 46.5172 30.2377 52.1989 30.6737 52.9156C33.5019 52.233 36.2871 51.3828 39.0147 50.3697C41.8174 49.2498 42.0858 44.6134 42.0895 44.5686L42.4622 44.5872C42.4622 44.7851 42.179 49.4924 39.1526 50.7169C36.3586 51.7598 33.4987 52.6165 30.5917 53.2815Z" fill="black"/>
<path d="M58.5107 29.0541C58.5107 29.0541 62.8899 36.871 61.8091 45.8938C60.7282 54.9165 60.3183 56.5515 60.3183 56.5515H41.0012L41.4596 50.5227C41.1727 49.6193 42.3988 47.163 42.3988 47.163C41.9702 46.5918 42.2721 44.5499 42.2721 44.5499C41.5752 43.7547 41.2397 41.5634 41.4596 39.7492" fill="white"/>
<path d="M60.4487 56.7383H40.8074L41.2732 50.5452C41.0347 49.6493 41.9478 47.6745 42.1901 47.1855C41.8472 46.5434 42.0224 45.0315 42.0783 44.6246C41.4074 43.766 41.0496 41.6158 41.277 39.7456L41.6497 39.7904C41.4261 41.5897 41.7801 43.7212 42.4137 44.4454L42.4734 44.5089V44.5948C42.3615 45.3414 42.287 46.6927 42.5665 47.0623L42.6336 47.1556L42.5852 47.2564C42.2535 47.9209 41.441 49.7949 41.6571 50.478V50.5116V50.5489L41.2136 56.3762H60.1654C60.2809 55.8237 60.7319 53.4383 61.6376 45.8826C62.696 37.0204 58.4025 29.2334 58.3615 29.155L58.6858 28.972C58.7305 29.0542 63.0799 36.9458 62.0065 45.9274C60.9332 54.9091 60.5157 56.5442 60.4934 56.6114L60.4487 56.7383Z" fill="black"/>
<path d="M49.2642 55.2675H22.5229V56.5516H49.2642V55.2675Z" fill="white"/>
<path d="M49.4504 56.7383H22.3328V55.0808H49.4504V56.7383ZM22.7055 56.365H49.0777V55.4541H22.7055V56.365Z" fill="black"/>
<path d="M47.475 51.3552C46.5184 50.8454 45.4583 50.5606 44.3753 50.5225C43.2924 50.4843 42.2149 50.6938 41.2249 51.135C39.2063 51.9603 37.4511 53.3221 36.1487 55.0733L49.5025 55.2674C49.544 54.4934 49.3779 53.7224 49.0213 53.0344C48.6648 52.3465 48.1309 51.7667 47.475 51.3552Z" fill="white"/>
<path d="M49.6703 55.4578L35.8096 55.2562L35.9922 54.9725C37.3104 53.1861 39.0953 51.7987 41.1503 50.9632C42.1667 50.5054 43.2749 50.2884 44.3886 50.3292C45.5023 50.37 46.5917 50.6674 47.572 51.1984C48.2634 51.626 48.8255 52.2342 49.1978 52.9577C49.5701 53.6812 49.7386 54.4926 49.6852 55.3047L49.6703 55.4578ZM36.514 54.8941L49.3274 55.0808C49.3341 54.3687 49.1581 53.6669 48.8161 53.0426C48.4741 52.4183 47.9777 51.8925 47.3744 51.5157C46.4429 51.0249 45.4128 50.7511 44.3608 50.7149C43.3089 50.6787 42.2624 50.881 41.2994 51.3067C39.4335 52.0892 37.7896 53.3216 36.514 54.8941Z" fill="black"/>
<path d="M56.1479 26.9449C58.7599 27.5219 61.0378 29.111 62.4838 31.3648C65.0517 35.2248 64.2317 42.2802 63.9746 44.5648C63.7174 46.8494 61.7384 52.8223 61.7384 52.8223C61.7384 52.8223 58.835 55.1106 53.539 55.2525C48.2429 55.3943 48.146 55.2525 48.146 55.2525C49.6853 53.7257 46.9347 51.9973 45.3694 50.6608C45.3694 50.6608 48.638 48.1821 51.8245 47.8163C52.9301 47.7207 54.0274 47.5461 55.108 47.2937C54.4826 45.1068 54.4007 42.8 54.8695 40.5742C55.3548 38.2309 56.2752 35.9997 57.5828 33.9966" fill="white"/>
<path d="M49.8716 55.4989C48.146 55.4989 48.0826 55.4205 48.0379 55.3645L47.9372 55.2338L48.0565 55.1144C48.1831 55.0049 48.2841 54.869 48.3524 54.7161C48.4206 54.5632 48.4545 54.3971 48.4516 54.2297C48.4031 53.3076 47.1471 52.2997 46.0402 51.4112C45.7756 51.2022 45.5222 50.9969 45.2948 50.799L45.1196 50.6497L45.3022 50.5078C45.4364 50.407 48.6565 47.9955 51.8506 47.6297C52.8805 47.5251 53.9044 47.3668 54.9179 47.1556C54.3398 44.9932 54.2747 42.7253 54.7278 40.5332C55.2219 38.1662 56.1508 35.9118 57.4672 33.8847L57.7728 34.1012C56.4833 36.0851 55.5721 38.2912 55.0856 40.6078C54.6314 42.8021 54.712 45.0737 55.3204 47.2302L55.3875 47.4131L55.1974 47.4691C54.1049 47.7267 52.995 47.9039 51.8767 47.9992C49.2081 48.3053 46.4427 50.1457 45.7048 50.6683L46.2601 51.12C47.4304 52.057 48.7572 53.1209 48.8131 54.2073C48.8275 54.5283 48.7314 54.8445 48.541 55.1032C49.0367 55.1293 50.3151 55.1517 53.5613 55.0621C58.3728 54.9315 61.2165 52.9791 61.593 52.7028C61.7942 52.0944 63.5794 46.6665 63.7993 44.5425L63.8217 44.3483C64.0826 41.836 64.7833 35.1651 62.3309 31.4657C60.9045 29.2639 58.6769 27.7064 56.1217 27.1242L56.1776 26.7509C56.3342 26.7733 60.0574 27.3668 62.644 31.2529C65.1783 35.0643 64.4702 41.8323 64.2019 44.3782L64.1832 44.576C63.9447 46.8569 62.0216 52.6245 61.947 52.8708V52.9231L61.906 52.9567C61.783 53.0537 58.8909 55.2861 53.6097 55.4279C51.8767 55.4802 50.684 55.4989 49.8716 55.4989Z" fill="black"/>
<path d="M57.8584 25.8773C57.8584 25.8773 60.7618 27.4863 60.24 29.4461C59.7182 31.4059 53.1587 38.648 47.5682 36.1655C41.9777 33.6831 42.9579 27.8708 42.9579 27.8708C42.9579 27.8708 45.7532 19.3595 57.8584 25.8773Z" fill="white"/>
<path d="M50.0132 36.8711C49.1466 36.8748 48.2891 36.6941 47.4974 36.341C41.8659 33.8324 42.7679 27.9044 42.7753 27.8446C43.1201 26.9301 43.651 26.0975 44.3343 25.3995C45.0176 24.7016 45.8384 24.1537 46.7446 23.7906C49.6442 22.6296 53.4084 23.2754 57.9256 25.7131C58.0523 25.784 60.9519 27.4191 60.3966 29.4946C60.0462 30.8049 57.2435 34.2468 53.7066 35.9378C52.5609 36.5224 51.2986 36.8414 50.0132 36.8711ZM49.8119 23.6039C48.8131 23.5922 47.8212 23.7722 46.8899 24.134C46.0414 24.4822 45.2717 24.9982 44.6269 25.6512C43.982 26.3041 43.4753 27.0806 43.1368 27.9342C43.107 28.1396 42.2834 33.6122 47.6502 36.0013C49.3945 36.7778 51.3772 36.6434 53.5575 35.6019C56.9416 33.9817 59.722 30.6183 60.0462 29.3976C60.5233 27.6132 57.81 26.0715 57.7579 26.0379C54.7539 24.4177 52.0928 23.6039 49.8231 23.6039H49.8119Z" fill="black"/>
<path d="M52.4208 14.4318C52.4208 14.4318 51.6381 13.0319 48.5149 13.465C45.6302 13.8681 44.2959 15.9698 43.5356 17.9931C42.7753 20.0164 43.3418 22.7565 42.533 24.6155C41.7243 26.4745 41.6311 26.6687 41.4634 27.643C41.2957 28.6173 45.973 27.1054 45.973 27.1054" fill="white"/>
<path d="M42.0933 28.1545C41.8546 28.1772 41.615 28.1208 41.4113 27.994C41.3568 27.9503 41.3157 27.8921 41.2927 27.8261C41.2696 27.7601 41.2655 27.6889 41.2808 27.6207C41.4448 26.6613 41.538 26.4448 42.2685 24.7724L42.3654 24.5484C42.7642 23.6338 42.8126 22.499 42.8685 21.297C42.9245 20.0949 42.9766 18.9564 43.3605 17.9372C44.4078 15.1412 46.0887 13.6219 48.4888 13.2896C51.7015 12.8417 52.5513 14.2863 52.5885 14.3461L52.2643 14.5327C52.2643 14.5327 51.4816 13.2523 48.5373 13.6592C46.2526 13.9765 44.7134 15.3764 43.6922 18.0679C43.3195 19.031 43.2785 20.192 43.2263 21.3156C43.1741 22.4393 43.1182 23.7197 42.6896 24.6977L42.5928 24.9217C41.8809 26.5568 41.7877 26.7696 41.6312 27.6842C41.9517 27.9865 44.091 27.5199 45.8986 26.9376L46.0141 27.3109C45.2986 27.5199 43.2375 28.1545 42.0933 28.1545Z" fill="black"/>
<path d="M44.3519 19.8074C44.385 20.2391 44.4536 20.6674 44.5568 21.0879C42.6598 23.8914 45.5072 26.9748 45.5072 26.9748C45.7881 27.3836 46.1644 27.7174 46.6036 27.9471C47.0427 28.1768 47.5313 28.2954 48.0267 28.2926C50.9151 28.4009 53.1215 24.8209 53.1215 24.8209C53.2855 24.5185 53.4346 24.2199 53.5762 23.9287C53.6538 24.0237 53.7537 24.0981 53.8669 24.1452C54.3812 24.3505 55.0297 23.9324 55.3167 23.2119C55.6037 22.4915 55.4211 21.7411 54.9105 21.5358C54.7801 21.4848 54.6383 21.4706 54.5005 21.4948C55.4471 18.0193 54.2843 15.7198 51.8916 14.9657" fill="white"/>
<path d="M48.1496 28.483H48.0154C47.4915 28.4844 46.975 28.3581 46.5108 28.1148C46.0465 27.8716 45.6483 27.5188 45.3506 27.0869C45.1382 26.8442 42.5554 23.8279 44.3555 21.0543C44.2591 20.6506 44.1943 20.2399 44.1617 19.8261L44.5344 19.7963C44.5649 20.217 44.6323 20.6342 44.7357 21.0431L44.758 21.1252L44.7096 21.1962C42.9132 23.8466 45.6115 26.8218 45.6413 26.8517L45.6637 26.8815C45.9269 27.2645 46.2801 27.5768 46.6921 27.791C47.1042 28.0052 47.5624 28.1146 48.0266 28.1097H48.1496C50.8405 28.1097 52.9388 24.75 52.9611 24.7239C53.1065 24.4514 53.2556 24.1639 53.4084 23.8466L53.5314 23.589L53.7177 23.8055C53.7754 23.8796 53.8511 23.9374 53.9376 23.9735C54.0445 24.0086 54.1581 24.0174 54.269 23.9992C54.38 23.981 54.4849 23.9363 54.5749 23.869C54.8344 23.6909 55.0323 23.4366 55.1415 23.1411C55.3874 22.5288 55.2495 21.8718 54.8396 21.7076C54.7412 21.6691 54.6341 21.6588 54.5302 21.6777L54.247 21.7262L54.3215 21.4463C55.1862 18.2657 54.2619 15.9102 51.8468 15.1449L51.9586 14.7903C54.5265 15.6003 55.5552 18.0268 54.7464 21.3007C54.8255 21.3113 54.9031 21.3313 54.9775 21.3604C55.585 21.603 55.816 22.4803 55.4881 23.2792C55.3489 23.6463 55.1004 23.9617 54.7762 24.1826C54.6368 24.2832 54.4749 24.3481 54.3047 24.3715C54.1344 24.395 53.961 24.3762 53.7997 24.317C53.7415 24.2959 53.6863 24.267 53.6357 24.2311C53.5165 24.47 53.401 24.694 53.2854 24.9105C53.1885 25.0785 51.0492 28.483 48.1496 28.483Z" fill="black"/>
<path d="M49.1224 24.9403C48.4629 25.0544 47.7937 25.1019 47.1247 25.0822C46.301 25.0187 46.0476 24.735 46.0476 24.735" fill="white"/>
<path d="M47.4713 25.28C47.3483 25.28 47.2253 25.28 47.0986 25.28C46.2265 25.2128 45.9283 24.9067 45.8948 24.8694L46.1743 24.6193C46.4537 24.8144 46.7879 24.9151 47.1284 24.9067C47.7824 24.9254 48.4365 24.8791 49.0814 24.7686L49.1447 25.1419C48.591 25.229 48.0317 25.2752 47.4713 25.28Z" fill="black"/>
<path d="M46.998 23.7009C46.998 23.7009 46.3644 23.6524 46.2526 23.3276C46.1408 23.0029 47.3148 20.8974 47.2179 20.4681" fill="white"/>
<path d="M46.983 23.8877C46.9085 23.8877 46.2376 23.8167 46.0625 23.3874C45.9805 23.1709 46.1333 22.7789 46.5283 21.8681C46.75 21.4356 46.9153 20.9764 47.0203 20.5018L47.393 20.4197C47.4526 20.681 47.2365 21.1961 46.8787 22.0174C46.6798 22.4146 46.526 22.8328 46.4202 23.2642C46.4761 23.4024 46.7929 23.4994 47.0203 23.5144L46.983 23.8877Z" fill="black"/>
<path d="M48.4031 21.0841C48.4031 21.0841 48.5969 20.2255 49.3572 20.2741C49.8957 20.3619 50.3906 20.6241 50.766 21.0207" fill="white"/>
<path d="M50.6319 21.1326C50.2863 20.7764 49.8355 20.5409 49.3461 20.4607C48.761 20.4233 48.6007 21.0953 48.6007 21.1251L48.228 21.043C48.2749 20.7731 48.4162 20.5288 48.6265 20.3537C48.8368 20.1786 49.1025 20.0842 49.3759 20.0874C49.9598 20.1718 50.4989 20.449 50.9077 20.875L50.6319 21.1326Z" fill="black"/>
<path d="M50.7585 19.6059C50.7585 19.6059 50.2144 18.7548 49.5137 19.0235C49.0438 19.2154 48.5964 19.4582 48.1794 19.7478" fill="white"/>
<path d="M48.295 19.9007L48.0789 19.5946C48.5087 19.294 48.9713 19.0435 49.4579 18.848C50.2852 18.5307 50.8965 19.464 50.9226 19.505L50.6095 19.7066C50.6095 19.7066 50.1399 18.9899 49.5883 19.1989C49.1322 19.3834 48.6984 19.6189 48.295 19.9007Z" fill="black"/>
<path d="M46.6588 20.08C46.6588 20.08 45.8612 19.031 45.0413 19.8299L46.6588 20.08Z" fill="white"/>
<path d="M46.521 20.1919C46.3302 19.9467 46.0577 19.7784 45.7532 19.7178C45.6455 19.7149 45.5383 19.7354 45.4392 19.7779C45.3402 19.8204 45.2515 19.884 45.1793 19.9642L44.9221 19.6954C45.0321 19.5785 45.1659 19.4866 45.3145 19.4261C45.463 19.3656 45.6228 19.3377 45.7831 19.3445C46.1932 19.4125 46.5621 19.634 46.8154 19.9642L46.521 20.1919Z" fill="black"/>
<path d="M46.4092 20.9049C46.3815 20.77 46.311 20.6477 46.2083 20.5562C46.1055 20.4647 45.9759 20.4089 45.8389 20.3972C45.3469 20.3487 45.0935 21.002 45.0935 21.002" fill="white"/>
<path d="M45.2687 21.0692L44.9221 20.931C44.9221 20.9012 45.2389 20.1471 45.8576 20.2106C46.0366 20.2248 46.2061 20.2969 46.3406 20.4161C46.475 20.5353 46.5671 20.6951 46.603 20.8713L46.2303 20.9385C46.212 20.8424 46.1621 20.7551 46.0884 20.6908C46.0147 20.6265 45.9216 20.5889 45.824 20.5839C45.4774 20.554 45.2687 21.0617 45.2687 21.0692Z" fill="black"/>
<path d="M46.0475 21.2895C46.1998 21.2895 46.3233 21.1223 46.3233 20.9161C46.3233 20.71 46.1998 20.5428 46.0475 20.5428C45.8952 20.5428 45.7717 20.71 45.7717 20.9161C45.7717 21.1223 45.8952 21.2895 46.0475 21.2895Z" fill="black"/>
<path d="M49.987 21.3194C50.1393 21.3194 50.2628 21.1522 50.2628 20.9461C50.2628 20.7399 50.1393 20.5728 49.987 20.5728C49.8347 20.5728 49.7112 20.7399 49.7112 20.9461C49.7112 21.1522 49.8347 21.3194 49.987 21.3194Z" fill="black"/>
<path d="M50.6057 16.3134C50.6057 16.3134 50.0839 16.7912 48.8205 16.6008C47.557 16.4104 46.465 17.4109 45.8612 18.1948C45.2478 18.9223 44.5946 19.6153 43.9045 20.2704" fill="white"/>
<path d="M44.0499 20.4084L43.7927 20.1359C44.4745 19.4875 45.1202 18.802 45.727 18.0827C46.1706 17.5041 47.3706 16.1901 48.8652 16.4141C50.0056 16.5895 50.4939 16.1789 50.4976 16.1752L50.7473 16.4514C50.7212 16.4738 50.1435 16.9852 48.8093 16.7837C47.475 16.5821 46.4277 17.7878 46.0215 18.3105C45.403 19.0453 44.7448 19.7456 44.0499 20.4084Z" fill="black"/>
<path d="M16.2578 39.7567H32.1162L38.3813 55.2674H22.5229L16.2578 39.7567Z" fill="white"/>
<path d="M38.6571 55.4541H22.3962L22.3477 55.3384L15.9783 39.5701H32.2392L32.2876 39.6895L38.6571 55.4541ZM22.631 55.0808H38.0868L31.9745 39.9434H16.5336L22.631 55.0808Z" fill="black"/>
<path d="M40.7291 33.571C40.7291 33.571 39.1526 37.976 42.1603 40.4771L40.7291 33.571Z" fill="white"/>
<path d="M42.041 40.6191C38.9663 38.0657 40.5502 33.5525 40.5502 33.5264L40.9006 33.6533C40.9006 33.6944 39.4098 37.9649 42.2758 40.3503L42.041 40.6191Z" fill="black"/>
<path d="M25.5901 38.5472C25.5901 38.5472 25.0609 38.7264 22.1427 38.9205C19.2244 39.1147 11.9978 38.7376 11.9978 38.7376C11.9978 38.7376 11.6251 32.2907 9.07954 30.2039C6.534 28.1172 5.39355 27.7775 5.39355 27.7775L8.23723 27.3482C8.23723 27.3482 9.20999 25.9595 10.6971 26.2283C12.1841 26.497 15.1695 29.588 18.1101 29.5021C21.0507 29.4163 19.9139 26.1984 19.9139 26.1984C19.9139 26.1984 21.2668 26.8106 21.3563 27.7924C21.4457 28.7742 22.7763 28.0724 24.1068 28.5801C25.4373 29.0878 25.8883 29.5954 25.8883 29.5954C25.8883 29.5954 24.0434 30.1069 24.2969 31.8353C24.5503 33.5636 25.4858 35.5757 25.5901 38.5472Z" fill="#A5CE3E"/>
<path d="M18.9523 31.936C18.2889 29.2109 17.905 28.8674 17.905 28.8674C18.1002 28.5234 18.2696 28.1652 18.4119 27.7961C18.725 27.0495 18.7846 24.5035 18.7846 24.5035C18.7846 24.5035 21.0618 25.2501 21.7662 26.4447C22.4706 27.6393 23.1564 30.9243 23.1564 30.9243C23.1564 30.9243 19.9623 29.614 18.9523 31.936Z" fill="white"/>
<path d="M18.9003 32.5184L18.7698 31.9809C18.1511 29.4349 17.7896 29.0169 17.7747 28.9945L17.6592 28.8899L17.7486 28.763C17.9324 28.4248 18.0955 28.0758 18.2369 27.7178C18.535 27.001 18.5835 24.5186 18.5835 24.4962V24.2423L18.822 24.3207C18.9189 24.3543 21.1775 25.1158 21.9191 26.3403C22.6608 27.5647 23.3056 30.7266 23.3317 30.861L23.4025 31.2007L23.0782 31.07C22.9552 31.0215 20.0407 29.8754 19.1164 32.0033L18.9003 32.5184ZM18.1288 28.8563C18.2779 29.0915 18.5835 29.7336 19.0158 31.4284C20.0258 29.9352 22.1055 30.3831 22.9068 30.6258C22.7167 29.7747 22.1614 27.4714 21.6098 26.5419C21.0582 25.6123 19.5413 24.9964 18.9524 24.7687C18.9301 25.4443 18.8481 27.225 18.5797 27.8671C18.3673 28.3897 18.2108 28.7033 18.1288 28.8563Z" fill="black"/>
<path d="M18.7474 31.2827C18.7474 31.2827 17.5473 28.2627 14.5694 29.5581C11.5915 30.8534 10.6971 30.9057 10.6971 30.9057C10.6971 30.9057 9.52677 25.8139 10.22 24.8134C10.8431 23.988 11.5257 23.2095 12.2624 22.484C12.7421 23.8374 13.4674 25.0903 14.4017 26.1797C15.9745 28.035 18.4119 27.6281 18.7474 31.2827Z" fill="white"/>
<path d="M19.0494 32.5445L18.5723 31.3537C18.2451 30.5863 17.6521 29.9632 16.9026 29.5991C16.5374 29.4641 16.1484 29.406 15.7597 29.4285C15.3711 29.4509 14.9913 29.5535 14.644 29.7298C11.6624 31.0214 10.7456 31.0886 10.7083 31.0923H10.5481L10.5145 30.9356C10.3916 30.4092 9.34799 25.7354 10.0673 24.6977C10.6956 23.8617 11.3858 23.0743 12.132 22.3421L12.352 22.1256L12.4414 22.4205C12.9177 23.7461 13.6299 24.9742 14.5434 26.0453C15.0451 26.5907 15.6411 27.0409 16.3026 27.3742C17.484 28.0574 18.7027 28.7592 18.9338 31.2529L19.0494 32.5445ZM12.188 22.8386C11.5321 23.4908 10.9254 24.1908 10.3729 24.9328C9.86232 25.6795 10.5034 29.1997 10.8388 30.7078C11.2115 30.6369 12.2588 30.3681 14.495 29.3975C14.8885 29.2006 15.3185 29.0874 15.7578 29.0649C16.1972 29.0424 16.6364 29.1112 17.048 29.2669C17.5871 29.5024 18.055 29.8757 18.4046 30.3495C18.0319 28.8189 17.1262 28.3038 16.1162 27.7363C15.4147 27.3832 14.7832 26.905 14.2527 26.3253C13.3743 25.2871 12.6764 24.1085 12.188 22.8386Z" fill="black"/>
<path d="M21.7513 53.6175L21.3786 53.5914C21.3786 53.4831 22.124 43.0381 20.5997 38.174C19.0753 33.3098 18.233 30.0136 18.2256 29.9837L18.5983 29.8904C18.5983 29.924 19.4406 33.168 20.9686 38.062C22.4967 42.956 21.7625 53.5092 21.7513 53.6175Z" fill="black"/>
<path d="M15.0763 23.8988C15.5795 24.9105 17.1001 25.4443 18.2219 25.392C19.3437 25.3398 20.5289 23.8988 21.2333 22.2675C21.9377 20.6362 21.3153 18.6353 21.3153 18.6353C21.3153 18.6353 22.2433 13.1739 19.0791 11.3148C17.1634 10.1949 13.3992 10.1949 11.7146 12.5243C11.2233 13.225 10.9004 14.03 10.7711 14.8764C10.6418 15.7227 10.7096 16.5876 10.9692 17.4034" fill="white"/>
<path d="M18.0579 25.5788C16.8727 25.5788 15.4191 25.0039 14.9085 23.981L15.2402 23.813C15.7061 24.7426 17.1447 25.2577 18.2218 25.2017C19.1685 25.1569 20.3127 23.9437 21.0693 22.1892C21.7327 20.64 21.1512 18.7063 21.1438 18.6876V18.6465V18.6017C21.1438 18.5457 22.0122 13.2448 18.9821 11.4717C17.182 10.4189 13.5146 10.3517 11.8636 12.6326C11.3939 13.31 11.0849 14.0858 10.9602 14.901C10.8356 15.7162 10.8985 16.5491 11.1443 17.3362L10.7977 17.4632C10.5193 16.6215 10.4417 15.7262 10.5711 14.8491C10.7006 13.9719 11.0335 13.1374 11.5431 12.4124C13.3134 9.95978 17.2342 10.027 19.1536 11.1506C22.288 12.9835 21.5873 18.0567 21.4979 18.6167C21.5873 18.9265 22.0681 20.7706 21.3935 22.3497C20.7711 23.8018 19.5673 25.519 18.2256 25.5862L18.0579 25.5788Z" fill="black"/>
<path d="M11.6438 17.8439C11.6438 17.8439 10.6599 16.9144 10.2947 17.59C9.92941 18.2657 10.9693 21.2223 11.7296 21.73C12.4899 22.2377 12.7694 22.1033 12.7694 22.1033C12.7694 22.1033 13.8875 24.918 16.6343 24.2945" fill="white"/>
<path d="M15.859 24.5633C13.8874 24.5633 12.9035 22.8125 12.6575 22.3011C12.2803 22.2644 11.9218 22.1192 11.6251 21.883C10.8574 21.3678 9.69453 18.3105 10.1343 17.5004C10.1788 17.4136 10.2427 17.3382 10.3208 17.28C10.399 17.2217 10.4895 17.1822 10.5853 17.1645C11.0996 17.0823 11.7034 17.6423 11.7779 17.7057L11.5208 17.9783C11.2889 17.7332 10.9794 17.5762 10.6449 17.534C10.6047 17.5409 10.5669 17.5579 10.535 17.5833C10.503 17.6088 10.478 17.6419 10.4623 17.6796C10.1418 18.2732 11.1443 21.1103 11.8376 21.5732C12.46 21.9875 12.7022 21.9241 12.706 21.9203L12.8848 21.8307L12.9482 22.0286C12.9892 22.1368 14.0253 24.6865 16.5969 24.1041L16.6789 24.4774C16.4098 24.5374 16.1347 24.5662 15.859 24.5633Z" fill="black"/>
<path d="M18.7922 16.7538C18.7922 16.7538 18.5835 17.9148 18.7102 18.2731C18.8369 18.6315 19.5115 20.0239 19.3848 20.5951C19.258 21.1662 18.5201 21.5022 18.1809 21.1886C17.8418 20.875 17.6554 20.8713 17.4355 20.9236" fill="white"/>
<path d="M18.5126 21.4948C18.3431 21.5005 18.1783 21.4388 18.0542 21.3231C17.7523 21.0431 17.6255 21.0692 17.4616 21.1066L17.3833 20.7333C17.5508 20.6913 17.7268 20.6981 17.8906 20.753C18.0544 20.8079 18.199 20.9086 18.3076 21.0431C18.3611 21.081 18.4232 21.1049 18.4883 21.1127C18.5534 21.1205 18.6193 21.112 18.6803 21.0879C18.8056 21.0487 18.9191 20.9787 19.0102 20.8841C19.1014 20.7895 19.1674 20.6734 19.2021 20.5466C19.2878 20.1509 18.8704 19.1505 18.6691 18.6801L18.5312 18.3404C18.397 17.9671 18.5722 16.9256 18.6095 16.724L18.9822 16.7912C18.8782 17.2577 18.848 17.7376 18.8927 18.2135C18.9151 18.2844 18.9635 18.3964 19.0232 18.5345C19.3586 19.3409 19.6754 20.1658 19.571 20.6399C19.5221 20.8311 19.4252 21.0066 19.2896 21.1497C19.1539 21.2928 18.9839 21.3987 18.7958 21.4575C18.7036 21.4831 18.6083 21.4956 18.5126 21.4948Z" fill="black"/>
<path d="M16.3062 22.2526C16.3062 22.2526 18.8405 22.8648 19.9139 22.1033L16.3062 22.2526Z" fill="white"/>
<path d="M18.2517 22.6707C17.582 22.6614 16.915 22.5826 16.2615 22.4355L16.3472 22.0622C16.3733 22.0622 18.8145 22.6483 19.8059 21.9427L20.022 22.2489C19.4858 22.5599 18.8703 22.7065 18.2517 22.6707Z" fill="black"/>
<path d="M14.9048 17.8439C14.9048 17.8439 16.1161 17.0973 16.6341 17.9148L14.9048 17.8439Z" fill="white"/>
<path d="M16.4702 18.0119C16.4069 17.9111 16.2168 17.6087 15.6093 17.7506C15.3945 17.8038 15.1886 17.888 14.9981 18.0007L14.8005 17.6871C15.0312 17.5469 15.2829 17.4448 15.5459 17.3847C15.7736 17.3046 16.0215 17.3034 16.2499 17.3812C16.4783 17.4591 16.674 17.6115 16.8057 17.814L16.4702 18.0119Z" fill="black"/>
<path d="M19.2505 18.0679C19.2505 18.0679 20.2158 17.2317 20.7823 17.9858L19.2505 18.0679Z" fill="white"/>
<path d="M19.3697 18.2097L19.1274 17.926C19.4492 17.6463 19.8605 17.4913 20.2865 17.4893C20.4139 17.5037 20.5368 17.5443 20.6478 17.6086C20.7587 17.6728 20.8552 17.7593 20.9313 17.8626L20.6331 18.0865C20.5908 18.0235 20.5358 17.97 20.4716 17.9295C20.4074 17.889 20.3355 17.8624 20.2604 17.8514C19.9317 17.8669 19.6178 17.9932 19.3697 18.2097Z" fill="black"/>
<path d="M15.5979 18.2806C15.7461 18.2806 15.8663 18.1168 15.8663 17.9148C15.8663 17.7127 15.7461 17.549 15.5979 17.549C15.4497 17.549 15.3296 17.7127 15.3296 17.9148C15.3296 18.1168 15.4497 18.2806 15.5979 18.2806Z" fill="black"/>
<path d="M19.7946 18.3703C19.916 18.3703 20.0145 18.2349 20.0145 18.0679C20.0145 17.9009 19.916 17.7655 19.7946 17.7655C19.6732 17.7655 19.5747 17.9009 19.5747 18.0679C19.5747 18.2349 19.6732 18.3703 19.7946 18.3703Z" fill="black"/>
<path d="M17.5062 17.1384C16.8446 16.7665 16.0839 16.6099 15.3296 16.6904L17.5062 17.1384Z" fill="white"/>
<path d="M17.4094 17.2988C16.7837 16.9479 16.0659 16.7968 15.3521 16.8658L15.2961 16.4925C16.0919 16.4121 16.893 16.5817 17.5883 16.9778L17.4094 17.2988Z" fill="black"/>
<path d="M19.3213 17.1384C19.4817 17.0025 19.6737 16.9094 19.8796 16.8677C20.0854 16.8259 20.2985 16.8368 20.499 16.8994" fill="white"/>
<path d="M19.4517 17.2764L19.1946 17.0039C19.3795 16.8451 19.6016 16.7358 19.8402 16.6862C20.0787 16.6366 20.3259 16.6483 20.5587 16.7202L20.4506 17.0935C20.282 17.0384 20.1024 17.0263 19.928 17.0582C19.7536 17.0901 19.5899 17.1652 19.4517 17.2764Z" fill="black"/>
<path d="M16.3061 12.1846C17.1261 12.6064 16.936 14.3796 16.131 15.1113C15.326 15.8429 14.3458 15.1411 13.8948 15.7869C13.264 16.6551 12.814 17.6415 12.5717 18.6875L11.7853 18.3739C11.7945 18.1372 11.7146 17.9056 11.5613 17.7251C11.4081 17.5446 11.1927 17.4285 10.9579 17.3996C10.1007 17.2801 8.69189 14.2116 11.5319 11.1132C14.3718 8.01478 19.6008 10.0455 20.499 11.4529C21.2981 12.822 21.7343 14.3731 21.7662 15.9587C21.7923 17.1943 21.442 16.9927 21.442 16.9927C20.7375 16.0992 19.9715 15.2559 19.1498 14.4692C18.3075 13.7599 18.2815 14.7753 18.561 15.2158C18.7277 15.4798 18.9159 15.7295 19.1238 15.9624C18.5997 16.0683 18.0554 15.9962 17.5768 15.7576C17.0983 15.5189 16.7128 15.1273 16.4813 14.6446" fill="white"/>
<path d="M12.717 18.9488L11.5989 18.4971V18.359C11.6086 18.1687 11.5453 17.9819 11.422 17.8369C11.2986 17.6918 11.1246 17.5995 10.9355 17.5788C10.5405 17.5228 10.1305 17.0487 9.88452 16.373C9.63854 15.6973 9.09813 13.4874 11.3753 10.9788C12.8326 9.39598 14.7632 9.20186 16.1272 9.32132C18.233 9.50424 20.1077 10.5122 20.6406 11.3446C21.456 12.7422 21.9012 14.3253 21.9339 15.9437C21.9339 16.6306 21.8556 17.0076 21.6395 17.1383C21.5926 17.1658 21.5392 17.1804 21.4848 17.1804C21.4304 17.1804 21.377 17.1658 21.3301 17.1383L21.278 17.0935C20.5806 16.2112 19.8235 15.378 19.0119 14.5998C18.7585 14.3833 18.6392 14.387 18.6392 14.4057C18.5535 14.4766 18.561 14.8611 18.7138 15.1112C18.8729 15.3756 19.055 15.6255 19.2579 15.8579L19.4629 16.0893L19.1647 16.164C18.6506 16.2672 18.1173 16.211 17.6359 16.0029C17.1545 15.7948 16.7478 15.4447 16.4701 14.9993C16.4039 15.0828 16.3316 15.1614 16.2539 15.2344C16.0588 15.3971 15.8325 15.5181 15.5889 15.59C15.3454 15.6619 15.0897 15.6832 14.8377 15.6525C14.4315 15.6525 14.1966 15.6525 14.0438 15.8802C13.4235 16.7338 12.9811 17.7038 12.7431 18.7323L12.717 18.9488ZM11.9716 18.2433L12.4375 18.4299C12.7084 17.444 13.1513 16.5138 13.7457 15.6824C14.0178 15.2867 14.4426 15.2904 14.8638 15.3091C15.0686 15.3369 15.2769 15.3228 15.4762 15.2676C15.6754 15.2124 15.8614 15.1173 16.0229 14.9881C16.2604 14.7384 16.44 14.4393 16.5489 14.1122C16.6577 13.785 16.6932 13.4379 16.6527 13.0954C16.6463 12.9474 16.6056 12.8028 16.5338 12.6733C16.462 12.5437 16.3611 12.4326 16.239 12.3488L16.4105 12.0166C16.5867 12.1228 16.7344 12.2705 16.8409 12.4467C16.9474 12.623 17.0094 12.8226 17.0217 13.0282C17.0846 13.5932 16.9769 14.1641 16.7124 14.667C16.9095 15.0411 17.2093 15.351 17.5765 15.56C17.9436 15.769 18.3628 15.8685 18.7846 15.8467C18.6516 15.6789 18.5272 15.5044 18.4119 15.324C18.2144 15.0105 18.1137 14.3908 18.4119 14.1369C18.5572 14.01 18.8256 13.9428 19.284 14.3273C20.0868 15.0851 20.8341 15.8998 21.5202 16.765C21.5989 16.5052 21.6268 16.2327 21.6022 15.9624C21.5712 14.4113 21.1453 12.8938 20.3648 11.5537C19.8803 10.8071 18.0653 9.87008 16.1384 9.68716C14.8526 9.57517 13.045 9.75062 11.6921 11.2252C9.5379 13.577 10.0485 15.6563 10.2572 16.2386C10.4659 16.821 10.7976 17.1719 11.0026 17.2017C11.2607 17.2325 11.4995 17.3541 11.6763 17.5449C11.8531 17.7357 11.9565 17.9832 11.9679 18.2433H11.9716Z" fill="black"/>
<path d="M62.7744 36.1805C62.7744 36.1805 60.4898 32.3616 59.1555 34.0788C57.8213 35.796 55.5403 38.9317 55.9205 43.4113C56.3006 47.891 55.4509 48.6376 55.4509 48.6376C55.4509 48.6376 51.9438 48.4472 49.9834 49.1154C48.831 49.502 47.7336 50.0365 46.7185 50.7057C46.7185 50.7057 48.7944 52.4938 49.1224 53.2329C49.3178 53.7431 49.3668 54.2978 49.2641 54.8344C49.2641 54.8344 58.0635 54.7485 60.2028 52.8745C62.3421 51.0006 63.8217 43.2433 62.7744 36.1805Z" fill="#CACACA"/>
<path d="M55.0967 36.6807C55.0967 36.6807 50.341 38.7712 47.4898 38.2822C44.6387 37.7932 41.6944 34.4596 41.6944 34.4596C41.6944 34.4596 40.744 35.5086 41.6944 37.4161C42.1608 38.2876 42.5536 39.1966 42.8684 40.1338C42.8684 40.1338 42.2981 40.3391 42.5516 41.6083C42.7636 42.5577 43.0387 43.4918 43.3752 44.4044C43.2036 44.5684 43.0833 44.7789 43.029 45.0103C42.9747 45.2416 42.9889 45.4838 43.0696 45.7072C43.3119 46.5658 43.4423 46.913 43.4423 46.913C43.4423 46.913 43.0286 47.0399 42.7454 48.1859C42.5634 48.9535 42.4475 49.7354 42.3988 50.5228C42.3988 50.5228 45.5518 48.5331 48.5073 47.8686C50.5009 47.4402 52.5203 47.1421 54.5525 46.9764C54.3233 45.1854 54.2249 43.3801 54.2581 41.5747C54.4112 39.9242 54.6916 38.288 55.0967 36.6807Z" fill="#CACACA"/>
<path d="M45.399 40.7908C44.5585 40.8028 43.7181 40.7592 42.8833 40.6602L42.9355 40.2869C45.8239 40.7012 53.5313 39.9546 53.6096 39.9471L53.6469 40.3204C53.4009 40.3466 48.8092 40.7908 45.399 40.7908Z" fill="black"/>
<path d="M43.9045 44.5909C43.9045 44.5909 47.8626 45.8788 50.766 45.8863L43.9045 44.5909Z" fill="white"/>
<path d="M50.7586 46.073C47.859 46.073 43.8823 44.7814 43.8413 44.7665L43.9568 44.3932C43.9941 44.3932 47.9186 45.6736 50.7586 45.6811V46.073Z" fill="black"/>
<path d="M45.2277 50.6795C44.0798 41.5037 47.3931 36.1207 47.4266 36.0721L47.7434 36.27C47.7099 36.3223 44.4674 41.597 45.5967 50.6347L45.2277 50.6795Z" fill="black"/>
<path d="M58.4921 28.2964C58.4921 28.2964 58.0561 32.3616 52.4208 34.4596C46.7856 36.5575 44.2214 29.0542 44.2214 29.0542C44.2214 29.0542 44.4376 27.6244 46.3272 28.9944C48.2168 30.3645 51.668 28.0911 52.4245 27.5012C53.1811 26.9114 57.8399 25.3286 58.4921 28.2964Z" fill="#A5CE3E"/>
<path d="M57.7169 25.0785C56.815 22.5177 55.7677 22.9246 55.9578 19.5163C56.1479 16.1081 54.5788 14.4879 52.6855 14.6634C50.7922 14.8388 50.7661 16.9293 50.7661 16.9293C51.5644 17.6286 52.1582 18.5317 52.4843 19.5424C53.0098 21.185 53.293 22.0921 53.293 22.0921C53.293 22.0921 54.3776 21.282 54.9105 21.5471C55.4435 21.8121 55.6037 22.5027 55.3168 23.2232C55.0298 23.9437 54.3813 24.3618 53.867 24.1565C53.7538 24.1093 53.6539 24.035 53.5763 23.9399C53.1439 27.0719 52.7228 29.0504 53.8632 29.7149C55.0037 30.3794 58.6226 27.6543 57.7169 25.0785Z" fill="white"/>
<path d="M54.2954 29.9948C54.1122 29.9984 53.9313 29.9547 53.7699 29.8679C52.6518 29.2034 52.8866 27.4601 53.263 24.8208C53.304 24.5259 53.3487 24.2198 53.3897 23.9025L53.4494 23.4881L53.7177 23.8054C53.7753 23.8795 53.8511 23.9373 53.9376 23.9734C54.0444 24.0085 54.1581 24.0173 54.269 23.9991C54.3799 23.9809 54.4849 23.9362 54.5749 23.8689C54.8344 23.6908 55.0323 23.4364 55.1414 23.141C55.3837 22.5399 55.242 21.9091 54.8246 21.7C54.5153 21.547 53.7885 21.9427 53.4046 22.2301L53.1959 22.3869L53.1177 22.1368L52.3089 19.5871C51.9871 18.6188 51.4148 17.7533 50.6504 17.0785L50.5796 17.0225V16.9329C50.5796 16.9068 50.6318 14.6558 52.6704 14.4803C53.078 14.4395 53.4896 14.4889 53.876 14.625C54.2624 14.7611 54.6143 14.9806 54.9066 15.268C55.5365 15.884 56.2632 17.1345 56.1291 19.5386C56.0098 21.6739 56.3862 22.2637 56.9043 23.0812C57.3093 23.689 57.6373 24.3448 57.8808 25.0336C58.4324 26.594 57.4373 28.1395 56.3229 29.0615C55.7154 29.5767 54.9215 29.9948 54.2954 29.9948ZM53.714 24.2795C53.6879 24.4811 53.6581 24.679 53.632 24.8731C53.2593 27.363 53.0394 29.0093 53.96 29.5431C54.37 29.7857 55.2719 29.461 56.0993 28.7741C57.1167 27.9304 58.0299 26.5343 57.5416 25.1568C57.3089 24.4972 56.9933 23.87 56.6024 23.2903C56.0694 22.4503 55.6483 21.7971 55.7713 19.5311C55.8719 17.7542 55.4769 16.3394 54.6532 15.5443C54.3962 15.2937 54.0874 15.1027 53.7487 14.9847C53.41 14.8667 53.0496 14.8245 52.6928 14.8611C51.1759 14.9918 50.9746 16.4812 50.9486 16.862C51.7356 17.5688 52.3241 18.4697 52.6555 19.4751C53.0282 20.6286 53.2705 21.4163 53.4009 21.7859C53.7736 21.5469 54.519 21.1326 54.9961 21.3715C55.5961 21.6664 55.8086 22.4914 55.4918 23.2828C55.3526 23.6499 55.1041 23.9653 54.7799 24.1862C54.6405 24.2868 54.4786 24.3517 54.3084 24.3752C54.1381 24.3986 53.9648 24.3798 53.8034 24.3206L53.714 24.2795Z" fill="black"/>
<path d="M39.1752 35.6989C39.1752 35.6989 37.8894 39.5961 37.6508 41.7688C37.5548 42.8391 37.3804 43.9008 37.129 44.9456C37.129 44.9456 36.0333 43.7062 35.2655 43.7062C34.4978 43.7062 35.2655 45.8863 35.2655 45.8863L37.0471 50.1867C37.7767 50.1766 38.4846 49.9363 39.0701 49.5C39.6555 49.0637 40.0888 48.4536 40.3082 47.7565C41.2213 45.2367 39.3168 37.8416 39.1752 35.6989Z" fill="#CACACA"/>
</g>
<defs>
<clipPath id="clip0_481_1747">
<rect width="64" height="58" fill="white" transform="translate(0.5)"/>
</clipPath>
</defs>
</svg>
