<svg width="25" height="24" viewBox="0 0 25 24" fill="none" xmlns="http://www.w3.org/2000/svg">
<g id="majesticons:send">
<path id="Vector" fill-rule="evenodd" clip-rule="evenodd" d="M2.9554 2.24507C3.10467 2.1154 3.28903 2.03289 3.48517 2.00797C3.68132 1.98306 3.88045 2.01684 4.0574 2.10507L22.0574 11.1051C22.2238 11.188 22.3638 11.3157 22.4616 11.4738C22.5595 11.6319 22.6113 11.8141 22.6113 12.0001C22.6113 12.186 22.5595 12.3682 22.4616 12.5263C22.3638 12.6844 22.2238 12.8121 22.0574 12.8951L4.0574 21.8951C3.88046 21.9836 3.68124 22.0177 3.48494 21.9929C3.28865 21.9682 3.1041 21.8858 2.95464 21.7562C2.80519 21.6265 2.69756 21.4554 2.64536 21.2646C2.59316 21.0738 2.59874 20.8717 2.6614 20.6841L5.2234 13.0001H10.6104C10.8756 13.0001 11.13 12.8947 11.3175 12.7072C11.505 12.5196 11.6104 12.2653 11.6104 12.0001C11.6104 11.7348 11.505 11.4805 11.3175 11.293C11.13 11.1054 10.8756 11.0001 10.6104 11.0001H5.2234L2.6604 3.31607C2.59806 3.12848 2.59272 2.92662 2.64505 2.736C2.69738 2.54538 2.80603 2.37454 2.9554 2.24507Z" fill="#A5CE3E"/>
</g>
</svg>
