<svg width="28" height="28" viewBox="0 0 28 28" fill="none" xmlns="http://www.w3.org/2000/svg">
<g id="fluent:video-off-28-regular">
<path id="Vector" d="M3.28015 2.21991C3.21149 2.14622 3.12869 2.08712 3.03669 2.04613C2.94469 2.00514 2.84538 1.98309 2.74468 1.98132C2.64397 1.97954 2.54394 1.99807 2.45056 2.03579C2.35717 2.07351 2.27233 2.12965 2.20112 2.20087C2.1299 2.27209 2.07375 2.35692 2.03603 2.45031C1.99831 2.5437 1.97979 2.64373 1.98156 2.74443C1.98334 2.84513 2.00538 2.94445 2.04637 3.03645C2.08736 3.12845 2.14647 3.21125 2.22015 3.27991L4.52015 5.58191C3.80378 5.74722 3.1646 6.15047 2.70692 6.72584C2.24924 7.3012 2.0001 8.01471 2.00015 8.74991V19.2499C2.00015 20.1119 2.34256 20.9385 2.95206 21.548C3.56155 22.1575 4.3882 22.4999 5.25015 22.4999H15.7522C16.4874 22.5 17.2009 22.2508 17.7762 21.7931C18.3516 21.3355 18.7548 20.6963 18.9202 19.9799L24.7202 25.7799C24.8623 25.9124 25.0504 25.9845 25.2447 25.9811C25.439 25.9777 25.6244 25.8989 25.7618 25.7615C25.8992 25.6241 25.9779 25.4387 25.9813 25.2444C25.9848 25.0501 25.9126 24.8621 25.7802 24.7199L3.28015 2.21991ZM17.5022 18.5629V19.2499C17.5022 19.714 17.3178 20.1592 16.9896 20.4873C16.6614 20.8155 16.2163 20.9999 15.7522 20.9999H5.25015C4.78602 20.9999 4.34091 20.8155 4.01272 20.4873C3.68453 20.1592 3.50015 19.714 3.50015 19.2499V8.74991C3.50015 7.78391 4.28415 6.99991 5.25015 6.99991H5.94015L17.5022 18.5629ZM8.68215 5.49991L10.1822 6.99991H15.7522C16.7192 6.99991 17.5022 7.78391 17.5022 8.74991V14.3199L19.0022 15.8199V12.1459L24.0022 8.72591V19.2759L19.1022 15.9209L24.1822 21.0009C24.8562 21.0369 25.5022 20.5109 25.5022 19.7509V8.25191C25.5021 8.02441 25.4399 7.80125 25.3223 7.60649C25.2048 7.41172 25.0363 7.25273 24.835 7.14665C24.6338 7.04057 24.4074 6.99143 24.1803 7.00451C23.9531 7.0176 23.7339 7.09242 23.5462 7.22091L19.0022 10.3279V8.74991C19.0022 7.88796 18.6597 7.06131 18.0503 6.45181C17.4408 5.84232 16.6141 5.49991 15.7522 5.49991H8.68215Z" fill="#808080"/>
</g>
</svg>
