<svg width="25" height="25" viewBox="0 0 25 25" fill="none" xmlns="http://www.w3.org/2000/svg">
<g id="ph:arrow-up">
<path id="Vector" d="M11.7519 5.21652C11.8216 5.28617 11.877 5.36889 11.9147 5.45994C11.9525 5.55098 11.9719 5.64858 11.9719 5.74714C11.9719 5.8457 11.9525 5.9433 11.9147 6.03435C11.877 6.1254 11.8216 6.20811 11.7519 6.27777L6.28161 11.7471L20.9713 11.7471C21.1702 11.7471 21.361 11.8262 21.5016 11.9668C21.6423 12.1075 21.7213 12.2982 21.7213 12.4971C21.7213 12.6961 21.6423 12.8868 21.5016 13.0275C21.361 13.1681 21.1702 13.2471 20.9713 13.2471L6.28161 13.2471L11.7519 18.7165C11.8926 18.8572 11.9717 19.0481 11.9717 19.2471C11.9717 19.4462 11.8926 19.637 11.7519 19.7778C11.6112 19.9185 11.4203 19.9976 11.2213 19.9976C11.0223 19.9976 10.8314 19.9185 10.6907 19.7778L3.94067 13.0278C3.87094 12.9581 3.81562 12.8754 3.77787 12.7843C3.74013 12.6933 3.7207 12.5957 3.7207 12.4971C3.7207 12.3986 3.74013 12.301 3.77787 12.2099C3.81562 12.1189 3.87094 12.0362 3.94067 11.9665L10.6907 5.21652C10.7603 5.14678 10.843 5.09146 10.9341 5.05372C11.0251 5.01598 11.1227 4.99655 11.2213 4.99655C11.3199 4.99655 11.4174 5.01598 11.5085 5.05372C11.5995 5.09146 11.6823 5.14678 11.7519 5.21652Z" fill="#757575"/>
</g>
</svg>
