<svg width="16" height="16" viewBox="0 0 16 16" fill="none" xmlns="http://www.w3.org/2000/svg">
<path d="M14.6654 7.99992C14.6654 11.6818 11.6806 14.6666 7.9987 14.6666C4.3168 14.6666 1.33203 11.6818 1.33203 7.99992C1.33203 4.31802 4.3168 1.33325 7.9987 1.33325C11.6806 1.33325 14.6654 4.31802 14.6654 7.99992Z" fill="white"/>
<path d="M8 5.16675C7.58579 5.16675 7.25 5.50253 7.25 5.91675C7.25 6.19289 7.02614 6.41675 6.75 6.41675C6.47386 6.41675 6.25 6.19289 6.25 5.91675C6.25 4.95025 7.0335 4.16675 8 4.16675C8.9665 4.16675 9.75 4.95025 9.75 5.91675C9.75 6.39064 9.56098 6.8214 9.25531 7.13606C9.1938 7.19937 9.13512 7.258 9.07915 7.31392L9.07915 7.31392C8.93526 7.45769 8.8092 7.58364 8.6986 7.72574C8.55258 7.91336 8.5 8.05126 8.5 8.16675V8.66675C8.5 8.94289 8.27614 9.16675 8 9.16675C7.72386 9.16675 7.5 8.94289 7.5 8.66675V8.16675C7.5 7.72995 7.70334 7.37637 7.90945 7.11155C8.06195 6.91561 8.25363 6.72431 8.40918 6.56906L8.40918 6.56906C8.45611 6.52222 8.49975 6.47867 8.53803 6.43926C8.66972 6.3037 8.75 6.12011 8.75 5.91675C8.75 5.50253 8.41421 5.16675 8 5.16675Z" fill="#2C3AD1" fill-opacity="0.5"/>
<path d="M8 11.3334C8.36819 11.3334 8.66667 11.0349 8.66667 10.6667C8.66667 10.2986 8.36819 10.0001 8 10.0001C7.63181 10.0001 7.33333 10.2986 7.33333 10.6667C7.33333 11.0349 7.63181 11.3334 8 11.3334Z" fill="#2C3AD1" fill-opacity="0.5"/>
</svg>
