<svg width="17" height="16" viewBox="0 0 17 16" fill="none" xmlns="http://www.w3.org/2000/svg">
<path d="M15.2747 7.99992C15.2747 11.6818 12.29 14.6666 8.60807 14.6666C4.92617 14.6666 1.94141 11.6818 1.94141 7.99992C1.94141 4.31802 4.92617 1.33325 8.60807 1.33325C12.29 1.33325 15.2747 4.31802 15.2747 7.99992Z" fill="white"/>
<path d="M8.60938 5.16675C8.19516 5.16675 7.85938 5.50253 7.85938 5.91675C7.85938 6.19289 7.63552 6.41675 7.35938 6.41675C7.08323 6.41675 6.85938 6.19289 6.85938 5.91675C6.85938 4.95025 7.64288 4.16675 8.60938 4.16675C9.57587 4.16675 10.3594 4.95025 10.3594 5.91675C10.3594 6.39064 10.1704 6.8214 9.86468 7.13606C9.80317 7.19937 9.7445 7.258 9.68852 7.31392L9.68852 7.31392C9.54463 7.45769 9.41858 7.58364 9.30798 7.72574C9.16196 7.91336 9.10938 8.05126 9.10938 8.16675V8.66675C9.10938 8.94289 8.88552 9.16675 8.60938 9.16675C8.33323 9.16675 8.10938 8.94289 8.10938 8.66675V8.16675C8.10938 7.72995 8.31271 7.37637 8.51882 7.11155C8.67132 6.91561 8.863 6.72431 9.01856 6.56906L9.01856 6.56906C9.06549 6.52222 9.10912 6.47867 9.14741 6.43926C9.2791 6.3037 9.35938 6.12011 9.35938 5.91675C9.35938 5.50253 9.02359 5.16675 8.60938 5.16675Z" fill="#2C3AD1" fill-opacity="0.5"/>
<path d="M8.60938 11.3334C8.97756 11.3334 9.27604 11.0349 9.27604 10.6667C9.27604 10.2986 8.97756 10.0001 8.60938 10.0001C8.24119 10.0001 7.94271 10.2986 7.94271 10.6667C7.94271 11.0349 8.24119 11.3334 8.60938 11.3334Z" fill="#2C3AD1" fill-opacity="0.5"/>
</svg>
