<svg width="375" height="287" viewBox="0 0 375 287" fill="none" xmlns="http://www.w3.org/2000/svg">
<path d="M375.173 252.211H-10V252.404H375.173V252.211Z" fill="#EBEBEB"/>
<path d="M336.578 264.606H311.064V264.799H336.578V264.606Z" fill="#EBEBEB"/>
<path d="M222.213 264.706H215.519V264.899H222.213V264.706Z" fill="#EBEBEB"/>
<path d="M310.287 257.457H262.957V257.65H310.287V257.457Z" fill="#EBEBEB"/>
<path d="M163.435 262.002H153.659V262.195H163.435V262.002Z" fill="#EBEBEB"/>
<path d="M146.803 262.002H118.432V262.195H146.803V262.002Z" fill="#EBEBEB"/>
<path d="M50.002 258.751H30.4121V258.944H50.002V258.751Z" fill="#EBEBEB"/>
<path d="M112.315 258.751H54.624V258.944H112.315V258.751Z" fill="#EBEBEB"/>
<path d="M172.573 217.854H23.8265C22.6613 217.852 21.5444 217.387 20.7212 216.563C19.8979 215.738 19.4355 214.62 19.4355 213.455V4.36015C19.4457 3.20157 19.9125 2.09378 20.7347 1.2774C21.5568 0.461019 22.6679 0.00198471 23.8265 0H172.573C173.739 0 174.858 0.46343 175.683 1.28834C176.508 2.11325 176.971 3.23207 176.971 4.39867V213.455C176.971 214.622 176.508 215.74 175.683 216.565C174.858 217.39 173.739 217.854 172.573 217.854ZM23.8265 0.15407C22.7123 0.15611 21.6445 0.600149 20.8573 1.38872C20.0702 2.17729 19.6281 3.24596 19.6281 4.36015V213.455C19.6281 214.569 20.0702 215.638 20.8573 216.426C21.6445 217.215 22.7123 217.659 23.8265 217.661H172.573C173.687 217.659 174.756 217.215 175.544 216.427C176.333 215.639 176.777 214.57 176.779 213.455V4.36015C176.777 3.24526 176.333 2.1766 175.544 1.38825C174.756 0.599899 173.687 0.156106 172.573 0.15407H23.8265Z" fill="#EBEBEB"/>
<path d="M339.205 217.854H190.451C189.285 217.852 188.168 217.388 187.343 216.563C186.519 215.739 186.055 214.621 186.053 213.455V4.36015C186.065 3.20087 186.533 2.09309 187.357 1.27692C188.18 0.46075 189.292 0.00196306 190.451 0H339.205C340.362 0.00400926 341.471 0.46394 342.292 1.2801C343.112 2.09627 343.578 3.2029 343.588 4.36015V213.455C343.588 214.619 343.127 215.735 342.305 216.56C341.484 217.384 340.369 217.85 339.205 217.854ZM190.451 0.15407C189.337 0.156106 188.268 0.599899 187.48 1.38825C186.691 2.1766 186.247 3.24526 186.245 4.36015V213.455C186.247 214.57 186.691 215.639 187.48 216.427C188.268 217.215 189.337 217.659 190.451 217.661H339.205C340.32 217.659 341.389 217.215 342.177 216.427C342.965 215.639 343.409 214.57 343.411 213.455V4.36015C343.409 3.24526 342.965 2.1766 342.177 1.38825C341.389 0.599899 340.32 0.156106 339.205 0.15407H190.451Z" fill="#EBEBEB"/>
<path d="M136.967 149.84L324.191 149.84V13.0804L136.967 13.0804L136.967 149.84Z" fill="#E6E6E6"/>
<path d="M128.693 149.84L322.273 149.84V13.0804L128.693 13.0804L128.693 149.84Z" fill="#F0F0F0"/>
<path d="M310.68 138.254V24.6665L140.272 24.6665V138.254H310.68Z" fill="#FAFAFA"/>
<path d="M269.258 138.246L230.463 24.6665H193.417L232.212 138.246H269.258Z" fill="white"/>
<path d="M224.254 138.246L185.46 24.6665H171.023L209.818 138.246H224.254Z" fill="white"/>
<path d="M141.751 138.254V24.6665H140.28V138.254H141.751Z" fill="#E6E6E6"/>
<path d="M39.7405 112.64L105.852 112.64L105.852 18.9122L39.7405 18.9122L39.7405 112.64Z" fill="#E0E0E0"/>
<path d="M35.0652 112.64L103.21 112.64L103.21 18.9122L35.0652 18.9122L35.0652 112.64Z" fill="#F5F5F5"/>
<path d="M96.4844 105.245V26.292L41.7898 26.292L41.7898 105.245H96.4844Z" fill="white"/>
<path d="M65.4399 178.258C70.347 166.148 82.0178 161.642 86.0544 153.992C91.3313 143.978 91.3004 128.948 86.8247 123.533C82.9114 118.818 69.9696 150.68 68.5136 154.239C64.5192 163.844 62.02 174.005 61.1029 184.367C61.2108 176.887 61.3109 170.015 61.3956 164.715C61.673 147.429 62.0119 141.867 62.166 140.157C62.7052 139.317 63.3446 138.346 63.7067 137.846C66.842 133.432 73.7905 128.17 77.2647 121.753C82.3336 112.378 81.5171 101.162 77.9581 96.9866C74.2373 92.6187 67.6662 102.941 64.1766 113.164C60.6869 123.386 62.1737 133.193 61.1953 141.667C60.9951 143.331 60.7794 149.655 60.5868 158.437C59.5237 148.993 57.4129 142.668 53.5073 136.767C48.7003 129.518 44.5482 120.69 40.5886 121.83C36.629 122.97 38.7552 134.656 41.8905 142.853C44.6945 150.156 58.4452 157.443 60.4712 163.313C60.2324 175.207 60.0167 190.275 59.8703 204.319C58.7842 197.07 59.5314 196.461 55.0788 185.361C52.4365 178.766 41.6132 170.632 40.3036 175.161C38.994 179.691 40.9738 188.257 45.0643 194.266C48.3691 199.104 55.6951 199.096 57.3898 202.1C57.7827 202.801 59.0923 205.49 59.8395 207.03C59.6624 224.163 59.5853 239.292 59.6701 244.446L60.3788 244.5C60.3788 243.167 60.4327 234.486 60.5714 222.93C62.3509 216.768 74.3297 213.216 78.0274 206.83C81.8791 200.151 84.6832 192.355 83.0192 187.14C81.6326 182.788 70.6937 188.681 66.295 195.914C63.3446 200.721 61.542 205.844 60.7023 212.731C60.8025 204.873 60.918 196.43 61.0259 188.465C61.9272 186.462 63.9532 181.886 65.4399 178.258Z" fill="#E6E6E6"/>
<path d="M72.4728 252.211H47.298C46.6327 252.21 45.988 251.98 45.4729 251.559C44.9578 251.138 44.6039 250.552 44.4708 249.9L42.6836 241.118H77.0949L75.3077 249.923C75.1671 250.571 74.8093 251.151 74.2936 251.567C73.778 251.983 73.1355 252.21 72.4728 252.211Z" fill="#F0F0F0"/>
<path d="M77.8204 244.5H41.9608C41.5454 244.499 41.1449 244.345 40.8353 244.069C40.5257 243.792 40.3286 243.411 40.2814 242.998L39.5111 236.489C39.4852 236.252 39.5092 236.013 39.5817 235.787C39.6542 235.56 39.7735 235.352 39.9319 235.174C40.0903 234.997 40.2842 234.855 40.501 234.758C40.7178 234.66 40.9527 234.61 41.1904 234.609H78.506C78.7441 234.608 78.9795 234.658 79.1969 234.755C79.4143 234.852 79.6088 234.994 79.7674 235.172C79.926 235.349 80.0452 235.559 80.1173 235.785C80.1893 236.012 80.2125 236.252 80.1853 236.489L79.415 242.998C79.37 243.397 79.185 243.766 78.893 244.041C78.601 244.316 78.221 244.479 77.8204 244.5Z" fill="#F0F0F0"/>
<path d="M302.475 246.595H310.171V163.791H302.475V246.595Z" fill="#F0F0F0"/>
<path d="M145.656 252.111L307.221 252.111V246.595L145.656 246.595V252.111Z" fill="#F0F0F0"/>
<path d="M302.483 163.791H142.706V246.595H302.483V163.791Z" fill="#F5F5F5"/>
<path d="M304.294 163.791H312.244V158.568H304.294V163.791Z" fill="#E0E0E0"/>
<path d="M304.293 158.568H140.633V163.791H304.293V158.568Z" fill="#EBEBEB"/>
<path d="M291.013 199.52H154.169C152.534 199.52 150.967 198.87 149.811 197.715C148.655 196.559 148.006 194.991 148.006 193.357V175.639C148.006 174.004 148.655 172.437 149.811 171.281C150.967 170.125 152.534 169.476 154.169 169.476H291.013C292.647 169.476 294.215 170.125 295.371 171.281C296.526 172.437 297.176 174.004 297.176 175.639V193.357C297.176 194.991 296.526 196.559 295.371 197.715C294.215 198.87 292.647 199.52 291.013 199.52ZM154.169 171.017C152.943 171.017 151.767 171.504 150.9 172.371C150.034 173.237 149.547 174.413 149.547 175.639V193.357C149.547 194.583 150.034 195.758 150.9 196.625C151.767 197.492 152.943 197.979 154.169 197.979H291.013C292.239 197.979 293.414 197.492 294.281 196.625C295.148 195.758 295.635 194.583 295.635 193.357V175.639C295.635 174.413 295.148 173.237 294.281 172.371C293.414 171.504 292.239 171.017 291.013 171.017H154.169Z" fill="white"/>
<path d="M291.013 236.642H154.169C152.534 236.642 150.967 235.993 149.811 234.837C148.655 233.681 148.006 232.114 148.006 230.479V212.761C148.006 211.127 148.655 209.559 149.811 208.404C150.967 207.248 152.534 206.599 154.169 206.599H291.013C292.647 206.599 294.215 207.248 295.371 208.404C296.526 209.559 297.176 211.127 297.176 212.761V230.479C297.176 232.114 296.526 233.681 295.371 234.837C294.215 235.993 292.647 236.642 291.013 236.642ZM154.169 208.078C152.943 208.078 151.767 208.565 150.9 209.431C150.034 210.298 149.547 211.474 149.547 212.7V230.418C149.547 231.644 150.034 232.819 150.9 233.686C151.767 234.553 152.943 235.04 154.169 235.04H291.013C292.239 235.04 293.414 234.553 294.281 233.686C295.148 232.819 295.635 231.644 295.635 230.418V212.7C295.635 211.474 295.148 210.298 294.281 209.431C293.414 208.565 292.239 208.078 291.013 208.078H154.169Z" fill="white"/>
<path d="M259.914 187.194H185.268C184.738 187.194 184.229 186.984 183.854 186.61C183.479 186.236 183.267 185.728 183.265 185.199V183.735C183.267 183.205 183.479 182.698 183.854 182.324C184.229 181.95 184.738 181.74 185.268 181.74H259.914C260.444 181.74 260.952 181.95 261.328 182.324C261.703 182.698 261.915 183.205 261.917 183.735V185.199C261.915 185.728 261.703 186.236 261.328 186.61C260.952 186.984 260.444 187.194 259.914 187.194ZM185.268 183.342C185.147 183.344 185.032 183.392 184.946 183.477C184.859 183.561 184.809 183.676 184.805 183.797V185.26C184.809 185.381 184.859 185.495 184.946 185.58C185.032 185.665 185.147 185.713 185.268 185.715H259.914C260.035 185.715 260.152 185.667 260.238 185.582C260.325 185.497 260.374 185.381 260.376 185.26V183.797C260.374 183.675 260.325 183.56 260.238 183.475C260.152 183.39 260.035 183.342 259.914 183.342H185.268Z" fill="white"/>
<path d="M259.914 224.317H185.268C184.738 224.317 184.229 224.107 183.854 223.733C183.479 223.359 183.267 222.852 183.265 222.322V220.858C183.267 220.328 183.479 219.821 183.854 219.447C184.229 219.073 184.738 218.863 185.268 218.863H259.914C260.444 218.863 260.952 219.073 261.328 219.447C261.703 219.821 261.915 220.328 261.917 220.858V222.322C261.915 222.852 261.703 223.359 261.328 223.733C260.952 224.107 260.444 224.317 259.914 224.317ZM185.268 220.403C185.147 220.405 185.032 220.454 184.946 220.538C184.859 220.623 184.809 220.737 184.805 220.858V222.322C184.809 222.442 184.859 222.557 184.946 222.641C185.032 222.726 185.147 222.774 185.268 222.776H259.914C260.035 222.776 260.152 222.729 260.238 222.644C260.325 222.559 260.374 222.443 260.376 222.322V220.858C260.374 220.737 260.325 220.621 260.238 220.536C260.152 220.451 260.035 220.403 259.914 220.403H185.268Z" fill="white"/>
<path d="M178.734 287C261.225 287 328.097 283.096 328.097 278.28C328.097 273.464 261.225 269.56 178.734 269.56C96.2438 269.56 29.3721 273.464 29.3721 278.28C29.3721 283.096 96.2438 287 178.734 287Z" fill="#F5F5F5"/>
<path d="M278.719 86.859L278.426 91.3945L279.195 91.4442L279.488 86.9087L278.719 86.859Z" fill="#2C3AD1"/>
<path d="M279.887 68.4377L278.926 83.3438L279.695 83.3933L280.656 68.4873L279.887 68.4377Z" fill="#2C3AD1"/>
<path d="M270.745 46.791H180.191C177.866 46.8318 175.64 47.7374 173.946 49.3313C172.253 50.9251 171.214 53.0927 171.032 55.4111L159.33 236.057C159.245 237.164 159.391 238.277 159.758 239.325C160.126 240.373 160.707 241.334 161.466 242.145C162.224 242.956 163.143 243.601 164.164 244.038C165.185 244.476 166.285 244.696 167.396 244.685H257.935C260.264 244.646 262.495 243.741 264.193 242.146C265.891 240.55 266.934 238.38 267.117 236.057L278.811 55.4111C278.897 54.3042 278.751 53.1916 278.383 52.144C278.016 51.0963 277.434 50.1367 276.675 49.326C275.917 48.5153 274.998 47.8712 273.977 47.4348C272.956 46.9984 271.856 46.7791 270.745 46.791Z" fill="#2C3AD1"/>
<path opacity="0.7" d="M267.872 46.791H180.191C177.866 46.8318 175.64 47.7374 173.946 49.3313C172.253 50.9251 171.214 53.0927 171.032 55.4111L159.33 236.057C159.245 237.164 159.391 238.277 159.758 239.325C160.126 240.373 160.707 241.334 161.466 242.145C162.224 242.956 163.143 243.601 164.164 244.038C165.185 244.476 166.285 244.696 167.396 244.685H255.061C257.391 244.646 259.622 243.741 261.32 242.146C263.018 240.55 264.06 238.38 264.244 236.057L275.938 55.4111C276.023 54.3042 275.877 53.1916 275.51 52.144C275.142 51.0963 274.561 50.1367 273.802 49.326C273.043 48.5153 272.125 47.8712 271.104 47.4348C270.083 46.9984 268.982 46.7791 267.872 46.791Z" fill="white"/>
<path d="M260.477 231.335H164.03C163.669 231.335 163.312 231.262 162.981 231.119C162.65 230.976 162.351 230.767 162.104 230.504C161.857 230.241 161.667 229.93 161.545 229.591C161.423 229.251 161.372 228.891 161.395 228.531L171.98 65.0633C172.023 64.3956 172.318 63.7694 172.806 63.3116C173.294 62.8538 173.938 62.5987 174.607 62.5981H271.061C271.423 62.5985 271.78 62.6728 272.111 62.8165C272.442 62.9602 272.74 63.1703 272.987 63.4338C273.234 63.6973 273.424 64.0086 273.546 64.3484C273.668 64.6883 273.719 65.0496 273.696 65.4099L263.112 228.869C263.068 229.538 262.772 230.166 262.282 230.624C261.793 231.082 261.147 231.336 260.477 231.335Z" fill="white"/>
<path d="M239.046 57.2526H203.987C203.807 57.2542 203.628 57.2183 203.462 57.1471C203.297 57.076 203.147 56.9712 203.024 56.8394C202.901 56.7076 202.807 56.5516 202.747 56.3814C202.687 56.2111 202.664 56.0304 202.678 55.8505C202.713 55.4769 202.884 55.1291 203.158 54.8724C203.431 54.6156 203.789 54.4677 204.164 54.4562H239.223C239.403 54.4535 239.581 54.4884 239.747 54.5587C239.913 54.6289 240.062 54.733 240.186 54.8642C240.309 54.9954 240.403 55.1509 240.463 55.3208C240.523 55.4906 240.546 55.671 240.532 55.8505C240.499 56.2255 240.329 56.5752 240.055 56.8335C239.781 57.0918 239.422 57.2409 239.046 57.2526Z" fill="white"/>
<path d="M211.682 238.199C211.626 239.122 211.222 239.99 210.552 240.627C209.881 241.265 208.994 241.625 208.069 241.635C207.625 241.639 207.185 241.551 206.776 241.377C206.367 241.204 205.998 240.948 205.693 240.626C205.387 240.303 205.151 239.922 204.999 239.504C204.847 239.086 204.783 238.642 204.811 238.199C204.869 237.277 205.274 236.411 205.944 235.775C206.614 235.139 207.5 234.781 208.424 234.771C208.868 234.766 209.308 234.852 209.717 235.025C210.126 235.198 210.495 235.453 210.8 235.774C211.106 236.096 211.342 236.478 211.494 236.895C211.646 237.312 211.71 237.756 211.682 238.199Z" fill="white"/>
<path opacity="0.2" d="M249.969 107.849H167.611L162.373 188.658H249.969C252.255 188.654 254.446 187.745 256.063 186.129C257.68 184.514 258.591 182.323 258.597 180.038V116.5C258.599 114.209 257.691 112.011 256.074 110.388C254.456 108.766 252.26 107.853 249.969 107.849Z" fill="#2C3AD1"/>
<path d="M242.295 100.691H141.364C136.599 100.691 132.736 104.554 132.736 109.319V172.88C132.736 177.646 136.599 181.508 141.364 181.508H242.295C247.06 181.508 250.923 177.646 250.923 172.88V109.319C250.923 104.554 247.06 100.691 242.295 100.691Z" fill="#2C3AD1"/>
<path d="M129.978 99.7597C129.776 99.7588 129.582 99.6786 129.438 99.5363L128.052 98.1574C127.907 98.0123 127.825 97.8156 127.825 97.6104C127.825 97.4053 127.907 97.2085 128.052 97.0635C128.197 96.9184 128.394 96.8369 128.599 96.8369C128.804 96.8369 129.001 96.9184 129.146 97.0635L130.525 98.4501C130.668 98.5944 130.749 98.7897 130.749 98.9932C130.749 99.1967 130.668 99.392 130.525 99.5363C130.453 99.6077 130.367 99.6642 130.273 99.7025C130.179 99.7408 130.079 99.7603 129.978 99.7597Z" fill="#2C3AD1"/>
<path d="M127.891 104.597H125.942C125.738 104.597 125.542 104.516 125.398 104.372C125.253 104.227 125.172 104.031 125.172 103.827C125.172 103.623 125.253 103.427 125.398 103.282C125.542 103.138 125.738 103.057 125.942 103.057H127.891C128.096 103.057 128.291 103.138 128.436 103.282C128.58 103.427 128.662 103.623 128.662 103.827C128.662 104.031 128.58 104.227 128.436 104.372C128.291 104.516 128.096 104.597 127.891 104.597Z" fill="#2C3AD1"/>
<path d="M134.886 97.6796C134.69 97.6801 134.502 97.6064 134.359 97.4734C134.216 97.3404 134.129 97.158 134.115 96.9632L133.977 95.0142C133.969 94.913 133.982 94.8114 134.014 94.7151C134.046 94.6188 134.097 94.5298 134.164 94.4532C134.23 94.3766 134.311 94.3139 134.402 94.2688C134.493 94.2236 134.592 94.1968 134.693 94.19C134.896 94.1773 135.096 94.2455 135.249 94.3798C135.402 94.514 135.496 94.7033 135.51 94.9064L135.656 96.8554C135.663 96.9566 135.651 97.0582 135.619 97.1545C135.586 97.2508 135.536 97.3398 135.469 97.4164C135.403 97.493 135.321 97.5557 135.231 97.6008C135.14 97.646 135.041 97.6728 134.94 97.6796H134.886Z" fill="#2C3AD1"/>
<path d="M200.449 173.197L231.44 204.18V173.197H200.449Z" fill="#2C3AD1"/>
<path d="M208.946 159.623L207.405 153.083C207.016 151.363 207.016 149.579 207.405 147.86L209.547 138.546C210.423 134.575 209.949 130.424 208.199 126.753C206.449 123.081 203.524 120.099 199.887 118.278C199.955 118.107 200.014 117.932 200.064 117.755C200.191 117.19 200.204 116.605 200.105 116.035C200.006 115.464 199.795 114.919 199.485 114.43C199.175 113.941 198.771 113.518 198.298 113.185C197.824 112.852 197.29 112.616 196.725 112.489C196.16 112.363 195.575 112.349 195.005 112.448C194.435 112.548 193.889 112.758 193.4 113.069C192.911 113.379 192.488 113.782 192.155 114.256C191.822 114.729 191.586 115.264 191.459 115.829C191.421 116.009 191.398 116.192 191.39 116.376C187.324 116.471 183.407 117.92 180.258 120.493C177.108 123.066 174.907 126.616 174.003 130.581L171.916 139.902C171.532 141.618 170.769 143.227 169.682 144.609L165.53 149.886C165.123 150.403 164.855 151.015 164.749 151.665C164.643 152.314 164.703 152.98 164.924 153.599C165.145 154.219 165.519 154.773 166.011 155.209C166.504 155.646 167.099 155.95 167.74 156.095L204.332 164.291C204.971 164.429 205.636 164.404 206.263 164.217C206.89 164.031 207.46 163.689 207.92 163.223C208.38 162.758 208.716 162.184 208.895 161.555C209.074 160.925 209.092 160.261 208.946 159.623Z" fill="white"/>
<path d="M181.315 161.641C181.036 161.58 180.747 161.588 180.473 161.665C180.198 161.742 179.947 161.886 179.741 162.083C179.536 162.28 179.382 162.525 179.293 162.796C179.205 163.067 179.185 163.356 179.235 163.636C179.445 164.874 180.019 166.022 180.883 166.932C181.747 167.843 182.863 168.476 184.088 168.75C185.313 169.024 186.593 168.928 187.763 168.472C188.933 168.017 189.941 167.224 190.659 166.194C190.823 165.962 190.927 165.693 190.963 165.411C190.998 165.129 190.964 164.842 190.863 164.577C190.762 164.311 190.597 164.075 190.382 163.888C190.168 163.701 189.911 163.57 189.634 163.506L181.315 161.641Z" fill="white"/>
<path d="M153.213 148.677C153.022 148.678 152.834 148.632 152.666 148.541C152.497 148.451 152.354 148.32 152.25 148.16C148.612 142.709 147.287 136.036 148.569 129.609C149.85 123.182 153.632 117.527 159.083 113.888C159.338 113.718 159.651 113.657 159.951 113.718C160.252 113.778 160.516 113.956 160.685 114.211C160.855 114.467 160.916 114.779 160.855 115.079C160.795 115.38 160.617 115.644 160.362 115.814C155.427 119.119 152.007 124.247 150.851 130.072C149.696 135.898 150.9 141.944 154.199 146.882C154.369 147.136 154.432 147.448 154.373 147.748C154.313 148.049 154.137 148.313 153.883 148.484C153.684 148.615 153.451 148.682 153.213 148.677Z" fill="white"/>
<path d="M158.104 145.395C157.914 145.394 157.728 145.346 157.562 145.256C157.395 145.166 157.253 145.036 157.148 144.879C154.379 140.726 153.371 135.644 154.346 130.749C155.321 125.854 158.199 121.546 162.348 118.772C162.475 118.687 162.617 118.629 162.766 118.599C162.915 118.569 163.068 118.569 163.218 118.599C163.367 118.629 163.509 118.687 163.635 118.772C163.761 118.856 163.87 118.965 163.955 119.091C164.039 119.218 164.098 119.36 164.127 119.509C164.157 119.658 164.157 119.812 164.127 119.961C164.098 120.11 164.039 120.252 163.954 120.378C163.87 120.505 163.761 120.613 163.635 120.698C159.993 123.128 157.466 126.905 156.609 131.199C155.753 135.492 156.637 139.95 159.067 143.592C159.237 143.847 159.3 144.158 159.24 144.459C159.181 144.759 159.005 145.024 158.751 145.195C158.559 145.323 158.334 145.392 158.104 145.395Z" fill="white"/>
<path d="M163.003 142.121C162.814 142.122 162.628 142.076 162.461 141.987C162.295 141.898 162.153 141.77 162.048 141.612C161.104 140.199 160.448 138.614 160.118 136.947C159.787 135.28 159.789 133.564 160.122 131.897C160.456 130.231 161.115 128.647 162.061 127.235C163.007 125.823 164.223 124.612 165.638 123.671C165.892 123.513 166.198 123.46 166.491 123.523C166.783 123.586 167.04 123.76 167.207 124.009C167.374 124.258 167.438 124.561 167.385 124.856C167.332 125.151 167.167 125.414 166.924 125.589C165.764 126.364 164.767 127.36 163.991 128.52C163.216 129.68 162.676 130.981 162.404 132.349C162.131 133.718 162.131 135.127 162.403 136.495C162.675 137.864 163.214 139.166 163.989 140.326C164.158 140.581 164.219 140.892 164.16 141.192C164.101 141.492 163.926 141.756 163.673 141.928C163.475 142.059 163.241 142.126 163.003 142.121Z" fill="white"/>
<path d="M219.832 164.923C219.574 164.923 219.323 164.835 219.12 164.676C218.917 164.516 218.774 164.292 218.713 164.041C218.651 163.79 218.676 163.526 218.783 163.291C218.889 163.055 219.072 162.863 219.301 162.743C224.579 160.016 228.558 155.305 230.364 149.645C232.169 143.986 231.654 137.841 228.93 132.561C228.847 132.426 228.793 132.274 228.772 132.117C228.75 131.96 228.761 131.8 228.804 131.647C228.847 131.494 228.921 131.351 229.021 131.228C229.121 131.105 229.246 131.004 229.387 130.931C229.528 130.859 229.683 130.816 229.842 130.806C230 130.795 230.159 130.818 230.308 130.872C230.458 130.926 230.594 131.01 230.71 131.119C230.825 131.228 230.917 131.36 230.979 131.506C232.467 134.391 233.372 137.541 233.642 140.775C233.912 144.01 233.542 147.266 232.553 150.358C231.565 153.45 229.977 156.317 227.88 158.795C225.783 161.273 223.219 163.313 220.333 164.8C220.177 164.876 220.006 164.918 219.832 164.923Z" fill="white"/>
<path d="M217.128 159.693C216.87 159.692 216.619 159.605 216.416 159.445C216.213 159.285 216.07 159.062 216.008 158.811C215.947 158.56 215.972 158.295 216.079 158.06C216.185 157.825 216.368 157.632 216.597 157.512C218.524 156.519 220.237 155.155 221.637 153.498C223.038 151.842 224.097 149.926 224.756 147.859C225.415 145.793 225.66 143.617 225.478 141.456C225.295 139.295 224.688 137.191 223.692 135.265C223.551 134.992 223.524 134.675 223.617 134.382C223.71 134.089 223.916 133.846 224.189 133.705C224.461 133.564 224.779 133.537 225.071 133.63C225.364 133.723 225.608 133.929 225.748 134.202C226.884 136.398 227.575 138.796 227.783 141.259C227.991 143.723 227.712 146.203 226.96 148.558C226.209 150.913 225.001 153.097 223.405 154.986C221.809 156.874 219.857 158.429 217.66 159.562C217.496 159.649 217.314 159.694 217.128 159.693Z" fill="white"/>
<path d="M214.425 154.462C214.167 154.457 213.918 154.368 213.717 154.207C213.516 154.046 213.374 153.823 213.313 153.573C213.252 153.323 213.276 153.06 213.381 152.824C213.486 152.589 213.666 152.396 213.893 152.274C215.133 151.636 216.235 150.759 217.137 149.694C218.038 148.629 218.72 147.397 219.144 146.069C219.568 144.74 219.727 143.34 219.609 141.951C219.492 140.561 219.102 139.207 218.461 137.968C218.32 137.696 218.293 137.378 218.387 137.086C218.48 136.793 218.685 136.55 218.958 136.409C219.231 136.268 219.548 136.241 219.841 136.334C220.133 136.427 220.377 136.633 220.518 136.905C222.086 139.956 222.379 143.505 221.333 146.772C220.288 150.038 217.989 152.757 214.941 154.331C214.781 154.413 214.604 154.458 214.425 154.462Z" fill="white"/>
<path d="M287.955 256.155C282.254 242.705 279.951 226.882 286.476 227.537C293.17 228.184 292.384 252.034 293.47 254.653C291.383 256.448 287.955 256.155 287.955 256.155Z" fill="#2C3AD1"/>
<path d="M289.803 230.634C288.401 235.764 286.915 243.691 285.782 250.409C286.429 252.334 287.161 254.26 287.955 256.155C287.955 256.155 291.375 256.448 293.478 254.653C292.615 252.589 292.923 237.305 289.803 230.634Z" fill="#263238"/>
<path d="M289.833 253.69C288.046 225.11 292.915 198.618 305.733 199.812C316.734 200.845 300.695 248.96 301.003 254.507C295.965 256.464 289.833 253.69 289.833 253.69Z" fill="#2C3AD1"/>
<path d="M298.138 253.505C300.148 232.96 310.987 208.987 315.64 216.999C321.548 227.167 306.396 251.387 305.988 255.37C302.197 256.186 298.138 253.505 298.138 253.505Z" fill="#2C3AD1"/>
<path d="M296.112 207.447C294.81 207.231 294.086 206.422 294.171 205.274C294.263 203.98 295.326 202.694 296.312 202.678C296.79 202.678 297.591 202.925 297.791 204.704L297.021 204.797C296.929 203.949 296.674 203.449 296.335 203.449C295.812 203.449 295.01 204.404 294.949 205.328C294.895 206.099 295.326 206.53 296.243 206.684L296.112 207.447Z" fill="#2C3AD1"/>
<path d="M309.948 212.615C309.388 212.57 308.853 212.364 308.407 212.022L308.823 211.383C309.54 211.845 310.094 211.968 310.31 211.706C310.633 211.29 310.41 210.073 309.74 209.434C309.201 208.918 308.569 208.956 307.868 209.572L307.367 208.987C307.547 208.784 307.767 208.619 308.013 208.503C308.258 208.387 308.525 208.322 308.796 208.312C309.068 208.302 309.338 208.347 309.592 208.445C309.845 208.542 310.077 208.69 310.271 208.879C311.211 209.773 311.527 211.406 310.911 212.184C310.797 212.328 310.65 212.443 310.482 212.518C310.315 212.593 310.131 212.626 309.948 212.615Z" fill="#2C3AD1"/>
<path d="M291.066 224.248C290.6 224.281 290.137 224.143 289.766 223.859C289.394 223.575 289.139 223.166 289.048 222.707C288.74 221.451 289.356 219.903 290.296 219.579C290.735 219.433 291.582 219.417 292.322 221.058L291.613 221.382C291.266 220.612 290.843 220.196 290.542 220.311C290.049 220.481 289.579 221.628 289.772 222.522C289.949 223.292 290.542 223.554 291.42 223.416L291.536 224.186C291.381 224.22 291.224 224.241 291.066 224.248Z" fill="#2C3AD1"/>
<path d="M282.863 240.202C282.488 240.21 282.118 240.105 281.804 239.901C281.489 239.696 281.243 239.401 281.099 239.054C280.56 237.875 280.876 236.234 281.731 235.741C282.139 235.51 282.971 235.341 284.003 236.82L283.371 237.259C282.878 236.558 282.409 236.242 282.116 236.412C281.661 236.674 281.415 237.891 281.8 238.723C282.116 239.408 282.717 239.593 283.587 239.285L283.841 240.017C283.529 240.135 283.197 240.198 282.863 240.202Z" fill="#2C3AD1"/>
<path d="M296.513 216.945C296.433 216.944 296.355 216.92 296.29 216.875C295.811 216.611 295.444 216.182 295.257 215.668C295.071 215.154 295.076 214.589 295.273 214.079C295.496 213.567 295.878 213.141 296.362 212.864C296.846 212.586 297.407 212.472 297.961 212.538C298.439 212.623 299.556 213.047 299.633 215.096C299.633 215.198 299.592 215.296 299.52 215.368C299.448 215.441 299.35 215.481 299.248 215.481C299.145 215.481 299.048 215.441 298.975 215.368C298.903 215.296 298.862 215.198 298.862 215.096C298.816 214.025 298.454 213.378 297.823 213.263C297.439 213.232 297.056 213.322 296.726 213.519C296.396 213.716 296.136 214.012 295.981 214.364C295.704 215.019 295.981 215.681 296.752 216.228C296.819 216.275 296.87 216.343 296.896 216.421C296.922 216.499 296.923 216.583 296.898 216.661C296.873 216.74 296.824 216.808 296.757 216.856C296.691 216.904 296.611 216.93 296.528 216.929L296.513 216.945Z" fill="white"/>
<path d="M305.64 237.736C305.552 237.738 305.466 237.707 305.398 237.651C305.331 237.594 305.285 237.515 305.271 237.428C305.259 237.379 305.258 237.328 305.267 237.279C305.275 237.229 305.294 237.182 305.321 237.139C305.348 237.097 305.384 237.061 305.425 237.032C305.467 237.004 305.514 236.984 305.563 236.974C306.611 236.758 307.189 236.288 307.204 235.649C307.17 235.266 307.017 234.903 306.767 234.61C306.517 234.318 306.183 234.11 305.81 234.016C305.116 233.846 304.5 234.224 304.092 235.071C304.07 235.117 304.039 235.157 304.001 235.191C303.963 235.224 303.918 235.25 303.871 235.267C303.823 235.283 303.772 235.29 303.721 235.287C303.671 235.284 303.621 235.271 303.576 235.248C303.53 235.226 303.49 235.195 303.456 235.157C303.422 235.119 303.397 235.075 303.38 235.027C303.364 234.979 303.357 234.928 303.36 234.878C303.363 234.827 303.376 234.778 303.399 234.732C303.587 234.221 303.951 233.793 304.424 233.524C304.898 233.255 305.451 233.162 305.987 233.261C306.531 233.395 307.017 233.7 307.375 234.131C307.733 234.563 307.943 235.097 307.974 235.657C307.974 236.142 307.728 237.313 305.725 237.729L305.64 237.736Z" fill="white"/>
<path d="M316.472 231.243C316.025 231.243 315.432 230.981 314.77 229.987L315.409 229.555C315.887 230.264 316.341 230.588 316.641 230.426C317.104 230.179 317.412 228.962 317.004 228.115C316.711 227.429 316.11 227.229 315.232 227.514L314.993 226.782C316.241 226.374 317.258 226.782 317.712 227.814C318.228 229.001 317.882 230.634 317.011 231.104C316.847 231.197 316.661 231.245 316.472 231.243Z" fill="#2C3AD1"/>
<path d="M314.177 261.047C314.182 256.936 312.708 252.961 310.025 249.846C310.288 249.808 310.529 249.676 310.704 249.476C310.879 249.275 310.977 249.019 310.98 248.753C310.978 248.451 310.857 248.163 310.643 247.951C310.43 247.739 310.141 247.62 309.84 247.62H284.049C283.768 247.624 283.498 247.733 283.294 247.925C283.089 248.118 282.964 248.38 282.943 248.66C282.921 248.94 283.006 249.218 283.179 249.439C283.352 249.66 283.602 249.808 283.879 249.854C282.192 251.813 280.969 254.128 280.3 256.625C279.631 259.122 279.534 261.738 280.016 264.278C280.498 266.818 281.547 269.217 283.084 271.295C284.621 273.374 286.607 275.08 288.894 276.285C288.645 276.413 288.446 276.622 288.33 276.877C288.214 277.132 288.187 277.419 288.254 277.691C288.32 277.963 288.477 278.205 288.698 278.378C288.919 278.55 289.191 278.643 289.472 278.642H304.409C304.739 278.64 305.055 278.508 305.289 278.274C305.523 278.041 305.655 277.724 305.657 277.394C305.656 277.166 305.593 276.942 305.475 276.747C305.357 276.552 305.188 276.392 304.987 276.285C307.76 274.822 310.082 272.63 311.702 269.945C313.321 267.259 314.177 264.183 314.177 261.047Z" fill="#263238"/>
</svg>
