<svg width="376" height="287" viewBox="0 0 376 287" fill="none" xmlns="http://www.w3.org/2000/svg">
<path d="M375.782 252.211H-9.39062V252.404H375.782V252.211Z" fill="#EBEBEB"/>
<path d="M337.186 264.605H311.672V264.798H337.186V264.605Z" fill="#EBEBEB"/>
<path d="M222.823 264.706H216.129V264.899H222.823V264.706Z" fill="#EBEBEB"/>
<path d="M310.896 257.457H263.566V257.65H310.896V257.457Z" fill="#EBEBEB"/>
<path d="M164.045 262.002H154.27V262.195H164.045V262.002Z" fill="#EBEBEB"/>
<path d="M147.415 262.002H119.043V262.195H147.415V262.002Z" fill="#EBEBEB"/>
<path d="M50.6094 258.751H31.0195V258.944H50.6094V258.751Z" fill="#EBEBEB"/>
<path d="M112.926 258.751H55.2344V258.944H112.926V258.751Z" fill="#EBEBEB"/>
<path d="M173.18 217.854H24.4339C23.2687 217.852 22.1518 217.387 21.3286 216.563C20.5053 215.738 20.043 214.62 20.043 213.455V4.36015C20.0531 3.20157 20.52 2.09378 21.3421 1.2774C22.1643 0.461019 23.2753 0.00198471 24.4339 0H173.18C174.347 0 175.465 0.46343 176.29 1.28834C177.115 2.11325 177.579 3.23207 177.579 4.39867V213.455C177.579 214.622 177.115 215.74 176.29 216.565C175.465 217.39 174.347 217.854 173.18 217.854ZM24.4339 0.15407C23.3198 0.15611 22.2519 0.600149 21.4648 1.38872C20.6776 2.17729 20.2356 3.24596 20.2356 4.36015V213.455C20.2356 214.569 20.6776 215.638 21.4648 216.426C22.2519 217.215 23.3198 217.659 24.4339 217.661H173.18C174.295 217.659 175.363 217.215 176.152 216.427C176.94 215.639 177.384 214.57 177.386 213.455V4.36015C177.384 3.24526 176.94 2.1766 176.152 1.38825C175.363 0.599899 174.295 0.156106 173.18 0.15407H24.4339Z" fill="#EBEBEB"/>
<path d="M339.816 217.854H191.063C189.897 217.852 188.779 217.388 187.955 216.563C187.13 215.739 186.666 214.621 186.664 213.455V4.36015C186.676 3.20087 187.145 2.09309 187.968 1.27692C188.792 0.46075 189.903 0.00196306 191.063 0H339.816C340.974 0.00400926 342.083 0.46394 342.903 1.2801C343.724 2.09627 344.19 3.2029 344.2 4.36015V213.455C344.2 214.619 343.738 215.735 342.917 216.56C342.095 217.384 340.98 217.85 339.816 217.854ZM191.063 0.15407C189.948 0.156106 188.879 0.599899 188.091 1.38825C187.302 2.1766 186.859 3.24526 186.857 4.36015V213.455C186.859 214.57 187.302 215.639 188.091 216.427C188.879 217.215 189.948 217.659 191.063 217.661H339.816C340.931 217.659 342 217.215 342.788 216.427C343.577 215.639 344.02 214.57 344.023 213.455V4.36015C344.02 3.24526 343.577 2.1766 342.788 1.38825C342 0.599899 340.931 0.156106 339.816 0.15407H191.063Z" fill="#EBEBEB"/>
<path d="M137.576 149.84L324.801 149.84V13.0804L137.576 13.0804L137.576 149.84Z" fill="#E6E6E6"/>
<path d="M129.303 149.84L322.883 149.84V13.0804L129.303 13.0804L129.303 149.84Z" fill="#F0F0F0"/>
<path d="M311.289 138.253V24.666L140.881 24.666V138.253H311.289Z" fill="#FAFAFA"/>
<path d="M269.868 138.246L231.073 24.666H194.027L232.822 138.246H269.868Z" fill="white"/>
<path d="M224.864 138.246L186.069 24.666H171.633L210.427 138.246H224.864Z" fill="white"/>
<path d="M142.359 138.253V24.666H140.888V138.253H142.359Z" fill="#E6E6E6"/>
<path d="M40.3499 112.64L106.461 112.64L106.461 18.9117L40.3499 18.9117L40.3499 112.64Z" fill="#E0E0E0"/>
<path d="M35.6756 112.64L103.82 112.64L103.82 18.9117L35.6756 18.9117L35.6756 112.64Z" fill="#F5F5F5"/>
<path d="M97.0938 105.245V26.292L42.3992 26.292L42.3992 105.245H97.0938Z" fill="white"/>
<path d="M66.0513 178.258C70.9584 166.148 82.6291 161.641 86.6657 153.992C91.9426 143.977 91.9118 128.948 87.4361 123.532C83.5227 118.818 70.5809 150.679 69.125 154.238C65.1305 163.843 62.6313 174.004 61.7142 184.366C61.8221 176.886 61.9222 170.015 62.007 164.715C62.2843 147.428 62.6232 141.866 62.7773 140.156C63.3165 139.317 63.9559 138.346 64.318 137.845C67.4533 133.431 74.4018 128.17 77.8761 121.753C82.9449 112.378 82.1284 101.161 78.5694 96.9861C74.8486 92.6182 68.2776 102.941 64.7879 113.163C61.2982 123.386 62.785 133.192 61.8067 141.666C61.6064 143.33 61.3907 149.655 61.1981 158.437C60.135 148.992 58.0243 142.668 54.1186 136.767C49.3117 129.518 45.1595 120.69 41.1999 121.83C37.2404 122.97 39.3665 134.656 42.5018 142.852C45.3059 150.155 59.0565 157.443 61.0826 163.313C60.8437 175.207 60.628 190.275 60.4817 204.318C59.3955 197.069 60.1427 196.461 55.6901 185.36C53.0478 178.766 42.2245 170.631 40.9149 175.161C39.6053 179.69 41.5851 188.257 45.6756 194.265C48.9804 199.103 56.3064 199.095 58.0012 202.1C58.394 202.801 59.7036 205.489 60.4509 207.03C60.2737 224.162 60.1967 239.292 60.2814 244.446L60.9901 244.5C60.9901 243.167 61.044 234.485 61.1827 222.93C62.9622 216.767 74.9411 213.216 78.6387 206.83C82.4904 200.151 85.2945 192.355 83.6306 187.14C82.2439 182.787 71.305 188.68 66.9064 195.914C63.9559 200.721 62.1533 205.844 61.3137 212.73C61.4138 204.873 61.5293 196.43 61.6372 188.465C62.5385 186.462 64.5645 181.886 66.0513 178.258Z" fill="#E6E6E6"/>
<path d="M73.0822 252.211H47.9073C47.242 252.21 46.5974 251.98 46.0823 251.559C45.5672 251.138 45.2132 250.552 45.0802 249.9L43.293 241.118H77.7043L75.9171 249.923C75.7765 250.571 75.4186 251.151 74.903 251.567C74.3873 251.983 73.7449 252.21 73.0822 252.211Z" fill="#F0F0F0"/>
<path d="M78.4288 244.5H42.5692C42.1538 244.499 41.7533 244.345 41.4437 244.068C41.1341 243.791 40.937 243.41 40.8898 242.997L40.1195 236.488C40.0936 236.252 40.1176 236.013 40.1901 235.786C40.2626 235.56 40.3819 235.351 40.5403 235.174C40.6987 234.997 40.8926 234.855 41.1094 234.757C41.3262 234.66 41.5611 234.609 41.7988 234.608H79.1144C79.3525 234.608 79.5879 234.658 79.8053 234.755C80.0227 234.852 80.2172 234.994 80.3758 235.171C80.5344 235.349 80.6536 235.558 80.7257 235.785C80.7977 236.012 80.8209 236.252 80.7937 236.488L80.0234 242.997C79.9784 243.396 79.7934 243.766 79.5014 244.041C79.2094 244.316 78.8293 244.478 78.4288 244.5Z" fill="#F0F0F0"/>
<path d="M303.086 246.596H310.781V163.791H303.086V246.596Z" fill="#F0F0F0"/>
<path d="M146.264 252.111L307.828 252.111V246.596L146.264 246.596V252.111Z" fill="#F0F0F0"/>
<path d="M303.094 163.791H143.316V246.595H303.094V163.791Z" fill="#F5F5F5"/>
<path d="M304.902 163.791H312.852V158.568H304.902V163.791Z" fill="#E0E0E0"/>
<path d="M304.902 158.568H141.242V163.791H304.902V158.568Z" fill="#EBEBEB"/>
<path d="M291.62 199.519H154.776C153.142 199.519 151.574 198.87 150.418 197.714C149.263 196.558 148.613 194.991 148.613 193.356V175.638C148.613 174.004 149.263 172.436 150.418 171.281C151.574 170.125 153.142 169.476 154.776 169.476H291.62C293.255 169.476 294.822 170.125 295.978 171.281C297.134 172.436 297.783 174.004 297.783 175.638V193.356C297.783 194.991 297.134 196.558 295.978 197.714C294.822 198.87 293.255 199.519 291.62 199.519ZM154.776 171.016C153.55 171.016 152.375 171.503 151.508 172.37C150.641 173.237 150.154 174.412 150.154 175.638V193.356C150.154 194.582 150.641 195.758 151.508 196.625C152.375 197.491 153.55 197.978 154.776 197.978H291.62C292.846 197.978 294.022 197.491 294.889 196.625C295.755 195.758 296.242 194.582 296.242 193.356V175.638C296.242 174.412 295.755 173.237 294.889 172.37C294.022 171.503 292.846 171.016 291.62 171.016H154.776Z" fill="white"/>
<path d="M291.62 236.642H154.776C153.142 236.642 151.574 235.993 150.418 234.837C149.263 233.681 148.613 232.114 148.613 230.479V212.761C148.613 211.127 149.263 209.559 150.418 208.404C151.574 207.248 153.142 206.599 154.776 206.599H291.62C293.255 206.599 294.822 207.248 295.978 208.404C297.134 209.559 297.783 211.127 297.783 212.761V230.479C297.783 232.114 297.134 233.681 295.978 234.837C294.822 235.993 293.255 236.642 291.62 236.642ZM154.776 208.078C153.55 208.078 152.375 208.565 151.508 209.431C150.641 210.298 150.154 211.474 150.154 212.7V230.418C150.154 231.644 150.641 232.819 151.508 233.686C152.375 234.553 153.55 235.04 154.776 235.04H291.62C292.846 235.04 294.022 234.553 294.889 233.686C295.755 232.819 296.242 231.644 296.242 230.418V212.7C296.242 211.474 295.755 210.298 294.889 209.431C294.022 208.565 292.846 208.078 291.62 208.078H154.776Z" fill="white"/>
<path d="M260.524 187.194H185.878C185.348 187.194 184.84 186.984 184.464 186.61C184.089 186.236 183.877 185.729 183.875 185.199V183.735C183.877 183.206 184.089 182.698 184.464 182.324C184.84 181.95 185.348 181.74 185.878 181.74H260.524C261.054 181.74 261.563 181.95 261.938 182.324C262.313 182.698 262.525 183.206 262.527 183.735V185.199C262.525 185.729 262.313 186.236 261.938 186.61C261.563 186.984 261.054 187.194 260.524 187.194ZM185.878 183.343C185.757 183.344 185.642 183.393 185.556 183.477C185.47 183.562 185.42 183.676 185.416 183.797V185.261C185.42 185.381 185.47 185.496 185.556 185.58C185.642 185.665 185.757 185.713 185.878 185.715H260.524C260.646 185.715 260.762 185.668 260.849 185.583C260.935 185.498 260.985 185.382 260.987 185.261V183.797C260.985 183.676 260.935 183.56 260.849 183.475C260.762 183.39 260.646 183.343 260.524 183.343H185.878Z" fill="white"/>
<path d="M260.524 224.317H185.878C185.348 224.317 184.84 224.107 184.464 223.733C184.089 223.359 183.877 222.852 183.875 222.322V220.858C183.877 220.329 184.089 219.821 184.464 219.447C184.84 219.073 185.348 218.863 185.878 218.863H260.524C261.054 218.863 261.563 219.073 261.938 219.447C262.313 219.821 262.525 220.329 262.527 220.858V222.322C262.525 222.852 262.313 223.359 261.938 223.733C261.563 224.107 261.054 224.317 260.524 224.317ZM185.878 220.404C185.757 220.406 185.642 220.454 185.556 220.539C185.47 220.623 185.42 220.738 185.416 220.858V222.322C185.42 222.443 185.47 222.557 185.556 222.642C185.642 222.726 185.757 222.775 185.878 222.777H260.524C260.646 222.777 260.762 222.729 260.849 222.644C260.935 222.559 260.985 222.443 260.987 222.322V220.858C260.985 220.737 260.935 220.622 260.849 220.537C260.762 220.452 260.646 220.404 260.524 220.404H185.878Z" fill="white"/>
<path d="M179.343 287C261.833 287 328.705 283.096 328.705 278.28C328.705 273.464 261.833 269.56 179.343 269.56C96.8522 269.56 29.9805 273.464 29.9805 278.28C29.9805 283.096 96.8522 287 179.343 287Z" fill="#F5F5F5"/>
<path d="M279.325 86.858L279.031 91.3936L279.8 91.4433L280.093 86.9077L279.325 86.858Z" fill="#2C3AD1"/>
<path d="M280.496 68.4367L279.535 83.3428L280.304 83.3924L281.265 68.4863L280.496 68.4367Z" fill="#2C3AD1"/>
<path d="M271.353 46.7905H180.799C178.474 46.8313 176.247 47.7369 174.553 49.3308C172.86 50.9246 171.821 53.0922 171.639 55.4107L159.938 236.057C159.852 237.164 159.998 238.277 160.366 239.325C160.733 240.373 161.315 241.333 162.073 242.144C162.832 242.956 163.75 243.6 164.771 244.038C165.792 244.475 166.893 244.695 168.003 244.684H258.542C260.871 244.646 263.103 243.74 264.801 242.145C266.498 240.55 267.541 238.379 267.725 236.057L279.418 55.4107C279.504 54.3037 279.358 53.1911 278.991 52.1435C278.623 51.0959 278.041 50.1362 277.283 49.3255C276.524 48.5148 275.605 47.8707 274.584 47.4343C273.564 46.9979 272.463 46.7786 271.353 46.7905Z" fill="#2C3AD1"/>
<path opacity="0.7" d="M268.479 46.7905H180.799C178.474 46.8313 176.247 47.7369 174.553 49.3308C172.86 50.9246 171.821 53.0922 171.639 55.4107L159.938 236.057C159.852 237.164 159.998 238.277 160.366 239.325C160.733 240.373 161.315 241.333 162.073 242.144C162.832 242.956 163.75 243.6 164.771 244.038C165.792 244.475 166.893 244.695 168.003 244.684H255.669C257.998 244.646 260.229 243.74 261.927 242.145C263.625 240.55 264.668 238.379 264.851 236.057L276.545 55.4107C276.631 54.3037 276.485 53.1911 276.117 52.1435C275.75 51.0959 275.168 50.1362 274.409 49.3255C273.651 48.5148 272.732 47.8707 271.711 47.4343C270.69 46.9979 269.59 46.7786 268.479 46.7905Z" fill="white"/>
<path d="M261.083 231.334H164.636C164.275 231.335 163.918 231.262 163.587 231.119C163.256 230.976 162.958 230.766 162.711 230.504C162.464 230.241 162.273 229.93 162.151 229.59C162.029 229.251 161.978 228.89 162.002 228.53L172.586 65.0628C172.629 64.3951 172.925 63.7689 173.412 63.3111C173.9 62.8533 174.544 62.5982 175.213 62.5977H271.668C272.029 62.598 272.386 62.6723 272.717 62.816C273.049 62.9597 273.347 63.1698 273.594 63.4333C273.841 63.6968 274.031 64.0081 274.153 64.348C274.275 64.6878 274.326 65.0491 274.302 65.4094L263.718 228.869C263.675 229.538 263.378 230.165 262.889 230.623C262.399 231.081 261.754 231.335 261.083 231.334Z" fill="white"/>
<path d="M239.653 57.2516H204.595C204.414 57.2532 204.236 57.2173 204.07 57.1462C203.904 57.075 203.755 56.9702 203.632 56.8384C203.509 56.7066 203.414 56.5506 203.355 56.3804C203.295 56.2102 203.271 56.0294 203.285 55.8495C203.321 55.4759 203.491 55.1281 203.765 54.8714C204.039 54.6147 204.397 54.4667 204.772 54.4552H239.83C240.01 54.4525 240.189 54.4874 240.355 54.5577C240.52 54.628 240.67 54.732 240.793 54.8632C240.916 54.9945 241.011 55.15 241.07 55.3198C241.13 55.4896 241.154 55.6701 241.14 55.8495C241.106 56.2245 240.936 56.5742 240.662 56.8325C240.388 57.0908 240.029 57.2399 239.653 57.2516Z" fill="white"/>
<path d="M212.292 238.198C212.235 239.121 211.831 239.989 211.161 240.626C210.491 241.264 209.604 241.624 208.679 241.634C208.235 241.638 207.794 241.55 207.385 241.376C206.976 241.203 206.608 240.947 206.302 240.625C205.996 240.302 205.76 239.921 205.609 239.503C205.457 239.085 205.393 238.641 205.42 238.198C205.479 237.276 205.883 236.41 206.554 235.774C207.224 235.138 208.109 234.78 209.033 234.77C209.477 234.765 209.917 234.851 210.326 235.024C210.735 235.197 211.104 235.452 211.41 235.773C211.716 236.095 211.952 236.477 212.103 236.894C212.255 237.311 212.319 237.755 212.292 238.198Z" fill="white"/>
<path opacity="0.2" d="M250.576 107.848H168.219L162.98 188.657H250.576C252.862 188.653 255.053 187.744 256.67 186.128C258.287 184.513 259.198 182.322 259.204 180.037V116.499C259.206 114.208 258.299 112.01 256.681 110.387C255.063 108.765 252.867 107.852 250.576 107.848Z" fill="#2C3AD1"/>
<path d="M242.902 100.691H141.972C137.207 100.691 133.344 104.554 133.344 109.319V172.88C133.344 177.646 137.207 181.508 141.972 181.508H242.902C247.667 181.508 251.53 177.646 251.53 172.88V109.319C251.53 104.554 247.667 100.691 242.902 100.691Z" fill="#2C3AD1"/>
<path d="M130.586 99.7597C130.384 99.7588 130.19 99.6786 130.047 99.5363L128.66 98.1574C128.515 98.0123 128.434 97.8156 128.434 97.6104C128.434 97.4053 128.515 97.2085 128.66 97.0635C128.805 96.9184 129.002 96.8369 129.207 96.8369C129.412 96.8369 129.609 96.9184 129.754 97.0635L131.133 98.4501C131.276 98.5944 131.357 98.7897 131.357 98.9932C131.357 99.1967 131.276 99.392 131.133 99.5363C131.061 99.6077 130.976 99.6642 130.882 99.7025C130.788 99.7408 130.687 99.7603 130.586 99.7597Z" fill="#2C3AD1"/>
<path d="M128.501 104.597H126.552C126.347 104.597 126.151 104.516 126.007 104.372C125.862 104.227 125.781 104.031 125.781 103.827C125.781 103.623 125.862 103.427 126.007 103.282C126.151 103.138 126.347 103.057 126.552 103.057H128.501C128.705 103.057 128.901 103.138 129.045 103.282C129.19 103.427 129.271 103.623 129.271 103.827C129.271 104.031 129.19 104.227 129.045 104.372C128.901 104.516 128.705 104.597 128.501 104.597Z" fill="#2C3AD1"/>
<path d="M135.497 97.6796C135.302 97.6801 135.113 97.6064 134.97 97.4734C134.827 97.3404 134.74 97.158 134.727 96.9632L134.588 95.0142C134.581 94.913 134.593 94.8114 134.625 94.7151C134.658 94.6188 134.708 94.5298 134.775 94.4532C134.841 94.3766 134.922 94.3139 135.013 94.2688C135.104 94.2236 135.203 94.1968 135.304 94.19C135.508 94.1773 135.707 94.2455 135.86 94.3798C136.013 94.514 136.107 94.7033 136.121 94.9064L136.267 96.8554C136.275 96.9566 136.262 97.0582 136.23 97.1545C136.198 97.2508 136.147 97.3398 136.08 97.4164C136.014 97.493 135.933 97.5557 135.842 97.6008C135.751 97.646 135.652 97.6728 135.551 97.6796H135.497Z" fill="#2C3AD1"/>
<path d="M201.059 173.196L232.05 204.18V173.196H201.059Z" fill="#2C3AD1"/>
<path d="M209.557 159.623L208.016 153.083C207.627 151.363 207.627 149.579 208.016 147.86L210.157 138.546C211.034 134.575 210.559 130.424 208.809 126.753C207.059 123.081 204.134 120.099 200.497 118.278C200.566 118.107 200.625 117.932 200.674 117.755C200.801 117.19 200.815 116.605 200.715 116.035C200.616 115.464 200.405 114.919 200.095 114.43C199.785 113.941 199.382 113.518 198.908 113.185C198.435 112.852 197.9 112.616 197.335 112.489C196.77 112.363 196.186 112.349 195.615 112.448C195.045 112.548 194.5 112.758 194.011 113.069C193.522 113.379 193.099 113.782 192.766 114.256C192.433 114.729 192.196 115.264 192.07 115.829C192.031 116.009 192.008 116.192 192 116.376C187.935 116.471 184.017 117.92 180.868 120.493C177.719 123.066 175.518 126.616 174.614 130.581L172.526 139.902C172.143 141.618 171.379 143.227 170.292 144.609L166.14 149.886C165.734 150.403 165.465 151.015 165.359 151.665C165.254 152.314 165.314 152.98 165.534 153.599C165.755 154.219 166.129 154.773 166.622 155.209C167.114 155.646 167.709 155.95 168.351 156.095L204.942 164.291C205.582 164.429 206.246 164.404 206.873 164.217C207.501 164.031 208.071 163.689 208.531 163.223C208.991 162.758 209.326 162.184 209.505 161.555C209.685 160.925 209.702 160.261 209.557 159.623Z" fill="white"/>
<path d="M181.923 161.641C181.645 161.58 181.355 161.588 181.081 161.665C180.807 161.742 180.555 161.886 180.35 162.083C180.144 162.28 179.99 162.525 179.902 162.796C179.813 163.067 179.793 163.356 179.843 163.636C180.053 164.874 180.627 166.022 181.491 166.932C182.356 167.843 183.471 168.476 184.697 168.75C185.922 169.024 187.201 168.928 188.371 168.472C189.541 168.017 190.549 167.224 191.267 166.194C191.431 165.962 191.536 165.693 191.571 165.411C191.607 165.129 191.572 164.842 191.471 164.577C191.37 164.311 191.205 164.075 190.991 163.888C190.776 163.701 190.52 163.57 190.243 163.506L181.923 161.641Z" fill="white"/>
<path d="M153.82 148.676C153.629 148.678 153.441 148.631 153.273 148.541C153.105 148.451 152.962 148.32 152.857 148.16C149.219 142.709 147.895 136.036 149.176 129.609C150.458 123.181 154.24 117.526 159.69 113.887C159.946 113.718 160.258 113.657 160.559 113.717C160.859 113.778 161.123 113.955 161.293 114.211C161.462 114.466 161.523 114.779 161.463 115.079C161.402 115.379 161.225 115.644 160.969 115.813C156.035 119.118 152.614 124.246 151.459 130.072C150.303 135.897 151.507 141.943 154.806 146.881C154.977 147.136 155.039 147.447 154.98 147.748C154.921 148.048 154.745 148.313 154.491 148.483C154.292 148.614 154.058 148.681 153.82 148.676Z" fill="white"/>
<path d="M158.714 145.394C158.525 145.393 158.339 145.345 158.172 145.255C158.006 145.166 157.864 145.036 157.759 144.878C154.99 140.726 153.982 135.644 154.957 130.749C155.932 125.854 158.81 121.546 162.959 118.771C163.085 118.687 163.227 118.628 163.376 118.598C163.525 118.569 163.679 118.569 163.828 118.598C163.977 118.628 164.119 118.687 164.245 118.771C164.372 118.856 164.48 118.964 164.565 119.091C164.649 119.217 164.708 119.359 164.738 119.508C164.767 119.658 164.767 119.811 164.738 119.96C164.708 120.109 164.649 120.251 164.565 120.378C164.48 120.504 164.372 120.613 164.245 120.697C160.603 123.127 158.076 126.905 157.22 131.198C156.363 135.492 157.247 139.95 159.677 143.592C159.847 143.846 159.91 144.158 159.851 144.458C159.791 144.759 159.615 145.023 159.361 145.194C159.17 145.322 158.945 145.392 158.714 145.394Z" fill="white"/>
<path d="M163.612 142.121C163.424 142.122 163.237 142.076 163.071 141.987C162.904 141.898 162.762 141.77 162.657 141.612C161.713 140.199 161.058 138.614 160.727 136.947C160.397 135.28 160.398 133.564 160.732 131.897C161.065 130.231 161.724 128.647 162.67 127.235C163.617 125.823 164.832 124.612 166.247 123.671C166.501 123.513 166.807 123.46 167.1 123.523C167.393 123.586 167.65 123.76 167.816 124.009C167.983 124.258 168.047 124.561 167.994 124.856C167.941 125.151 167.776 125.414 167.534 125.589C166.373 126.364 165.376 127.36 164.601 128.52C163.825 129.68 163.286 130.981 163.013 132.349C162.741 133.718 162.74 135.127 163.012 136.495C163.284 137.864 163.823 139.166 164.599 140.326C164.767 140.581 164.828 140.892 164.769 141.192C164.71 141.492 164.535 141.756 164.283 141.928C164.084 142.059 163.85 142.126 163.612 142.121Z" fill="white"/>
<path d="M220.442 164.923C220.183 164.922 219.933 164.835 219.73 164.675C219.527 164.515 219.383 164.292 219.322 164.041C219.261 163.79 219.285 163.526 219.392 163.29C219.499 163.055 219.681 162.862 219.91 162.743C225.188 160.016 229.167 155.305 230.973 149.645C232.779 143.985 232.263 137.84 229.54 132.561C229.457 132.425 229.403 132.274 229.381 132.117C229.359 131.959 229.37 131.799 229.413 131.646C229.456 131.493 229.53 131.351 229.63 131.228C229.731 131.105 229.855 131.004 229.997 130.931C230.138 130.858 230.292 130.815 230.451 130.805C230.609 130.795 230.768 130.817 230.918 130.871C231.067 130.925 231.204 131.009 231.319 131.118C231.435 131.227 231.526 131.359 231.589 131.505C233.076 134.39 233.981 137.54 234.251 140.775C234.521 144.01 234.151 147.266 233.163 150.358C232.174 153.45 230.586 156.316 228.489 158.794C226.393 161.272 223.828 163.313 220.943 164.8C220.786 164.876 220.616 164.918 220.442 164.923Z" fill="white"/>
<path d="M217.739 159.692C217.48 159.691 217.23 159.604 217.027 159.444C216.824 159.285 216.68 159.061 216.619 158.81C216.558 158.559 216.582 158.295 216.689 158.06C216.796 157.824 216.978 157.631 217.207 157.512C219.135 156.518 220.848 155.154 222.248 153.498C223.648 151.841 224.708 149.925 225.367 147.859C226.026 145.793 226.271 143.617 226.088 141.456C225.905 139.295 225.298 137.191 224.302 135.264C224.161 134.992 224.134 134.674 224.227 134.382C224.321 134.089 224.526 133.845 224.799 133.704C225.072 133.563 225.389 133.537 225.682 133.63C225.974 133.723 226.218 133.929 226.359 134.201C227.494 136.397 228.186 138.796 228.394 141.259C228.602 143.722 228.322 146.202 227.571 148.558C226.82 150.913 225.611 153.097 224.016 154.985C222.42 156.873 220.467 158.428 218.27 159.561C218.107 159.648 217.924 159.693 217.739 159.692Z" fill="white"/>
<path d="M215.035 154.462C214.777 154.457 214.529 154.368 214.328 154.207C214.126 154.046 213.984 153.823 213.924 153.573C213.863 153.323 213.887 153.06 213.992 152.824C214.097 152.589 214.277 152.396 214.503 152.274C215.744 151.636 216.846 150.759 217.747 149.694C218.648 148.629 219.33 147.397 219.754 146.069C220.179 144.74 220.337 143.34 220.22 141.951C220.102 140.561 219.712 139.207 219.072 137.968C218.931 137.696 218.904 137.378 218.997 137.086C219.09 136.793 219.296 136.55 219.568 136.409C219.841 136.268 220.159 136.241 220.451 136.334C220.744 136.427 220.987 136.633 221.128 136.905C222.696 139.956 222.989 143.505 221.944 146.772C220.898 150.038 218.599 152.757 215.551 154.331C215.391 154.413 215.215 154.458 215.035 154.462Z" fill="white"/>
<path d="M288.564 256.156C282.864 242.705 280.56 226.882 287.085 227.537C293.779 228.184 292.994 252.034 294.08 254.653C291.992 256.448 288.564 256.156 288.564 256.156Z" fill="#2C3AD1"/>
<path d="M290.412 230.634C289.01 235.764 287.523 243.691 286.391 250.409C287.038 252.334 287.77 254.26 288.563 256.155C288.563 256.155 291.983 256.448 294.086 254.653C293.224 252.589 293.532 237.305 290.412 230.634Z" fill="#263238"/>
<path d="M290.443 253.69C288.656 225.11 293.524 198.618 306.343 199.812C317.343 200.845 301.305 248.96 301.613 254.507C296.575 256.464 290.443 253.69 290.443 253.69Z" fill="#2C3AD1"/>
<path d="M298.746 253.506C300.757 232.961 311.595 208.987 316.248 216.999C322.157 227.168 307.004 251.387 306.596 255.37C302.806 256.187 298.746 253.506 298.746 253.506Z" fill="#2C3AD1"/>
<path d="M296.721 207.446C295.42 207.23 294.695 206.422 294.78 205.274C294.873 203.98 295.936 202.693 296.922 202.678C297.399 202.678 298.2 202.924 298.401 204.704L297.63 204.796C297.538 203.949 297.284 203.448 296.945 203.448C296.421 203.448 295.62 204.403 295.558 205.328C295.504 206.098 295.936 206.529 296.852 206.684L296.721 207.446Z" fill="#2C3AD1"/>
<path d="M310.557 212.616C309.997 212.57 309.462 212.364 309.017 212.023L309.433 211.383C310.149 211.845 310.704 211.969 310.919 211.707C311.243 211.291 311.019 210.074 310.349 209.434C309.81 208.918 309.178 208.957 308.477 209.573L307.977 208.987C308.157 208.784 308.376 208.62 308.622 208.504C308.868 208.388 309.134 208.323 309.406 208.313C309.677 208.303 309.948 208.348 310.201 208.445C310.455 208.543 310.686 208.69 310.881 208.88C311.821 209.773 312.136 211.406 311.52 212.184C311.406 212.329 311.259 212.443 311.092 212.518C310.924 212.593 310.741 212.627 310.557 212.616Z" fill="#2C3AD1"/>
<path d="M291.676 224.248C291.21 224.281 290.748 224.143 290.376 223.859C290.004 223.575 289.749 223.166 289.658 222.707C289.35 221.451 289.966 219.903 290.906 219.579C291.345 219.433 292.193 219.417 292.932 221.058L292.223 221.382C291.877 220.612 291.453 220.196 291.153 220.311C290.66 220.481 290.19 221.628 290.382 222.522C290.56 223.292 291.153 223.554 292.031 223.416L292.146 224.186C291.992 224.22 291.835 224.241 291.676 224.248Z" fill="#2C3AD1"/>
<path d="M283.471 240.201C283.096 240.21 282.727 240.105 282.412 239.9C282.097 239.695 281.852 239.4 281.707 239.053C281.168 237.875 281.484 236.234 282.339 235.741C282.747 235.51 283.579 235.34 284.612 236.819L283.98 237.258C283.487 236.557 283.017 236.242 282.724 236.411C282.27 236.673 282.023 237.89 282.408 238.722C282.724 239.408 283.325 239.593 284.196 239.284L284.45 240.016C284.137 240.135 283.806 240.197 283.471 240.201Z" fill="#2C3AD1"/>
<path d="M297.122 216.944C297.043 216.944 296.965 216.92 296.899 216.875C296.42 216.61 296.054 216.181 295.867 215.667C295.68 215.153 295.685 214.589 295.882 214.079C296.105 213.567 296.487 213.141 296.971 212.863C297.455 212.586 298.016 212.472 298.571 212.538C299.048 212.623 300.165 213.046 300.242 215.095C300.242 215.198 300.202 215.296 300.129 215.368C300.057 215.44 299.959 215.481 299.857 215.481C299.755 215.481 299.657 215.44 299.585 215.368C299.512 215.296 299.472 215.198 299.472 215.095C299.426 214.025 299.064 213.378 298.432 213.262C298.049 213.231 297.665 213.321 297.335 213.518C297.005 213.716 296.745 214.011 296.591 214.364C296.313 215.018 296.591 215.681 297.361 216.228C297.429 216.275 297.479 216.342 297.505 216.42C297.532 216.498 297.533 216.582 297.508 216.661C297.483 216.739 297.433 216.807 297.367 216.856C297.3 216.904 297.22 216.93 297.138 216.929L297.122 216.944Z" fill="white"/>
<path d="M306.25 237.736C306.161 237.737 306.076 237.707 306.008 237.65C305.94 237.594 305.895 237.515 305.88 237.428C305.869 237.379 305.867 237.328 305.876 237.278C305.885 237.229 305.903 237.181 305.93 237.139C305.958 237.097 305.993 237.06 306.035 237.032C306.076 237.003 306.123 236.983 306.173 236.973C307.22 236.758 307.798 236.288 307.813 235.648C307.779 235.265 307.626 234.902 307.376 234.61C307.127 234.317 306.792 234.109 306.419 234.015C305.726 233.846 305.11 234.223 304.701 235.071C304.679 235.116 304.648 235.157 304.61 235.19C304.572 235.224 304.528 235.25 304.48 235.266C304.432 235.283 304.381 235.289 304.331 235.286C304.28 235.283 304.231 235.27 304.185 235.248C304.14 235.226 304.099 235.195 304.065 235.157C304.032 235.119 304.006 235.074 303.99 235.026C303.973 234.978 303.966 234.928 303.969 234.877C303.973 234.827 303.986 234.777 304.008 234.732C304.197 234.221 304.56 233.793 305.034 233.524C305.507 233.254 306.061 233.161 306.596 233.26C307.14 233.395 307.627 233.7 307.985 234.131C308.342 234.562 308.552 235.097 308.584 235.656C308.584 236.141 308.337 237.312 306.334 237.728L306.25 237.736Z" fill="white"/>
<path d="M317.081 231.243C316.635 231.243 316.041 230.981 315.379 229.987L316.018 229.555C316.496 230.264 316.95 230.588 317.251 230.426C317.713 230.179 318.021 228.962 317.613 228.115C317.32 227.429 316.719 227.229 315.841 227.514L315.602 226.782C316.85 226.374 317.867 226.782 318.322 227.814C318.838 229.001 318.491 230.634 317.621 231.104C317.456 231.197 317.27 231.245 317.081 231.243Z" fill="#2C3AD1"/>
<path d="M314.786 261.047C314.791 256.936 313.318 252.961 310.634 249.846C310.897 249.808 311.139 249.676 311.314 249.476C311.489 249.275 311.587 249.019 311.589 248.753C311.587 248.451 311.466 248.163 311.253 247.951C311.039 247.739 310.75 247.62 310.449 247.62H284.658C284.377 247.624 284.108 247.733 283.903 247.925C283.698 248.118 283.573 248.38 283.552 248.66C283.531 248.94 283.615 249.218 283.788 249.439C283.962 249.66 284.211 249.808 284.488 249.854C282.802 251.813 281.578 254.128 280.91 256.625C280.241 259.122 280.144 261.738 280.626 264.278C281.108 266.818 282.156 269.217 283.693 271.295C285.23 273.374 287.216 275.08 289.503 276.285C289.254 276.413 289.056 276.622 288.939 276.877C288.823 277.132 288.796 277.419 288.863 277.691C288.93 277.963 289.086 278.205 289.307 278.378C289.528 278.55 289.801 278.643 290.081 278.642H305.018C305.349 278.64 305.665 278.508 305.898 278.274C306.132 278.041 306.264 277.724 306.266 277.394C306.265 277.166 306.202 276.942 306.084 276.747C305.966 276.552 305.797 276.392 305.596 276.285C308.37 274.822 310.692 272.63 312.311 269.945C313.931 267.259 314.786 264.183 314.786 261.047Z" fill="#263238"/>
</svg>
