<svg width="251" height="251" viewBox="0 0 251 251" fill="none" xmlns="http://www.w3.org/2000/svg">
<g id="https://lottiefiles.com/animations/successful-toK2Fgnz3Q" clip-path="url(#clip0_5259_49451)">
<g id="Clip path group">
<mask id="mask0_5259_49451" style="mask-type:luminance" maskUnits="userSpaceOnUse" x="0" y="0" width="251" height="251">
<g id="__lottie_element_1576">
<path id="Vector" d="M250.258 0H0V250.258H250.258V0Z" fill="white"/>
</g>
</mask>
<g mask="url(#mask0_5259_49451)">
<g id="Group">
<g id="Group_2" opacity="0.980353">
<g id="Group_3">
<path id="Vector_2" d="M51.2182 47.7422C55.301 47.7422 58.616 51.0572 58.616 55.14C58.616 59.2229 55.301 62.5379 51.2182 62.5379C47.1353 62.5379 43.8203 59.2229 43.8203 55.14C43.8203 51.0572 47.1353 47.7422 51.2182 47.7422Z" fill="#A5CE3E"/>
<path id="Vector_3" d="M51.2182 47.7422C55.301 47.7422 58.616 51.0572 58.616 55.14C58.616 59.2229 55.301 62.5379 51.2182 62.5379C47.1353 62.5379 43.8203 59.2229 43.8203 55.14C43.8203 51.0572 47.1353 47.7422 51.2182 47.7422Z" fill="#A5CE3E"/>
</g>
</g>
<g id="Group_4" opacity="0.980353">
<g id="Group_5">
<path id="Vector_4" d="M51.2182 191.662C55.301 191.662 58.616 194.977 58.616 199.06C58.616 203.143 55.301 206.458 51.2182 206.458C47.1353 206.458 43.8203 203.143 43.8203 199.06C43.8203 194.977 47.1353 191.662 51.2182 191.662Z" fill="#A5CE3E"/>
<path id="Vector_5" d="M51.2182 191.662C55.301 191.662 58.616 194.977 58.616 199.06C58.616 203.143 55.301 206.458 51.2182 206.458C47.1353 206.458 43.8203 203.143 43.8203 199.06C43.8203 194.977 47.1353 191.662 51.2182 191.662Z" fill="#A5CE3E"/>
</g>
</g>
<g id="Group_6" opacity="0.980353">
<g id="Group_7">
<path id="Vector_6" d="M199.097 191.661C203.18 191.661 206.495 194.976 206.495 199.059C206.495 203.142 203.18 206.457 199.097 206.457C195.014 206.457 191.699 203.142 191.699 199.059C191.699 194.976 195.014 191.661 199.097 191.661Z" fill="#A5CE3E"/>
<path id="Vector_7" d="M199.097 191.661C203.18 191.661 206.495 194.976 206.495 199.059C206.495 203.142 203.18 206.457 199.097 206.457C195.014 206.457 191.699 203.142 191.699 199.059C191.699 194.976 195.014 191.661 199.097 191.661Z" fill="#A5CE3E"/>
</g>
</g>
<g id="Group_8" opacity="0.980353">
<g id="Group_9">
<path id="Vector_8" d="M199.097 43.7969C203.18 43.7969 206.495 47.1119 206.495 51.1947C206.495 55.2776 203.18 58.5926 199.097 58.5926C195.014 58.5926 191.699 55.2776 191.699 51.1947C191.699 47.1119 195.014 43.7969 199.097 43.7969Z" fill="#A5CE3E"/>
<path id="Vector_9" d="M199.097 43.7969C203.18 43.7969 206.495 47.1119 206.495 51.1947C206.495 55.2776 203.18 58.5926 199.097 58.5926C195.014 58.5926 191.699 55.2776 191.699 51.1947C191.699 47.1119 195.014 43.7969 199.097 43.7969Z" fill="#A5CE3E"/>
</g>
</g>
<g id="Group_10" opacity="0.980353">
<g id="Group_11">
<path id="Vector_10" d="M125.156 24.085C129.239 24.085 132.554 27.3999 132.554 31.4828C132.554 35.5657 129.239 38.8807 125.156 38.8807C121.073 38.8807 117.758 35.5657 117.758 31.4828C117.758 27.3999 121.073 24.085 125.156 24.085Z" fill="#A5CE3E"/>
<path id="Vector_11" d="M125.156 24.085C129.239 24.085 132.554 27.3999 132.554 31.4828C132.554 35.5657 129.239 38.8807 125.156 38.8807C121.073 38.8807 117.758 35.5657 117.758 31.4828C117.758 27.3999 121.073 24.085 125.156 24.085Z" fill="#A5CE3E"/>
</g>
</g>
<g id="Group_12" opacity="0.980353">
<g id="Group_13">
<path id="Vector_12" d="M125.156 211.377C129.239 211.377 132.554 214.692 132.554 218.775C132.554 222.858 129.239 226.173 125.156 226.173C121.073 226.173 117.758 222.858 117.758 218.775C117.758 214.692 121.073 211.377 125.156 211.377Z" fill="#A5CE3E"/>
<path id="Vector_13" d="M125.156 211.377C129.239 211.377 132.554 214.692 132.554 218.775C132.554 222.858 129.239 226.173 125.156 226.173C121.073 226.173 117.758 222.858 117.758 218.775C117.758 214.692 121.073 211.377 125.156 211.377Z" fill="#A5CE3E"/>
</g>
</g>
<g id="Group_14" opacity="0.980353">
<g id="Group_15">
<path id="Vector_14" d="M218.777 117.73C222.86 117.73 226.175 121.045 226.175 125.128C226.175 129.211 222.86 132.526 218.777 132.526C214.694 132.526 211.379 129.211 211.379 125.128C211.379 121.045 214.694 117.73 218.777 117.73Z" fill="#A5CE3E"/>
<path id="Vector_15" d="M218.777 117.73C222.86 117.73 226.175 121.045 226.175 125.128C226.175 129.211 222.86 132.526 218.777 132.526C214.694 132.526 211.379 129.211 211.379 125.128C211.379 121.045 214.694 117.73 218.777 117.73Z" fill="#A5CE3E"/>
</g>
</g>
<g id="Group_16" opacity="0.980353">
<g id="Group_17">
<path id="Vector_16" d="M31.4916 117.729C35.5745 117.729 38.8895 121.044 38.8895 125.127C38.8895 129.21 35.5745 132.525 31.4916 132.525C27.4087 132.525 24.0938 129.21 24.0938 125.127C24.0938 121.044 27.4087 117.729 31.4916 117.729Z" fill="#A5CE3E"/>
<path id="Vector_17" d="M31.4916 117.729C35.5745 117.729 38.8895 121.044 38.8895 125.127C38.8895 129.21 35.5745 132.525 31.4916 132.525C27.4087 132.525 24.0938 129.21 24.0938 125.127C24.0938 121.044 27.4087 117.729 31.4916 117.729Z" fill="#A5CE3E"/>
</g>
</g>
<g id="Group_18">
<g id="Group_19">
<path id="Vector_18" d="M201.815 130.3L192.674 115.809L198.088 99.5432C198.828 97.3336 197.909 94.8931 195.892 93.7364L181.108 85.1547L178.401 68.2221C178.019 65.9094 176.078 64.1883 173.78 64.0853L156.724 63.4171L146.511 49.696C145.107 47.8208 142.604 47.2045 140.511 48.2064L125.115 55.5547L109.718 48.18C107.625 47.1789 105.123 47.7952 103.718 49.6705L93.5051 63.3916L76.4749 64.0597C74.1514 64.1627 72.2111 65.8839 71.8534 68.1965L69.1467 85.1292L54.3633 93.7109C52.3464 94.8676 51.4274 97.308 52.1676 99.5177L57.581 115.782L48.4651 130.274C47.2139 132.253 47.5461 134.822 49.2061 136.467L61.5126 148.338L60.1337 165.424C59.9549 167.762 61.4104 169.895 63.6317 170.563L79.9984 175.317L86.6623 191.119C87.5814 193.277 89.8538 194.51 92.1262 194.022L108.825 190.579L122 201.447C122.893 202.167 123.991 202.552 125.089 202.552C126.187 202.552 127.284 202.167 128.179 201.447L141.353 190.579L158.052 194.022C160.324 194.51 162.622 193.277 163.516 191.119L170.181 175.317L186.546 170.563C188.768 169.921 190.249 167.762 190.045 165.424L188.666 148.338L200.972 136.467C202.735 134.848 203.041 132.279 201.815 130.3ZM160.427 106.635L126.213 158.204C124.911 160.131 122.919 161.415 120.927 161.415C118.936 161.415 116.715 160.285 115.31 158.872L90.2115 133.203C88.5012 131.456 88.5012 128.604 90.2115 126.857L96.4162 120.51C98.1265 118.789 100.91 118.789 102.62 120.51L118.961 137.212L145.898 96.5632C147.251 94.5076 150.009 93.9935 152.001 95.3809L159.278 100.417C161.269 101.805 161.78 104.605 160.427 106.635Z" fill="#A5CE3E"/>
</g>
</g>
</g>
</g>
</g>
</g>
<defs>
<clipPath id="clip0_5259_49451">
<rect width="250.258" height="250.258" fill="white"/>
</clipPath>
</defs>
</svg>
