<svg width="24" height="24" viewBox="0 0 24 24" fill="none" xmlns="http://www.w3.org/2000/svg">
<path d="M8.73265 17.5556V15.3333M11.998 17.5556V13.1111M15.2633 17.5556V10.8889M17.4401 22H6.55578C5.97844 22 5.42474 21.7659 5.0165 21.3491C4.60825 20.9324 4.37891 20.3671 4.37891 19.7778V4.22222C4.37891 3.63285 4.60825 3.06762 5.0165 2.65087C5.42474 2.23413 5.97844 2 6.55578 2H12.6358C12.9244 2.00006 13.2012 2.11717 13.4053 2.32556L19.2981 8.34111C19.5022 8.54944 19.6169 8.83201 19.617 9.12667V19.7778C19.617 20.3671 19.3877 20.9324 18.9794 21.3491C18.5712 21.7659 18.0175 22 17.4401 22Z" stroke="#8B8B8B" stroke-width="1.5" stroke-linecap="round" stroke-linejoin="round"/>
</svg>
